<svg id="Layer_1" data-name="Layer 1" xmlns="http://www.w3.org/2000/svg" width="1920" height="1080" viewBox="0 0 1920 1080"><defs><style>.cls-1{fill:#788ba2;}.cls-2{fill:#a6b1c1;}.cls-3{fill:#4c98d6;}.cls-4{fill:#89686b;}.cls-5{fill:#dbb2a7;}.cls-6{fill:#ceb984;}.cls-7{fill:#ffd3c5;}.cls-8{fill:#020000;}.cls-9{fill:#020202;}.cls-10{fill:#aa1729;}.cls-11{fill:#f9f9f9;}.cls-12{fill:#b90f00;}.cls-13{fill:#2b7cb2;}.cls-14{fill:#634b4c;}.cls-15{fill:#5f4343;}.cls-16{fill:#6b6a6a;}.cls-17{fill:#ff7945;}.cls-18{fill:#a01710;}.cls-19{fill:#acce76;}.cls-20{fill:#89a052;}</style></defs><title>Titelskærm copy</title><path class="cls-1" d="M205.68,410.4v90.68q0,29.66-13.47,50.42T159.8,572.25A32.37,32.37,0,0,1,142.19,567q-8.24-5.24-14.79-15.38a92.37,92.37,0,0,1-10.22-21.15q-3.65-11-3.65-29.42V410.4q-6.41,0-9.47-4.53T101,394.32q0-7.17,3.06-11.55t10.46-4.37l26.54-.15q7.31,0,10.41,4.44t3.11,11.63q0,7.19-3.11,11.63t-10.41,4.45h-7.3v93.49a43.65,43.65,0,0,0,7.55,25.36q7.55,11,18.2,11A20.19,20.19,0,0,0,172.83,535Q179,529.64,183,519.5a43.66,43.66,0,0,0,2.47-15.61V410.4h-7.3q-7.31,0-10.41-4.45t-3.11-11.63q0-7.17,3.11-11.63t10.41-4.44l26.54.15q7.29,0,10.4,4.37t3.11,11.55q0,7-3.06,11.55T205.68,410.4Z"/><path class="cls-1" d="M397.94,566.48l-35-108.63a10.67,10.67,0,0,1-7.5-5.31,20.61,20.61,0,0,1-2.57-10.61q0-7.19,3.11-11.63t10.41-4.45h18.45q7.31,0,10.41,4.45t3.11,11.63q0,7-3.11,11.47t-9.82,4.45l23.88,73.51L433,457.85q-6.51,0-9.61-4.45t-3.11-11.63q0-7,3.11-11.47t10.4-4.45H452.8q7.2,0,10.31,4.45t3.1,11.63a20.79,20.79,0,0,1-2.66,10.84,10.15,10.15,0,0,1-7.89,5.08L409.29,602.38q7.59,0,10,2.34,4.74,4.83,4.74,13.73,0,7-3.11,11.48t-10.41,4.44h-44.1q-7.31,0-10.41-4.44t-3.11-11.48q0-7.17,3.11-11.62t10.41-4.45H386.5Z"/><path class="cls-1" d="M517.5,514.35v53.22H493.82q-7.29,0-10.4-4.45t-3.11-11.62q0-7,3.16-11.48t10.35-4.45h3.46V397.13h-3.46q-7.29,0-10.4-4.45t-3.11-11.63q0-7,3.11-11.47t10.4-4.45H517.5V473l15.79-20.14q-2.47-6.71-2.47-10.92,0-7.19,3.06-11.63t10.36-4.45h23.08q7.3,0,10.41,4.45t3.11,11.63q0,7-3.11,11.47t-10.41,4.45H561.7l-24.56,31.52,33.05,46.2h5.92q7.29,0,10.4,4.45t3.11,11.63q0,7-3.11,11.47t-10.4,4.45H552.82c-4.87,0-8.33-1.48-10.41-4.45s-3.1-6.84-3.1-11.62a24.12,24.12,0,0,1,3.35-12l-21.41-30Z"/><path class="cls-1" d="M642.39,514.35v53.22H618.71q-7.29,0-10.4-4.45T605.2,551.5q0-7,3.16-11.48t10.35-4.45h3.46V397.13h-3.46q-7.29,0-10.4-4.45t-3.11-11.63q0-7,3.11-11.47t10.4-4.45h23.68V473l15.79-20.14q-2.48-6.71-2.47-10.92,0-7.19,3.06-11.63t10.36-4.45h23.08q7.31,0,10.41,4.45t3.11,11.63q0,7-3.11,11.47t-10.41,4.45h-5.62L662,489.37l33.05,46.2H701q7.29,0,10.4,4.45t3.11,11.63q0,7-3.11,11.47T701,567.57H677.71q-7.31,0-10.41-4.45t-3.11-11.62a24.13,24.13,0,0,1,3.36-12l-21.41-30Z"/><path class="cls-1" d="M918.91,365.13V535.57h24.27q7.29,0,10.41,4.45t3.1,11.63q0,7-3.1,11.47t-10.41,4.45H874.41q-7.3,0-10.41-4.45t-3.1-11.62q0-7,3.1-11.48t10.41-4.45h24.27V397.13H882.4q-7.2,0-10.36-4.45t-3.15-11.63q0-7,3.1-11.47t10.41-4.45Z"/><path class="cls-1" d="M1043.7,425.85V535.57H1068q7.29,0,10.4,4.45t3.11,11.63q0,7-3.11,11.47t-10.4,4.45H999.2c-4.87,0-8.33-1.48-10.41-4.45s-3.1-6.84-3.1-11.62,1-8.51,3.1-11.48,5.54-4.45,10.41-4.45h24.27V457.85h-16.28q-7.2,0-10.36-4.45t-3.15-11.63q0-7,3.1-11.47c2.08-3,5.54-4.45,10.41-4.45Zm-2.77-60.72V399h-24.07V365.13Z"/><path class="cls-1" d="M1180.82,435.37v-9.52h23.68q7.3,0,10.41,4.45t3.11,11.63q0,7-3.11,11.47t-10.41,4.45h-3.45V574.28q0,16.86-4.49,29.42a56.26,56.26,0,0,1-13.77,21.62q-9.27,9.06-20.91,9H1139q-7.31,0-10.41-4.44t-3.11-11.48q0-7.17,3.11-11.62t10.41-4.45h22.3a16.23,16.23,0,0,0,14.4-8q5.13-8,5.13-20.14v-15.6a51.11,51.11,0,0,1-13.66,10.3,32,32,0,0,1-14.26,3.43q-20.62,0-34.53-21.77t-13.91-53.77q0-32.16,13.91-53.93t34.53-21.77a32.1,32.1,0,0,1,14.65,3.51A44.89,44.89,0,0,1,1180.82,435.37Zm-.1,61.34q0-17.64-8.24-30.59t-19.78-13q-11.54,0-19.78,13t-8.24,30.59q0,17.79,8.24,30.67t19.78,12.88q11.55,0,19.78-12.88T1180.72,496.71Z"/><path class="cls-2" d="M706.61,736v35.43h7.3q7.29,0,10.41,4.45t3.1,11.63q0,7-3.1,11.47t-10.41,4.45H683.22q-7.31,0-10.4-4.45t-3.11-11.63q0-7,3.15-11.47t10.36-4.45h3.16V646.24h-3.16q-7.31,0-10.4-4.45t-3.11-11.63q0-7.17,3.11-11.63t10.4-4.45l30.69.16q7.29,0,10.41,4.37c2.07,2.91,3.1,6.77,3.1,11.55s-1,8.66-3.1,11.63-5.55,4.45-10.41,4.45h-7.3v47.45l35.91-48.86a22.63,22.63,0,0,1-4.34-6.71,21.64,21.64,0,0,1-1.19-7.65q0-7.34,3.11-11.86t10.41-4.53l20.62.16q7.29,0,10.41,4.37c2.07,2.91,3.1,6.77,3.1,11.55s-1,8.53-3.1,11.55-5.32,4.53-9.72,4.53l-36.31,50.25q10.17,9.22,19.09,28.1t15.84,46.82h5.42q7.2,0,10.31,4.45t3.11,11.63q0,7-3.06,11.47t-10.36,4.45H757.51q-6.32-23.88-13.81-45.58-6.12-17.62-11.59-25.67A45.23,45.23,0,0,0,719,719.28Z"/><path class="cls-2" d="M915.55,748.78H863.86q2.76,15.76,6.8,21.78t8.49,6q3.35,0,11-4.21,12.43-6.87,16.08-6.87,4.05,0,6.76,4.53t2.71,12.17a18.78,18.78,0,0,1-2.76,10.38q-2.76,4.31-15.49,10.15t-18.55,5.85q-8.77,0-18.55-10.46-2.85,5.63-7.49,5.62t-7.6-5.62a42.56,42.56,0,0,1-10.46,7.81,23.1,23.1,0,0,1-10.56,2.65q-9.16,0-18-7.49t-13.66-20.6a77.76,77.76,0,0,1-4.84-27.16q0-10.62,4-18.26a43.29,43.29,0,0,1,17.56-17.8q11.64-6.56,20.72-6.55a53.46,53.46,0,0,1,12.53,1.87V705.7q0-7.17-2.87-11.62t-7.1-4.45q-3.95,0-15.29,5.15-5.92,2.81-8,2.81-3.94,0-6.81-4.69a21.74,21.74,0,0,1-2.86-11.55q0-7.17,2.91-11.47t13.86-8.27q11-4,16.18-4a20.4,20.4,0,0,1,12.73,4.6q5.91,4.62,11.05,13.82,10.65-18.42,23-18.42a17.87,17.87,0,0,1,11.94,4.68q8.38,7.19,13.77,19.2a131.85,131.85,0,0,1,8.53,27.78,123.27,123.27,0,0,1,2,23.26Zm-73-3.43a30.72,30.72,0,0,0-11.84-2.66A29.32,29.32,0,0,0,814.13,748q-5.91,3.9-5.92,9.83,0,6.09,4.59,12.41t10.7,6.32q3.94,0,8.74-3.74a58.58,58.58,0,0,0,10.31-11.24Zm50.9-28.56q-2.36-13.74-6.8-20.45t-7.8-6.71q-3.26,0-7.64,6.71t-6.86,20.45Z"/><path class="cls-2" d="M973.25,661.69v20q12.74-14.52,20.08-19.36t13.76-4.84q9.87,0,19.14,11.55,6.32,7.82,6.32,15.92a21.38,21.38,0,0,1-3,11.63q-3,4.77-7.25,4.76-3.75,0-7.89-5.93t-7.4-5.93q-4.25,0-12.68,8.43t-21.07,25.28v48.23h28.81q7.31,0,10.41,4.45t3.11,11.63q0,7-3.11,11.47t-10.41,4.45H941q-7.29,0-10.41-4.45t-3.1-11.63q0-7,3.1-11.47T941,771.41h12V693.69h-7.3q-7.31,0-10.41-4.45t-3.11-11.63q0-7,3.11-11.47t10.41-4.45Z"/><path class="cls-2" d="M1112.45,601V771.41h24.27q7.29,0,10.41,4.45t3.1,11.63q0,7-3.1,11.47t-10.41,4.45H1068q-7.31,0-10.4-4.45t-3.11-11.63q0-7,3.11-11.47t10.4-4.45h24.27V633h-16.28q-7.2,0-10.35-4.45t-3.16-11.63q0-7,3.11-11.47t10.4-4.45Z"/><path class="cls-2" d="M1237.24,661.69V771.41h24.27q7.31,0,10.41,4.45t3.1,11.63q0,7-3.1,11.47t-10.41,4.45h-68.77q-7.29,0-10.4-4.45t-3.11-11.63q0-7,3.11-11.47t10.4-4.45H1217V693.69h-16.27q-7.21,0-10.36-4.45t-3.16-11.63q0-7,3.11-11.47t10.41-4.45ZM1234.48,601v33.87H1210.4V601Z"/><path class="cls-2" d="M1374.36,671.21v-9.52H1398q7.31,0,10.41,4.45t3.11,11.63q0,7-3.11,11.47T1398,693.69h-3.45V810.12q0,16.86-4.49,29.42a56.19,56.19,0,0,1-13.76,21.62q-9.28,9-20.92,9.05h-22.89q-7.3,0-10.41-4.45T1319,854.29q0-7.17,3.11-11.63t10.41-4.44h22.3a16.23,16.23,0,0,0,14.4-8q5.13-8,5.13-20.14V794.51a50.79,50.79,0,0,1-13.66,10.31,32,32,0,0,1-14.26,3.43q-20.61,0-34.53-21.77T1298,732.71q0-32.16,13.91-53.93T1346.44,657a32.07,32.07,0,0,1,14.65,3.51A44.73,44.73,0,0,1,1374.36,671.21Zm-.1,61.34q0-17.64-8.23-30.59t-19.79-13q-11.54,0-19.78,13t-8.23,30.59q0,17.79,8.23,30.67t19.78,12.88q11.55,0,19.79-12.88T1374.26,732.55Z"/><path class="cls-2" d="M1456.14,601v68.21a47.06,47.06,0,0,1,12.77-8.82,32.59,32.59,0,0,1,31.72,2.73q8.19,5.63,13.57,17.72t5.37,30.51v60.09q7.71,0,10.07,2.34,4.74,4.85,4.73,13.74,0,7-3,11.47T1521,803.41h-23.09q-7.2,0-10.31-4.45t-3.11-11.63q0-8.73,4.74-13.58,2.46-2.49,10.06-2.34v-57.9q0-12.33-3.55-17.33-4.64-6.7-13.71-6.71a18.49,18.49,0,0,0-11.89,4.14q-5.19,4.14-14,17.87v59.93q7.78,0,10.06,2.34,4.83,4.85,4.83,13.74,0,7-3.1,11.47c-2.08,3-5.54,4.45-10.41,4.45h-23q-7.3,0-10.41-4.45T1421,787.33q0-8.73,4.84-13.58,2.37-2.49,10.06-2.34V633h-3.45q-7.31,0-10.41-4.45t-3.11-11.63q0-7,3.11-11.47t10.41-4.45Z"/><path class="cls-2" d="M1652.65,748.78h-83q3.15,12.5,11.2,20.14t21.75,7.64q11.25,0,29.9-7.64,7.7-3.12,10.65-3.13,4,0,6.81,4.53a21.58,21.58,0,0,1,2.76,11.4,18.49,18.49,0,0,1-3,10.61q-3.94,5.77-19.24,11a90.6,90.6,0,0,1-29.4,5.23q-24.27,0-38.82-21.69t-14.55-53.38q0-33.72,15.73-54.87t36.26-21.15a40,40,0,0,1,22.64,6.87q10.3,6.87,15.34,14.83,7.11,11.55,11.75,28.56a107.58,107.58,0,0,1,3.15,27.47Zm-22.39-32q-4.65-13.74-12.14-20.53a26.74,26.74,0,0,0-35.61,0q-7.5,6.79-12.24,20.53Z"/><path class="cls-2" d="M1773.2,601V771.41h3.45q7.2,0,10.36,4.45t3.16,11.63q0,7-3.11,11.47t-10.41,4.45H1753v-7.8a51.7,51.7,0,0,1-14.46,9.67,38.77,38.77,0,0,1-15.64,3.28q-22.79,0-36.7-20.84t-13.91-51.89q0-32.46,14.6-55.41t35.62-22.95A34.12,34.12,0,0,1,1738,661.3a56.84,56.84,0,0,1,15,11.47V633h-3.46c-4.87,0-8.33-1.48-10.41-4.45s-3.1-6.79-3.1-11.47,1-8.66,3.1-11.63,5.54-4.45,10.41-4.45ZM1753,736.76q0-19.82-8.79-33.55t-21.5-13.74q-12.63,0-21.41,13.74t-8.78,33.09q0,17.64,7.89,29t22.3,11.31q14.3,0,22.29-11.31T1753,736.76Z"/><rect class="cls-3" x="1378.92" y="619.7" width="20.57" height="43.14" rx="7.61"/><rect class="cls-3" x="1402.98" y="610.62" width="5.56" height="18.15" rx="2.06" transform="translate(1399.64 2155.97) rotate(-113.56)"/><rect class="cls-4" x="1373.73" y="653.9" width="5.56" height="18.15" rx="2.06" transform="translate(922.55 -795.87) rotate(47)"/><rect class="cls-4" x="1371.8" y="663.72" width="5.56" height="18.15" rx="2.06" transform="translate(-155.8 681.23) rotate(-26.4)"/><rect class="cls-4" x="1388.97" y="653.77" width="5.56" height="18.15" rx="2.06" transform="translate(1366.77 -878.49) rotate(63.6)"/><rect class="cls-4" x="1384.67" y="663.4" width="5.56" height="18.78" rx="2.06" transform="translate(-117.7 337.85) rotate(-13.32)"/><rect class="cls-3" x="1372.84" y="619.77" width="5.56" height="18.15" rx="2.06" transform="translate(1984.3 2013.5) rotate(-138.3)"/><rect class="cls-3" x="1367.77" y="632.02" width="5.56" height="12.45" rx="2.06" transform="translate(2658.4 1430.2) rotate(-173.38)"/><rect class="cls-3" x="1410.19" y="605.66" width="5.56" height="12.45" rx="2.06" transform="translate(2728.93 1411.34) rotate(-172.14)"/><rect class="cls-5" x="1384.4" y="605.05" width="8.92" height="18.25" rx="3.3"/><ellipse class="cls-6" cx="1388.87" cy="584.56" rx="16.86" ry="11.46"/><rect class="cls-7" x="1377.29" y="581.32" width="22.42" height="35.13" rx="8.29"/><ellipse class="cls-8" cx="1391.94" cy="591.73" rx="1.82" ry="1.45"/><ellipse class="cls-8" cx="1384.82" cy="591.73" rx="1.82" ry="1.45"/><ellipse class="cls-6" cx="1380.35" cy="580.58" rx="4.09" ry="3.26"/><ellipse class="cls-6" cx="1387.47" cy="578.81" rx="6.75" ry="5.38"/><ellipse class="cls-6" cx="1396.09" cy="581.3" rx="4.09" ry="3.26"/><ellipse class="cls-6" cx="1400.18" cy="581.3" rx="3.06" ry="2.44"/><ellipse class="cls-6" cx="1376.95" cy="579.2" rx="4.09" ry="3.26"/><ellipse class="cls-6" cx="1377.79" cy="580.93" rx="5.02" ry="3.62"/><ellipse class="cls-6" cx="1384.82" cy="575.52" rx="4.09" ry="3.26"/><ellipse class="cls-6" cx="1397.12" cy="577.13" rx="4.09" ry="3.26"/><ellipse class="cls-6" cx="1394.07" cy="575.52" rx="4.09" ry="3.26"/><ellipse class="cls-6" cx="1380.73" cy="576.7" rx="4.09" ry="3.26"/><ellipse class="cls-6" cx="1400.62" cy="580.58" rx="5.39" ry="4.3"/><path class="cls-4" d="M1379,651.52a3.43,3.43,0,0,0,0,.56v6.35c0,2.54,2.49,4.61,5.53,4.61H1394c3,0,5.53-2.07,5.53-4.61v-6.35a5.09,5.09,0,0,0,0-.56Z"/><path class="cls-9" d="M1389.75,609.53a3.34,3.34,0,0,1,2.18.77,4,4,0,0,0,2.28-3.93h0a3.66,3.66,0,0,0-.68-1.67l-9.67.8a3.36,3.36,0,0,0-.24,1.75h0a4.57,4.57,0,0,0,3.51,3.55A3.12,3.12,0,0,1,1389.75,609.53Z"/><path class="cls-10" d="M1389.46,611h0a7,7,0,0,0,1.14-.2,5.64,5.64,0,0,0,2-1,10.49,10.49,0,0,0-1.52-.61,11,11,0,0,0-1.55-.37,5.62,5.62,0,0,0-3.74,1.37,6.31,6.31,0,0,0,2.5.78A6.48,6.48,0,0,0,1389.46,611Z"/><path class="cls-11" d="M1391.06,604.91l-1.15.07-.88.1.34,2.62c0,.29.48.5,1,.45l1-.08c.5,0,.89-.32.85-.61l-.35-2.61Z"/><rect class="cls-5" x="1386.57" y="596.07" width="3.86" height="6.1" rx="1.43"/><rect class="cls-7" x="1412.98" y="602.45" width="2.39" height="5.19" rx="0.88" transform="translate(2732.27 1397.88) rotate(-172.14)"/><rect class="cls-7" x="1413.12" y="596.05" width="3.37" height="7.33" rx="1.25" transform="translate(2734.26 1387.35) rotate(-172.14)"/><rect class="cls-5" x="1412.45" y="599.83" width="0.82" height="2.62" rx="0.3" transform="translate(2730.18 1389.94) rotate(-172.14)"/><rect class="cls-7" x="1368.49" y="641.4" width="2.39" height="5.19" rx="0.88" transform="translate(2555.33 1584.74) rotate(-166.75)"/><rect class="cls-7" x="1366.67" y="645.54" width="3.37" height="7.33" rx="1.25" transform="translate(2551.5 1594.72) rotate(-166.75)"/><rect class="cls-5" x="1366.64" y="645.86" width="0.82" height="2.62" rx="0.3" transform="translate(2549.41 1590.4) rotate(-166.75)"/><path class="cls-12" d="M1382.69,680.9c-1.11-2.19-3.3-3.38-5.16-2.69s-2.77,3-2.19,5.42Z"/><path class="cls-12" d="M1393.22,682c-.69-2.36-2.62-3.93-4.58-3.6s-3.28,2.46-3.15,4.92Z"/><path class="cls-13" d="M1388,624.81h.17l.55-1.32.54,1.32h.18a4.47,4.47,0,0,0,4.45-4.46v-.65h-.63c-.69,2.2-1.67,3.17-4.28,3.54l-.32,0a4.69,4.69,0,0,1-4.18-3.56l-.94.08C1383.51,622.23,1385.51,624.81,1388,624.81Z"/><polygon class="cls-14" points="1387.47 651.52 1390.74 651.52 1399.45 651.52 1399.42 652.53 1390.81 652.53 1387.47 652.53 1378.92 652.53 1378.97 651.52 1387.47 651.52"/><path class="cls-15" d="M1389.94,651.52s2.69.12,3.46,1.54-.31.68-.31.68a20.48,20.48,0,0,0-3-1.21c-.47,0-.14-.9-.14-.9Z"/><rect class="cls-16" x="1388.71" y="651.52" width="0.21" height="1.01"/><rect class="cls-16" x="1389.83" y="651.52" width="0.21" height="1.01"/><rect class="cls-16" x="1389.21" y="651.12" width="0.21" height="1.01" transform="translate(737.69 2040.95) rotate(-90)"/><rect class="cls-16" x="1389.21" y="651.92" width="0.21" height="1.01" transform="translate(736.89 2041.75) rotate(-90)"/><path class="cls-7" d="M1377.28,591.56a2.63,2.63,0,0,0-.49,0,3.13,3.13,0,0,0,.5,6.23Z"/><path class="cls-5" d="M1377.28,592.92l-.28,0a1.77,1.77,0,0,0,.29,3.52Z"/><path class="cls-7" d="M1399.68,591.47a2.5,2.5,0,0,1,.47,0,2.91,2.91,0,0,1,2.52,3.27,2.87,2.87,0,0,1-3,2.27Z"/><path class="cls-5" d="M1399.68,592.69l.26,0a1.66,1.66,0,0,1,1.43,1.85,1.63,1.63,0,0,1-1.71,1.29Z"/><path class="cls-17" d="M812.59,406.66l-18-38.28a26.07,26.07,0,0,0,3.92-13.93c0-12.9-8.91-23.36-19.9-23.36s-19.9,10.46-19.9,23.36a26,26,0,0,0,3.91,13.91l-18,38.3Z"/><rect class="cls-5" x="775.41" y="389.33" width="7.57" height="19.38" rx="2.8"/><path class="cls-7" d="M796.3,415.52h0a8.76,8.76,0,0,0-8.77-8.69H772.45c-4.82,0-8.46,2.86-8.46,7.64l3.32,1.21Z"/><rect class="cls-7" x="765.94" y="346.93" width="25.27" height="53" rx="9.35"/><ellipse class="cls-8" cx="782.94" cy="363.71" rx="2.24" ry="1.79"/><ellipse class="cls-8" cx="774.2" cy="363.71" rx="2.24" ry="1.79"/><path class="cls-12" d="M781.57,391.55v-.43a2.79,2.79,0,0,0-5.57,0v.43Z"/><rect class="cls-18" x="777.35" y="389.52" width="2.86" height="5.57" rx="1.06" transform="translate(386.48 1171.08) rotate(-90)"/><polygon class="cls-17" points="787.09 347.3 772.89 332.1 766.54 350.54 787.09 347.3"/><circle class="cls-5" cx="778.78" cy="374.58" r="1.28"/><polygon class="cls-5" points="778.78 371.28 777.54 374.27 780.02 374.27 778.78 371.28"/><path class="cls-7" d="M766,364.74l-.37,0a2.41,2.41,0,0,0,.39,4.8Z"/><path class="cls-5" d="M766,365.79l-.22,0a1.36,1.36,0,0,0,.23,2.71Z"/><path class="cls-7" d="M791.18,364.73a2.31,2.31,0,0,1,.37,0,2.42,2.42,0,0,1-.39,4.81Z"/><path class="cls-5" d="M791.18,365.79h.21a1.37,1.37,0,0,1,1.13,1.56,1.35,1.35,0,0,1-1.35,1.15Z"/><polygon class="cls-19" points="792.61 368.34 791.76 370.76 793.49 370.74 792.61 368.34"/><polygon class="cls-19" points="765.22 368.75 763.63 370.76 765.27 371.31 765.22 368.75"/><polygon class="cls-20" points="768.34 441.21 786.59 441.21 786.19 437.05 795.98 416.25 763.58 412.33 770.77 436.18 768.34 441.21"/><path class="cls-1" d="M294.46,365.13V535.57h24.27q7.31,0,10.41,4.45t3.11,11.63q0,7-3.11,11.47t-10.41,4.45H250q-7.31,0-10.41-4.45t-3.11-11.62q0-7,3.11-11.48T250,535.57h24.27V397.13H258q-7.2,0-10.36-4.45t-3.16-11.63q0-7,3.11-11.47T258,365.13Z"/><rect class="cls-7" x="783.48" y="466.66" width="4.75" height="21.34" rx="1.56" transform="translate(-52.47 99.69) rotate(-7.02)"/><rect class="cls-7" x="768.88" y="462.29" width="4.75" height="21.34" rx="1.56" transform="translate(224.23 -247.66) rotate(21.28)"/><rect class="cls-7" x="768.35" y="477.2" width="4.74" height="15.32" rx="1.56" transform="translate(-139.17 450.32) rotate(-30)"/><polygon class="cls-20" points="789.28 437.59 770.06 437.59 751.6 470.99 807.74 470.99 789.28 437.59"/><path class="cls-1" d="M834.86,512.75H750.45q3.22,12.71,11.4,20.48T784,541q11.44,0,30.41-7.78,7.83-3.18,10.84-3.18,4.11,0,6.93,4.61A21.94,21.94,0,0,1,835,546.25,18.83,18.83,0,0,1,832,557q-4,5.88-19.57,11.2a92.48,92.48,0,0,1-29.91,5.32q-24.69,0-39.49-22.07t-14.81-54.3q0-34.31,16-55.81t36.88-21.51a40.69,40.69,0,0,1,23,7q10.49,7,15.6,15.08,7.23,11.76,11.95,29.06a109.24,109.24,0,0,1,3.21,27.94ZM812.08,480.2q-4.73-14-12.35-20.88a27.2,27.2,0,0,0-36.23,0q-7.62,6.9-12.44,20.88Z"/><rect class="cls-7" x="761.95" y="406.72" width="4.74" height="21.31" rx="1.75" transform="translate(1288.68 1112.68) rotate(-155.66)"/><rect class="cls-7" x="763.97" y="420.9" width="4.73" height="15.3" rx="1.75" transform="translate(1519.69 -22.44) rotate(119.88)"/><rect class="cls-7" x="772.86" y="429.56" width="2.03" height="4.41" rx="0.75" transform="translate(1227.89 -329.27) rotate(91.66)"/><rect class="cls-7" x="777" y="428.87" width="2.86" height="6.23" rx="1.06" transform="translate(1232.81 -333.6) rotate(91.66)"/><rect class="cls-5" x="776.56" y="429.48" width="0.69" height="2.23" rx="0.26" transform="translate(181.48 1089.74) rotate(-76.9)"/><rect class="cls-7" x="795.05" y="405.81" width="4.74" height="21.32" rx="1.75" transform="translate(-94.13 536.72) rotate(-35.26)"/><rect class="cls-7" x="794.43" y="418.9" width="4.73" height="15.31" rx="1.75" transform="translate(876.82 -473.68) rotate(66.92)"/><rect class="cls-7" x="787.92" y="426.66" width="2.03" height="4.41" rx="0.75" transform="translate(1286.79 -318.44) rotate(95.14)"/><rect class="cls-7" x="782.94" y="425.43" width="2.87" height="6.23" rx="1.06" transform="translate(1281.51 -314.25) rotate(95.14)"/><rect class="cls-5" x="785.58" y="426.15" width="0.69" height="2.23" rx="0.26" transform="translate(1417.4 -206.35) rotate(106.37)"/></svg>