<?xml version="1.0" standalone="no"?>
<!DOCTYPE svg PUBLIC "-//W3C//DTD SVG 20010904//EN"
 "http://www.w3.org/TR/2001/REC-SVG-20010904/DTD/svg10.dtd">
<svg version="1.0" xmlns="http://www.w3.org/2000/svg"
 width="700.000000pt" height="700.000000pt" viewBox="0 0 700.000000 700.000000"
 preserveAspectRatio="xMidYMid meet">
<metadata>
Created by potrace 1.11, written by Peter Selinger 2001-2013
</metadata>
<g transform="translate(0.000000,700.000000) scale(0.100000,-0.100000)"
fill="#000000" stroke="none">
<path d="M6045 6773 c-180 -21 -509 -168 -890 -397 -152 -92 -428 -275 -433
-288 -2 -4 -8 -8 -13 -8 -27 0 -364 -265 -465 -366 -40 -39 -143 -131 -231
-205 -87 -73 -216 -183 -288 -243 -71 -61 -141 -121 -155 -132 -41 -35 -133
-115 -167 -145 -29 -26 -32 -27 -38 -10 -3 11 9 47 29 87 57 113 73 222 38
262 -22 25 -63 42 -103 42 -29 0 -39 13 -19 25 14 8 65 112 74 148 33 139 3
201 -98 202 l-43 0 30 48 c60 99 87 208 66 274 -13 42 -71 66 -137 57 -26 -3
-50 -8 -54 -11 -13 -7 -9 7 12 46 39 73 50 138 36 213 -20 107 -171 91 -341
-37 -187 -141 -369 -368 -522 -653 -19 -37 -46 -86 -59 -110 -30 -54 -141
-334 -187 -472 -48 -144 -96 -302 -156 -517 -103 -366 -154 -484 -252 -581
-34 -34 -65 -62 -69 -62 -15 0 -78 -95 -100 -149 -42 -107 -44 -295 -6 -493 7
-38 12 -68 10 -68 -13 0 -201 95 -247 124 -32 21 -106 88 -165 149 -239 250
-291 290 -416 323 -216 58 -547 -93 -641 -293 -40 -83 -37 -154 8 -247 19 -39
40 -87 46 -106 6 -20 25 -52 42 -73 35 -43 78 -121 104 -191 21 -56 50 -75 86
-56 16 9 24 10 27 2 9 -29 121 -197 185 -277 104 -132 217 -254 425 -458 107
-105 148 -164 203 -289 28 -65 72 -157 124 -258 120 -233 461 -590 734 -768
266 -174 518 -246 932 -266 59 -3 76 -9 140 -49 172 -106 314 -115 480 -32
l45 23 27 -44 c43 -72 86 -77 229 -28 38 13 103 28 145 34 93 13 111 23 169
103 50 68 115 132 183 177 51 34 46 37 -49 26 -142 -16 -167 -26 -262 -106
l-53 -44 65 69 c35 39 64 71 65 72 0 1 13 4 28 7 16 3 43 10 61 16 87 29 234
49 326 45 101 -4 161 -20 265 -73 88 -44 134 -53 330 -67 41 -3 148 -14 200
-20 17 -2 71 -6 120 -10 50 -4 106 -8 125 -10 314 -31 648 -26 784 12 19 5 13
11 -44 40 -37 19 -259 158 -256 160 1 2 92 -17 202 -41 195 -43 286 -61 312
-59 37 2 42 4 42 16 0 7 -15 27 -32 44 -30 29 -81 48 -210 78 -195 45 -685
192 -695 208 -3 5 -1 7 4 4 8 -5 272 -74 353 -92 76 -17 252 -51 365 -69 17
-3 71 -12 120 -20 230 -38 432 -53 452 -33 13 14 -35 43 -150 92 -100 43 -183
71 -522 176 -585 182 -1023 339 -1496 538 -42 18 -164 88 -270 156 -107 68
-260 166 -341 217 -81 51 -146 93 -145 94 1 2 52 -17 112 -41 133 -53 261 -91
352 -104 97 -13 359 -9 374 6 23 23 -6 57 -113 136 -56 42 -107 80 -113 84
-39 30 -140 93 -192 120 -18 9 -33 20 -33 24 0 4 29 5 64 2 77 -7 112 1 125
26 15 27 -27 104 -96 175 l-58 59 35 -7 c319 -68 557 -73 672 -15 49 25 49 48
-2 103 -49 52 -144 104 -284 154 l-103 37 156 1 c201 0 290 22 370 89 l31 26
-19 37 c-30 58 -96 110 -190 148 l-56 24 110 -2 c148 -3 208 5 283 39 42 18
49 36 26 71 -21 32 -33 43 -96 83 -27 17 -48 31 -48 32 0 1 48 2 108 2 118 1
186 18 237 59 l30 25 -24 46 c-42 81 -164 162 -339 225 l-72 26 152 -2 c195
-2 306 18 372 68 18 14 18 16 1 45 -19 33 -87 82 -155 111 -25 11 -61 27 -80
35 l-35 16 40 1 c22 1 49 3 60 5 11 2 40 7 65 10 105 15 230 75 230 109 0 20
-67 76 -114 97 -65 28 -211 65 -268 68 -10 1 -18 4 -18 9 0 4 37 7 83 7 159 1
280 23 372 66 62 29 105 73 98 99 -8 31 -82 88 -154 121 l-64 28 40 1 c51 0
184 24 253 45 30 9 70 31 90 50 l37 33 -41 39 c-23 22 -69 49 -110 65 -48 19
-61 28 -44 28 109 6 243 50 299 99 l24 21 -44 43 c-25 23 -71 52 -103 65 -50
19 -87 29 -221 58 -34 7 -109 16 -132 16 -13 0 -20 4 -17 9 3 5 14 9 25 9 46
0 189 44 264 81 96 47 134 88 115 124 -32 60 -171 103 -385 120 -16 2 -37 3
-45 4 -8 1 25 15 73 32 156 51 317 150 317 194 0 16 -50 43 -105 55 -52 12
-231 14 -305 4 -25 -3 -72 -10 -105 -15 -33 -5 -67 -9 -75 -8 -14 0 49 31 94
46 46 15 242 116 294 152 109 74 177 156 149 179 -38 32 -169 35 -299 7 -40
-9 -83 -18 -94 -21 -19 -3 -127 -36 -173 -51 -9 -3 29 25 84 62 209 141 355
277 405 379 17 32 30 65 30 73 0 24 -86 44 -155 36z m-2030 -6074 c-22 -12
-68 -42 -103 -66 -42 -30 -76 -47 -105 -50 l-42 -5 49 50 c45 47 57 53 130 71
106 26 119 25 71 0z"/>
</g>
</svg>
