<svg id="svg3006" xmlns="http://www.w3.org/2000/svg" width="512" height="512" viewBox="0 0 512 512"><defs><style>.cls-1{fill:#864131;}</style></defs><title>fb</title><path class="cls-1" d="M473.21-.27H38.79A38.79,38.79,0,0,0,0,38.52V472.94a38.79,38.79,0,0,0,38.79,38.79H473.21A38.79,38.79,0,0,0,512,472.94V38.52A38.79,38.79,0,0,0,473.21-.27ZM403,189.25H373.32c-23.23,0-27.73,11.05-27.73,27.25v35.74H401l-7.22,56h-48.2V451.83h-57.8V308.22H239.46v-56h48.33V211c0-47.9,29.25-74,72-74a397.44,397.44,0,0,1,43.19,2.2Z"/></svg>