<svg id="svg3006" xmlns="http://www.w3.org/2000/svg" width="512" height="512" viewBox="0 0 512 512"><defs><style>.cls-1{fill:#864131;}</style></defs><title>git</title><path class="cls-1" d="M320.44,248.1c-18.89,1.1-44,6.57-68.94,6.8-21.22.19-42.45-4.69-58.51-5.61-33.94-1.92-46.12,22.25-50.5,53.88s15.12,61.46,54.21,63.67a1027.68,1027.68,0,0,0,118.26,0c39.07-2.22,60.39-32.15,56-63.67S354.38,246.18,320.44,248.1ZM195.58,341.69c-13.29,0-24.05-16.43-24.05-36.68s10.76-36.68,24.05-36.68,24,16.42,24,36.68S208.86,341.69,195.58,341.69Zm119,0c-13.29,0-24.05-16.43-24.05-36.68s10.76-36.69,24.05-36.69,24,16.42,24,36.69S327.91,341.7,314.63,341.7Z"/><path class="cls-1" d="M473.21-.27H38.79A38.79,38.79,0,0,0,0,38.52V472.94a38.79,38.79,0,0,0,38.79,38.79H473.21A38.78,38.78,0,0,0,512,472.94V38.52A38.79,38.79,0,0,0,473.21-.27ZM291.5,387.38h-71C130,387.38,100,334.76,100,269.84a115.22,115.22,0,0,1,25.19-71.92c-12-45.39,5.88-73.29,5.88-73.29,26.64-.32,50.44,15.31,66.73,29.77a123.27,123.27,0,0,1,22.73-2.1h71a123.09,123.09,0,0,1,23.55,2.26c16.28-14.48,40.2-30.23,66.89-29.92l.05.09h0a1.44,1.44,0,0,0,.15.22,0,0,0,0,0,0,0c.13.2.29.52.52.93,0,0,0,0,0,0,.11.19.21.44.37.69l0,0c3.77,7.26,15,33.45,4.47,72.21A115,115,0,0,1,412,269.84C412,334.76,379,387.38,291.5,387.38Z"/></svg>