<svg id="svg3006" xmlns="http://www.w3.org/2000/svg" width="512" height="512" viewBox="0 0 512 512"><defs><style>.cls-1{fill:#864131;}</style></defs><title>ma</title><path class="cls-1" d="M473.21,0H38.79A38.79,38.79,0,0,0,0,38.79V473.21A38.79,38.79,0,0,0,38.79,512H473.21A38.79,38.79,0,0,0,512,473.21V38.79A38.79,38.79,0,0,0,473.21,0ZM101.38,146a26.53,26.53,0,0,1,21-10.3h267.3a26.56,26.56,0,0,1,21,10.3,6.68,6.68,0,0,1-.94,9.22c-44,37.29-121.27,102.88-144,123.36a13.42,13.42,0,0,1-19.4,0c-22.7-20.45-99.95-86-144-123.33A6.67,6.67,0,0,1,101.38,146ZM95.62,334.12V181.5a6.69,6.69,0,0,1,11-5.1c28.83,24.44,66.83,56.73,95.48,81.37a6.68,6.68,0,0,1-.19,10.28c-26.61,21.32-66.73,50.65-95.71,71.5a6.68,6.68,0,0,1-10.58-5.43ZM409.2,367.71a26.81,26.81,0,0,1-19.54,8.58H122.35a26.77,26.77,0,0,1-19.54-8.58,6.67,6.67,0,0,1,1-10c28-20.06,79.62-57.42,110.28-82.3a6.66,6.66,0,0,1,8.6.15c6,5.24,11.08,9.7,14.65,12.91,11,9.95,26.3,9.95,37.31,0,3.58-3.23,8.63-7.67,14.67-12.93a6.7,6.7,0,0,1,8.6-.15c30.76,25,82.3,62.28,110.28,82.3A6.73,6.73,0,0,1,411,362.5,6.66,6.66,0,0,1,409.2,367.71Zm7.19-33.59a6.68,6.68,0,0,1-10.59,5.43c-29-20.85-69.08-50.18-95.7-71.5a6.64,6.64,0,0,1-2.51-5.09,6.73,6.73,0,0,1,2.32-5.19c28.65-24.64,66.64-56.93,95.47-81.37a6.69,6.69,0,0,1,11,5.1Z"/></svg>