<svg id="svg3006" xmlns="http://www.w3.org/2000/svg" width="512" height="512" viewBox="0 0 512 512"><defs><style>.cls-1{fill:#864131;}</style></defs><title>tw</title><path class="cls-1" d="M475.07.73H36.93A36.92,36.92,0,0,0,0,37.66V475.8a36.92,36.92,0,0,0,36.93,36.93H475.07A36.92,36.92,0,0,0,512,475.8V37.66A36.92,36.92,0,0,0,475.07.73ZM372.89,200.33q.17,3.78.16,7.6c0,77.64-59.1,167.18-167.18,167.18h0a166.35,166.35,0,0,1-90.07-26.4,118.72,118.72,0,0,0,87-24.33,58.83,58.83,0,0,1-54.89-40.82,58.25,58.25,0,0,0,26.54-1A58.77,58.77,0,0,1,127.3,225c0-.27,0-.51,0-.75a58.33,58.33,0,0,0,26.62,7.34,58.82,58.82,0,0,1-18.2-78.44A166.84,166.84,0,0,0,256.85,214.5,58.79,58.79,0,0,1,357,160.92a117.75,117.75,0,0,0,37.31-14.26,59,59,0,0,1-25.84,32.5,117.49,117.49,0,0,0,33.75-9.26A119.45,119.45,0,0,1,372.89,200.33Z"/></svg>