<svg id="Layer_1" data-name="Layer 1" xmlns="http://www.w3.org/2000/svg" width="1920" height="1080" viewBox="0 0 1920 1080"><defs><style>.cls-1{fill:#d1d8e0;}.cls-2{fill:#bdccd4;}.cls-3{fill:#acce76;}.cls-4{fill:#ffd3c5;}.cls-5{fill:#dbb2a7;}.cls-6{fill:#ff7945;}.cls-7{fill:#a01710;}.cls-8{fill:#b90f00;}.cls-9{fill:#89a052;}.cls-10{fill:#020000;}.cls-11{fill:#669fdd;}.cls-12{fill:#89686b;}.cls-13{fill:#b71313;}.cls-14{fill:#bcb52a;}.cls-15{fill:#fc8900;}.cls-16{fill:#9863c6;}.cls-17{fill:#97b262;}.cls-18{fill:#ef6c6c;}.cls-19{fill:#e52929;}.cls-20{fill:#b20000;}.cls-21{fill:#f7ecb5;}</style></defs><title>Artboard 36 copy</title><rect class="cls-1" x="6.5" y="6.5" width="1907.94" height="1067"/><path class="cls-2" d="M1907.94,13V1067H13V13H1907.94m13-13H0V1080H1920.94V0Z"/><polygon class="cls-3" points="288.4 778.84 228.9 886.47 347.9 886.47 288.4 778.84"/><rect class="cls-4" x="57.32" y="322.81" width="94.4" height="94.4"/><rect class="cls-5" x="169.24" y="322.81" width="94.4" height="94.4"/><rect class="cls-6" x="57.32" y="554.46" width="94.4" height="94.4"/><rect class="cls-7" x="276.87" y="554.46" width="93.08" height="94.4"/><rect class="cls-8" x="169.89" y="554.46" width="93.08" height="94.4"/><rect class="cls-3" x="57.32" y="443.22" width="94.4" height="94.4"/><rect class="cls-9" x="169.24" y="443.22" width="94.4" height="94.4"/><rect class="cls-3" x="109.01" y="797.37" width="103.63" height="217.36" rx="19.81"/><circle class="cls-3" cx="288.4" cy="962.11" r="53.57"/><path class="cls-6" d="M796.08,651,722.14,494a106.69,106.69,0,0,0,16.09-57.11c0-52.92-36.55-95.82-81.62-95.82S575,384,575,436.87a106.76,106.76,0,0,0,16,57L517.05,651Z"/><rect class="cls-5" x="643.59" y="579.91" width="31.03" height="79.5" rx="6.8"/><path class="cls-4" d="M729.28,687.33h0a35.91,35.91,0,0,0-36-35.64H631.48c-19.78,0-34.71,11.75-34.71,31.35L610.38,688Z"/><rect class="cls-4" x="604.75" y="406.02" width="103.63" height="217.36" rx="19.81"/><rect class="cls-4" x="681.26" y="911" width="19.44" height="87.41" rx="6.91"/><rect class="cls-4" x="681.28" y="975.38" width="19.4" height="62.75" rx="4.3"/><rect class="cls-4" x="633.87" y="911" width="19.44" height="87.41" rx="6.91"/><rect class="cls-4" x="633.89" y="975.38" width="19.4" height="62.75" rx="4.3"/><polygon class="cls-9" points="780.63 924.56 696.75 772.81 729.28 684.31 595.52 679.91 633.43 774.78 550.63 924.56 780.63 924.56"/><ellipse class="cls-10" cx="674.5" cy="474.85" rx="9.19" ry="7.32"/><ellipse class="cls-10" cx="638.62" cy="474.85" rx="9.19" ry="7.32"/><rect class="cls-4" x="588.41" y="651.26" width="19.44" height="87.41" rx="6.91" transform="translate(856.66 1574.67) rotate(-155.66)"/><rect class="cls-4" x="589.68" y="715.64" width="19.4" height="62.75" rx="6.77" transform="translate(1534.45 954.26) rotate(141.24)"/><rect class="cls-4" x="619.19" y="761.52" width="8.32" height="18.1" rx="2.66" transform="translate(1576.32 498.22) rotate(113.02)"/><rect class="cls-4" x="634.58" y="765.45" width="11.75" height="25.56" rx="2.66" transform="translate(1607.17 493.13) rotate(113.02)"/><rect class="cls-5" x="635.28" y="766.06" width="2.84" height="9.14" rx="1.01" transform="translate(-358.96 859.62) rotate(-55.54)"/><rect class="cls-4" x="715.81" y="651.32" width="19.44" height="87.41" rx="6.91" transform="translate(-221.97 360.81) rotate(-24.34)"/><rect class="cls-4" x="719.4" y="714.86" width="19.4" height="62.75" rx="6.77" transform="translate(425.69 -251.96) rotate(27.43)"/><rect class="cls-4" x="706.07" y="764.99" width="8.32" height="18.1" rx="2.66" transform="matrix(0.56, 0.83, -0.83, 0.56, 948.45, -249.1)"/><rect class="cls-4" x="689.09" y="772.13" width="11.75" height="25.56" rx="2.66" transform="translate(950.77 -231.76) rotate(55.65)"/><rect class="cls-5" x="695.1" y="772.22" width="2.84" height="9.14" rx="1.01" transform="translate(1137.36 -168.84) rotate(66.88)"/><path class="cls-8" d="M668.85,589v-1.77a11.42,11.42,0,0,0-22.84,0V589Z"/><rect class="cls-7" x="651.56" y="580.7" width="11.73" height="22.84" rx="3.87" transform="translate(65.31 1249.55) rotate(-90)"/><polygon class="cls-6" points="691.51 407.55 633.26 345.22 607.23 420.82 691.51 407.55"/><path class="cls-3" d="M656,1038.13a12.43,12.43,0,0,0-24.86-.38Z"/><path class="cls-3" d="M703.41,1038.13a12.43,12.43,0,0,0-24.86-.38Z"/><circle class="cls-5" cx="657.43" cy="519.43" r="5.23"/><polygon class="cls-5" points="657.43 505.9 652.34 518.14 662.52 518.14 657.43 505.9"/><path class="cls-4" d="M604.82,479.08a9.91,9.91,0,1,0,.08,19.81Z"/><path class="cls-5" d="M604.84,483.39a5.3,5.3,0,0,0-.88.07,5.59,5.59,0,0,0,.92,11.11Z"/><path class="cls-4" d="M708.29,479.05a9.91,9.91,0,1,1-.09,19.82Z"/><path class="cls-5" d="M708.27,483.37a5.09,5.09,0,0,1,.87.06,5.59,5.59,0,0,1-.92,11.12Z"/><polygon class="cls-3" points="714.14 493.83 710.67 503.75 717.76 503.7 714.14 493.83"/><polygon class="cls-3" points="601.8 495.51 595.3 503.76 602.02 506.02 601.8 495.51"/><path class="cls-6" d="M1316.2,651.29l-73.94-157a106.69,106.69,0,0,0,16.09-57.11c0-52.92-36.55-95.82-81.62-95.82s-81.63,42.9-81.63,95.82a106.76,106.76,0,0,0,16,57l-74,157.09Z"/><rect class="cls-5" x="1163.71" y="580.22" width="31.03" height="79.5" rx="6.8"/><path class="cls-4" d="M1249.4,687.63h0a35.91,35.91,0,0,0-36-35.64H1151.6c-19.78,0-34.71,11.75-34.71,31.35l13.61,4.94Z"/><rect class="cls-4" x="1124.87" y="406.32" width="103.63" height="217.36" rx="19.81"/><rect class="cls-4" x="1201.38" y="911.3" width="19.44" height="87.41" rx="6.91"/><rect class="cls-4" x="1201.4" y="975.68" width="19.4" height="62.75" rx="4.3"/><rect class="cls-4" x="1153.99" y="911.3" width="19.44" height="87.41" rx="6.91"/><rect class="cls-4" x="1154.01" y="975.68" width="19.4" height="62.75" rx="4.3"/><polygon class="cls-9" points="1300.75 924.86 1216.87 773.11 1249.4 684.61 1115.64 680.21 1153.55 775.08 1070.75 924.86 1300.75 924.86"/><ellipse class="cls-10" cx="1194.62" cy="475.15" rx="9.19" ry="7.32"/><ellipse class="cls-10" cx="1158.74" cy="475.15" rx="9.19" ry="7.32"/><rect class="cls-4" x="1108.53" y="651.56" width="19.44" height="87.41" rx="6.91" transform="translate(1850.54 1789.61) rotate(-155.66)"/><rect class="cls-4" x="1067.76" y="694.63" width="19.4" height="62.75" rx="6.77" transform="translate(236.15 1716.06) rotate(-83.62)"/><rect class="cls-4" x="1039.7" y="717.16" width="8.32" height="18.1" rx="2.66" transform="translate(757.97 1965.28) rotate(-111.83)"/><rect class="cls-4" x="1020.46" y="720.07" width="11.75" height="25.56" rx="2.66" transform="translate(727.77 1958.11) rotate(-111.83)"/><rect class="cls-5" x="1032.93" y="731.02" width="2.84" height="9.14" rx="1.01" transform="translate(1571.17 -414.55) rotate(79.6)"/><rect class="cls-4" x="1235.93" y="651.62" width="19.44" height="87.41" rx="6.91" transform="translate(-175.86 575.2) rotate(-24.34)"/><rect class="cls-4" x="1239.52" y="715.16" width="19.4" height="62.75" rx="6.77" transform="translate(484.29 -491.51) rotate(27.43)"/><rect class="cls-4" x="1226.19" y="765.29" width="8.32" height="18.1" rx="2.66" transform="translate(1175.31 -678.36) rotate(55.65)"/><rect class="cls-4" x="1209.21" y="772.43" width="11.75" height="25.56" rx="2.66" transform="translate(1177.63 -661.02) rotate(55.65)"/><rect class="cls-5" x="1215.22" y="772.52" width="2.84" height="9.14" rx="1.01" transform="translate(1453.49 -646.99) rotate(66.88)"/><path class="cls-8" d="M1189,589.34v-1.77a11.42,11.42,0,0,0-22.84,0v1.77Z"/><rect class="cls-7" x="1171.68" y="581" width="11.73" height="22.84" rx="3.87" transform="translate(585.13 1769.97) rotate(-90)"/><polygon class="cls-6" points="1211.63 407.85 1153.38 345.52 1127.35 421.12 1211.63 407.85"/><path class="cls-3" d="M1176.14,1038.43a12.43,12.43,0,0,0-24.86-.38Z"/><path class="cls-3" d="M1223.53,1038.43a12.43,12.43,0,0,0-24.86-.38Z"/><circle class="cls-5" cx="1177.55" cy="519.73" r="5.23"/><polygon class="cls-5" points="1177.55 506.21 1172.46 518.44 1182.64 518.44 1177.55 506.21"/><path class="cls-4" d="M1124.94,479.38a9.91,9.91,0,1,0,.08,19.81Z"/><path class="cls-5" d="M1125,483.69a5.3,5.3,0,0,0-.88.07,5.59,5.59,0,0,0,.92,11.11Z"/><path class="cls-4" d="M1228.41,479.35a9.91,9.91,0,1,1-.09,19.82Z"/><path class="cls-5" d="M1228.39,483.67a6.36,6.36,0,0,1,.87.06,5.59,5.59,0,0,1-.92,11.12Z"/><polygon class="cls-3" points="1234.26 494.13 1230.79 504.05 1237.88 504 1234.26 494.13"/><polygon class="cls-3" points="1121.92 495.81 1115.42 504.07 1122.14 506.32 1121.92 495.81"/><polygon class="cls-11" points="964.91 852.27 945.6 874.13 973.15 880.25 964.91 852.27"/><path class="cls-12" d="M965.36,854.33c-.14.84-1.91.43-1.73-.39l5.2-23.41s1.33-.11,1.74.39S965.51,853.49,965.36,854.33Z"/><polygon class="cls-13" points="982.91 857.43 963.6 879.29 991.15 885.41 982.91 857.43"/><path class="cls-12" d="M983.36,859.49c-.14.84-1.91.43-1.73-.39l5.2-23.41s1.33-.11,1.74.39S983.5,858.65,983.36,859.49Z"/><polygon class="cls-14" points="995.08 860.44 972.31 878.65 998.39 889.41 995.08 860.44"/><path class="cls-12" d="M995.18,862.54c-.29.81-2,.1-1.65-.68l9.14-22.17s1.34.12,1.65.68S995.46,861.74,995.18,862.54Z"/><polygon class="cls-11" points="945.7 832.65 918.6 843.42 940.41 861.33 945.7 832.65"/><path class="cls-12" d="M945.18,834.69c-.51.69-1.91-.48-1.38-1.13L959,815s1.24.5,1.38,1.13S945.68,834,945.18,834.69Z"/><polygon class="cls-13" points="958.62 845.03 931.52 855.81 953.32 873.71 958.62 845.03"/><path class="cls-12" d="M958.09,847.08c-.5.68-1.9-.49-1.37-1.13l15.22-18.54s1.23.51,1.37,1.13S958.6,846.39,958.09,847.08Z"/><polygon class="cls-11" points="988.85 863.27 966.71 882.25 993.15 892.11 988.85 863.27"/><path class="cls-12" d="M989,865.37c-.25.81-2,.16-1.66-.62l8.37-22.48s1.34.08,1.67.63S989.27,864.56,989,865.37Z"/><polygon class="cls-14" points="948.44 841.97 921.34 852.74 943.15 870.65 948.44 841.97"/><path class="cls-12" d="M947.92,844c-.51.68-1.91-.49-1.38-1.13l15.22-18.54s1.24.51,1.38,1.13S948.42,843.32,947.92,844Z"/><polygon class="cls-15" points="990.02 858.49 964.41 872.45 988.22 887.6 990.02 858.49"/><path class="cls-12" d="M989.75,860.58c-.42.74-2-.25-1.5-1l12.87-20.23s1.29.35,1.51,1S990.17,859.84,989.75,860.58Z"/><polygon class="cls-16" points="976.31 850 950.71 863.96 974.51 879.11 976.31 850"/><path class="cls-12" d="M976,852.09c-.42.74-1.95-.25-1.5-1l12.87-20.23s1.29.35,1.51,1S976.46,851.35,976,852.09Z"/><polygon class="cls-15" points="961.1 841.52 931.96 842.84 946.72 866.89 961.1 841.52"/><path class="cls-12" d="M959.93,843.28c-.7.48-1.64-1.08-.93-1.52l20.45-12.54s1,.88.93,1.52S960.63,842.8,959.93,843.28Z"/><polygon class="cls-16" points="1001.94 870.79 983.39 893.29 1011.13 898.47 1001.94 870.79"/><path class="cls-12" d="M1002.47,872.83c-.11.85-1.9.5-1.75-.32l4.4-23.58s1.33-.15,1.75.33S1002.58,872,1002.47,872.83Z"/><polygon class="cls-3" points="1031.26 757.68 939.98 827.75 1009.19 870.62 1031.26 757.68"/><polygon class="cls-17" points="1031.26 757.68 978.14 851.4 1008.95 870.49 1031.26 757.68"/><path class="cls-6" d="M1713,636.41l-88.09-149.53a106.67,106.67,0,0,0,10.75-58.35c-4.87-52.7-45.21-92-90.1-87.89s-77.32,50.24-72.44,102.93a106.8,106.8,0,0,0,21.22,55.32l-59.18,163.23Z"/><rect class="cls-5" x="1558.16" y="578.09" width="31.03" height="79.5" rx="6.8" transform="translate(-50.24 147.66) rotate(-5.29)"/><path class="cls-4" d="M1649.78,678.75h0a35.89,35.89,0,0,0-39.09-32.17l-61.57,5.69c-19.7,1.83-33.48,14.9-31.68,34.42l14,3.66Z"/><rect class="cls-4" x="1509.65" y="404.88" width="103.63" height="217.36" rx="19.81" transform="translate(-40.68 146.09) rotate(-5.29)"/><rect class="cls-4" x="1659.28" y="844" width="19.44" height="87.41" rx="6.91" transform="translate(-209.8 1096.7) rotate(-34.35)"/><rect class="cls-4" x="1678.49" y="914.2" width="19.4" height="62.75" rx="4.3"/><rect class="cls-4" x="1565.1" y="911.3" width="19.44" height="87.41" rx="6.91"/><rect class="cls-4" x="1565.12" y="975.68" width="19.4" height="62.75" rx="4.3"/><polygon class="cls-9" points="1729.25 886.81 1625.27 766.86 1649.51 675.74 1515.91 683.69 1562.41 774.65 1530.81 927.69 1729.25 886.81"/><ellipse class="cls-10" cx="1575.66" cy="472.22" rx="9.19" ry="7.32" transform="matrix(1, -0.09, 0.09, 1, -36.81, 147.22)"/><ellipse class="cls-10" cx="1539.93" cy="475.52" rx="9.19" ry="7.32" transform="matrix(1, -0.09, 0.09, 1, -37.27, 143.94)"/><rect class="cls-4" x="1510.18" y="654.73" width="19.44" height="87.41" rx="6.91" transform="translate(2728.54 1854.75) rotate(-160.95)"/><rect class="cls-4" x="1524.86" y="704.21" width="19.4" height="62.75" rx="6.77" transform="translate(2588.83 -600.25) rotate(102.67)"/><rect class="cls-4" x="1563.82" y="730.01" width="8.32" height="18.1" rx="2.66" transform="translate(1859.73 -969.64) rotate(74.45)"/><rect class="cls-4" x="1580.25" y="721.61" width="11.75" height="25.56" rx="2.66" transform="translate(1868.51 -990.54) rotate(74.45)"/><rect class="cls-5" x="1577.03" y="726.22" width="2.84" height="9.14" rx="1.01" transform="translate(962.75 2357.58) rotate(-94.11)"/><path class="cls-4" d="M1631.36,670.38h0a9.76,9.76,0,0,1-3.65-13.27l33.6-59.15a9.76,9.76,0,0,1,13.26-3.65h0a9.78,9.78,0,0,1,3.64,13.27l-33.6,59.16A9.73,9.73,0,0,1,1631.36,670.38Z"/><rect class="cls-4" x="1651.53" y="550.21" width="19.4" height="62.81" rx="6.77" transform="translate(-96.67 669.71) rotate(-22.16)"/><path class="cls-4" d="M1652.24,557.62l-.53.64a3.74,3.74,0,0,1-5.27.5l-8.17-6.79a3.74,3.74,0,0,1-.5-5.27l.54-.65a3.73,3.73,0,0,1,5.26-.49l8.18,6.78A3.75,3.75,0,0,1,1652.24,557.62Z"/><path class="cls-4" d="M1642,546.43l-2.72,3.29a3.74,3.74,0,0,1-5.27.49l-13.91-11.54a3.75,3.75,0,0,1-.5-5.28l2.72-3.29a3.74,3.74,0,0,1,5.27-.49l13.92,11.54A3.76,3.76,0,0,1,1642,546.43Z"/><path class="cls-5" d="M1635.63,550.33h0a1.42,1.42,0,0,1-1.93.57l-5.53-3a1.43,1.43,0,0,1-.58-1.93h0a1.43,1.43,0,0,1,1.93-.58l5.54,3A1.43,1.43,0,0,1,1635.63,550.33Z"/><path class="cls-8" d="M1580.56,586.45l-.17-1.77a11.42,11.42,0,0,0-22.74,2.1l.16,1.77Z"/><rect class="cls-7" x="1563.6" y="579.14" width="11.73" height="22.84" rx="3.87" transform="translate(1126.06 2207.78) rotate(-95.29)"/><polygon class="cls-6" points="1575.12 400.25 1498.05 363.66 1501.61 443.54 1575.12 400.25"/><path class="cls-3" d="M1587.25,1038.43a12.43,12.43,0,0,0-24.86-.38Z"/><path class="cls-3" d="M1703.35,977.31a12.43,12.43,0,0,0-24.86-.39Z"/><circle class="cls-5" cx="1562.77" cy="518.18" r="5.23"/><polygon class="cls-5" points="1561.52 504.72 1557.58 517.37 1567.72 516.43 1561.52 504.72"/><path class="cls-4" d="M1506.66,482.85a10.16,10.16,0,0,0-1.51.26,9.91,9.91,0,0,0,3.42,19.46Z"/><path class="cls-5" d="M1507.08,487.15a5,5,0,0,0-.86.14,5.59,5.59,0,0,0,1.94,11Z"/><path class="cls-4" d="M1609.69,473.29a9.74,9.74,0,0,1,1.53,0,9.91,9.91,0,0,1,.21,19.76Z"/><path class="cls-5" d="M1610.07,477.59a5.06,5.06,0,0,1,.87,0,5.6,5.6,0,0,1,.11,11.16Z"/><polygon class="cls-3" points="1616.88 487.47 1614.34 497.67 1621.39 496.96 1616.88 487.47"/><polygon class="cls-3" points="1505.18 499.49 1499.46 508.31 1506.36 509.94 1505.18 499.49"/><rect class="cls-18" x="1674.44" y="976.82" width="84.14" height="64.74"/><rect class="cls-17" x="1711.47" y="976.82" width="12.96" height="64.74"/><path class="cls-19" d="M1694.69,988.37s-7.72,1.84-9-4.78,3.46-7.21,3.46-7.21,2.72-1.84,3.24-4.12.73-8.46,1.47-9.93,1.1-4.34,5-2.35a53.64,53.64,0,0,1,10.23,6.91c1.47,1.47,5,4.41,5,4.41l2.57,1.25a3.47,3.47,0,0,0,2.43,0,27,27,0,0,0,5-3.82,86.27,86.27,0,0,1,9.71-7.36c1.55-.73,6.33-3.67,7.21-.51s.81,4.34,1.18,8.31,1.36,4.92,4.12,7.14c1.09.88,3.33,1.25,3.11,6.18,0,0,.2,4.48-3.26,5.44s-6.25.72-12.73-2.52-2.86-1.45-7.79-3.81l-6.33-3-1.58-.37h-1s-7.87,3.28-9.57,4.69S1697.49,987.49,1694.69,988.37Z"/><path class="cls-20" d="M1712.49,978.22l-11.25,6.4a37.66,37.66,0,0,1-8.83,2.94,3.4,3.4,0,0,1-4-3.16,4.53,4.53,0,0,1,3-3.39,83.57,83.57,0,0,1,8.31-1.83C1701.53,979,1712.49,978.22,1712.49,978.22Z"/><path class="cls-20" d="M1723.16,978.22l11.25,6.4a37.66,37.66,0,0,0,8.83,2.94,3.41,3.41,0,0,0,4-3.16,4.56,4.56,0,0,0-3-3.39,83.57,83.57,0,0,0-8.31-1.83C1734.12,979,1723.16,978.22,1723.16,978.22Z"/><path class="cls-20" d="M1713.93,979.32l.11-8s.48-2.09,1.76-1.21,1.88,1.36,1.88,1.36l2.21-1.58a1.31,1.31,0,0,1,1.47,1.36c0,1.51,0,8.09,0,8.09h-1.66l-1.87-1.28-2.39,1.1Z"/><polygon class="cls-19" points="1717.94 974.84 1735.08 1011.87 1736.81 1003.45 1744.53 1002.6 1718.12 974.84 1717.94 974.84"/><polygon class="cls-19" points="1717.65 974.93 1700.51 1011.97 1698.78 1003.54 1691.06 1002.7 1717.47 974.93 1717.65 974.93"/><path class="cls-21" d="M1706.25,970.12l10.52,5.67a2.75,2.75,0,0,0,3.72-1.11l2.23-4.15a2.74,2.74,0,0,0-1.11-3.71l-10.53-5.67a2.75,2.75,0,0,0-3.72,1.11l-2.23,4.14A2.76,2.76,0,0,0,1706.25,970.12Zm12.38,4.59a.39.39,0,0,1-.37.69.39.39,0,0,1,.37-.69Z"/><line x1="1715.75" y1="970.29" x2="1709.07" y2="966.69"/><line x1="1717.31" y1="967.38" x2="1710.63" y2="963.78"/><line x1="1717.46" y1="967.46" x2="1710.63" y2="963.78"/><path d="M1717.89,973l-.67-.36.07-.14.51.28.23-.41-.48-.26.08-.13.47.25.3-.56.16.08Z"/><path d="M1717.38,971.9l-.14.29-.14-.08.09-.18h0a.3.3,0,0,1-.35.06l0,0,.09-.15.05,0a.26.26,0,0,0,.33-.09l0-.07.26-.48.16.09Z"/><path d="M1716.62,970.7l0,.12h0a.43.43,0,0,1,.35,0,.29.29,0,0,1,.13.41c-.11.22-.37.23-.72,0v0a.21.21,0,0,0,.1.32.51.51,0,0,0,.27.06l0,.13a.72.72,0,0,1-.33-.08.36.36,0,0,1-.15-.55l.18-.34a2.24,2.24,0,0,0,.11-.22Zm-.22.47c.18.1.4.18.49,0a.17.17,0,0,0-.07-.24.25.25,0,0,0-.3,0l0,0Z"/><path d="M1715.86,971.25a.12.12,0,0,1-.17.06.13.13,0,0,1,0-.17.13.13,0,0,1,.18-.06A.12.12,0,0,1,1715.86,971.25Zm.36-.65a.13.13,0,0,1-.18.06.13.13,0,0,1,0-.18.12.12,0,0,1,.17-.05A.13.13,0,0,1,1716.22,970.6Z"/><path d="M1714.64,970.14l.34-.33.17.09-1.1,1-.19-.1.24-1.48.18.09-.08.47Zm-.48-.1-.07.43a2,2,0,0,1-.06.26h0l.18-.19.32-.3Z"/><path d="M1713.58,969.9a2.72,2.72,0,0,0-.12.25l-.15-.08.07-.15h0a.36.36,0,0,1-.39,0c-.12-.06-.28-.24-.11-.55l.29-.53.16.08-.28.52c-.07.15-.09.3.07.38a.26.26,0,0,0,.31-.05l0-.07.29-.54.16.09Z"/><path d="M1712.09,969.75l.14-.26-.23-.13.07-.12.23.13.26-.49c.06-.11.06-.19,0-.24l-.1,0,.06-.12a.47.47,0,0,1,.16,0,.31.31,0,0,1,.14.16.37.37,0,0,1-.07.27l-.26.49.14.08-.07.12-.14-.07-.11.21Z"/><path d="M1711.25,968.39a.5.5,0,0,1,.71-.23.49.49,0,0,1,.18.69.5.5,0,0,1-.7.24A.49.49,0,0,1,1711.25,968.39Zm.72.38a.34.34,0,0,0-.09-.49c-.15-.09-.35,0-.46.2a.32.32,0,1,0,.55.29Z"/><path d="M1710.94,968.48a1.87,1.87,0,0,0-.12.25l-.15-.08.07-.15h0a.36.36,0,0,1-.39,0c-.12-.06-.27-.24-.11-.55l.29-.53.16.08-.28.52c-.07.15-.08.29.07.38a.27.27,0,0,0,.31,0,.18.18,0,0,0,0-.07l.29-.54.16.09Z"/><path d="M1719.22,970l.39.2-.08.14-.92-.5.07-.13.38.2.6-1.11.16.09Z"/><path d="M1718.37,969.54a.11.11,0,1,1,.2.1.12.12,0,0,1-.16.05A.1.1,0,0,1,1718.37,969.54Zm.8-1.06-.48.9-.17-.09.49-.89Z"/><path d="M1718,969.57l-.17-.09.71-1.32.17.09Z"/><path d="M1717.93,968.78a.11.11,0,0,1-.17.06.13.13,0,0,1,0-.17.13.13,0,0,1,.18-.06A.12.12,0,0,1,1717.93,968.78Zm.36-.65a.13.13,0,0,1-.18.06.13.13,0,0,1,0-.18.12.12,0,0,1,.17,0A.13.13,0,0,1,1718.29,968.13Z"/><path d="M1715.8,968.28l-.16-.08.45-.84c.18-.33.4-.35.62-.23a.61.61,0,0,1,.15.12l-.09.12a.49.49,0,0,0-.13-.1c-.14-.07-.26,0-.39.19Z"/><path d="M1715,966.82a.49.49,0,0,1,.7-.23.49.49,0,0,1,.18.69.5.5,0,0,1-.7.24A.48.48,0,0,1,1715,966.82Zm.71.38c.11-.2.08-.41-.08-.49s-.35,0-.46.2a.32.32,0,1,0,.54.29Z"/><path d="M1715,966.44a.44.44,0,0,0-.18-.18c-.12-.07-.21,0-.25,0s0,.14.08.25.16.27.1.38a.31.31,0,0,1-.45.1.47.47,0,0,1-.19-.18l.1-.09a.59.59,0,0,0,.16.15.16.16,0,0,0,.22,0c0-.08,0-.14-.09-.25a.32.32,0,0,1-.09-.4c.08-.15.26-.2.48-.08a.6.6,0,0,1,.22.19Z"/><path d="M1714,966.23a.32.32,0,0,0-.14-.47.53.53,0,0,0-.28-.09l0-.13a.69.69,0,0,1,.33.1.48.48,0,0,1,.2.69.51.51,0,0,1-.69.26.43.43,0,0,1-.14-.62l0-.08Zm-.54-.14a.27.27,0,0,0,.08.39.3.3,0,0,0,.39-.13Z"/><path d="M1713.36,965.35l-.42.78.13.07-.07.12-.12-.07,0,0a.4.4,0,0,1-.6.18.59.59,0,0,1-.2-.18l.12-.1a.34.34,0,0,0,.16.15c.17.1.29,0,.36-.14l0,0-.52-.29.48-.89.16.08-.42.78.36.19.42-.77Z"/><path d="M1712.06,965.5l-.13.24-.14-.08.07-.15h0a.37.37,0,0,1-.49-.54l.28-.54.17.09-.28.51c-.08.15-.09.3.06.38a.25.25,0,0,0,.31,0,.13.13,0,0,0,0-.07l.29-.54.17.09Z"/><path d="M1711.06,964.66a.32.32,0,0,0-.14-.48.71.71,0,0,0-.27-.09l0-.13a.85.85,0,0,1,.32.11.47.47,0,0,1,.2.69.49.49,0,0,1-.68.25.43.43,0,0,1-.14-.62.21.21,0,0,1,0-.07Zm-.54-.14a.26.26,0,0,0,.09.38.3.3,0,0,0,.39-.13Z"/><path d="M73.24,89.28V104h10.3c2.42,0,4.14.47,5.18,1.4a4.69,4.69,0,0,1,1.54,3.66,4.62,4.62,0,0,1-1.54,3.6c-1,.94-2.76,1.4-5.18,1.4H61.61c-2.42,0-4.15-.46-5.18-1.4A4.69,4.69,0,0,1,54.89,109a4.6,4.6,0,0,1,1.57-3.61Q58,104,61.61,104h1.57V64.65H61.61q-3.63,0-5.18-1.4a5.11,5.11,0,0,1,0-7.31q1.55-1.39,5.18-1.4l47.34.05V69.94q0,3.59-1.39,5.13a5.07,5.07,0,0,1-7.27,0c-.93-1-1.39-2.73-1.39-5.16V64.65H73.24V79.22h8.83c0-2.62.24-4.3.73-5.06a4.84,4.84,0,0,1,4.32-2.4,4.67,4.67,0,0,1,3.61,1.55q1.39,1.55,1.4,5.17V90.06q0,3.63-1.4,5.18a4.71,4.71,0,0,1-3.66,1.54,4.8,4.8,0,0,1-4.27-2.4c-.49-.75-.73-2.46-.73-5.1Z"/><path d="M147.22,69.5V104h12.06c2.43,0,4.15.47,5.18,1.4a4.7,4.7,0,0,1,1.55,3.66,4.63,4.63,0,0,1-1.55,3.6c-1,.94-2.75,1.4-5.18,1.4H125.09c-2.42,0-4.15-.46-5.18-1.4a5,5,0,0,1,0-7.26q1.55-1.4,5.18-1.4h12.07V79.56h-8.1c-2.39,0-4.1-.47-5.15-1.4a5,5,0,0,1,0-7.26q1.55-1.4,5.17-1.4Zm-1.38-19.08V61.06h-12V50.42Z"/><path d="M229.59,96.88H188.32a12.93,12.93,0,0,0,5.57,6.33q4,2.4,10.82,2.4a62.77,62.77,0,0,0,14.87-2.4,25.87,25.87,0,0,1,5.3-1,4.51,4.51,0,0,1,3.38,1.42,4.93,4.93,0,0,1,1.37,3.58,4.41,4.41,0,0,1-1.47,3.34q-2,1.82-9.56,3.46A69.63,69.63,0,0,1,204,115.67q-12.06,0-19.3-6.82a22.13,22.13,0,0,1-7.24-16.78,21.56,21.56,0,0,1,7.83-17.24,27,27,0,0,1,18-6.65,28.72,28.72,0,0,1,11.26,2.16A23.93,23.93,0,0,1,222.18,75,29.49,29.49,0,0,1,228,84a22.19,22.19,0,0,1,1.57,8.63ZM218.45,86.82a15.69,15.69,0,0,0-6-6.45,19.47,19.47,0,0,0-17.71,0,16,16,0,0,0-6.08,6.45Z"/><path d="M258.13,52.58h13.45L257.1,79.86c-.85,1.6-1.91,2.4-3.19,2.4a3.14,3.14,0,0,1-2.18-.83,2.49,2.49,0,0,1-.91-1.87,8.27,8.27,0,0,1,.35-2Z"/><path d="M339.42,81.28A19.53,19.53,0,0,0,334.27,79a20.59,20.59,0,0,0-5.64-.76c-3.89,0-7,.63-9.27,1.91-1,.56-1.52,1.16-1.52,1.82s.68,1.48,2.06,2.2c1,.53,3.38,1,7,1.52q10,1.38,13.94,2.75a16.85,16.85,0,0,1,7.94,5.4,12.05,12.05,0,0,1,2.8,7.55,11,11,0,0,1-4.76,9q-6.82,5.25-17.71,5.25a39.94,39.94,0,0,1-8.07-.76,29.81,29.81,0,0,1-6.8-2.23,5.8,5.8,0,0,1-1.57,1A4.39,4.39,0,0,1,311,114a4.84,4.84,0,0,1-3.76-1.54q-1.4-1.54-1.39-5.18V103.9q0-3.63,1.39-5.18a4.72,4.72,0,0,1,3.66-1.55,4.64,4.64,0,0,1,3,1,6.62,6.62,0,0,1,1.91,3.46,15.56,15.56,0,0,0,5.55,3,25.18,25.18,0,0,0,7.46,1q6.92,0,10.74-2.16c1.21-.71,1.82-1.47,1.82-2.25,0-1.31-.87-2.39-2.6-3.24S333.47,96.39,328,95.8q-12.12-1.27-16.19-4.91a11.3,11.3,0,0,1-4.07-8.83,11,11,0,0,1,4.56-9q6.18-4.9,16.19-4.9a33.25,33.25,0,0,1,6.7.66,27.66,27.66,0,0,1,6.16,2,8.66,8.66,0,0,1,1.74-1,3.86,3.86,0,0,1,1.49-.35,4.42,4.42,0,0,1,3.44,1.55q1.37,1.55,1.37,5.17v2.46c0,2.19-.26,3.68-.78,4.46a4.93,4.93,0,0,1-4.27,2.26,4.88,4.88,0,0,1-3.19-1.13A5.07,5.07,0,0,1,339.42,81.28Z"/><path d="M475.85,50.42V104h1.72q3.58,0,5.15,1.4a5,5,0,0,1,0,7.26c-1,.94-2.76,1.4-5.18,1.4H465.8V111.6a30,30,0,0,1-7.19,3,29.14,29.14,0,0,1-7.78,1q-11.32,0-18.25-6.55a21.55,21.55,0,0,1-6.92-16.31,23.67,23.67,0,0,1,7.26-17.42,24.19,24.19,0,0,1,17.72-7.21,25.32,25.32,0,0,1,7.7,1.2A30.43,30.43,0,0,1,465.8,73V60.48h-1.72q-3.63,0-5.18-1.4a5,5,0,0,1,0-7.26c1-.94,2.76-1.4,5.18-1.4ZM465.8,93.1a14.29,14.29,0,0,0-4.37-10.55,15.36,15.36,0,0,0-21.34,0A14.11,14.11,0,0,0,435.72,93a11.74,11.74,0,0,0,3.93,9.11q3.92,3.56,11.08,3.55t11.09-3.55A11.52,11.52,0,0,0,465.8,93.1Z"/><path d="M540.12,96.88H498.86a12.84,12.84,0,0,0,5.57,6.33q4,2.4,10.81,2.4a62.7,62.7,0,0,0,14.87-2.4,26,26,0,0,1,5.3-1,4.49,4.49,0,0,1,3.38,1.42,4.93,4.93,0,0,1,1.38,3.58,4.41,4.41,0,0,1-1.47,3.34q-2,1.82-9.57,3.46a69.61,69.61,0,0,1-14.62,1.64q-12.08,0-19.31-6.82A22.15,22.15,0,0,1,488,92.07a21.55,21.55,0,0,1,7.82-17.24,27,27,0,0,1,18-6.65,28.72,28.72,0,0,1,11.26,2.16A23.93,23.93,0,0,1,532.71,75a29.31,29.31,0,0,1,5.84,9,22,22,0,0,1,1.57,8.63ZM529,86.82a15.73,15.73,0,0,0-6-6.45,19.47,19.47,0,0,0-17.71,0,16,16,0,0,0-6.09,6.45Z"/><path d="M587.85,81.28A19.67,19.67,0,0,0,582.7,79a20.59,20.59,0,0,0-5.64-.76c-3.9,0-7,.63-9.28,1.91-1,.56-1.52,1.16-1.52,1.82s.69,1.48,2.06,2.2c1,.53,3.39,1,7,1.52q10,1.38,13.93,2.75a16.83,16.83,0,0,1,8,5.4,12.05,12.05,0,0,1,2.8,7.55,11,11,0,0,1-4.76,9q-6.82,5.25-17.71,5.25a39.94,39.94,0,0,1-8.07-.76,29.81,29.81,0,0,1-6.8-2.23,5.8,5.8,0,0,1-1.57,1,4.47,4.47,0,0,1-1.72.34,4.8,4.8,0,0,1-3.75-1.54q-1.39-1.54-1.4-5.18V103.9q0-3.63,1.4-5.18a4.7,4.7,0,0,1,3.66-1.55,4.64,4.64,0,0,1,3,1,6.75,6.75,0,0,1,1.91,3.46,15.56,15.56,0,0,0,5.55,3,25.11,25.11,0,0,0,7.45,1q6.91,0,10.75-2.16c1.21-.71,1.81-1.47,1.81-2.25,0-1.31-.86-2.39-2.6-3.24s-5.31-1.57-10.74-2.16q-12.12-1.27-16.19-4.91a11.28,11.28,0,0,1-4.08-8.83,11,11,0,0,1,4.57-9q6.18-4.9,16.19-4.9a33.32,33.32,0,0,1,6.7.66,27.42,27.42,0,0,1,6.15,2,8.66,8.66,0,0,1,1.74-1,3.87,3.87,0,0,1,1.5-.35,4.43,4.43,0,0,1,3.44,1.55q1.37,1.55,1.37,5.17v2.46c0,2.19-.26,3.68-.79,4.46a5.11,5.11,0,0,1-7.45,1.13A5.07,5.07,0,0,1,587.85,81.28Z"/><path d="M644.07,69.5V104h12.07q3.63,0,5.17,1.4a4.67,4.67,0,0,1,1.55,3.66,4.6,4.6,0,0,1-1.55,3.6c-1,.94-2.75,1.4-5.17,1.4h-34.2c-2.42,0-4.14-.46-5.17-1.4a5,5,0,0,1,0-7.26q1.54-1.4,5.17-1.4H634V79.56h-8.09q-3.58,0-5.16-1.4a5,5,0,0,1,0-7.26c1-.93,2.75-1.4,5.18-1.4ZM642.7,50.42V61.06h-12V50.42Z"/><path d="M712.26,72.5v-3H724q3.63,0,5.18,1.4a4.7,4.7,0,0,1,1.55,3.66,4.63,4.63,0,0,1-1.55,3.6q-1.55,1.4-5.18,1.4h-1.71v36.6a18.57,18.57,0,0,1-2.23,9.25,19.22,19.22,0,0,1-6.85,6.8,19.45,19.45,0,0,1-10.4,2.84H691.46q-3.63,0-5.18-1.4a4.62,4.62,0,0,1-1.54-3.6,4.69,4.69,0,0,1,1.54-3.66q1.54-1.4,5.18-1.4h11.09a9.79,9.79,0,0,0,7.16-2.5,8.5,8.5,0,0,0,2.55-6.33v-4.9a27.7,27.7,0,0,1-6.8,3.23,24.65,24.65,0,0,1-24.26-5.76,22.84,22.84,0,0,1-6.91-16.9,22.89,22.89,0,0,1,6.91-17A23.45,23.45,0,0,1,698.38,68a24,24,0,0,1,7.28,1.1A23.44,23.44,0,0,1,712.26,72.5Zm0,19.28a13.13,13.13,0,0,0-4.1-9.62,13.92,13.92,0,0,0-19.67,0,13.36,13.36,0,0,0,0,19.26,14,14,0,0,0,19.67,0A13.09,13.09,0,0,0,712.21,91.78Z"/><path d="M753.12,69.5v3.39a18.92,18.92,0,0,1,6.06-3.53,21.18,21.18,0,0,1,7.19-1.18q8.93,0,14.13,5.54,4.13,4.43,4.12,11.58V104a6.78,6.78,0,0,1,4.71,1.4,4.75,4.75,0,0,1,1.52,3.66,4.62,4.62,0,0,1-1.54,3.6c-1,.94-2.76,1.4-5.18,1.4h-9.08c-2.42,0-4.14-.46-5.17-1.4a5.06,5.06,0,0,1,0-7.26,6.81,6.81,0,0,1,4.71-1.4V85c0-2.19-.59-3.8-1.76-4.81q-2.31-2-6.92-2a13.19,13.19,0,0,0-6.11,1.35,27.22,27.22,0,0,0-6.65,5.71V104c2.59,0,4.25.25,5,.74a4.76,4.76,0,0,1,2.4,4.32,4.62,4.62,0,0,1-1.54,3.6c-1,.94-2.76,1.4-5.18,1.4H742.38c-2.42,0-4.15-.46-5.18-1.4a4.69,4.69,0,0,1-1.54-3.65,4.8,4.8,0,0,1,2.35-4.27c.79-.49,2.47-.74,5-.74V79.56a6.72,6.72,0,0,1-4.71-1.42,4.77,4.77,0,0,1-1.52-3.63,4.65,4.65,0,0,1,1.55-3.61q1.54-1.4,5.17-1.4Z"/><path class="cls-6" d="M1864.08,205.28l-40.57-86.16a58.62,58.62,0,0,0,8.83-31.34c0-29-20.06-52.59-44.79-52.59s-44.79,23.55-44.79,52.59a58.54,58.54,0,0,0,8.8,31.29L1711,205.28Z"/><rect class="cls-5" x="1780.4" y="166.27" width="17.03" height="43.63" rx="6.05"/><path class="cls-4" d="M1827.43,225.22h0a19.71,19.71,0,0,0-19.74-19.56h-33.93c-10.86,0-19,6.45-19,17.21l7.47,2.7Z"/><rect class="cls-4" x="1759.09" y="70.85" width="56.87" height="119.28" rx="19.81"/><rect class="cls-4" x="1801.07" y="347.96" width="10.67" height="47.96" rx="3.79"/><rect class="cls-4" x="1801.09" y="383.29" width="10.65" height="34.43" rx="3.79"/><rect class="cls-4" x="1775.07" y="347.96" width="10.67" height="47.96" rx="3.79"/><rect class="cls-4" x="1775.08" y="383.29" width="10.65" height="34.43" rx="3.79"/><polygon class="cls-9" points="1855.61 355.4 1809.58 272.13 1827.43 223.56 1754.02 221.15 1774.83 273.2 1729.39 355.4 1855.61 355.4"/><ellipse class="cls-10" cx="1797.37" cy="108.62" rx="5.04" ry="4.02"/><ellipse class="cls-10" cx="1777.68" cy="108.62" rx="5.04" ry="4.02"/><rect class="cls-4" x="1753.78" y="208.43" width="10.67" height="47.96" rx="3.79" transform="translate(3506.91 538.5) rotate(-177.59)"/><rect class="cls-4" x="1767.92" y="236.13" width="10.65" height="34.43" rx="3.79" transform="translate(2054.27 -1515.72) rotate(90.9)"/><rect class="cls-4" x="1788.21" y="246.5" width="4.57" height="9.93" rx="1.62" transform="translate(1932.92 -1550.98) rotate(86.52)"/><rect class="cls-4" x="1797.55" y="244.03" width="6.45" height="14.02" rx="2.29" transform="translate(1942.14 -1561.64) rotate(86.52)"/><rect class="cls-5" x="1796.29" y="245.72" width="1.56" height="5.01" rx="0.55" transform="translate(1302.42 1993.62) rotate(-82.04)"/><rect class="cls-4" x="1817.57" y="206.84" width="10.67" height="47.96" rx="3.79" transform="translate(-14.3 200.31) rotate(-6.26)"/><rect class="cls-4" x="1806.85" y="234.14" width="10.65" height="34.43" rx="3.79" transform="translate(1773.25 -1577.75) rotate(80.88)"/><rect class="cls-4" x="1793.58" y="249.44" width="4.57" height="9.93" rx="1.62" transform="translate(1637.59 -1552.47) rotate(76.93)"/><rect class="cls-4" x="1782.67" y="249.91" width="6.45" height="14.02" rx="2.29" transform="translate(1632.33 -1540.81) rotate(76.93)"/><rect class="cls-5" x="1787.53" y="250.57" width="1.56" height="5.01" rx="0.55" transform="translate(1983.88 -1542.43) rotate(88.16)"/><path class="cls-8" d="M1794.27,171.28v-1a6.27,6.27,0,1,0-12.54,0v1Z"/><rect class="cls-7" x="1784.78" y="166.7" width="6.44" height="12.53" rx="2.29" transform="translate(1615.03 1960.97) rotate(-90)"/><polygon class="cls-6" points="1806.7 71.69 1774.73 37.48 1760.45 78.97 1806.7 71.69"/><path class="cls-3" d="M1787.22,418a6.82,6.82,0,0,0-13.64-.21Z"/><path class="cls-3" d="M1813.23,418a6.82,6.82,0,0,0-13.64-.21Z"/><circle class="cls-5" cx="1788" cy="133.08" r="2.87"/><polygon class="cls-5" points="1788 125.66 1785.2 132.38 1790.79 132.38 1788 125.66"/><path class="cls-4" d="M1759.13,110.94a4.76,4.76,0,0,0-.84.07,5.43,5.43,0,0,0,.88,10.8Z"/><path class="cls-5" d="M1759.14,113.31a3.87,3.87,0,0,0-.48,0,3.07,3.07,0,0,0,.5,6.1Z"/><path class="cls-4" d="M1815.91,110.92a8.39,8.39,0,0,1,.84.07,5.44,5.44,0,0,1-.89,10.81Z"/><path class="cls-5" d="M1815.9,113.29a2.59,2.59,0,0,1,.48,0,3.07,3.07,0,0,1-.51,6.1Z"/><polygon class="cls-3" points="1819.12 119.03 1817.22 124.48 1821.11 124.45 1819.12 119.03"/><polygon class="cls-3" points="1757.47 119.96 1753.9 124.49 1757.59 125.72 1757.47 119.96"/></svg>