<svg id="Layer_1" data-name="Layer 1" xmlns="http://www.w3.org/2000/svg" width="1920" height="1080" viewBox="0 0 1920 1080"><defs><style>.cls-1{fill:#4c6483;}.cls-2{fill:#788ba2;}.cls-3{fill:#a6b1c1;}.cls-4{fill:#4c98d6;}.cls-5{fill:#89686b;}.cls-6{fill:#dbb2a7;}.cls-7{fill:#ceb984;}.cls-8{fill:#ffd3c5;}.cls-9{fill:#020000;}.cls-10{fill:#020202;}.cls-11{fill:#aa1729;}.cls-12{fill:#f9f9f9;}.cls-13{fill:#b90f00;}.cls-14{fill:#2b7cb2;}.cls-15{fill:#634b4c;}.cls-16{fill:#5f4343;}.cls-17{fill:#6b6a6a;}.cls-18{fill:#ff7945;}.cls-19{fill:#a01710;}.cls-20{fill:#acce76;}.cls-21{fill:#89a052;}</style></defs><title>Banner-Splash-transition</title><rect class="cls-1" x="5.88" y="7.46" width="1909" height="1069"/><path class="cls-2" d="M1909.38,13V1071H11.38V13h1898m11-11H.38V1082h1920V2Z"/><path class="cls-2" d="M146.43,368.94v96.37q0,31.5-14.31,53.57t-34.43,22A34.35,34.35,0,0,1,79,535.38Q70.22,529.83,63.25,519A97.86,97.86,0,0,1,52.4,496.57q-3.88-11.7-3.88-31.26V368.94q-6.83,0-10.07-4.81T35.2,351.86q0-7.62,3.25-12.27t11.12-4.65l28.2-.16q7.76,0,11.06,4.73t3.3,12.35q0,7.63-3.3,12.36t-11.06,4.72H70v99.35a46.46,46.46,0,0,0,8,26.95q8,11.7,19.34,11.69,7.55,0,14.15-5.63t10.8-16.42a46.24,46.24,0,0,0,2.62-16.59V368.94h-7.75q-7.77,0-11.06-4.72t-3.31-12.36q0-7.62,3.31-12.35t11.06-4.73l28.2.16q7.76,0,11.06,4.65t3.3,12.27q0,7.47-3.25,12.27T146.43,368.94Z"/><path class="cls-2" d="M350.73,534.8,313.52,419.36a11.26,11.26,0,0,1-8-5.64,21.85,21.85,0,0,1-2.73-11.27q0-7.63,3.31-12.36t11.06-4.73h19.6q7.75,0,11.06,4.73t3.3,12.36q0,7.46-3.3,12.19t-10.43,4.72l25.37,78.12L388,419.36q-6.92,0-10.22-4.72t-3.3-12.36q0-7.45,3.3-12.19t11.06-4.73H409q7.65,0,11,4.73t3.3,12.36A22,22,0,0,1,420.45,414a10.77,10.77,0,0,1-8.39,5.39L362.79,572.94q8.07,0,10.59,2.49,5,5.15,5,14.6,0,7.46-3.3,12.19t-11.06,4.72H317.19q-7.77,0-11.06-4.72T302.82,590q0-7.63,3.31-12.36t11.06-4.73h21.38Z"/><path class="cls-2" d="M477.78,479.4V536H452.62q-7.75,0-11.06-4.73t-3.3-12.35q0-7.47,3.35-12.19t11-4.73h3.67V354.85h-3.67q-7.75,0-11.06-4.73t-3.3-12.36q0-7.45,3.3-12.19t11.06-4.72h25.16v114.6l16.77-21.39q-2.61-7.14-2.62-11.61,0-7.63,3.25-12.36t11-4.73h24.53q7.75,0,11.06,4.73t3.3,12.36q0,7.46-3.3,12.19t-11.06,4.72h-6l-26.11,33.51L533.76,502h6.29q7.76,0,11.06,4.73T554.42,519q0,7.47-3.31,12.19T540.05,536H515.31q-7.75,0-11.06-4.73T501,518.88a25.72,25.72,0,0,1,3.56-12.77l-22.75-31.85Z"/><path class="cls-2" d="M610.49,479.4V536H585.33q-7.76,0-11.06-4.73T571,518.88q0-7.47,3.35-12.19t11-4.73H589V354.85h-3.67q-7.76,0-11.06-4.73T571,337.76q0-7.45,3.3-12.19t11.06-4.72h25.16v114.6l16.77-21.39q-2.61-7.14-2.62-11.61,0-7.63,3.25-12.36t11-4.73h24.53q7.76,0,11.06,4.73t3.3,12.36q0,7.46-3.3,12.19t-11.06,4.72h-6l-26.11,33.51L666.47,502h6.29q7.75,0,11.06,4.73T687.13,519q0,7.47-3.31,12.19T672.76,536H648q-7.75,0-11.06-4.73t-3.3-12.35a25.72,25.72,0,0,1,3.56-12.77l-22.75-31.85Z"/><path class="cls-2" d="M904.32,320.85V502h25.79q7.75,0,11.06,4.73t3.3,12.35q0,7.47-3.3,12.19T930.11,536H857q-7.77,0-11.06-4.73t-3.31-12.35q0-7.47,3.31-12.19T857,502h25.79V354.85h-17.3q-7.65,0-11-4.73t-3.35-12.36q0-7.45,3.3-12.19t11.06-4.72Z"/><path class="cls-2" d="M1036.92,385.36V502h25.79q7.76,0,11.06,4.73t3.3,12.35q0,7.47-3.3,12.19T1062.71,536H989.64q-7.75,0-11.06-4.73t-3.3-12.35q0-7.47,3.3-12.19T989.64,502h25.79v-82.6h-17.3q-7.65,0-11-4.72t-3.35-12.36q0-7.45,3.3-12.19t11.06-4.73ZM1034,320.85v36h-25.58v-36Z"/><path class="cls-2" d="M1182.63,395.48V385.36h25.16q7.76,0,11.06,4.73t3.3,12.36q0,7.46-3.3,12.19t-11.06,4.72h-3.67V543.09q0,17.91-4.77,31.26a59.78,59.78,0,0,1-14.62,23q-9.86,9.61-22.23,9.61h-24.32q-7.76,0-11.06-4.72t-3.3-12.19q0-7.63,3.3-12.36t11.06-4.73h23.69a17.23,17.23,0,0,0,15.31-8.45q5.44-8.46,5.45-21.4V526.51a54,54,0,0,1-14.52,10.94A33.91,33.91,0,0,1,1153,541.1q-21.92,0-36.69-23.14t-14.78-57.13q0-34.17,14.78-57.31T1153,380.39a34.08,34.08,0,0,1,15.57,3.73A47.71,47.71,0,0,1,1182.63,395.48Zm-.11,65.18q0-18.74-8.75-32.51t-21-13.76q-12.26,0-21,13.76T1123,460.66q0,18.91,8.75,32.59t21,13.68q12.27,0,21-13.68T1182.52,460.66Z"/><path class="cls-3" d="M678.72,714.92v37.64h7.76q7.75,0,11.06,4.73t3.3,12.36q0,7.46-3.3,12.19t-11.06,4.72h-32.6q-7.77,0-11.06-4.72t-3.31-12.36q0-7.46,3.36-12.19t11-4.73h3.35v-133h-3.35q-7.77,0-11.06-4.73t-3.31-12.35q0-7.63,3.31-12.36t11.06-4.73l32.6.17q7.75,0,11.06,4.64t3.3,12.28q0,7.62-3.3,12.35t-11.06,4.73h-7.76V670l38.16-51.91a24.31,24.31,0,0,1-4.61-7.13A23,23,0,0,1,711,602.8q0-7.8,3.31-12.61t11.06-4.81l21.91.17q7.76,0,11.06,4.64t3.3,12.28q0,7.46-3.3,12.27T748,619.55L709.44,673q10.8,9.79,20.29,29.86t16.82,49.75h5.77q7.65,0,10.95,4.73t3.31,12.36q0,7.46-3.25,12.19t-11,4.72h-19.5q-6.71-25.37-14.68-48.42-6.5-18.75-12.32-27.29a48.06,48.06,0,0,0-13.89-13.68Z"/><path class="cls-3" d="M900.75,728.52H845.82q2.94,16.76,7.23,23.13t9,6.39q3.55,0,11.63-4.48,13.21-7.29,17.09-7.3c2.87,0,5.26,1.61,7.19,4.81s2.88,7.52,2.88,12.94a19.93,19.93,0,0,1-2.94,11q-2.92,4.56-16.46,10.78T861.75,792q-9.33,0-19.7-11.11-3,6-8,6t-8.07-6a45.57,45.57,0,0,1-11.12,8.29A24.54,24.54,0,0,1,803.67,792q-9.74,0-19.13-8T770,762.18a82.79,82.79,0,0,1-5.13-28.85q0-11.28,4.29-19.41A46.2,46.2,0,0,1,787.84,695q12.38-7,22-7a56.83,56.83,0,0,1,13.32,2v-7.3q0-7.62-3-12.36t-7.54-4.72q-4.2,0-16.25,5.47-6.3,3-8.5,3-4.19,0-7.23-5a23.12,23.12,0,0,1-3-12.27q0-7.64,3.09-12.19t14.73-8.79q11.64-4.23,17.2-4.23a21.61,21.61,0,0,1,13.52,4.89q6.28,4.89,11.74,14.68,11.32-19.58,24.43-19.57a19,19,0,0,1,12.68,5q8.91,7.64,14.63,20.4a139.75,139.75,0,0,1,9.07,29.52,131.17,131.17,0,0,1,2.09,24.72Zm-77.57-3.65a32.63,32.63,0,0,0-12.59-2.82A31.07,31.07,0,0,0,793,727.69q-6.29,4.14-6.29,10.45,0,6.47,4.88,13.18T802.94,758q4.2,0,9.28-4a62.33,62.33,0,0,0,11-11.94Zm54.09-30.35q-2.52-14.6-7.23-21.73t-8.29-7.13q-3.45,0-8.12,7.13t-7.29,21.73Z"/><path class="cls-3" d="M962.07,636V657.2q13.51-15.42,21.33-20.57T998,631.49q10.49,0,20.34,12.27,6.71,8.29,6.71,16.92a22.68,22.68,0,0,1-3.2,12.36c-2.14,3.37-4.7,5.06-7.71,5.06q-4,0-8.38-6.31t-7.87-6.3q-4.5,0-13.47,9t-22.38,26.87v51.24h30.61q7.76,0,11.06,4.73t3.3,12.36q0,7.46-3.3,12.19t-11.06,4.72H927.79q-7.77,0-11.06-4.72t-3.31-12.36q0-7.46,3.31-12.19t11.06-4.73h12.79V670h-7.76q-7.76,0-11.06-4.73t-3.3-12.35q0-7.47,3.3-12.19T932.82,636Z"/><path class="cls-3" d="M1110,571.45V752.56h25.79q7.76,0,11.06,4.73t3.3,12.36q0,7.46-3.3,12.19t-11.06,4.72H1062.7q-7.77,0-11.06-4.72t-3.31-12.36q0-7.46,3.31-12.19t11.06-4.73h25.79V605.45h-17.3q-7.65,0-11-4.72c-2.24-3.16-3.35-7.27-3.35-12.36s1.1-9,3.3-12.19,5.89-4.73,11.06-4.73Z"/><path class="cls-3" d="M1242.58,636V752.56h25.79q7.76,0,11.06,4.73t3.3,12.36q0,7.46-3.3,12.19t-11.06,4.72H1195.3q-7.75,0-11.06-4.72t-3.3-12.36q0-7.46,3.3-12.19t11.06-4.73h25.79V670h-17.3q-7.65,0-11-4.73t-3.36-12.35q0-7.47,3.3-12.19t11.06-4.73Zm-2.93-64.52v36h-25.58v-36Z"/><path class="cls-3" d="M1388.29,646.09V636h25.16q7.75,0,11.06,4.73t3.31,12.35q0,7.47-3.31,12.19T1413.45,670h-3.67V793.7q0,17.91-4.77,31.26a59.67,59.67,0,0,1-14.62,23q-9.86,9.62-22.23,9.62h-24.32q-7.75,0-11.06-4.73t-3.3-12.19q0-7.62,3.3-12.35t11.06-4.73h23.69a17.23,17.23,0,0,0,15.31-8.46q5.45-8.46,5.45-21.39V777.11a53.84,53.84,0,0,1-14.52,10.95,33.91,33.91,0,0,1-15.15,3.65q-21.91,0-36.69-23.14t-14.78-57.14q0-34.15,14.78-57.3T1358.62,631a34.09,34.09,0,0,1,15.57,3.74A47.39,47.39,0,0,1,1388.29,646.09Zm-.1,65.18q0-18.75-8.76-32.51t-21-13.77q-12.26,0-21,13.77t-8.75,32.51q0,18.9,8.75,32.59t21,13.68q12.27,0,21-13.68T1388.19,711.27Z"/><path class="cls-3" d="M1475.19,571.45v72.48a49.7,49.7,0,0,1,13.57-9.37,33.87,33.87,0,0,1,13.89-3.07,34.22,34.22,0,0,1,19.82,6q8.7,6,14.41,18.83t5.72,32.42v63.85q8.18,0,10.69,2.49,5,5.15,5,14.6,0,7.46-3.25,12.19c-2.17,3.15-5.83,4.72-11,4.72h-24.53q-7.65,0-11-4.72t-3.31-12.36q0-9.29,5-14.43,2.61-2.64,10.69-2.49V691q0-13.1-3.77-18.41-4.93-7.12-14.58-7.13a19.68,19.68,0,0,0-12.63,4.4q-5.51,4.4-14.83,19v63.68q8.28,0,10.69,2.49,5.13,5.15,5.14,14.6,0,7.46-3.31,12.19t-11.06,4.72h-24.42q-7.77,0-11.06-4.72t-3.31-12.36q0-9.29,5.14-14.43,2.52-2.64,10.69-2.49V605.45H1450q-7.76,0-11.06-4.72c-2.2-3.16-3.3-7.27-3.3-12.36s1.1-9,3.3-12.19,5.89-4.73,11.06-4.73Z"/><path class="cls-3" d="M1684,728.52h-88.17q3.35,13.26,11.9,21.39t23.11,8.13q12,0,31.77-8.13,8.18-3.31,11.32-3.32,4.3,0,7.23,4.81a22.89,22.89,0,0,1,2.94,12.11,19.64,19.64,0,0,1-3.15,11.28q-4.18,6.13-20.44,11.69a96.55,96.55,0,0,1-31.24,5.56Q1603.5,792,1588,769t-15.47-56.72q0-35.82,16.73-58.3t38.52-22.47a42.45,42.45,0,0,1,24.06,7.3q11,7.31,16.3,15.75,7.56,12.29,12.48,30.36a113.83,113.83,0,0,1,3.36,29.19Zm-23.8-34q-4.93-14.6-12.9-21.81a28.4,28.4,0,0,0-37.84,0q-8,7.21-13,21.81Z"/><path class="cls-3" d="M1812.1,571.45V752.56h3.67q7.65,0,11,4.73t3.35,12.36q0,7.46-3.3,12.19t-11.06,4.72h-25.16v-8.29a54.53,54.53,0,0,1-15.36,10.28,41.13,41.13,0,0,1-16.62,3.49q-24.21,0-39-22.14t-14.79-55.15q0-34.5,15.52-58.88t37.85-24.38a36.38,36.38,0,0,1,16.46,4.06,60.6,60.6,0,0,1,15.93,12.19V605.45h-3.67q-7.76,0-11.06-4.72t-3.3-12.19q0-7.63,3.3-12.36t11.06-4.73Zm-21.49,144.3q0-21.07-9.33-35.66t-22.85-14.6q-13.42,0-22.75,14.6t-9.33,35.16q0,18.74,8.38,30.76t23.7,12q15.19,0,23.69-12T1790.61,715.75Z"/><rect class="cls-4" x="1393.14" y="591.35" width="21.86" height="45.85" rx="7.61"/><rect class="cls-4" x="1418.7" y="581.71" width="5.9" height="19.28" rx="2.06" transform="translate(1447.88 2130.86) rotate(-113.56)"/><rect class="cls-5" x="1387.62" y="627.69" width="5.9" height="19.28" rx="2.06" transform="translate(908.27 -814.31) rotate(47)"/><rect class="cls-5" x="1385.57" y="638.13" width="5.9" height="19.28" rx="2.06" transform="translate(-143.22 684.82) rotate(-26.4)"/><rect class="cls-5" x="1403.82" y="627.55" width="5.9" height="19.28" rx="2.06" transform="translate(1352.14 -906.19) rotate(63.6)"/><rect class="cls-5" x="1399.25" y="637.79" width="5.9" height="19.95" rx="2.06" transform="translate(-111.54 340.58) rotate(-13.32)"/><rect class="cls-4" x="1386.68" y="591.42" width="5.9" height="19.28" rx="2.06" transform="translate(2027.24 1974.31) rotate(-138.3)"/><rect class="cls-4" x="1381.28" y="604.45" width="5.9" height="13.23" rx="2.06" transform="translate(2688.82 1377.59) rotate(-173.38)"/><rect class="cls-4" x="1426.36" y="576.43" width="5.9" height="13.23" rx="2.06" transform="translate(2765.41 1356.17) rotate(-172.14)"/><rect class="cls-6" x="1398.96" y="575.79" width="9.48" height="19.39" rx="3.3"/><ellipse class="cls-7" cx="1403.71" cy="554.01" rx="17.91" ry="12.18"/><rect class="cls-8" x="1391.4" y="550.56" width="23.83" height="37.33" rx="8.29"/><ellipse class="cls-9" cx="1406.97" cy="561.63" rx="1.94" ry="1.54"/><ellipse class="cls-9" cx="1399.4" cy="561.63" rx="1.94" ry="1.54"/><ellipse class="cls-7" cx="1394.65" cy="549.78" rx="4.35" ry="3.47"/><ellipse class="cls-7" cx="1402.22" cy="547.91" rx="7.17" ry="5.71"/><ellipse class="cls-7" cx="1411.37" cy="550.54" rx="4.35" ry="3.47"/><ellipse class="cls-7" cx="1415.73" cy="550.54" rx="3.25" ry="2.59"/><ellipse class="cls-7" cx="1391.04" cy="548.32" rx="4.35" ry="3.47"/><ellipse class="cls-7" cx="1391.93" cy="550.16" rx="5.33" ry="3.85"/><ellipse class="cls-7" cx="1399.4" cy="544.4" rx="4.35" ry="3.47"/><ellipse class="cls-7" cx="1412.48" cy="546.11" rx="4.35" ry="3.47"/><ellipse class="cls-7" cx="1409.24" cy="544.4" rx="4.35" ry="3.47"/><ellipse class="cls-7" cx="1395.05" cy="545.66" rx="4.35" ry="3.47"/><ellipse class="cls-7" cx="1416.2" cy="549.78" rx="5.73" ry="4.56"/><path class="cls-5" d="M1393.18,625.16c0,.2,0,.4,0,.6v6.75c0,2.69,2.64,4.9,5.87,4.9h10.11c3.23,0,5.87-2.21,5.87-4.9v-6.75c0-.2,0-.4,0-.6Z"/><path class="cls-10" d="M1404.64,580.55a3.53,3.53,0,0,1,2.32.81,4.24,4.24,0,0,0,2.42-4.17h0a3.88,3.88,0,0,0-.73-1.78l-10.27.85a3.57,3.57,0,0,0-.25,1.86h0a4.87,4.87,0,0,0,3.73,3.78A3.3,3.3,0,0,1,1404.64,580.55Z"/><path class="cls-11" d="M1404.34,582.14h0a6.75,6.75,0,0,0,1.2-.21,6,6,0,0,0,2.14-1,12.73,12.73,0,0,0-1.61-.64,10.51,10.51,0,0,0-1.65-.4,6,6,0,0,0-4,1.46,6.74,6.74,0,0,0,2.67.83A7.28,7.28,0,0,0,1404.34,582.14Z"/><path class="cls-12" d="M1406,575.63l-1.23.08-.93.11.35,2.78c0,.31.52.53,1,.48l1.08-.09c.54,0,.94-.33.9-.64l-.36-2.78Z"/><rect class="cls-6" x="1401.27" y="566.24" width="4.1" height="6.48" rx="1.43"/><rect class="cls-8" x="1429.33" y="573.02" width="2.53" height="5.51" rx="0.88" transform="matrix(-0.99, -0.14, 0.14, -0.99, 2768.96, 1341.87)"/><rect class="cls-8" x="1429.48" y="566.22" width="3.58" height="7.79" rx="1.25" transform="translate(2771.07 1330.68) rotate(-172.14)"/><rect class="cls-6" x="1428.76" y="570.24" width="0.87" height="2.78" rx="0.3" transform="translate(2766.75 1333.41) rotate(-172.14)"/><rect class="cls-8" x="1382.05" y="614.41" width="2.53" height="5.51" rx="0.88" transform="translate(2588.38 1534.94) rotate(-166.75)"/><rect class="cls-8" x="1380.11" y="618.81" width="3.58" height="7.79" rx="1.25" transform="translate(2584.32 1545.53) rotate(-166.75)"/><rect class="cls-6" x="1380.09" y="619.15" width="0.87" height="2.78" rx="0.3" transform="translate(2582.08 1540.96) rotate(-166.75)"/><path class="cls-13" d="M1397.15,656.38c-1.19-2.32-3.51-3.58-5.49-2.86s-3,3.21-2.33,5.76Z"/><path class="cls-13" d="M1408.33,657.53c-.73-2.5-2.78-4.17-4.86-3.82s-3.49,2.61-3.36,5.23Z"/><path class="cls-14" d="M1402.75,596.78h.19l.57-1.4.58,1.4h.19A4.75,4.75,0,0,0,1409,592v-.69h-.67c-.74,2.34-1.77,3.37-4.55,3.76l-.34,0a5,5,0,0,1-4.44-3.78l-1,.09C1398,594,1400.14,596.78,1402.75,596.78Z"/><polygon class="cls-15" points="1402.21 625.16 1405.69 625.16 1414.95 625.16 1414.92 626.24 1405.77 626.24 1402.21 626.24 1393.14 626.24 1393.18 625.16 1402.21 625.16"/><path class="cls-16" d="M1404.85,625.16s2.86.13,3.67,1.65-.32.71-.32.71a22.25,22.25,0,0,0-3.2-1.28c-.51,0-.15-1-.15-1Z"/><rect class="cls-17" x="1403.53" y="625.16" width="0.23" height="1.08"/><rect class="cls-17" x="1404.72" y="625.16" width="0.23" height="1.08"/><rect class="cls-17" x="1404.07" y="624.74" width="0.23" height="1.08" transform="translate(778.91 2029.46) rotate(-90)"/><rect class="cls-17" x="1404.07" y="625.59" width="0.23" height="1.08" transform="translate(778.06 2030.31) rotate(-90)"/><path class="cls-8" d="M1391.39,561.45a3,3,0,0,0-.52,0,3.33,3.33,0,0,0,.54,6.62Z"/><path class="cls-6" d="M1391.39,562.9a1.37,1.37,0,0,0-.29,0,1.88,1.88,0,0,0,.3,3.74Z"/><path class="cls-8" d="M1415.2,561.35l.49,0a3.11,3.11,0,0,1,2.68,3.48,3.06,3.06,0,0,1-3.2,2.42Z"/><path class="cls-6" d="M1415.19,562.65a1.33,1.33,0,0,1,.28,0,1.75,1.75,0,0,1,1.52,2,1.72,1.72,0,0,1-1.82,1.36Z"/><path class="cls-2" d="M240.77,320.85V502h25.79q7.76,0,11.06,4.73T280.93,519q0,7.47-3.31,12.19T266.56,536H193.49q-7.76,0-11.06-4.73t-3.3-12.35q0-7.47,3.3-12.19T193.49,502h25.79V354.85H202q-7.65,0-11-4.73t-3.36-12.36q0-7.45,3.3-12.19T202,320.85Z"/><path class="cls-18" d="M791.24,365.37l-19.09-40.55a27.58,27.58,0,0,0,4.15-14.75c0-13.67-9.44-24.75-21.08-24.75s-21.08,11.08-21.08,24.75a27.62,27.62,0,0,0,4.14,14.73l-19.1,40.57Z"/><rect class="cls-6" x="751.86" y="347.01" width="8.01" height="20.53" rx="2.8"/><path class="cls-8" d="M774,374.75h0a9.27,9.27,0,0,0-9.29-9.2h-16c-5.11,0-9,3-9,8.1l3.51,1.27Z"/><rect class="cls-8" x="741.83" y="302.1" width="26.77" height="56.14" rx="9.35"/><ellipse class="cls-9" cx="759.84" cy="319.87" rx="2.37" ry="1.89"/><ellipse class="cls-9" cx="750.58" cy="319.87" rx="2.37" ry="1.89"/><path class="cls-13" d="M758.38,349.37v-.46a2.95,2.95,0,1,0-5.9,0v.46Z"/><rect class="cls-19" x="753.92" y="347.21" width="3.03" height="5.9" rx="1.06" transform="translate(405.27 1105.6) rotate(-90)"/><polygon class="cls-18" points="764.23 302.49 749.19 286.39 742.47 305.92 764.23 302.49"/><circle class="cls-6" cx="755.43" cy="331.39" r="1.35"/><polygon class="cls-6" points="755.43 327.9 754.12 331.06 756.75 331.06 755.43 327.9"/><path class="cls-8" d="M741.85,321a2.69,2.69,0,0,0-.4,0,2.56,2.56,0,0,0,.42,5.08Z"/><path class="cls-6" d="M741.85,322.08l-.23,0a1.44,1.44,0,0,0,.24,2.87Z"/><path class="cls-8" d="M768.57,321l.39,0a2.56,2.56,0,0,1-.41,5.09Z"/><path class="cls-6" d="M768.56,322.08h.23a1.44,1.44,0,0,1-.24,2.87Z"/><polygon class="cls-20" points="770.08 324.78 769.18 327.34 771.02 327.33 770.08 324.78"/><polygon class="cls-20" points="741.07 325.21 739.39 327.34 741.12 327.93 741.07 325.21"/><polygon class="cls-21" points="744.38 401.97 763.71 401.97 763.28 397.56 773.65 375.52 739.33 371.38 746.95 396.64 744.38 401.97"/><rect class="cls-8" x="761.13" y="429.96" width="4.94" height="22.22" rx="1.58" transform="translate(-48.21 96.69) rotate(-7.02)"/><rect class="cls-8" x="745.93" y="425.41" width="4.94" height="22.22" rx="1.58" transform="translate(209.45 -241.85) rotate(21.28)"/><rect class="cls-8" x="745.38" y="440.94" width="4.93" height="15.95" rx="1.58" transform="matrix(0.87, -0.5, 0.5, 0.87, -124.27, 434.06)"/><polygon class="cls-21" points="767.17 399.69 747.15 399.69 727.93 434.47 786.39 434.47 767.17 399.69"/><path class="cls-2" d="M814.63,478H726.74q3.35,13.23,11.86,21.33t23,8.1q11.91,0,31.66-8.1Q801.47,496,804.6,496q4.27,0,7.21,4.8t2.92,12.07a19.57,19.57,0,0,1-3.13,11.24q-4.19,6.12-20.38,11.65a96.2,96.2,0,0,1-31.14,5.54q-25.71,0-41.12-23t-15.42-56.54q0-35.72,16.67-58.11t38.41-22.41a42.37,42.37,0,0,1,24,7.28q10.92,7.28,16.25,15.7,7.53,12.24,12.44,30.26a114.15,114.15,0,0,1,3.34,29.1Zm-23.72-33.89q-4.92-14.55-12.86-21.74a28.33,28.33,0,0,0-37.72,0q-8,7.19-13,21.74Z"/><rect class="cls-8" x="737.61" y="365.44" width="5.02" height="22.57" rx="1.75" transform="translate(1259.18 1025.01) rotate(-155.66)"/><rect class="cls-8" x="739.75" y="380.45" width="5.01" height="16.21" rx="1.75" transform="translate(1448.93 -61.48) rotate(119.88)"/><rect class="cls-8" x="749.16" y="389.63" width="2.15" height="4.67" rx="0.75" transform="translate(1163.78 -346.59) rotate(91.66)"/><rect class="cls-8" x="753.55" y="388.9" width="3.03" height="6.6" rx="1.06" transform="translate(1168.99 -351.18) rotate(91.66)"/><rect class="cls-6" x="753.08" y="389.54" width="0.73" height="2.36" rx="0.26" transform="translate(202.17 1036.05) rotate(-76.9)"/><rect class="cls-8" x="772.67" y="364.47" width="5.02" height="22.58" rx="1.75" transform="translate(-74.72 516.41) rotate(-35.26)"/><rect class="cls-8" x="772.01" y="378.34" width="5.01" height="16.22" rx="1.75" transform="translate(826.37 -477.57) rotate(66.92)"/><rect class="cls-8" x="765.11" y="386.56" width="2.15" height="4.68" rx="0.75" transform="translate(1222.19 -339.35) rotate(95.14)"/><rect class="cls-8" x="759.84" y="385.25" width="3.03" height="6.6" rx="1.06" transform="translate(1216.6 -334.9) rotate(95.14)"/><rect class="cls-6" x="762.63" y="386.01" width="0.73" height="2.36" rx="0.26" transform="translate(1349.57 -235.73) rotate(106.37)"/></svg>