<svg id="Layer_1" data-name="Layer 1" xmlns="http://www.w3.org/2000/svg" width="1920" height="1080" viewBox="0 0 1920 1080"><defs><style>.cls-1{fill:#d1d8e0;}.cls-2{fill:#bdccd4;}.cls-3{fill:#ffd3c5;}.cls-4{fill:#dbb2a7;}.cls-5{fill:#5f4343;}.cls-6{fill:#89686b;}.cls-7{fill:#b90f00;}.cls-8{fill:#6b6a6a;}.cls-9{fill:#634b4c;}.cls-10{fill:#4c98d6;}.cls-11{fill:#2b7cb2;}.cls-12{fill:#acce76;}.cls-13{fill:#ceb984;}.cls-14{fill:#020000;}.cls-15{fill:#020202;}.cls-16{fill:#aa1729;}.cls-17{fill:#f9f9f9;}.cls-18{fill:#ef6c6c;}.cls-19{fill:#97b262;}.cls-20{fill:#e52929;}.cls-21{fill:#b20000;}.cls-22{fill:#f7ecb5;}.cls-23{fill:#669fdd;}.cls-24{fill:#b71313;}.cls-25{fill:#bcb52a;}.cls-26{fill:#fc8900;}.cls-27{fill:#9863c6;}.cls-28{fill:#72575a;}</style></defs><title>Artboard 36</title><rect class="cls-1" x="6.5" y="6.5" width="1908.19" height="1067"/><path class="cls-2" d="M1908.19,13V1067H13V13H1908.19m13-13H0V1080H1921.19V0Z"/><rect class="cls-3" x="97.61" y="312.88" width="94.41" height="94.41"/><rect class="cls-4" x="209.54" y="312.88" width="94.41" height="94.41"/><rect class="cls-5" x="97.61" y="544.56" width="94.41" height="94.41"/><rect class="cls-6" x="317.19" y="544.56" width="93.1" height="94.41"/><rect class="cls-7" x="97.61" y="652.76" width="93.1" height="94.41"/><rect class="cls-8" x="210.2" y="652.76" width="93.1" height="94.41"/><rect class="cls-9" x="210.2" y="544.56" width="93.1" height="94.41"/><rect class="cls-10" x="97.61" y="433.3" width="94.41" height="94.41"/><rect class="cls-11" x="209.54" y="433.3" width="94.41" height="94.41"/><rect class="cls-12" x="156.56" y="787.5" width="103.64" height="217.39" rx="19.81"/><circle class="cls-12" cx="346.92" cy="952.54" r="53.57"/><rect class="cls-10" x="547.19" y="668.47" width="103.64" height="217.39" rx="19.81"/><rect class="cls-10" x="668.4" y="622.75" width="28" height="91.44" rx="9.95" transform="translate(342.43 1561.18) rotate(-113.56)"/><rect class="cls-6" x="547.19" y="841.66" width="28" height="91.44" rx="9.95"/><rect class="cls-6" x="547.19" y="889.99" width="28" height="91.44" rx="9.95"/><rect class="cls-6" x="622.49" y="841.66" width="28" height="91.44" rx="9.95"/><rect class="cls-6" x="622.49" y="889.99" width="28" height="91.44" rx="9.95"/><rect class="cls-10" x="516.56" y="668.82" width="28" height="91.44" rx="9.95" transform="translate(451.3 1600.98) rotate(-138.3)"/><rect class="cls-10" x="490.99" y="730.57" width="28" height="62.76" rx="9.95" transform="translate(918.8 1577.01) rotate(-173.38)"/><rect class="cls-10" x="704.74" y="597.74" width="28" height="62.76" rx="9.95" transform="translate(1344.64 1350.65) rotate(-172.14)"/><rect class="cls-4" x="574.8" y="594.66" width="44.93" height="91.94" rx="15.97"/><ellipse class="cls-13" cx="597.31" cy="491.42" rx="84.95" ry="57.74"/><rect class="cls-3" x="538.97" y="475.07" width="112.98" height="177.02" rx="29.19"/><ellipse class="cls-14" cx="612.8" cy="527.55" rx="9.19" ry="7.32"/><ellipse class="cls-14" cx="576.91" cy="527.55" rx="9.19" ry="7.32"/><ellipse class="cls-13" cx="554.39" cy="471.35" rx="20.63" ry="16.44"/><ellipse class="cls-13" cx="590.28" cy="462.46" rx="34" ry="27.1"/><ellipse class="cls-13" cx="633.68" cy="474.98" rx="20.63" ry="16.44"/><ellipse class="cls-13" cx="654.31" cy="474.98" rx="15.41" ry="12.28"/><ellipse class="cls-13" cx="537.27" cy="464.42" rx="20.63" ry="16.44"/><ellipse class="cls-13" cx="541.49" cy="473.14" rx="25.3" ry="18.24"/><ellipse class="cls-13" cx="576.91" cy="445.85" rx="20.63" ry="16.44"/><ellipse class="cls-13" cx="638.9" cy="453.96" rx="20.63" ry="16.44"/><ellipse class="cls-13" cx="623.53" cy="445.85" rx="20.63" ry="16.44"/><ellipse class="cls-13" cx="556.28" cy="451.81" rx="20.63" ry="16.44"/><ellipse class="cls-13" cx="656.54" cy="471.35" rx="27.15" ry="21.64"/><path class="cls-6" d="M547.42,828.81a20.1,20.1,0,0,0-.23,2.81v32c0,12.78,12.54,23.23,27.87,23.23H623c15.33,0,27.87-10.45,27.87-23.23v-32a18.69,18.69,0,0,0-.23-2.81Z"/><path class="cls-15" d="M601.76,617.26a16.74,16.74,0,0,1,11,3.85c7.8-4.31,12.52-11.79,11.47-19.8h0a18.24,18.24,0,0,0-3.43-8.41l-48.72,4a17.18,17.18,0,0,0-1.19,8.8h0c1.1,8.42,8.28,15.22,17.69,17.92C591,619.85,596,617.26,601.76,617.26Z"/><path class="cls-16" d="M600.32,624.78h0a32.35,32.35,0,0,0,5.71-1,28.76,28.76,0,0,0,10.15-4.95,54.92,54.92,0,0,0-7.68-3.06,51,51,0,0,0-7.82-1.88c-8.43-1-16.79,5.3-18.83,6.92a31.7,31.7,0,0,0,12.62,3.93A32.76,32.76,0,0,0,600.32,624.78Z"/><path class="cls-17" d="M608.36,593.94l-5.8.38-4.42.5L599.82,608c.2,1.48,2.44,2.51,5,2.3l5.12-.42c2.54-.22,4.46-1.6,4.27-3.08l-1.73-13.17Z"/><rect class="cls-4" x="585.75" y="549.41" width="19.43" height="30.72" rx="5.02"/><rect class="cls-3" x="718.8" y="581.56" width="12.02" height="26.15" rx="2.66" transform="translate(1361.45 1282.84) rotate(-172.14)"/><rect class="cls-3" x="719.51" y="549.29" width="16.97" height="36.92" rx="2.66" transform="matrix(-0.99, -0.14, 0.14, -0.99, 1371.47, 1229.76)"/><rect class="cls-4" x="716.13" y="568.35" width="4.11" height="13.2" rx="1.33" transform="translate(1350.95 1242.76) rotate(-172.14)"/><rect class="cls-3" x="494.63" y="777.83" width="12.02" height="26.15" rx="2.66" transform="translate(806.71 1675.5) rotate(-166.75)"/><rect class="cls-3" x="485.45" y="798.68" width="16.97" height="36.92" rx="2.66" transform="translate(787.45 1725.72) rotate(-166.75)"/><rect class="cls-4" x="485.32" y="800.28" width="4.11" height="13.2" rx="1.33" transform="translate(776.85 1703.98) rotate(-166.75)"/><path class="cls-7" d="M579.92,982.69c-1.46-12.28-9.75-21.69-19.77-21.69s-18.36,9.49-19.77,21.84Z"/><path class="cls-7" d="M656.26,982.69C654.8,970.41,646.51,961,636.5,961s-18.37,9.49-19.78,21.84Z"/><path class="cls-11" d="M592.77,694.21h.89l2.73-6.64,2.74,6.64H600a22.53,22.53,0,0,0,22.47-22.47v-3.27h-3.18c-3.52,11.1-8.41,16-21.6,17.85l-1.62.08c-10.22-.7-18-7.65-21-17.93l-4.76.41C570.3,681.24,580.41,694.21,592.77,694.21Z"/><polygon class="cls-9" points="590.25 828.81 606.74 828.81 650.61 828.81 650.49 833.92 607.09 833.92 590.25 833.92 547.19 833.92 547.42 828.81 590.25 828.81"/><path class="cls-5" d="M602.73,828.81s13.55.58,17.42,7.78S618.6,840,618.6,840s-12.77-6-15.17-6.08-.7-4.58-.7-4.58Z"/><rect class="cls-8" x="596.5" y="828.81" width="1.07" height="5.11"/><rect class="cls-8" x="602.14" y="828.81" width="1.07" height="5.11"/><rect class="cls-8" x="599.05" y="826.78" width="1.07" height="5.11" transform="translate(-229.75 1428.93) rotate(-90)"/><rect class="cls-8" x="599.05" y="830.83" width="1.07" height="5.11" transform="translate(-233.8 1432.97) rotate(-90)"/><path class="cls-3" d="M538.9,526.67a17,17,0,0,0-2.45.2A15.79,15.79,0,0,0,539,558.28Z"/><path class="cls-4" d="M538.92,533.56a9.51,9.51,0,0,0-1.4.1A8.91,8.91,0,0,0,539,551.39Z"/><path class="cls-3" d="M651.8,526.23a17.32,17.32,0,0,1,2.36.24c8.34,1.44,14,8.82,12.71,16.47-1.2,6.95-7.77,11.74-15.21,11.48Z"/><path class="cls-4" d="M651.77,532.38a8.91,8.91,0,0,1,1.35.12c4.71.82,7.92,5,7.18,9.3a8.2,8.2,0,0,1-8.61,6.48Z"/><rect class="cls-10" x="1224.53" y="676.89" width="103.64" height="217.39" rx="19.81"/><rect class="cls-10" x="1333.06" y="674.24" width="28" height="91.44" rx="9.95" transform="translate(-137.63 1078.6) rotate(-41.7)"/><rect class="cls-6" x="1224.53" y="850.08" width="28" height="91.44" rx="9.95"/><rect class="cls-6" x="1224.53" y="898.41" width="28" height="91.44" rx="9.95"/><rect class="cls-6" x="1299.82" y="850.08" width="28" height="91.44" rx="9.95"/><rect class="cls-6" x="1299.82" y="898.41" width="28" height="91.44" rx="9.95"/><rect class="cls-10" x="1193.89" y="677.24" width="28" height="91.44" rx="9.95" transform="translate(1628.73 2066.3) rotate(-138.3)"/><rect class="cls-10" x="1168.32" y="738.99" width="28" height="62.76" rx="9.95" transform="translate(2267.98 1671.85) rotate(-173.38)"/><rect class="cls-10" x="1375.52" y="704.86" width="28" height="62.76" rx="9.95" transform="translate(1270.09 2304.21) rotate(-113.56)"/><rect class="cls-4" x="1252.13" y="603.08" width="44.93" height="91.94" rx="15.97"/><ellipse class="cls-13" cx="1274.65" cy="499.84" rx="84.95" ry="57.74"/><rect class="cls-3" x="1216.3" y="483.49" width="112.98" height="177.02" rx="29.19"/><ellipse class="cls-14" cx="1290.13" cy="535.97" rx="9.19" ry="7.32"/><ellipse class="cls-14" cx="1254.24" cy="535.97" rx="9.19" ry="7.32"/><ellipse class="cls-13" cx="1231.72" cy="479.77" rx="20.63" ry="16.44"/><ellipse class="cls-13" cx="1267.61" cy="470.88" rx="34" ry="27.1"/><ellipse class="cls-13" cx="1311.01" cy="483.4" rx="20.63" ry="16.44"/><ellipse class="cls-13" cx="1331.64" cy="483.4" rx="15.41" ry="12.28"/><ellipse class="cls-13" cx="1214.6" cy="472.84" rx="20.63" ry="16.44"/><ellipse class="cls-13" cx="1218.83" cy="481.56" rx="25.3" ry="18.24"/><ellipse class="cls-13" cx="1254.24" cy="454.27" rx="20.63" ry="16.44"/><ellipse class="cls-13" cx="1316.23" cy="462.38" rx="20.63" ry="16.44"/><ellipse class="cls-13" cx="1300.87" cy="454.27" rx="20.63" ry="16.44"/><ellipse class="cls-13" cx="1233.61" cy="460.23" rx="20.63" ry="16.44"/><ellipse class="cls-13" cx="1333.88" cy="479.77" rx="27.15" ry="21.64"/><path class="cls-6" d="M1224.75,837.23a20.09,20.09,0,0,0-.22,2.81v32c0,12.78,12.54,23.23,27.87,23.23h47.9c15.33,0,27.87-10.45,27.87-23.23V840a18.69,18.69,0,0,0-.23-2.81Z"/><path class="cls-15" d="M1279.1,625.67a16.74,16.74,0,0,1,11,3.86c7.8-4.31,12.52-11.79,11.48-19.8h0a18.36,18.36,0,0,0-3.44-8.41l-48.71,4a17.08,17.08,0,0,0-1.2,8.8h0c1.1,8.42,8.28,15.22,17.7,17.92C1268.38,628.27,1273.35,625.67,1279.1,625.67Z"/><path class="cls-16" d="M1277.65,633.2h0a32.6,32.6,0,0,0,5.72-1,28.7,28.7,0,0,0,10.14-5,54.7,54.7,0,0,0-7.67-3.06,51.5,51.5,0,0,0-7.82-1.88c-8.44-1.05-16.8,5.3-18.84,6.92a31.7,31.7,0,0,0,12.62,3.93A32.76,32.76,0,0,0,1277.65,633.2Z"/><path class="cls-17" d="M1285.69,602.36l-5.8.38-4.42.5,1.69,13.18c.19,1.48,2.43,2.51,5,2.3l5.12-.43c2.54-.21,4.46-1.59,4.27-3.07l-1.73-13.17Z"/><rect class="cls-4" x="1263.08" y="557.83" width="19.43" height="30.72" rx="5.02"/><rect class="cls-3" x="1416.1" y="710.37" width="12.02" height="26.15" rx="2.66" transform="translate(1327.44 2316.18) rotate(-113.56)"/><rect class="cls-3" x="1438.23" y="693.69" width="16.97" height="36.92" rx="2.66" transform="translate(1372.24 2322.92) rotate(-113.56)"/><rect class="cls-4" x="1427.98" y="698.95" width="4.11" height="13.2" rx="1.33" transform="translate(2860.06 1411.09) rotate(180)"/><rect class="cls-3" x="1171.97" y="786.25" width="12.02" height="26.15" rx="2.66" transform="translate(2141.42 1847.34) rotate(-166.75)"/><rect class="cls-3" x="1162.78" y="807.1" width="16.97" height="36.92" rx="2.66" transform="translate(2122.16 1897.56) rotate(-166.75)"/><rect class="cls-4" x="1162.65" y="808.7" width="4.11" height="13.2" rx="1.33" transform="translate(2111.56 1875.82) rotate(-166.75)"/><path class="cls-7" d="M1257.25,991.11c-1.46-12.28-9.75-21.69-19.76-21.69s-18.37,9.49-19.78,21.83Z"/><path class="cls-7" d="M1333.59,991.11c-1.46-12.28-9.75-21.69-19.76-21.69s-18.36,9.49-19.78,21.83Z"/><path class="cls-11" d="M1270.1,702.63h.89l2.74-6.64,2.73,6.64h.89a22.53,22.53,0,0,0,22.47-22.47v-3.27h-3.18c-3.52,11.1-8.41,16-21.59,17.85l-1.63.08c-10.21-.7-18-7.65-21-17.93l-4.77.41C1247.63,689.66,1257.74,702.63,1270.1,702.63Z"/><polygon class="cls-9" points="1267.58 837.23 1284.07 837.23 1327.94 837.23 1327.83 842.34 1284.42 842.34 1267.58 842.34 1224.53 842.34 1224.76 837.23 1267.58 837.23"/><path class="cls-5" d="M1280.06,837.23s13.55.58,17.42,7.78-1.55,3.41-1.55,3.41-12.77-6-15.17-6.08-.7-4.58-.7-4.58Z"/><rect class="cls-8" x="1273.83" y="837.23" width="1.07" height="5.11"/><rect class="cls-8" x="1279.48" y="837.23" width="1.07" height="5.11"/><rect class="cls-8" x="1276.39" y="835.2" width="1.07" height="5.11" transform="translate(439.16 2114.68) rotate(-90)"/><rect class="cls-8" x="1276.39" y="839.25" width="1.07" height="5.11" transform="translate(435.12 2118.73) rotate(-90)"/><path class="cls-3" d="M1216.23,535.09a17,17,0,0,0-2.45.2,15.79,15.79,0,0,0,2.55,31.41Z"/><path class="cls-4" d="M1216.25,542a9.51,9.51,0,0,0-1.4.1,8.91,8.91,0,0,0,1.46,17.73Z"/><path class="cls-3" d="M1329.14,534.65a17.34,17.34,0,0,1,2.35.24c8.34,1.44,14,8.82,12.71,16.47-1.2,6.95-7.77,11.74-15.21,11.48Z"/><path class="cls-4" d="M1329.1,540.79a10.28,10.28,0,0,1,1.35.13c4.71.81,7.93,5,7.18,9.3a8.2,8.2,0,0,1-8.61,6.48Z"/><rect class="cls-18" x="1432.08" y="648.4" width="82.84" height="63.74"/><rect class="cls-19" x="1468.54" y="648.4" width="12.76" height="63.74"/><path class="cls-20" d="M1452,659.77s-7.6,1.81-8.91-4.7,3.41-7.1,3.41-7.1,2.68-1.81,3.18-4.06.73-8.33,1.45-9.77,1.09-4.28,4.93-2.32a52,52,0,0,1,10.06,6.81c1.45,1.45,4.93,4.34,4.93,4.34l2.53,1.23a3.42,3.42,0,0,0,2.39,0,26.6,26.6,0,0,0,4.93-3.76,84.48,84.48,0,0,1,9.56-7.24c1.52-.73,6.23-3.63,7.09-.51s.8,4.27,1.16,8.18,1.34,4.84,4.06,7c1.08.87,3.28,1.23,3.07,6.08,0,0,.19,4.42-3.22,5.36s-6.15.71-12.52-2.48-2.83-1.43-7.68-3.75l-6.23-3-1.56-.36h-1s-7.75,3.23-9.42,4.62S1454.77,658.9,1452,659.77Z"/><path class="cls-21" d="M1469.55,649.78l-11.08,6.3a37.36,37.36,0,0,1-8.69,2.9,3.37,3.37,0,0,1-4-3.12,4.46,4.46,0,0,1,3-3.33c2.47-.65,6.38-1.59,8.19-1.81S1469.55,649.78,1469.55,649.78Z"/><path class="cls-21" d="M1480.05,649.78l11.08,6.3a37.36,37.36,0,0,0,8.69,2.9,3.36,3.36,0,0,0,4-3.12,4.44,4.44,0,0,0-3-3.33,83.43,83.43,0,0,0-8.18-1.81C1490.84,650.5,1480.05,649.78,1480.05,649.78Z"/><path class="cls-21" d="M1471,650.87l.11-7.9s.47-2.06,1.74-1.19,1.84,1.34,1.84,1.34l2.18-1.56a1.28,1.28,0,0,1,1.44,1.34c0,1.48,0,8,0,8h-1.62l-1.85-1.27-2.36,1.08Z"/><polygon class="cls-20" points="1474.91 646.45 1491.78 682.91 1493.48 674.62 1501.09 673.79 1475.09 646.45 1474.91 646.45"/><polygon class="cls-20" points="1474.63 646.54 1457.75 683 1456.05 674.71 1448.44 673.88 1474.44 646.54 1474.63 646.54"/><path class="cls-22" d="M1463.4,641.81l10.36,5.58a2.7,2.7,0,0,0,3.66-1.1l2.2-4.08a2.71,2.71,0,0,0-1.1-3.66L1468.16,633a2.71,2.71,0,0,0-3.66,1.1l-2.2,4.08A2.71,2.71,0,0,0,1463.4,641.81Zm12.19,4.51a.39.39,0,0,1-.37.69.4.4,0,0,1-.15-.53A.38.38,0,0,1,1475.59,646.32Z"/><line x1="1472.75" y1="641.97" x2="1466.17" y2="638.43"/><line x1="1474.29" y1="639.11" x2="1467.72" y2="635.56"/><line x1="1474.44" y1="639.18" x2="1467.72" y2="635.56"/><path d="M1474.86,644.63l-.67-.35.08-.14.5.28.22-.41-.46-.25.07-.14.46.26.3-.56.16.08Z"/><path d="M1474.36,643.56l-.14.28-.14-.07.08-.18h0a.31.31,0,0,1-.35.06l0,0,.09-.15.05,0a.26.26,0,0,0,.33-.09.43.43,0,0,0,0-.07l.26-.47.16.08Z"/><path d="M1473.61,642.37l0,.12h0a.34.34,0,0,1,.34,0,.28.28,0,0,1,.13.4c-.11.21-.37.23-.71,0v0a.2.2,0,0,0,.09.31.46.46,0,0,0,.27.06l0,.13a.7.7,0,0,1-.33-.08.35.35,0,0,1-.14-.54l.17-.34a1.07,1.07,0,0,0,.1-.22Zm-.22.47c.17.1.39.17.48,0a.15.15,0,0,0-.07-.23.23.23,0,0,0-.29,0l0,0Z"/><path d="M1472.86,642.92a.13.13,0,0,1-.17.06.13.13,0,0,1,0-.17.12.12,0,0,1,.17-.06A.12.12,0,0,1,1472.86,642.92Zm.35-.64a.11.11,0,0,1-.17.05.12.12,0,0,1,0-.17.12.12,0,0,1,.17,0A.12.12,0,0,1,1473.21,642.28Z"/><path d="M1471.66,641.82l.33-.32.17.09-1.08,1-.2-.11.25-1.45.17.09-.08.46Zm-.47-.09-.07.42-.06.26h0l.18-.19.32-.29Z"/><path d="M1470.61,641.59c0,.09-.08.17-.12.24l-.14-.07.07-.15h0a.34.34,0,0,1-.38,0,.36.36,0,0,1-.11-.54l.29-.53.16.09-.28.51c-.07.14-.08.29.07.37a.24.24,0,0,0,.3,0,.18.18,0,0,0,0-.07l.29-.53.16.09Z"/><path d="M1469.15,641.44l.14-.25-.23-.13.06-.12.23.12.26-.47c.06-.11.06-.19,0-.24l-.1,0,.06-.12a.37.37,0,0,1,.15,0,.24.24,0,0,1,.14.16.43.43,0,0,1-.06.27l-.26.48.14.07-.07.12-.14-.07-.11.21Z"/><path d="M1468.32,640.1a.5.5,0,0,1,.69-.23.49.49,0,0,1,.18.69.49.49,0,1,1-.87-.46Zm.71.37a.34.34,0,0,0-.09-.48.35.35,0,0,0-.45.2.34.34,0,0,0,.08.48A.35.35,0,0,0,1469,640.47Z"/><path d="M1468,640.19l-.13.25-.14-.08.07-.15h0a.37.37,0,0,1-.38,0c-.13-.06-.28-.24-.11-.54l.28-.53.16.09-.27.51c-.08.14-.09.29.06.37a.24.24,0,0,0,.3-.05.22.22,0,0,0,.06-.07l.28-.53.16.09Z"/><path d="M1476.17,641.64l.37.2-.07.13-.91-.49.07-.13.38.2.59-1.1.16.09Z"/><path d="M1475.33,641.23a.1.1,0,0,1,.15,0,.11.11,0,0,1,0,.15.11.11,0,0,1-.16,0A.1.1,0,0,1,1475.33,641.23Zm.79-1-.48.89-.16-.09.48-.88Z"/><path d="M1475,641.26l-.16-.09.7-1.29.16.08Z"/><path d="M1474.9,640.49a.13.13,0,0,1-.17.06.13.13,0,0,1,0-.18.12.12,0,0,1,.17,0A.12.12,0,0,1,1474.9,640.49Zm.35-.64a.12.12,0,0,1-.17,0,.12.12,0,0,1,0-.17.13.13,0,0,1,.17-.06A.14.14,0,0,1,1475.25,639.85Z"/><path d="M1472.8,640l-.16-.09.45-.82c.17-.33.39-.34.6-.23a.47.47,0,0,1,.15.12l-.09.12a.63.63,0,0,0-.12-.1c-.14-.07-.26-.06-.39.19Z"/><path d="M1472,638.56a.48.48,0,0,1,.69-.23.47.47,0,0,1,.18.68.48.48,0,0,1-.69.23A.46.46,0,0,1,1472,638.56Zm.7.37a.34.34,0,0,0-.08-.49.4.4,0,0,0-.37.69C1472.45,639.23,1472.62,639.1,1472.71,638.93Z"/><path d="M1472,638.18a.44.44,0,0,0-.18-.18.17.17,0,0,0-.24,0c0,.08,0,.14.08.25a.34.34,0,0,1,.1.38.32.32,0,0,1-.45.09.53.53,0,0,1-.19-.17l.11-.09a.34.34,0,0,0,.15.14c.1.05.18,0,.21,0s0-.13-.08-.24-.16-.26-.09-.39.26-.2.47-.09a.62.62,0,0,1,.22.2Z"/><path d="M1471,638a.31.31,0,0,0-.13-.47.84.84,0,0,0-.27-.09l0-.13a.85.85,0,0,1,.32.11.46.46,0,0,1,.2.68.49.49,0,0,1-.67.25.43.43,0,0,1-.14-.62.43.43,0,0,1,0-.07Zm-.53-.14a.26.26,0,0,0,.08.38.3.3,0,0,0,.39-.13Z"/><path d="M1470.4,637.11l-.41.76.12.07-.07.12-.12-.06,0,0a.39.39,0,0,1-.59.18.47.47,0,0,1-.19-.18l.11-.1a.4.4,0,0,0,.16.16c.17.09.28,0,.36-.14l0-.05-.51-.28.47-.88.16.09-.41.76.36.19.41-.76Z"/><path d="M1469.11,637.25a1.87,1.87,0,0,0-.12.25l-.14-.08.07-.15h0a.38.38,0,0,1-.38,0,.38.38,0,0,1-.11-.55l.29-.53.16.09-.28.51c-.08.14-.08.29.07.37a.24.24,0,0,0,.3,0,.13.13,0,0,0,0-.07l.29-.53.16.09Z"/><path d="M1468.14,636.43a.32.32,0,0,0-.14-.47.84.84,0,0,0-.27-.09l0-.13a.89.89,0,0,1,.33.11.46.46,0,0,1,.19.68.49.49,0,0,1-.67.25.42.42,0,0,1-.14-.61.28.28,0,0,1,0-.08Zm-.54-.14a.26.26,0,0,0,.09.38.29.29,0,0,0,.38-.13Z"/><rect class="cls-10" x="858.55" y="674.77" width="103.64" height="217.39" rx="19.81"/><rect class="cls-10" x="967.08" y="672.12" width="28" height="91.44" rx="9.95" transform="translate(-228.96 834.59) rotate(-41.7)"/><rect class="cls-6" x="858.55" y="847.96" width="28" height="91.44" rx="9.95"/><rect class="cls-6" x="858.55" y="896.29" width="28" height="91.44" rx="9.95"/><rect class="cls-6" x="933.85" y="847.96" width="28" height="91.44" rx="9.95"/><rect class="cls-6" x="933.85" y="896.29" width="28" height="91.44" rx="9.95"/><rect class="cls-10" x="827.91" y="675.12" width="28" height="91.44" rx="9.95" transform="translate(990.92 1819.13) rotate(-138.3)"/><rect class="cls-10" x="802.35" y="736.87" width="28" height="62.76" rx="9.95" transform="translate(1538.71 1625.46) rotate(-173.38)"/><rect class="cls-10" x="1009.54" y="702.74" width="28" height="62.76" rx="9.95" transform="translate(759.76 1965.78) rotate(-113.56)"/><rect class="cls-4" x="886.15" y="600.97" width="44.93" height="91.94" rx="15.97"/><ellipse class="cls-13" cx="908.67" cy="497.73" rx="84.95" ry="57.74"/><rect class="cls-3" x="850.33" y="481.38" width="112.98" height="177.02" rx="29.19"/><ellipse class="cls-14" cx="924.15" cy="533.85" rx="9.19" ry="7.32"/><ellipse class="cls-14" cx="888.27" cy="533.85" rx="9.19" ry="7.32"/><ellipse class="cls-13" cx="865.74" cy="477.65" rx="20.63" ry="16.44"/><ellipse class="cls-13" cx="901.63" cy="468.77" rx="34" ry="27.1"/><ellipse class="cls-13" cx="945.03" cy="481.28" rx="20.63" ry="16.44"/><ellipse class="cls-13" cx="965.67" cy="481.28" rx="15.41" ry="12.28"/><ellipse class="cls-13" cx="848.63" cy="470.72" rx="20.63" ry="16.44"/><ellipse class="cls-13" cx="852.85" cy="479.44" rx="25.3" ry="18.24"/><ellipse class="cls-13" cx="888.27" cy="452.16" rx="20.63" ry="16.44"/><ellipse class="cls-13" cx="950.25" cy="460.27" rx="20.63" ry="16.44"/><ellipse class="cls-13" cx="934.89" cy="452.16" rx="20.63" ry="16.44"/><ellipse class="cls-13" cx="867.63" cy="458.11" rx="20.63" ry="16.44"/><ellipse class="cls-13" cx="967.9" cy="477.65" rx="27.15" ry="21.64"/><path class="cls-6" d="M858.78,835.11a18.71,18.71,0,0,0-.23,2.82v32c0,12.78,12.54,23.23,27.87,23.23h47.91c15.32,0,27.86-10.45,27.86-23.23v-32a20.12,20.12,0,0,0-.22-2.82Z"/><path class="cls-15" d="M913.12,623.56a16.73,16.73,0,0,1,11,3.85c7.8-4.3,12.53-11.78,11.48-19.8h0a18.36,18.36,0,0,0-3.44-8.41l-48.71,4a17.15,17.15,0,0,0-1.2,8.79h0c1.1,8.42,8.28,15.23,17.7,17.92C902.4,626.15,907.38,623.56,913.12,623.56Z"/><path class="cls-16" d="M911.67,631.08h0a31.7,31.7,0,0,0,5.72-1,28.87,28.87,0,0,0,10.15-4.94,55.26,55.26,0,0,0-7.68-3.07A51.5,51.5,0,0,0,912,620.2c-8.44-1.05-16.8,5.3-18.83,6.92a31.64,31.64,0,0,0,12.61,3.93A32.76,32.76,0,0,0,911.67,631.08Z"/><path class="cls-17" d="M919.71,600.24l-5.8.39-4.42.49,1.69,13.18c.19,1.48,2.43,2.52,5,2.3l5.12-.42c2.54-.21,4.46-1.6,4.27-3.08l-1.72-13.17Z"/><rect class="cls-4" x="897.11" y="555.71" width="19.43" height="30.72" rx="5.02"/><rect class="cls-3" x="1050.12" y="708.25" width="12.02" height="26.15" rx="2.66" transform="matrix(-0.4, -0.92, 0.92, -0.4, 817.11, 1977.75)"/><rect class="cls-3" x="1072.25" y="691.57" width="16.97" height="36.92" rx="2.66" transform="translate(861.9 1984.49) rotate(-113.56)"/><rect class="cls-3" x="805.99" y="784.14" width="12.02" height="26.15" rx="2.66" transform="translate(1419.69 1759.29) rotate(-166.75)"/><rect class="cls-3" x="796.8" y="804.98" width="16.97" height="36.92" rx="2.66" transform="translate(1400.43 1809.52) rotate(-166.75)"/><rect class="cls-4" x="796.67" y="806.58" width="4.11" height="13.2" rx="1.33" transform="translate(1389.83 1787.77) rotate(-166.75)"/><path class="cls-7" d="M891.27,989c-1.46-12.28-9.75-21.69-19.76-21.69s-18.36,9.48-19.78,21.83Z"/><path class="cls-7" d="M967.62,989c-1.46-12.28-9.76-21.69-19.77-21.69s-18.36,9.48-19.77,21.83Z"/><path class="cls-11" d="M904.12,700.51h.9l2.73-6.63,2.73,6.63h.89a22.53,22.53,0,0,0,22.47-22.46v-3.28h-3.18c-3.52,11.1-8.41,16-21.59,17.85l-1.62.08c-10.22-.69-18-7.64-21-17.93l-4.77.41C881.65,687.54,891.76,700.51,904.12,700.51Z"/><polygon class="cls-9" points="901.6 835.11 918.09 835.11 961.97 835.11 961.85 840.22 918.44 840.22 901.6 840.22 858.55 840.22 858.78 835.11 901.6 835.11"/><path class="cls-5" d="M914.09,835.11s13.54.58,17.42,7.78S930,846.3,930,846.3s-12.78-6-15.18-6.08-.69-4.58-.69-4.58Z"/><rect class="cls-8" x="907.85" y="835.11" width="1.07" height="5.11"/><rect class="cls-8" x="913.5" y="835.11" width="1.07" height="5.11"/><rect class="cls-8" x="910.41" y="833.09" width="1.07" height="5.11" transform="translate(75.3 1746.59) rotate(-90)"/><rect class="cls-8" x="910.41" y="837.13" width="1.07" height="5.11" transform="translate(71.25 1750.63) rotate(-90)"/><path class="cls-3" d="M850.25,533a15.65,15.65,0,0,0-2.45.19,15.79,15.79,0,0,0,2.55,31.41Z"/><path class="cls-4" d="M850.27,539.86a9.51,9.51,0,0,0-1.4.1,8.92,8.92,0,0,0,1.46,17.74Z"/><path class="cls-3" d="M963.16,532.54a17.15,17.15,0,0,1,2.35.23c8.35,1.45,14,8.82,12.72,16.47-1.21,7-7.78,11.74-15.22,11.48Z"/><path class="cls-4" d="M963.13,538.68a8.78,8.78,0,0,1,1.34.12c4.71.82,7.93,5,7.18,9.31a8.19,8.19,0,0,1-8.61,6.47Z"/><polygon class="cls-23" points="1092.35 631.46 1097.26 602.71 1070.61 612.01 1092.35 631.46"/><path class="cls-6" d="M1090.88,630c-.32-.78,1.4-1.37,1.68-.58l7.91,22.64s-1.08.8-1.68.59S1091.2,630.74,1090.88,630Z"/><polygon class="cls-24" points="1074.33 636.56 1079.24 607.8 1052.59 617.11 1074.33 636.56"/><path class="cls-6" d="M1072.86,635.05c-.32-.79,1.4-1.38,1.68-.59l7.91,22.65s-1.08.79-1.68.58S1073.18,635.83,1072.86,635.05Z"/><polygon class="cls-25" points="1062.4 640.41 1072.17 612.93 1044.32 617.52 1062.4 640.41"/><path class="cls-6" d="M1061.21,638.67c-.19-.83,1.62-1.11,1.75-.29l3.91,23.67s-1.2.6-1.76.29S1061.39,639.5,1061.21,638.67Z"/><polygon class="cls-23" points="1119.01 638.03 1136.38 614.6 1108.41 610.86 1119.01 638.03"/><path class="cls-6" d="M1118.38,636c.07-.85,1.88-.59,1.77.24L1117,660s-1.32.22-1.77-.23S1118.31,636.87,1118.38,636Z"/><polygon class="cls-24" points="1101.51 634.3 1118.88 610.87 1090.91 607.13 1101.51 634.3"/><path class="cls-6" d="M1100.88,632.29c.07-.85,1.88-.59,1.77.24l-3.18,23.77s-1.32.23-1.77-.23S1100.81,633.14,1100.88,632.29Z"/><polygon class="cls-23" points="1066.21 634.72 1075.03 606.92 1047.36 612.46 1066.21 634.72"/><path class="cls-6" d="M1065,633c-.21-.82,1.58-1.16,1.74-.35l4.72,23.52s-1.18.64-1.75.35S1065.17,633.85,1065,633Z"/><polygon class="cls-25" points="1111.78 631.55 1129.15 608.12 1101.18 604.38 1111.78 631.55"/><path class="cls-6" d="M1111.15,629.54c.07-.85,1.88-.59,1.77.24l-3.18,23.77s-1.32.22-1.77-.23S1111.08,630.39,1111.15,629.54Z"/><polygon class="cls-26" points="1067.72 639.4 1082.15 614.05 1053.93 613.7 1067.72 639.4"/><path class="cls-6" d="M1066.86,637.48c0-.85,1.79-.81,1.78,0l-.3,24s-1.28.38-1.78,0S1066.89,638.33,1066.86,637.48Z"/><polygon class="cls-27" points="1083.85 639.4 1098.28 614.05 1070.06 613.7 1083.85 639.4"/><path class="cls-6" d="M1083,637.48c0-.85,1.79-.81,1.78,0l-.3,24s-1.28.38-1.78,0S1083,638.33,1083,637.48Z"/><polygon class="cls-26" points="1101.26 638.6 1125.33 622.13 1100.12 609.45 1101.26 638.6"/><path class="cls-6" d="M1101.32,636.49c.34-.78,2,.06,1.59.8l-10.78,21.43s-1.32-.22-1.59-.8S1101,637.27,1101.32,636.49Z"/><polygon class="cls-27" points="1051.11 635.22 1055.03 606.32 1028.72 616.53 1051.11 635.22"/><path class="cls-6" d="M1049.59,633.76c-.35-.77,1.35-1.42,1.66-.64l8.67,22.36s-1.05.83-1.66.65S1049.94,634.54,1049.59,633.76Z"/><polygon class="cls-12" points="1085.75 746.83 1126.46 639.18 1045.04 639.18 1085.75 746.83"/><polygon class="cls-19" points="1085.75 746.83 1081.56 639.17 1045.32 639.17 1085.75 746.83"/><rect class="cls-4" x="1067.42" y="698.81" width="4.11" height="13.2" rx="1.33" transform="translate(850.37 1967.7) rotate(-113.56)"/><path d="M116.35,97.87H91.92L89.46,104h2.46c2.42,0,4.14.46,5.17,1.4a5,5,0,0,1,0,7.26q-1.55,1.39-5.17,1.4H78.37q-3.63,0-5.17-1.4a5,5,0,0,1,.07-7.34q1.62-1.42,5.35-1.32l15.8-39.36H87.85c-2.43,0-4.15-.46-5.18-1.39a5.1,5.1,0,0,1,0-7.32c1-.93,2.75-1.39,5.18-1.39l21.73.05,20,49.41c2.36,0,3.91.26,4.66.78a5,5,0,0,1,2.26,4.27,4.7,4.7,0,0,1-1.52,3.61q-1.51,1.39-5.15,1.4H116.3q-3.63,0-5.17-1.4a4.7,4.7,0,0,1-1.55-3.66,4.63,4.63,0,0,1,1.55-3.6c1-.94,2.75-1.4,5.17-1.4h2.46Zm-4.17-10.06-8.09-19.92L95.94,87.81Z"/><path d="M156,69.51V72.9a19.14,19.14,0,0,1,6.06-3.54,21.37,21.37,0,0,1,7.18-1.17q8.94,0,14.14,5.54,4.11,4.42,4.12,11.58V104a6.77,6.77,0,0,1,4.71,1.4,4.74,4.74,0,0,1,1.52,3.65,4.65,4.65,0,0,1-1.55,3.61q-1.55,1.39-5.17,1.4h-9.08q-3.63,0-5.18-1.4a4.69,4.69,0,0,1-1.54-3.66,4.64,4.64,0,0,1,1.52-3.6,6.73,6.73,0,0,1,4.71-1.4V85c0-2.19-.59-3.8-1.77-4.81-1.54-1.31-3.84-2-6.92-2a13.19,13.19,0,0,0-6.11,1.35A27.21,27.21,0,0,0,156,85.31V104c2.58,0,4.25.24,5,.73a4.78,4.78,0,0,1,2.4,4.32,4.65,4.65,0,0,1-1.54,3.61q-1.55,1.39-5.18,1.4H145.25q-3.63,0-5.18-1.4a4.69,4.69,0,0,1-1.54-3.66,4.81,4.81,0,0,1,2.35-4.27c.79-.49,2.47-.73,5.06-.73V79.57a6.68,6.68,0,0,1-4.71-1.42,4.74,4.74,0,0,1-1.53-3.63,4.64,4.64,0,0,1,1.55-3.61q1.55-1.39,5.18-1.4Z"/><path d="M225.81,79.57V99.74c0,2.16.45,3.58,1.33,4.27,1.37,1.08,3.83,1.62,7.36,1.62a31.22,31.22,0,0,0,14.23-3.29,9.57,9.57,0,0,1,3.92-1.28,4.63,4.63,0,0,1,3.42,1.48,4.92,4.92,0,0,1,1.44,3.58,4.38,4.38,0,0,1-1.57,3.38q-2.4,2.31-9.49,4.25a46.91,46.91,0,0,1-11.95,1.94q-9.37,0-14.06-4a12.66,12.66,0,0,1-4.69-9.94V79.57h-3.63q-3.63,0-5.17-1.4a4.69,4.69,0,0,1-1.55-3.65A4.64,4.64,0,0,1,207,70.91q1.55-1.39,5.17-1.4h3.63V60.43q0-3.63,1.4-5.17a4.72,4.72,0,0,1,3.66-1.55,4.67,4.67,0,0,1,3.61,1.55q1.4,1.55,1.39,5.17v9.08h18.6q3.63,0,5.18,1.4a4.69,4.69,0,0,1,1.54,3.66,4.62,4.62,0,0,1-1.54,3.6q-1.54,1.39-5.18,1.4Z"/><path d="M316.54,92.62a21.78,21.78,0,0,1-3.22,11.22,22.6,22.6,0,0,1-9.57,8.63,28.91,28.91,0,0,1-26.42,0,22.83,22.83,0,0,1-9.57-8.61,21.74,21.74,0,0,1-3.29-11.38,24.25,24.25,0,0,1,12.93-21,27.34,27.34,0,0,1,26.3.08,23.31,23.31,0,0,1,9.6,9.17A23.94,23.94,0,0,1,316.54,92.62Zm-10.06,0A13.42,13.42,0,0,0,303,83.74a17,17,0,0,0-23.89-1.13,13.59,13.59,0,0,0-4.57,10.11q0,4.71,4.62,8.81a17.77,17.77,0,0,0,22.71,0Q306.48,97.44,306.48,92.67Z"/><path d="M342.34,69.51V72.9a19.14,19.14,0,0,1,6.06-3.54,21.43,21.43,0,0,1,7.19-1.17q8.93,0,14.13,5.54,4.13,4.42,4.12,11.58V104a6.73,6.73,0,0,1,4.71,1.4,4.7,4.7,0,0,1,1.52,3.65,4.65,4.65,0,0,1-1.54,3.61q-1.54,1.39-5.18,1.4h-9.08q-3.63,0-5.17-1.4a5.06,5.06,0,0,1,0-7.26,6.77,6.77,0,0,1,4.71-1.4V85c0-2.19-.59-3.8-1.76-4.81q-2.31-2-6.92-2A13.16,13.16,0,0,0,349,79.6a27.22,27.22,0,0,0-6.65,5.71V104c2.58,0,4.25.24,5,.73a4.77,4.77,0,0,1,2.41,4.32,4.65,4.65,0,0,1-1.55,3.61q-1.54,1.39-5.17,1.4H331.59q-3.63,0-5.17-1.4a4.7,4.7,0,0,1-1.55-3.66,4.82,4.82,0,0,1,2.36-4.27c.78-.49,2.47-.73,5-.73V79.57a6.68,6.68,0,0,1-4.71-1.42,4.77,4.77,0,0,1-1.52-3.63,4.63,4.63,0,0,1,1.54-3.61q1.55-1.39,5.18-1.4Z"/><path d="M406.32,52.58h13.44L405.29,79.87c-.85,1.6-1.92,2.4-3.19,2.4a3.12,3.12,0,0,1-2.18-.83,2.49,2.49,0,0,1-.91-1.87,8.17,8.17,0,0,1,.34-2Z"/><path d="M487.62,81.29A20,20,0,0,0,482.47,79a20.61,20.61,0,0,0-5.65-.76c-3.89,0-7,.63-9.27,1.91-1,.56-1.52,1.16-1.52,1.82s.69,1.48,2.06,2.2c1.05.53,3.39,1,7,1.53q10,1.37,13.93,2.74a16.83,16.83,0,0,1,7.95,5.4,12.08,12.08,0,0,1,2.8,7.56,11,11,0,0,1-4.76,9q-6.82,5.25-17.71,5.25a40.71,40.71,0,0,1-8.08-.76,29.74,29.74,0,0,1-6.79-2.24,5.48,5.48,0,0,1-1.57,1,4.48,4.48,0,0,1-1.72.35,4.81,4.81,0,0,1-3.75-1.55c-.94-1-1.4-2.75-1.4-5.17v-3.39c0-2.42.46-4.15,1.4-5.18a4.69,4.69,0,0,1,3.65-1.54,4.62,4.62,0,0,1,3,1,6.73,6.73,0,0,1,1.92,3.46,15.43,15.43,0,0,0,5.54,3,25.21,25.21,0,0,0,7.46,1q6.92,0,10.75-2.16c1.21-.72,1.81-1.47,1.81-2.26,0-1.31-.86-2.39-2.6-3.24s-5.31-1.57-10.74-2.16q-12.12-1.28-16.2-4.9A11.34,11.34,0,0,1,456,82.07a11,11,0,0,1,4.56-9q6.2-4.91,16.2-4.9a33.15,33.15,0,0,1,6.69.66,27.33,27.33,0,0,1,6.16,2,8.21,8.21,0,0,1,1.74-1,3.87,3.87,0,0,1,1.5-.35,4.42,4.42,0,0,1,3.44,1.55q1.37,1.55,1.37,5.17v2.46c0,2.19-.26,3.68-.79,4.46a5.11,5.11,0,0,1-7.45,1.13A5.07,5.07,0,0,1,487.62,81.29Z"/><path d="M624.07,50.42V104h1.71c2.39,0,4.11.46,5.16,1.4a5,5,0,0,1,0,7.26c-1,.93-2.75,1.4-5.18,1.4H614v-2.46a29.13,29.13,0,0,1-15,4.08q-11.32,0-18.25-6.55a21.57,21.57,0,0,1-6.92-16.32,23.67,23.67,0,0,1,7.26-17.42,24.19,24.19,0,0,1,17.72-7.21,25.32,25.32,0,0,1,7.7,1.2A30.43,30.43,0,0,1,614,73V60.48h-1.72c-2.42,0-4.15-.46-5.18-1.4a4.62,4.62,0,0,1-1.54-3.6,4.69,4.69,0,0,1,1.54-3.66q1.54-1.4,5.18-1.4ZM614,93.11a14.29,14.29,0,0,0-4.37-10.55,15.36,15.36,0,0,0-21.34,0A14.08,14.08,0,0,0,583.93,93a11.76,11.76,0,0,0,3.92,9.1q3.93,3.56,11.09,3.56T610,102.07A11.52,11.52,0,0,0,614,93.11Z"/><path d="M688.34,96.89H647.07a12.93,12.93,0,0,0,5.57,6.33q4,2.41,10.82,2.41a62.29,62.29,0,0,0,14.87-2.41,26,26,0,0,1,5.3-1,4.57,4.57,0,0,1,3.39,1.42,5,5,0,0,1,1.37,3.59,4.37,4.37,0,0,1-1.47,3.33q-2,1.82-9.57,3.46a69,69,0,0,1-14.62,1.65q-12.08,0-19.31-6.82a22.15,22.15,0,0,1-7.24-16.79A21.56,21.56,0,0,1,644,74.84a27,27,0,0,1,18-6.65,28.72,28.72,0,0,1,11.26,2.16A23.93,23.93,0,0,1,680.93,75a29.31,29.31,0,0,1,5.84,9,22,22,0,0,1,1.57,8.63ZM677.2,86.83a15.79,15.79,0,0,0-6-6.45,19.49,19.49,0,0,0-17.72,0,16.1,16.1,0,0,0-6.08,6.45Z"/><path d="M736.08,81.29A20.16,20.16,0,0,0,730.93,79a20.61,20.61,0,0,0-5.65-.76c-3.89,0-7,.63-9.27,1.91-1,.56-1.52,1.16-1.52,1.82s.69,1.48,2.06,2.2c1.05.53,3.38,1,7,1.53q10,1.37,13.93,2.74a16.83,16.83,0,0,1,8,5.4,12.08,12.08,0,0,1,2.8,7.56,11,11,0,0,1-4.76,9q-6.82,5.25-17.72,5.25a40.68,40.68,0,0,1-8.07-.76,29.74,29.74,0,0,1-6.79-2.24,5.48,5.48,0,0,1-1.57,1,4.48,4.48,0,0,1-1.72.35,4.81,4.81,0,0,1-3.75-1.55c-.94-1-1.4-2.75-1.4-5.17v-3.39c0-2.42.46-4.15,1.4-5.18a4.69,4.69,0,0,1,3.65-1.54,4.64,4.64,0,0,1,3,1,6.73,6.73,0,0,1,1.92,3.46,15.43,15.43,0,0,0,5.54,3,25.21,25.21,0,0,0,7.46,1q6.91,0,10.75-2.16c1.21-.72,1.81-1.47,1.81-2.26,0-1.31-.87-2.39-2.6-3.24s-5.32-1.57-10.75-2.16q-12.12-1.28-16.19-4.9a11.34,11.34,0,0,1-4.07-8.84,11,11,0,0,1,4.56-9q6.18-4.91,16.2-4.9a33.15,33.15,0,0,1,6.69.66,27.33,27.33,0,0,1,6.16,2,8.21,8.21,0,0,1,1.74-1,3.87,3.87,0,0,1,1.5-.35,4.4,4.4,0,0,1,3.43,1.55q1.38,1.55,1.38,5.17v2.46c0,2.19-.26,3.68-.79,4.46A4.92,4.92,0,0,1,741,85.41a4.85,4.85,0,0,1-3.18-1.13A5.07,5.07,0,0,1,736.08,81.29Z"/><path d="M792.31,69.51V104h12.07c2.42,0,4.14.46,5.17,1.4a5,5,0,0,1,0,7.26q-1.54,1.39-5.17,1.4h-34.2c-2.43,0-4.15-.47-5.18-1.4a4.7,4.7,0,0,1-1.55-3.66,4.63,4.63,0,0,1,1.55-3.6c1-.94,2.75-1.4,5.18-1.4h12.07V79.57h-8.1q-3.58,0-5.15-1.4a5,5,0,0,1,0-7.26q1.54-1.39,5.18-1.4Zm-1.38-19.09V61.07H779V50.42Z"/><path d="M860.5,72.51v-3h11.78q3.63,0,5.18,1.4A4.69,4.69,0,0,1,879,74.57a4.62,4.62,0,0,1-1.54,3.6q-1.55,1.39-5.18,1.4h-1.72v36.61a18.49,18.49,0,0,1-2.23,9.25,20.08,20.08,0,0,1-17.25,9.64H839.7q-3.63,0-5.18-1.4a4.63,4.63,0,0,1-1.54-3.61,4.69,4.69,0,0,1,1.54-3.65q1.54-1.39,5.18-1.4h11.09a9.79,9.79,0,0,0,7.16-2.5,8.5,8.5,0,0,0,2.55-6.33v-4.91a27.69,27.69,0,0,1-6.79,3.24,24.65,24.65,0,0,1-24.27-5.77,22.84,22.84,0,0,1-6.91-16.9,22.89,22.89,0,0,1,6.91-17A23.45,23.45,0,0,1,846.62,68a24.05,24.05,0,0,1,7.29,1.1A23.52,23.52,0,0,1,860.5,72.51Zm0,19.28a13.13,13.13,0,0,0-4.1-9.62,13.93,13.93,0,0,0-19.68,0,13.36,13.36,0,0,0,0,19.26,14,14,0,0,0,19.68,0A13.09,13.09,0,0,0,860.46,91.79Z"/><path d="M901.37,69.51V72.9a19.14,19.14,0,0,1,6.06-3.54,21.47,21.47,0,0,1,7.19-1.17q8.94,0,14.13,5.54,4.13,4.42,4.13,11.58V104a6.77,6.77,0,0,1,4.71,1.4,4.74,4.74,0,0,1,1.52,3.65,4.65,4.65,0,0,1-1.55,3.61q-1.54,1.39-5.18,1.4h-9.07q-3.63,0-5.18-1.4a4.7,4.7,0,0,1-1.55-3.66,4.65,4.65,0,0,1,1.53-3.6,6.73,6.73,0,0,1,4.71-1.4V85c0-2.19-.59-3.8-1.77-4.81-1.54-1.31-3.84-2-6.92-2A13.19,13.19,0,0,0,908,79.6a27.22,27.22,0,0,0-6.65,5.71V104c2.59,0,4.25.24,5,.73a4.78,4.78,0,0,1,2.4,4.32,4.65,4.65,0,0,1-1.54,3.61q-1.54,1.39-5.18,1.4H890.63q-3.63,0-5.18-1.4A4.7,4.7,0,0,1,883.9,109a4.82,4.82,0,0,1,2.36-4.27c.78-.49,2.47-.73,5-.73V79.57a6.72,6.72,0,0,1-4.71-1.42,4.77,4.77,0,0,1-1.52-3.63,4.64,4.64,0,0,1,1.55-3.61q1.54-1.39,5.17-1.4Z"/><rect class="cls-4" x="1584.53" y="142.21" width="31.23" height="63.82" rx="6.57"/><path class="cls-10" d="M1633.24,194.74l-9.47,2.7a4.8,4.8,0,0,0-3.3,5.93l14.78,51.82a4.81,4.81,0,0,0,5.93,3.3l9.48-2.7a4.81,4.81,0,0,0,3.3-5.93L1639.18,198A4.82,4.82,0,0,0,1633.24,194.74Z"/><rect class="cls-6" x="1565.34" y="306.57" width="19.46" height="63.48" rx="4.1"/><path class="cls-10" d="M1602.42,194.12l-1.42.1c-5.5,0-11.64-.32-15-4.41a36.11,36.11,0,0,0-20.61,32.5v79a36.1,36.1,0,0,0,36,36h0a36.1,36.1,0,0,0,36-36v-79a36.11,36.11,0,0,0-22.66-33.4C1612.94,191.87,1607.13,194.12,1602.42,194.12Z"/><rect class="cls-6" x="1565.34" y="340.12" width="19.46" height="63.48" rx="4.1"/><rect class="cls-6" x="1617.67" y="306.57" width="19.46" height="63.48" rx="4.1"/><rect class="cls-6" x="1617.67" y="340.12" width="19.46" height="63.48" rx="4.1"/><path class="cls-10" d="M1571.93,195.33l9.14,3.68a4.82,4.82,0,0,1,2.66,6.25l-20.15,50a4.82,4.82,0,0,1-6.25,2.65l-9.14-3.67a4.82,4.82,0,0,1-2.66-6.25l20.15-50A4.82,4.82,0,0,1,1571.93,195.33Z"/><rect class="cls-10" x="1544.49" y="243.29" width="19.46" height="43.57" rx="4.1" transform="translate(3067.59 707.31) rotate(-173.39)"/><rect class="cls-10" x="1637.48" y="245.49" width="19.22" height="43.04" rx="4.05" transform="translate(2.45 -14.69) rotate(0.51)"/><rect class="cls-3" x="1559.63" y="52.07" width="78.52" height="122.89" rx="16.53"/><path class="cls-6" d="M1565.5,297.65a14,14,0,0,0-.16,2v22.22c0,8.87,8.72,16.13,19.37,16.13H1618c10.66,0,19.37-7.26,19.37-16.13V299.6a12.62,12.62,0,0,0-.16-2Z"/><rect class="cls-3" x="1641.86" y="282.03" width="8.25" height="17.93" rx="1.74" transform="translate(2.66 -14.68) rotate(0.51)"/><rect class="cls-3" x="1640.35" y="296.91" width="11.65" height="25.32" rx="2.45" transform="matrix(1, 0.01, -0.01, 1, 2.83, -14.68)"/><rect class="cls-4" x="1638.85" y="299.17" width="2.82" height="9.05" rx="0.59" transform="translate(2.78 -14.62) rotate(0.51)"/><rect class="cls-4" x="1549.64" y="297.72" width="9.16" height="2.85" rx="0.7" transform="translate(907.19 1743.6) rotate(-76.76)"/><rect class="cls-3" x="1542.12" y="281" width="18.15" height="8.35" rx="2.06" transform="translate(918.46 1729.89) rotate(-76.76)"/><rect class="cls-18" x="1499.66" y="280.99" width="53.1" height="69.04" transform="translate(542.05 1523.93) rotate(-62.52)"/><rect class="cls-19" x="1498.61" y="309.65" width="53.1" height="10.63" transform="translate(541.97 1522.71) rotate(-62.52)"/><path class="cls-20" d="M1534.2,338.91s6.32,1.59,4.77,6.91-5.25,3.93-5.25,3.93-2.68.31-3.92,1.77-3.74,5.87-4.83,6.67-2.45,2.73-4.53-.19a44,44,0,0,1-4.83-8.9c-.51-1.62-2-5.1-2-5.1l-1.4-1.88a2.82,2.82,0,0,0-1.76-.92,22.09,22.09,0,0,0-5.09.88,69.59,69.59,0,0,1-9.86,1.68c-1.4-.05-6,.28-5.44-2.36a30.47,30.47,0,0,1,2.29-6.49c1.24-3,.87-4.09-.3-6.75-.46-1.05-1.95-2.17.08-5.67,0,0,1.56-3.34,4.44-2.72s4.82,1.84,8.31,6.64,1.53,2.15,4.23,5.73l3.46,4.59,1,.86.73.38s7,.59,8.74.2S1531.83,338.5,1534.2,338.91Z"/><path class="cls-21" d="M1517.39,339.56l10.62-.4a31,31,0,0,1,7.54,1.21,2.79,2.79,0,0,1,1.75,3.83,3.74,3.74,0,0,1-3.48,1.32c-2.07-.47-5.33-1.28-6.75-1.81S1517.39,339.56,1517.39,339.56Z"/><path class="cls-21" d="M1509.62,335.52l-5.76-8.92a31.42,31.42,0,0,0-5.31-5.48,2.81,2.81,0,0,0-4.15.77,3.72,3.72,0,0,0,.92,3.6,66.48,66.48,0,0,0,5.35,4.49C1501.92,330.83,1509.62,335.52,1509.62,335.52Z"/><path class="cls-21" d="M1516.76,338.21l-3.12,5.79s-1.14,1.34-1.74.21-.85-1.7-.85-1.7l-2.21.32a1.07,1.07,0,0,1-.55-1.55c.54-1.11,3.06-5.88,3.06-5.88l1.21.62.88,1.65,2.16.1Z"/><polygon class="cls-20" points="1512.14 339.96 1513.7 306.53 1509.26 312 1503.31 309.69 1512.01 339.89 1512.14 339.96"/><polygon class="cls-20" points="1512.39 340 1538.9 319.55 1536.97 326.33 1542.27 329.87 1512.52 340.06 1512.39 340"/><path class="cls-22" d="M1518.87,347.81l-5.52-8.11a2.26,2.26,0,0,0-3.12-.6l-3.2,2.17a2.26,2.26,0,0,0-.6,3.13l5.52,8.11a2.25,2.25,0,0,0,3.12.59l3.2-2.16A2.26,2.26,0,0,0,1518.87,347.81Zm-7.28-8a.32.32,0,0,1,.53-.36.32.32,0,1,1-.53.36Z"/><line x1="1512.01" y1="344.09" x2="1515.51" y2="349.24"/><line x1="1509.77" y1="345.62" x2="1513.27" y2="350.76"/><line x1="1509.69" y1="345.5" x2="1513.27" y2="350.76"/><path d="M1511.5,341.28l.35.52-.11.07-.26-.39-.32.22.24.36-.1.07-.25-.36-.43.29-.09-.12Z"/><path d="M1511.45,342.27l.22-.16.07.11-.13.1h0a.23.23,0,0,1,.28.09l0,0-.12.08,0,0a.21.21,0,0,0-.28-.06l-.06,0-.37.25-.08-.12Z"/><path d="M1511.55,343.43l.08-.07h0a.34.34,0,0,1-.25-.14.25.25,0,0,1,.06-.35c.16-.11.36,0,.54.24h0a.16.16,0,0,0,0-.26.4.4,0,0,0-.17-.15l.06-.08a.53.53,0,0,1,.22.18.31.31,0,0,1-.11.46l-.25.17-.16.12Zm.34-.26c-.09-.14-.22-.27-.35-.18a.13.13,0,0,0,0,.2.2.2,0,0,0,.23.08l0,0Z"/><path d="M1511.81,343.66a.1.1,0,0,1,.15,0,.11.11,0,1,1-.18.12A.1.1,0,0,1,1511.81,343.66Zm.5-.35a.11.11,0,0,1,.15,0,.09.09,0,0,1,0,.14.1.1,0,0,1-.15,0A.11.11,0,0,1,1512.31,343.31Z"/><path d="M1512.78,344.59l-.37.11-.09-.13,1.19-.33.1.15-.74,1-.09-.13.23-.31Zm.31.25.22-.28a.79.79,0,0,1,.14-.17h0l-.21.07-.34.09Z"/><path d="M1513.46,345.16l.19-.13.07.11-.11.09h0a.3.3,0,0,1,.28.14c.07.09.11.28-.13.44l-.41.28-.08-.12.39-.27c.11-.08.18-.18.1-.3a.21.21,0,0,0-.24-.08.11.11,0,0,0-.07,0l-.41.28-.09-.13Z"/><path d="M1514.49,345.84l-.2.13.12.18-.09.07-.13-.18-.37.25c-.08.06-.12.12-.07.19l.06.06-.09.07a.3.3,0,0,1-.09-.1.19.19,0,0,1,0-.17c0-.06.06-.11.14-.17l.38-.25-.07-.11.09-.07.08.11.16-.11Z"/><path d="M1514.59,347.14a.41.41,0,0,1-.6-.09.4.4,0,0,1,.13-.58.42.42,0,0,1,.6.1A.4.4,0,0,1,1514.59,347.14Zm-.38-.54a.29.29,0,0,0-.13.39.28.28,0,0,0,.41,0,.27.27,0,0,0,.13-.38A.28.28,0,0,0,1514.21,346.6Z"/><path d="M1514.85,347.2a1.41,1.41,0,0,0,.18-.14l.08.11-.11.09h0a.3.3,0,0,1,.28.14c.07.1.11.28-.13.44l-.41.28-.08-.12.39-.27c.12-.08.18-.18.1-.3a.21.21,0,0,0-.24-.08l-.07,0-.41.28-.09-.12Z"/><path d="M1509.37,343l-.2-.29.11-.07.48.71-.1.07-.2-.29-.86.58-.08-.13Z"/><path d="M1508.86,344.08l.69-.47.09.12-.7.47Zm1-.46a.09.09,0,0,1-.13,0,.09.09,0,0,1,0-.13.1.1,0,0,1,.14,0A.1.1,0,0,1,1509.84,343.62Z"/><path d="M1510.1,343.72l.08.13-1,.69-.08-.13Z"/><path d="M1509.37,344.67a.1.1,0,0,1,.15,0,.12.12,0,0,1,0,.15.1.1,0,1,1-.11-.17Zm.5-.34a.1.1,0,0,1,.15,0,.11.11,0,1,1-.18.12A.1.1,0,0,1,1509.87,344.33Z"/><path d="M1511.23,345.5l.08.12-.64.44c-.25.17-.42.1-.53-.07a.46.46,0,0,1-.07-.14l.12-.05a.21.21,0,0,0,0,.11c.07.11.17.15.36,0Z"/><path d="M1511.27,346.86a.4.4,0,0,1-.6-.09.39.39,0,0,1,.13-.57.41.41,0,0,1,.6.09A.39.39,0,0,1,1511.27,346.86Zm-.38-.54a.29.29,0,0,0-.13.39.3.3,0,0,0,.42,0,.29.29,0,0,0,.12-.39A.28.28,0,0,0,1510.89,346.32Z"/><path d="M1511.14,347.16a.45.45,0,0,0,.06.2c.07.09.14.1.2.06s.07-.1,0-.21,0-.26.07-.32a.26.26,0,0,1,.36.1.52.52,0,0,1,.08.2l-.12,0a.35.35,0,0,0,0-.17.14.14,0,0,0-.18-.05s0,.1,0,.21,0,.25-.09.32-.27.05-.38-.11a.61.61,0,0,1-.09-.23Z"/><path d="M1511.78,347.68a.26.26,0,0,0-.08.4.48.48,0,0,0,.16.16l-.07.09a.81.81,0,0,1-.2-.21.38.38,0,0,1,.12-.57.4.4,0,0,1,.59.07.36.36,0,0,1-.13.51l-.06,0Zm.34.3a.21.21,0,0,0,.08-.31.24.24,0,0,0-.33-.05Z"/><path d="M1511.9,348.55l.6-.4-.07-.1.1-.06.06.09,0,0a.34.34,0,0,1,.51.1.44.44,0,0,1,.07.2l-.12,0a.35.35,0,0,0-.06-.17c-.09-.13-.21-.11-.32,0l0,0,.27.4-.69.47-.08-.13.59-.4-.19-.28-.59.41Z"/><path d="M1512.9,348.94a1.56,1.56,0,0,0,.19-.13l.07.11-.11.09h0a.32.32,0,0,1,.28.14c.07.1.11.28-.13.44l-.41.28-.09-.12.4-.27c.11-.08.18-.18.1-.3a.21.21,0,0,0-.24-.08l-.07,0-.41.28-.09-.12Z"/><path d="M1513.31,349.93a.26.26,0,0,0-.08.4.55.55,0,0,0,.17.17l-.08.08a.73.73,0,0,1-.2-.2.39.39,0,0,1,.12-.58.4.4,0,0,1,.59.07.36.36,0,0,1-.13.51l-.06,0Zm.34.31a.23.23,0,0,0,.09-.32.27.27,0,0,0-.34-.05Z"/><rect class="cls-3" x="1533.72" y="297.49" width="25.63" height="11.79" rx="2.91" transform="translate(897.14 1739.39) rotate(-76.76)"/><path class="cls-7" d="M1588.81,403.54c-1-5.44-6.78-9.6-13.73-9.6s-12.76,4.19-13.75,9.66Z"/><path class="cls-7" d="M1641.14,403.54c-1-5.44-6.78-9.6-13.73-9.6s-12.77,4.19-13.75,9.66Z"/><path class="cls-11" d="M1597,196.29h5c8.59,0,15.62-2.61,15.62-5.79v-.24l-3-1.35h0c-2.45,2.87-5.1,4.86-14.26,5.35l-1.12,0c-7.11-.18-11.27-1.81-13.38-4.47l-3.24,1.76C1582.71,194.75,1588.43,196.29,1597,196.29Z"/><polygon class="cls-9" points="1595.26 297.64 1606.72 297.64 1637.21 297.64 1637.13 301.19 1606.96 301.19 1595.26 301.19 1565.34 301.19 1565.5 297.64 1595.26 297.64"/><path class="cls-3" d="M1559.58,87.9a11,11,0,0,0-10.93,12.69,11,11,0,0,0,11,9.25Z"/><path class="cls-3" d="M1638,87.59a11.55,11.55,0,0,1,1.64.17c5.8,1,9.75,6.12,8.83,11.43-.83,4.82-5.4,8.15-10.57,8Z"/><ellipse class="cls-13" cx="1600.17" cy="63.43" rx="59.04" ry="40.09"/><ellipse class="cls-13" cx="1570.34" cy="49.49" rx="14.34" ry="11.42"/><ellipse class="cls-13" cx="1595.28" cy="43.32" rx="23.63" ry="18.81"/><ellipse class="cls-13" cx="1625.45" cy="52.01" rx="14.34" ry="11.42"/><ellipse class="cls-13" cx="1639.78" cy="52.01" rx="10.71" ry="8.53"/><ellipse class="cls-13" cx="1558.45" cy="44.68" rx="14.34" ry="11.42"/><ellipse class="cls-13" cx="1561.38" cy="50.73" rx="17.58" ry="12.66"/><ellipse class="cls-13" cx="1586" cy="31.79" rx="14.34" ry="11.42"/><ellipse class="cls-13" cx="1629.07" cy="37.42" rx="14.34" ry="11.42"/><ellipse class="cls-13" cx="1618.4" cy="31.79" rx="14.34" ry="11.42"/><ellipse class="cls-13" cx="1571.66" cy="35.93" rx="14.34" ry="11.42"/><ellipse class="cls-13" cx="1641.34" cy="49.49" rx="18.87" ry="15.03"/><path class="cls-28" d="M1606.18,337.86c-2.43.11-2.66-5.23-2.68-6.87,0-.1,0-.17,0-.26v-.24h0c-.06-3.34-.57-19.05-.57-19.05.52,14.54-.14,25.28-2.84,26.4l-.78.1h6.86S1609.05,337.72,1606.18,337.86Z"/><rect class="cls-4" x="1804.26" y="142.33" width="30.82" height="63" rx="6.57"/><path class="cls-10" d="M1852.35,194.18l-9.35,2.66a4.74,4.74,0,0,0-3.26,5.85l14.59,51.15a4.75,4.75,0,0,0,5.86,3.26l9.35-2.66a4.77,4.77,0,0,0,3.26-5.86l-14.59-51.15A4.75,4.75,0,0,0,1852.35,194.18Z"/><rect class="cls-6" x="1785.33" y="304.55" width="19.21" height="62.66" rx="4.1"/><path class="cls-10" d="M1821.93,193.56l-1.4.11c-5.44,0-11.49-.32-14.86-4.36a35.62,35.62,0,0,0-20.34,32.08v77.94a35.63,35.63,0,0,0,35.55,35.51h0a35.63,35.63,0,0,0,35.54-35.51V221.39a35.65,35.65,0,0,0-22.36-33C1832.31,191.34,1826.58,193.56,1821.93,193.56Z"/><rect class="cls-6" x="1785.33" y="337.67" width="19.21" height="62.66" rx="4.1"/><rect class="cls-6" x="1836.98" y="304.55" width="19.21" height="62.66" rx="4.1"/><rect class="cls-6" x="1836.98" y="337.67" width="19.21" height="62.66" rx="4.1"/><path class="cls-10" d="M1791.83,194.76l9,3.63a4.75,4.75,0,0,1,2.63,6.16l-19.89,49.34a4.77,4.77,0,0,1-6.17,2.62l-9-3.63a4.75,4.75,0,0,1-2.63-6.16l19.89-49.33A4.77,4.77,0,0,1,1791.83,194.76Z"/><rect class="cls-10" x="1764.75" y="242.09" width="19.21" height="43" rx="4.1" transform="translate(3506.56 729.72) rotate(-173.39)"/><rect class="cls-10" x="1856.53" y="244.27" width="18.98" height="42.48" rx="4.05" transform="translate(2.44 -16.64) rotate(0.51)"/><rect class="cls-3" x="1779.69" y="53.36" width="77.5" height="121.3" rx="16.53"/><path class="cls-6" d="M1785.48,295.75a13.59,13.59,0,0,0-.15,1.93v21.93c0,8.76,8.6,15.92,19.11,15.92h32.87c10.51,0,19.11-7.16,19.11-15.92V297.68a13.59,13.59,0,0,0-.15-1.93Z"/><rect class="cls-3" x="1860.85" y="280.34" width="8.15" height="17.7" rx="1.74" transform="translate(2.66 -16.63) rotate(0.51)"/><rect class="cls-3" x="1859.36" y="295.02" width="11.5" height="24.99" rx="2.45" transform="translate(2.82 -16.63) rotate(0.51)"/><rect class="cls-4" x="1857.89" y="297.26" width="2.78" height="8.94" rx="0.59" transform="translate(2.77 -16.58) rotate(0.51)"/><rect class="cls-4" x="1769.83" y="295.82" width="9.05" height="2.82" rx="0.7" transform="translate(1078.79 1956.4) rotate(-76.76)"/><polygon class="cls-23" points="1711.05 337.86 1693.18 346.85 1709.16 357.75 1711.05 337.86"/><path class="cls-6" d="M1710.81,339.28c-.3.5-1.33-.21-1-.68l9.29-13.58s.87.27,1,.69S1711.11,338.79,1710.81,339.28Z"/><polygon class="cls-24" points="1721.19 345.73 1703.32 354.71 1719.31 365.62 1721.19 345.73"/><path class="cls-6" d="M1721,347.15c-.3.5-1.33-.22-1-.69l9.28-13.57s.88.27,1,.69S1721.26,346.65,1721,347.15Z"/><polygon class="cls-25" points="1728.18 350.74 1709.03 356.53 1722.9 370.02 1728.18 350.74"/><path class="cls-6" d="M1727.7,352.1c-.38.44-1.27-.44-.87-.85l11.48-11.78s.81.42.87.85S1728.09,351.66,1727.7,352.1Z"/><polygon class="cls-23" points="1703.82 320.48 1683.81 320.43 1693.13 337.38 1703.82 320.48"/><path class="cls-6" d="M1703,321.65c-.49.31-1.09-.8-.59-1.07l14.42-7.92s.66.64.59,1.07S1703.46,321.34,1703,321.65Z"/><polygon class="cls-24" points="1708.88 331.65 1688.88 331.6 1698.2 348.55 1708.88 331.65"/><path class="cls-6" d="M1708,332.81c-.5.31-1.09-.79-.59-1.06l14.42-7.92s.66.64.59,1.07S1708.53,332.51,1708,332.81Z"/><polygon class="cls-23" points="1723.49 350.95 1704.55 357.39 1718.87 370.4 1723.49 350.95"/><path class="cls-6" d="M1723.06,352.33c-.37.45-1.29-.4-.91-.82l11.07-12.17s.83.39.9.83S1723.43,351.88,1723.06,352.33Z"/><polygon class="cls-25" points="1703.18 327.11 1683.18 327.06 1692.5 344 1703.18 327.11"/><path class="cls-6" d="M1702.33,328.27c-.5.31-1.09-.79-.59-1.07l14.42-7.91s.66.63.59,1.06S1702.83,328,1702.33,328.27Z"/><polygon class="cls-26" points="1725.45 348.21 1705.59 350.57 1716.88 366.27 1725.45 348.21"/><path class="cls-6" d="M1724.75,349.47c-.46.36-1.18-.66-.72-1l13.37-9.59s.73.55.71,1S1725.2,349.1,1724.75,349.47Z"/><polygon class="cls-27" points="1718.89 339.32 1699.02 341.67 1710.32 357.38 1718.89 339.32"/><path class="cls-6" d="M1718.18,340.57c-.46.37-1.18-.65-.71-1l13.36-9.59s.73.55.71,1S1718.64,340.21,1718.18,340.57Z"/><polygon class="cls-26" points="1711.36 330.05 1692.47 323.46 1695.73 342.52 1711.36 330.05"/><path class="cls-6" d="M1710.17,330.87c-.57.13-.77-1.11-.21-1.2l16.22-2.78s.42.82.21,1.21S1710.74,330.74,1710.17,330.87Z"/><polygon class="cls-27" points="1729.91 359.07 1712.36 368.67 1728.7 379.02 1729.91 359.07"/><path class="cls-6" d="M1729.72,360.51c-.28.5-1.33-.17-1-.66l8.82-13.88s.88.24,1,.66S1730,360,1729.72,360.51Z"/><polygon class="cls-12" points="1777.42 294.58 1701.42 315.91 1734.57 360.81 1777.42 294.58"/><polygon class="cls-19" points="1777.42 294.58 1719.69 340.68 1734.45 360.66 1777.42 294.58"/><path class="cls-3" d="M1764.45,279.32h13.85a2,2,0,0,1,2,2v4.18a2,2,0,0,1-2,2h-13.85a2,2,0,0,1-2-2v-4.18a2,2,0,0,1,2-2Z" transform="translate(1089.91 1942.87) rotate(-76.76)"/><rect class="cls-3" x="1754.12" y="295.59" width="25.3" height="11.64" rx="2.87" transform="translate(1068.86 1952.24) rotate(-76.76)"/><path class="cls-7" d="M1808.49,400.27c-1-5.37-6.69-9.48-13.55-9.48s-12.6,4.15-13.57,9.54Z"/><path class="cls-7" d="M1860.14,400.27c-1-5.37-6.69-9.48-13.55-9.48s-12.6,4.15-13.57,9.54Z"/><path class="cls-11" d="M1816.59,195.71h5c8.48,0,15.42-2.58,15.42-5.72v-.24l-2.92-1.33h0c-2.42,2.83-5,4.8-14.08,5.28l-1.11,0c-7-.18-11.12-1.79-13.2-4.41l-3.2,1.73C1802.47,194.19,1808.11,195.71,1816.59,195.71Z"/><polygon class="cls-9" points="1814.86 295.75 1826.17 295.75 1856.27 295.75 1856.19 299.25 1826.41 299.25 1814.86 299.25 1785.33 299.25 1785.48 295.75 1814.86 295.75"/><path class="cls-3" d="M1779.64,88.72a10.56,10.56,0,0,0-1.68.13,10.82,10.82,0,0,0,1.74,21.52Z"/><path class="cls-3" d="M1857.09,88.41a11.14,11.14,0,0,1,1.61.17c5.72,1,9.63,6,8.72,11.28-.82,4.76-5.33,8-10.44,7.87Z"/><ellipse class="cls-13" cx="1819.71" cy="64.56" rx="58.27" ry="39.57"/><ellipse class="cls-13" cx="1790.26" cy="50.8" rx="14.15" ry="11.27"/><ellipse class="cls-13" cx="1814.88" cy="44.72" rx="23.32" ry="18.57"/><ellipse class="cls-13" cx="1844.65" cy="53.29" rx="14.15" ry="11.27"/><ellipse class="cls-13" cx="1858.81" cy="53.29" rx="10.57" ry="8.42"/><ellipse class="cls-13" cx="1778.52" cy="46.06" rx="14.15" ry="11.27"/><ellipse class="cls-13" cx="1781.42" cy="52.03" rx="17.35" ry="12.5"/><ellipse class="cls-13" cx="1805.71" cy="33.34" rx="14.15" ry="11.27"/><ellipse class="cls-13" cx="1848.23" cy="38.89" rx="14.15" ry="11.27"/><ellipse class="cls-13" cx="1837.69" cy="33.34" rx="14.15" ry="11.27"/><ellipse class="cls-13" cx="1791.56" cy="37.42" rx="14.15" ry="11.27"/><ellipse class="cls-13" cx="1860.34" cy="50.8" rx="18.63" ry="14.83"/><path class="cls-28" d="M1825.64,335.44c-2.4.11-2.63-5.16-2.64-6.78a2.26,2.26,0,0,1,0-.26v-.23h0c-.06-3.29-.56-18.79-.56-18.79.51,14.35-.14,24.94-2.81,26.06l-.77.09h6.78S1828.47,335.31,1825.64,335.44Z"/></svg>