<svg xmlns="http://www.w3.org/2000/svg" width="1920" height="1080" viewBox="0 0 1920 1080"><defs><style>.cls-1{isolation:isolate;}.cls-11,.cls-2{fill:#bee0d7;}.cls-10,.cls-11,.cls-2{mix-blend-mode:multiply;}.cls-3{fill:#c9ecf7;}.cls-4,.cls-7{fill:#634b4c;}.cls-5{fill:#5f4343;}.cls-6{fill:#89686b;}.cls-7{stroke:#5f4343;}.cls-13,.cls-14,.cls-15,.cls-16,.cls-17,.cls-19,.cls-20,.cls-22,.cls-24,.cls-25,.cls-7{stroke-miterlimit:10;}.cls-8{fill:#69c1c1;}.cls-9{fill:#acce76;}.cls-10{fill:#e4e5db;}.cls-11{opacity:0.82;}.cls-12{fill:#a0bc50;}.cls-13,.cls-16{fill:#765d69;}.cls-13,.cls-14,.cls-15,.cls-16,.cls-17,.cls-19,.cls-20,.cls-22,.cls-24,.cls-25{stroke:#000;}.cls-14,.cls-20{fill:#394f39;}.cls-15,.cls-25{fill:#577341;}.cls-16,.cls-17,.cls-20,.cls-25{stroke-width:0.5px;}.cls-17,.cls-19{fill:#8a9042;}.cls-18{fill:#f2d972;}.cls-21{fill:#664b1c;}.cls-22{fill:#777b7c;}.cls-23{fill:#4b4c4c;}.cls-24{fill:#8fb9a8;}.cls-26{fill:#ad4640;}.cls-27{fill:#fff;}.cls-28{fill:#dbb2a7;}.cls-29{fill:#4c98d6;}.cls-30{fill:#ffd3c5;}.cls-31{fill:#669fdd;}.cls-32{fill:#b71313;}.cls-33{fill:#bcb52a;}.cls-34{fill:#fc8900;}.cls-35{fill:#9863c6;}.cls-36{fill:#97b262;}.cls-37{fill:#b90f00;}.cls-38{fill:#2b7cb2;}.cls-39{fill:#ceb984;}.cls-40{fill:#72575a;}.cls-41{fill:#4c6483;}.cls-42{fill:#788ba2;}.cls-43{fill:#d1d8e0;}.cls-44{fill:#2d3c49;}.cls-45{fill:#a6b1c1;}.cls-46{fill:#2a6370;}</style></defs><title>Taberskærm</title><g class="cls-1"><g id="Layer_1" data-name="Layer 1"><path d="M64.1,90.39v7.36h7.22a5.49,5.49,0,0,1,3.69,1,3.34,3.34,0,0,1,1.09,2.6A3.3,3.3,0,0,1,75,103.91a5.43,5.43,0,0,1-3.69,1H55.83a5.42,5.42,0,0,1-3.68-1,3.35,3.35,0,0,1-1.1-2.6,3.29,3.29,0,0,1,1.12-2.56,5.48,5.48,0,0,1,3.66-1H57v-28H55.83a5.48,5.48,0,0,1-3.68-1,3.62,3.62,0,0,1,0-5.2,5.48,5.48,0,0,1,3.68-1l16.47,0q7.26,0,11.5,4A12.73,12.73,0,0,1,88,76.23a12.87,12.87,0,0,1-1.43,5.93A13.55,13.55,0,0,1,83,86.29a19.52,19.52,0,0,1-5.17,3.07,19.36,19.36,0,0,1-7,1Zm0-7.15h6.63a11.85,11.85,0,0,0,7.42-2.11,6.27,6.27,0,0,0,2.74-5.08,5.61,5.61,0,0,0-2.22-4.39,9.49,9.49,0,0,0-6.33-1.89H64.1Z"/><path d="M110.92,73.23v4.46a39.4,39.4,0,0,1,7.1-4.32,12.7,12.7,0,0,1,4.87-1.08,10.82,10.82,0,0,1,6.76,2.58c1.49,1.16,2.24,2.35,2.24,3.56a3.64,3.64,0,0,1-3.63,3.66,4.26,4.26,0,0,1-2.79-1.33,4.19,4.19,0,0,0-2.62-1.32q-1.5,0-4.48,1.88A72.22,72.22,0,0,0,110.92,87V97.75h10.19a5.47,5.47,0,0,1,3.68,1,3.35,3.35,0,0,1,1.1,2.6,3.31,3.31,0,0,1-1.1,2.56,5.42,5.42,0,0,1-3.68,1H99.51a5.4,5.4,0,0,1-3.68-1,3.35,3.35,0,0,1-1.1-2.6,3.31,3.31,0,0,1,1.1-2.56,5.46,5.46,0,0,1,3.68-1h4.26V80.38h-2.58a5.49,5.49,0,0,1-3.69-1,3.35,3.35,0,0,1-1.09-2.6,3.3,3.3,0,0,1,1.09-2.57,5.49,5.49,0,0,1,3.69-1Z"/><path d="M147.58,104.07l-3.83,4a9.35,9.35,0,0,1-1.87,1.59,3.26,3.26,0,0,1-1.55.37,3.45,3.45,0,0,1-2.55-1.07,3.6,3.6,0,0,1-1.05-2.63,3,3,0,0,1,.35-1.42,9.51,9.51,0,0,1,1.5-1.83l3.07-3.17a14.9,14.9,0,0,1-4.18-10.4,16.55,16.55,0,0,1,2.4-8.39,16.88,16.88,0,0,1,7-6.52,20.52,20.52,0,0,1,19.24,0l3-3.14A8.7,8.7,0,0,1,171,69.9a3.14,3.14,0,0,1,1.55-.37,3.45,3.45,0,0,1,2.53,1.06,3.58,3.58,0,0,1,1.06,2.64,3.08,3.08,0,0,1-.36,1.45,8.86,8.86,0,0,1-1.49,1.79l-2.54,2.65A15.6,15.6,0,0,1,174.48,84a16.25,16.25,0,0,1,1,5.53,15.17,15.17,0,0,1-2.37,8,16.43,16.43,0,0,1-7,6.14,21.64,21.64,0,0,1-18.56.35Zm13.26-24a14.28,14.28,0,0,0-4.39-.7A11.92,11.92,0,0,0,148,82.51a9.48,9.48,0,0,0-3.36,7.08,7.7,7.7,0,0,0,2.09,5.06Zm-7.78,18.38a15.34,15.34,0,0,0,3.42.39,12.48,12.48,0,0,0,8.48-3c2.25-2,3.38-4,3.38-6.23a9.35,9.35,0,0,0-1.71-5.27Z"/><path d="M200.78,96.22l7.71-15.84a8.44,8.44,0,0,1-3.66-.49,3.44,3.44,0,0,1-1.74-3.1,3.28,3.28,0,0,1,1.1-2.57,5.44,5.44,0,0,1,3.68-1h9.8a5.46,5.46,0,0,1,3.68,1,3.59,3.59,0,0,1,0,5.17,5.46,5.46,0,0,1-3.68,1h-1.19l-12,24.53h-7.47l-12-24.53h-1a5.46,5.46,0,0,1-3.68-1,3.36,3.36,0,0,1-1.1-2.6,3.31,3.31,0,0,1,1.1-2.57,5.46,5.46,0,0,1,3.68-1h9.6a5.39,5.39,0,0,1,3.64,1,3.31,3.31,0,0,1,1.1,2.6,3.38,3.38,0,0,1-1.67,3,8.55,8.55,0,0,1-3.74.52Z"/><path d="M259.88,87.88H230V81.36h29.86Z"/><path d="M292.6,73.23V97.75h8.58a5.49,5.49,0,0,1,3.69,1,3.35,3.35,0,0,1,1.1,2.6,3.31,3.31,0,0,1-1.1,2.56,5.43,5.43,0,0,1-3.69,1H276.87a5.4,5.4,0,0,1-3.68-1,3.31,3.31,0,0,1-1.1-2.6,3.27,3.27,0,0,1,1.1-2.56,5.46,5.46,0,0,1,3.68-1h8.58V80.38h-5.76a5.47,5.47,0,0,1-3.66-1,3.57,3.57,0,0,1,0-5.17,5.48,5.48,0,0,1,3.68-1Zm-1-13.57v7.57h-8.52V59.66Z"/><path d="M341.09,75.36V73.23h8.38a5.48,5.48,0,0,1,3.68,1,3.59,3.59,0,0,1,0,5.17,5.48,5.48,0,0,1-3.68,1h-1.22v26a13.1,13.1,0,0,1-1.59,6.57,13.59,13.59,0,0,1-4.87,4.84,13.88,13.88,0,0,1-7.4,2H326.3a5.4,5.4,0,0,1-3.68-1,3.29,3.29,0,0,1-1.1-2.56,3.35,3.35,0,0,1,1.1-2.6,5.46,5.46,0,0,1,3.68-1h7.89a7,7,0,0,0,5.09-1.78,6,6,0,0,0,1.81-4.5v-3.49a19.7,19.7,0,0,1-4.83,2.3,16.88,16.88,0,0,1-5,.77A16.65,16.65,0,0,1,319,101.12a17.18,17.18,0,0,1,0-24.07,17.15,17.15,0,0,1,22.08-1.69Zm0,13.71a9.3,9.3,0,0,0-2.92-6.84,9.89,9.89,0,0,0-14,0,9.51,9.51,0,0,0,0,13.69,9.93,9.93,0,0,0,14,0A9.28,9.28,0,0,0,341.06,89.07Z"/><path d="M395.34,92.7H366a9.14,9.14,0,0,0,4,4.5,14.86,14.86,0,0,0,7.69,1.71,44.46,44.46,0,0,0,10.57-1.71,18.05,18.05,0,0,1,3.77-.7,3.22,3.22,0,0,1,2.41,1,3.52,3.52,0,0,1,1,2.55,3.11,3.11,0,0,1-1.05,2.37q-1.4,1.29-6.8,2.46a49.19,49.19,0,0,1-10.4,1.17q-8.58,0-13.73-4.85a15.75,15.75,0,0,1-5.15-11.93A15.34,15.34,0,0,1,363.82,77a19.22,19.22,0,0,1,12.82-4.72,20.49,20.49,0,0,1,8,1.53,16.81,16.81,0,0,1,5.42,3.32,20.65,20.65,0,0,1,4.15,6.38,15.61,15.61,0,0,1,1.12,6.14Zm-7.92-7.16A11.15,11.15,0,0,0,383.13,81a13.8,13.8,0,0,0-12.59,0,11.43,11.43,0,0,0-4.33,4.58Z"/><path d="M414.32,73.23v2.4a13.57,13.57,0,0,1,4.31-2.51,15,15,0,0,1,5.11-.83q6.35,0,10,3.94a11.55,11.55,0,0,1,2.94,8.23V97.75a4.81,4.81,0,0,1,3.34,1,3.37,3.37,0,0,1,1.08,2.6,3.3,3.3,0,0,1-1.09,2.56,5.42,5.42,0,0,1-3.68,1h-6.46a5.4,5.4,0,0,1-3.68-1,3.6,3.6,0,0,1,0-5.16,4.84,4.84,0,0,1,3.35-1V84.25a4.3,4.3,0,0,0-1.25-3.42,7.46,7.46,0,0,0-4.92-1.39,9.39,9.39,0,0,0-4.35,1,19.31,19.31,0,0,0-4.72,4.06V97.75a7.56,7.56,0,0,1,3.55.53,3.38,3.38,0,0,1,1.71,3.07,3.27,3.27,0,0,1-1.1,2.56,5.38,5.38,0,0,1-3.68,1h-8.12a5.43,5.43,0,0,1-3.69-1,3.35,3.35,0,0,1-1.1-2.6,3.41,3.41,0,0,1,1.68-3,7.86,7.86,0,0,1,3.59-.53V80.38a4.81,4.81,0,0,1-3.35-1,3.4,3.4,0,0,1-1.08-2.58,3.31,3.31,0,0,1,1.1-2.57,5.46,5.46,0,0,1,3.68-1Z"/><path d="M471,66.77l-2,21.56a3.84,3.84,0,0,1-1.11,2.6,3.68,3.68,0,0,1-4.89,0,3.9,3.9,0,0,1-1.12-2.6l-2-21.56c-.09-1.09-.14-1.81-.14-2.16a6,6,0,0,1,1.64-4.38,5.81,5.81,0,0,1,8.15,0,5.78,5.78,0,0,1,1.66,4.22C471.22,64.82,471.16,65.59,471,66.77Zm-1.15,35.52a3.4,3.4,0,0,1-1.15,2.6,5.29,5.29,0,0,1-6.35,0,3.4,3.4,0,0,1-1.15-2.6,3.36,3.36,0,0,1,1.13-2.56,4.49,4.49,0,0,1,3.19-1.07,4.55,4.55,0,0,1,3.2,1A3.4,3.4,0,0,1,469.89,102.29Z"/><path class="cls-2" d="M2508.84,1275.32s0-146.77.56-259.23c-222.61-271.76-767.95-422.16-1398-422.16C541,593.93,42.31,693.69-204.4,941.55c0,0,.27,206.13.27,333.77,413.35-1.63,479.36-1.63,1309.13-1.63S2508.84,1275.32,2508.84,1275.32Z"/><path class="cls-3" d="M-201.81-169.07V958.77c82.7,0,219.13-102.82,355.18-118.64s240.77,42.71,461,42.71c247.38,0,572.35-201.21,819.47-185.07,193.73,12.66,494.36,61.69,671.39,31.64,176.47-30,227.55,229.36,405.28,229.36V-169.07Z"/><path class="cls-4" d="M-203.28,561c507.63,0,720-96.22,1227.66-96.22C843.47,324.12,652.3,182.67,630,136.54c-13.19-27.31-514.69-299.2-514.69-299.2"/><path class="cls-5" d="M-204.4,376.42l64.62-271.51,74.45,85.9L31.83,6.26l62,163.45L213,525.36l-5.31.07c-.55,1.94-2.63,2.07-3.31.21L34.79,61.15l-95,136.29-69.56-80.67-73.52,280.74Z"/><polyline class="cls-6" points="32.11 5.96 383.81 518.77 209.07 525.47"/><polygon class="cls-7" points="-204.4 400.15 -130.87 119.41 -30.83 155.3 33.89 54.78 208.11 533.92 -204.4 400.15"/><path class="cls-6" d="M672.61,113.81C673.14,114,557,34,116.44-165.29,488.33,59.77,931.92,404.1,931.92,404.1l61.27-5.27,149.28,11.86c-4.93-3.53-277.82-136.87-280.54-139.47Z"/><line class="cls-4" x1="114.22" y1="-162.66" x2="900.73" y2="390.92"/><path class="cls-8" d="M1113.9,721.75c-570.7,0-1074.83,104.11-1321.64,311.36,0,0,.27,184.65.27,291.38,413.52-1.36,479.56-1.36,1309.67-1.36s1408.31,1,1408.31,1,.55-142.58,1.11-236.62C2288.92,860.32,1744.19,721.75,1113.9,721.75Z"/><path class="cls-9" d="M2518,971.33c0,2.68-1.78,96.25-3.34,94.4C2241.76,741.48,1523.85,621.4,1054.84,623.5c-844,3.78-1127.77,281.77-1254,368.34v-608c184.71,86.79,311.1,144.65,494,144.65,263.27,0,590.56-156.32,847.58-117.75,259.31,64.43,383.94,94.19,546.59,35.1,158.5-57.59,247.73,29,336,49.59,112.38,26.18,307.1,26.18,492.91,162.56,1.36,1-1.32-384.55-1.14-384.32.7.87,1.14,409.17,1.14,410.5Z"/><path class="cls-10" d="M1097,664C519.74,664,26.31,744.25-223.34,984.93c0,0-3.34,216.8-3.34,340.74,418.27-1.58,477.54-1.58,1317.19-1.58s1420.55,1.58,1420.55,1.58,0-142.52.56-251.72C2286.37,810.07,1734.53,664,1097,664Z"/><path class="cls-11" d="M2497.54,1340.26s73.05-188.42.56-264.89C2328.22,896.17,1840,576.8,1078.81,636.08,558.05,615.75,37.83,748-217.93,999.2c0,0,.27,210.63.27,341.06,413.69-1.67,479.76-1.67,1310.21-1.67S2497.54,1340.26,2497.54,1340.26Z"/><polygon class="cls-5" points="116.44 -165.29 176.6 -128.39 263.5 -73.03 469.59 65.36 930.8 402.78 895.16 406.74 115.33 -162.66 116.44 -165.29"/><path class="cls-12" d="M-204.4,429.91c94.69,108.17,281.85,182.44,330.87,182.44s316.39-2.91,369.86-11.65,120.32-90.29,303-88.84,343.12-101.17,343.12-101.17c-90.23-43.69-311.33,9.44-368.74,22.53C551.15,484,536.25,487,474.05,497.68c-62.38,10.75-190.88,32.87-353.15-3.95C3,467-204.4,376.42-204.4,376.42Z"/><polygon class="cls-13" points="1871.19 427.86 1860.85 427.15 1859.85 441.74 1870.5 441.7 1871.19 427.86"/><polygon class="cls-14" points="1870.99 308.05 1850.6 335.95 1856.64 336.82 1839.32 364.17 1844.84 364.55 1827.09 395.95 1833.06 396.36 1815.81 428.52 1922.9 436.55 1905.08 401.62 1911.64 402.22 1894.99 368.23 1900.14 368.42 1882 338.89 1888.18 339.15 1870.99 308.05"/><rect class="cls-13" x="17.63" y="481.86" width="7.49" height="22.42" transform="translate(24.27 -0.45) rotate(2.82)"/><polygon class="cls-15" points="27.18 299.37 11.68 343.47 16.04 344.39 2.77 387.44 6.76 387.64 -6.92 436.91 -2.6 437.12 -19.2 488.38 62.41 490.9 49.48 440.18 54.22 440.64 43.03 389.79 46.76 389.72 34.37 345.8 38.84 345.77 27.18 299.37"/><polygon class="cls-16" points="1218.45 439.27 1223.44 439.39 1223.18 450.51 1218.15 450.81 1218.45 439.27"/><polygon class="cls-17" points="1225.39 344.65 1233.25 367.68 1230.47 367.98 1236.97 390.39 1234.45 390.33 1240.94 415.92 1238.22 415.86 1246.46 442.58 1195.06 440.62 1205.35 415.35 1202.35 415.4 1211.56 389.99 1209.22 389.81 1218.88 367.96 1216.07 367.77 1225.39 344.65"/><polygon class="cls-16" points="1064.95 432.22 1068.86 432.31 1068.65 441.02 1064.71 441.25 1064.95 432.22"/><polygon class="cls-17" points="1070.38 358.09 1076.54 376.13 1074.36 376.36 1079.45 393.92 1077.48 393.88 1082.57 413.92 1080.43 413.88 1086.89 434.81 1046.62 433.28 1054.69 413.48 1052.33 413.51 1059.55 393.61 1057.72 393.46 1065.29 376.35 1063.08 376.2 1070.38 358.09"/><path class="cls-12" d="M-235.59,972.17c-140.06,22.55,406.8-287.64,931.33-341.58,104.78-10.78,325.8-32.55,525.83-13.15,447.45,43.4,591.22,76.38,728.58,114.85,318,89.07,621.9,313.73,560.36,282.06l2.23,73.81S2357.89,948.45,2294.39,915.5,2047.07,782.38,1958,758.65s-786.82-118-957-116c-329.23,13.43-515.24,54.81-608.26,80.4-187.15,51.46-456.55,199.5-623.87,286Q-233.36,990.63-235.59,972.17Z"/><path class="cls-18" d="M-230.4,683.49C-194,637.86,235.8,573.05,372.5,570.7c126.19-2.17,205.26,12.42,236.34,15.07,28,2.38,179,7.79,219.68,1.46,143.7-22.35,263.58-75.17,278-85,27.5-19.29,63-76.93,86.07-79.16,4.48,1.69-10.6-2.49,9.45,2.38-22,5.18-41,37.86-63,68.91-20.94,29.49-80.6,53.49-111.12,64C989.62,571.57,920.84,593,892.54,599.73,831.41,614.35,790.44,618,727.78,619.4c-38.49.88-67.87-.09-126.63-2-58.92-2-101.26-4.55-111.76-5.13-132.38-7.3-286.7,24.31-300.94,27.18-237.1,47.7-363.33,81.17-401.93,113.81C-213.48,753.21-266.8,729.11-230.4,683.49Z"/><rect class="cls-13" x="692.04" y="441.29" width="10.6" height="17.98" transform="translate(7.02 -10.68) rotate(0.88)"/><polygon class="cls-19" points="697.43 291.27 678.03 326.93 684.25 327.59 667.95 362.35 673.6 362.44 657.09 402.2 663.21 402.3 642.68 443.71 758.19 444.29 737.01 403.83 743.74 404.12 725.01 363.52 730.27 363.4 710.25 328.39 716.57 328.28 697.43 291.27"/><polygon class="cls-13" points="626.63 473.19 632.74 473.33 632.43 486.94 626.27 487.3 626.63 473.19"/><polygon class="cls-19" points="635.12 357.4 644.74 385.59 641.34 385.95 649.29 413.37 646.21 413.3 654.16 444.61 650.82 444.54 660.91 477.23 598.01 474.84 610.61 443.92 606.93 443.97 618.2 412.88 615.34 412.66 627.16 385.93 623.73 385.69 635.12 357.4"/><polygon class="cls-16" points="1152.9 424.05 1147.51 423.68 1146.99 431.29 1152.54 431.27 1152.9 424.05"/><polygon class="cls-20" points="1152.8 361.61 1142.17 376.15 1145.32 376.6 1136.29 390.86 1139.16 391.06 1129.91 407.42 1133.03 407.63 1124.03 424.4 1179.85 428.58 1170.56 410.38 1173.98 410.69 1165.31 392.97 1167.99 393.07 1158.54 377.68 1161.76 377.82 1152.8 361.61"/><path class="cls-19" d="M1657,470c.36-6.33-3-12.06-8.41-15.54-2.9-6.37-9.8-11-18.08-11.37a22.69,22.69,0,0,0-10.79,2.15A21.53,21.53,0,0,0,1605,438.8c-9.34-.41-17.52,4.73-20.45,12.14a17.65,17.65,0,0,0-8.34,13.69,17,17,0,0,0,6.38,14c1.5,8.29,9.41,14.81,19.31,15.24a23.17,23.17,0,0,0,3.92-.16,22.42,22.42,0,0,0,9.81,2.7,22.8,22.8,0,0,0,11-2.25l1,.07c8.14.35,15.4-3.51,19.07-9.41C1652.59,481.88,1656.67,476.43,1657,470Z"/><path class="cls-17" d="M1001.11,435.84a6.84,6.84,0,0,0,4.77,5,8.06,8.06,0,0,0,8,2.44,9,9,0,0,0,3.85-1.92,8.42,8.42,0,0,0,6.24.93,8.1,8.1,0,0,0,6.48-6.68,6.9,6.9,0,0,0,1.74-6,6.67,6.67,0,0,0-3.85-4.65c-1.42-3-5.07-4.62-8.85-3.77a9,9,0,0,0-1.47.46,8.76,8.76,0,0,0-4,0,8.89,8.89,0,0,0-3.92,2l-.4.08a8.33,8.33,0,0,0-6.24,5.51A7.06,7.06,0,0,0,1001.11,435.84Z"/><path class="cls-17" d="M1013.8,444.87a6.83,6.83,0,0,0,4.77,5,8.06,8.06,0,0,0,8,2.43,8.85,8.85,0,0,0,3.85-1.91,8.51,8.51,0,0,0,6.24.93,8.11,8.11,0,0,0,6.48-6.69,6.9,6.9,0,0,0,1.74-6A6.63,6.63,0,0,0,1041,434c-1.42-3-5.07-4.63-8.85-3.78a9,9,0,0,0-1.47.47,8.62,8.62,0,0,0-4,0,8.79,8.79,0,0,0-3.92,2l-.4.08a8.31,8.31,0,0,0-6.24,5.51A7,7,0,0,0,1013.8,444.87Z"/><path class="cls-21" d="M1616.19,507.34c.32-.56,0-11.65,0-11.65s-20-2.5-20.93-3.33-4.4-9.22-4.4-9.22l5,8.39,20.44,2.77L1605.69,485l-2.09-1.84,9.92,6.58,4.4,4.58,5.2-5.55-2.84-3.05,3.47,2.08,5.5-1.94-4.4,3.19,10.85-1.25-11.33,2.5-5.35,5.55-1.1,11.51Z"/><path class="cls-19" d="M178.33,476.06a25.14,25.14,0,0,0-10.28-21.54,25.16,25.16,0,0,0-35.27-12.79,25.14,25.14,0,0,0-43,7.85A25.12,25.12,0,0,0,87.37,488a25.14,25.14,0,0,0,28.37,20.91,25.14,25.14,0,0,0,25.43.62c.42,0,.84.07,1.27.09a25.16,25.16,0,0,0,23.31-13A25.14,25.14,0,0,0,178.33,476.06Z"/><path class="cls-21" d="M128.43,527.77c.38-.77,0-16.15,0-16.15S104,508.16,102.86,507s-5.38-12.78-5.38-12.78l6.15,11.62,25,3.85-13-12.93L113,494.23l12.12,9.12,5.39,6.35,6.34-7.69-3.46-4.23,4.23,2.88,6.73-2.69L139,502.39l13.27-1.73-13.84,3.46-6.54,7.69-1.34,16Z"/><path class="cls-17" d="M697.44,474.15c.22-2.88-1.87-5.49-5.2-7.07-1.8-2.9-6-5-11.17-5.18a18.3,18.3,0,0,0-6.67,1,15.73,15.73,0,0,0-9.12-2.95c-5.77-.19-10.83,2.15-12.64,5.53-3,1.42-4.95,3.66-5.15,6.23s1.36,4.8,4,6.4c.92,3.77,5.81,6.74,11.92,6.94a19.28,19.28,0,0,0,2.42-.07,17.9,17.9,0,0,0,6.07,1.22,18.42,18.42,0,0,0,6.79-1l.65,0c5,.16,9.51-1.6,11.78-4.28C694.69,479.55,697.21,477.07,697.44,474.15Z"/><path class="cls-21" d="M672.2,491.14a46.8,46.8,0,0,0,0-5.3s-12.35-1.14-12.93-1.52-2.72-4.2-2.72-4.2l3.11,3.82,12.63,1.27L665.71,481l-1.29-.84,6.13,3,2.72,2.09,3.21-2.53-1.75-1.39,2.14.95,3.4-.89-2.72,1.46,6.71-.57-7,1.13L674,485.9l-.68,5.24Z"/><path class="cls-17" d="M564.21,469.55c.22-2.88-1.87-5.49-5.2-7.08-1.79-2.9-6-5-11.17-5.18a18.73,18.73,0,0,0-6.67,1,15.87,15.87,0,0,0-9.12-2.95c-5.77-.19-10.82,2.16-12.63,5.53-3,1.42-5,3.66-5.15,6.24s1.35,4.79,3.94,6.39c.93,3.78,5.81,6.75,11.92,6.95a19.48,19.48,0,0,0,2.43-.08,17.61,17.61,0,0,0,6.06,1.23,18.3,18.3,0,0,0,6.8-1l.64,0c5,.16,9.52-1.6,11.79-4.29C561.47,475,564,472.46,564.21,469.55Z"/><path class="cls-21" d="M539,486.54a47,47,0,0,0,0-5.31s-12.34-1.13-12.93-1.51-2.72-4.2-2.72-4.2l3.11,3.82,12.63,1.26-6.58-4.24-1.29-.84,6.13,3L540,480.6l3.21-2.52-1.75-1.39,2.14.94,3.4-.88-2.72,1.45,6.71-.57-7,1.14-3.31,2.53-.68,5.24Z"/><rect class="cls-13" x="1751.15" y="474.18" width="10.52" height="20.62" transform="translate(7.67 -26.98) rotate(0.88)"/><polygon class="cls-19" points="1756.88 302.18 1737.54 343.1 1743.71 343.85 1727.45 383.75 1733.06 383.83 1716.57 429.46 1722.64 429.56 1702.16 477.09 1816.84 477.47 1795.91 431.14 1802.6 431.45 1784.09 384.95 1789.32 384.81 1769.52 344.7 1775.8 344.57 1756.88 302.18"/><rect class="cls-13" x="1666.61" y="521.27" width="11.47" height="22.48" transform="translate(8.4 -25.68) rotate(0.88)"/><polygon class="cls-19" points="1672.86 333.78 1651.78 378.39 1658.5 379.2 1640.78 422.69 1646.89 422.79 1628.91 472.53 1635.53 472.63 1613.21 524.45 1738.23 524.87 1715.41 474.36 1722.69 474.7 1702.52 424.01 1708.22 423.85 1686.64 380.13 1693.48 379.99 1672.86 333.78"/><path class="cls-19" d="M1751.64,583.94a25.1,25.1,0,0,0-10.28-21.55,25.13,25.13,0,0,0-35.26-12.78,25.15,25.15,0,0,0-43,7.85,25.13,25.13,0,0,0-2.38,38.45,41.34,41.34,0,0,0,53.79,21.52c.42,0,.85.07,1.27.09a25.13,25.13,0,0,0,23.31-13A25.1,25.1,0,0,0,1751.64,583.94Z"/><path class="cls-21" d="M1701.75,635.64c.38-.77,0-16.15,0-16.15s-24.42-3.46-25.57-4.61-5.39-12.78-5.39-12.78l6.16,11.63,25,3.84-13-12.92-2.55-2.55,12.12,9.13,5.38,6.34,6.35-7.69-3.46-4.23,4.22,2.89,6.73-2.7-5.38,4.43,13.27-1.73L1711.74,612l-6.53,7.69-1.35,15.95Z"/><path class="cls-22" d="M-62.58,766.12c-5.42-6.53-28.25-59.66,39.24-49.51S61.92,729.3,45.17,750.1,14.47,772.46-13.95,774C-44.24,775.67-57.17,772.65-62.58,766.12Z"/><path class="cls-22" d="M41.34,785.75c2.29-3.47,12-31.74-16.64-26.34s-36.14,6.75-29,17.82,13,11.9,25.06,12.72C33.56,790.83,39.05,789.23,41.34,785.75Z"/><path class="cls-23" d="M36.82,771.27c.24-.73.69-6.12-3.89-3.34s-5.8,3.5-4.14,4.9,2.68,1.15,4.74.5S36.58,772,36.82,771.27Z"/><path class="cls-23" d="M31.91,766.08c.22.09,1.42,1.21-.36,2s-2.25,1.06-2.09.2a2.28,2.28,0,0,1,1.16-1.66C31.35,766.12,31.7,766,31.91,766.08Z"/><path class="cls-22" d="M942.49,518.63c2.29-3.47,12-31.74-16.64-26.34s-36.14,6.75-29,17.82,13,11.89,25.06,12.72C934.71,523.71,940.19,522.1,942.49,518.63Z"/><path class="cls-23" d="M938,504.15c.24-.74.69-6.12-3.89-3.34s-5.8,3.5-4.15,4.9,2.69,1.14,4.75.49S937.73,504.88,938,504.15Z"/><path class="cls-23" d="M933.06,499c.21.09,1.42,1.21-.36,2.05s-2.25,1.06-2.09.19a2.32,2.32,0,0,1,1.16-1.66C932.49,499,932.85,498.86,933.06,499Z"/><path class="cls-22" d="M1375,675.11c.93-2.06,3.65-18-11.18-12.64s-18.74,6.74-14,12,8,5.23,14.5,4.62C1371.29,678.5,1374.08,677.16,1375,675.11Z"/><path class="cls-23" d="M1371.33,667.75c.06-.41-.16-3.33-2.37-1.44s-2.8,2.37-1.79,3,1.53.38,2.58-.15S1371.26,668.17,1371.33,667.75Z"/><path class="cls-23" d="M1368.26,665.4c.12,0,.86.53,0,1.13s-1.11.77-1.1.29a1.25,1.25,0,0,1,.48-1C1368,665.47,1368.13,665.37,1368.26,665.4Z"/><path class="cls-22" d="M1422.67,669.18c2.29-3.47,12-31.74-16.64-26.34s-36.14,6.75-29,17.82,13,11.9,25.06,12.72C1414.89,674.26,1420.37,672.66,1422.67,669.18Z"/><path class="cls-23" d="M1418.15,654.7c.24-.73.69-6.12-3.89-3.34s-5.8,3.5-4.15,4.9,2.69,1.15,4.75.5S1417.9,655.43,1418.15,654.7Z"/><path class="cls-23" d="M1413.24,649.51c.21.09,1.42,1.21-.36,2s-2.26,1.06-2.1.2a2.29,2.29,0,0,1,1.17-1.66C1412.67,649.55,1413,649.42,1413.24,649.51Z"/><path class="cls-22" d="M567.71,454.19c-1.93,3.19-11.42,31.33,8.82,32.58s25.56,1.65,21.78-12.07-7.77-16.07-16-19.94C573.57,450.63,569.64,451,567.71,454.19Z"/><path class="cls-23" d="M587.89,469.15c-.24.73-1.09,6.44,2.35,4.57s4.34-2.35,3.34-4.27-1.74-1.9-3.22-1.71S588.13,468.41,587.89,469.15Z"/><path class="cls-23" d="M592.67,477.68c-.14-.16-.85-1.66.46-2.13s1.65-.59,1.46.31a2.05,2.05,0,0,1-1,1.5C593.07,477.78,592.81,477.83,592.67,477.68Z"/><path class="cls-22" d="M560.19,484.41c-1.83-1.49-21.13-9.41-30.79,4.63s-12.26,17.73.74,15.73,16.64-4.66,23.35-10.2C560.65,488.66,562,485.91,560.19,484.41Z"/><path class="cls-23" d="M545.57,484.79c-.51-.2-4.88-1.06-4.79,1.42s.1,3.13,2.11,2.53,2.32-1.12,2.79-2.16S546.07,485,545.57,484.79Z"/><path class="cls-23" d="M538.69,486.46c.19-.09,1.74-.52,1.57.42s-.22,1.18-.88,1-.73-.36-.83-.74S538.5,486.55,538.69,486.46Z"/><rect class="cls-13" x="60.56" y="752.81" width="10.44" height="22.66" transform="translate(11.77 -0.92) rotate(0.88)"/><polygon class="cls-19" points="66.55 563.82 47.29 608.82 53.41 609.63 37.22 653.49 42.78 653.58 26.35 703.75 32.37 703.84 11.98 756.1 125.73 756.34 105.05 705.46 111.68 705.79 93.4 654.73 98.58 654.56 79.01 610.53 85.24 610.37 66.55 563.82"/><rect class="cls-13" x="1795.17" y="626.71" width="10.18" height="28.77" transform="translate(33.71 -87.76) rotate(2.82)"/><polygon class="cls-15" points="1808.12 392.49 1787.2 449.04 1793.13 450.24 1775.26 505.44 1780.68 505.71 1762.27 568.91 1768.14 569.2 1745.77 634.94 1856.72 638.47 1838.95 573.32 1845.4 573.93 1830 508.61 1835.06 508.54 1818.06 452.11 1824.14 452.09 1808.12 392.49"/><rect class="cls-13" x="1512.14" y="469.65" width="7.75" height="11.43" transform="translate(25.21 -73.98) rotate(2.82)"/><polygon class="cls-15" points="1516.87 376.62 1501.98 398.77 1506.51 399.35 1493.91 421.02 1498.04 421.22 1485.17 446.06 1489.64 446.28 1473.8 472.06 1558.22 475.45 1543.55 449.19 1548.47 449.55 1535.58 423.26 1539.43 423.32 1525.5 400.54 1530.12 400.64 1516.87 376.62"/><rect class="cls-13" x="1100.46" y="455.46" width="7.75" height="11.43" transform="translate(24.02 -53.75) rotate(2.82)"/><polygon class="cls-15" points="1105.2 362.42 1090.31 384.57 1094.84 385.16 1082.23 406.82 1086.36 407.03 1073.49 431.87 1077.96 432.09 1062.13 457.87 1146.55 461.26 1131.88 435 1136.79 435.35 1123.91 409.06 1127.76 409.13 1113.83 386.35 1118.45 386.45 1105.2 362.42"/><polygon class="cls-15" points="1935.31 367.59 1917.7 389.61 1923.13 390.23 1908.25 411.79 1913.19 412.03 1898.03 436.76 1903.39 437.02 1884.69 462.67 1985.75 466.88 1967.93 440.46 1973.82 440.86 1958.15 414.43 1962.76 414.53 1945.86 391.61 1951.4 391.75 1935.31 367.59"/><polygon class="cls-24" points="1997.91 299.26 1969.02 350.47 1978.11 351.52 1953.78 401.5 1962.05 401.7 1937.32 458.9 1946.28 459.13 1915.66 518.65 2084.74 521.16 2054.29 462.43 2064.14 462.93 2037.28 404.02 2044.99 403.93 2016.16 353.05 2025.41 353 1997.91 299.26"/><polygon class="cls-24" points="1977.77 437.51 1949.49 489.06 1958.59 490 1934.86 540.27 1943.13 540.38 1919.08 597.86 1928.04 597.98 1898.12 657.87 2067.22 658.38 2036.08 600 2045.94 600.39 2018.38 541.81 2026.09 541.62 1996.66 491.09 2005.91 490.92 1977.77 437.51"/><polygon class="cls-13" points="1893.4 657.97 1903.64 658.2 1903.16 678.94 1892.84 679.47 1893.4 657.97"/><polygon class="cls-19" points="1907.21 481.59 1923.44 524.57 1917.74 525.11 1931.16 566.92 1926.01 566.8 1939.43 614.53 1933.84 614.4 1950.85 664.25 1845.43 660.38 1866.43 613.32 1860.28 613.39 1879.06 566.06 1874.26 565.71 1893.98 525.03 1888.22 524.66 1907.21 481.59"/><rect class="cls-16" x="1118.99" y="539.21" width="4.45" height="12.57" transform="translate(28.18 -54.48) rotate(2.82)"/><polygon class="cls-25" points="1123.04 436.89 1113.91 461.59 1116.5 462.12 1108.69 486.24 1111.06 486.35 1103.01 513.96 1105.58 514.09 1095.81 542.8 1144.27 544.35 1136.51 515.89 1139.33 516.15 1132.6 487.62 1134.82 487.59 1127.39 462.93 1130.04 462.92 1123.04 436.89"/><rect class="cls-16" x="958.21" y="481.38" width="4.45" height="12.57" transform="translate(25.14 -46.64) rotate(2.82)"/><polygon class="cls-25" points="962.26 379.05 953.13 403.76 955.72 404.28 947.9 428.4 950.27 428.52 942.23 456.12 944.8 456.25 935.02 484.97 983.49 486.51 975.73 458.05 978.55 458.32 971.82 429.78 974.03 429.75 966.61 405.1 969.26 405.09 962.26 379.05"/><path class="cls-19" d="M1091.78,484.28c.36-6.32-3-12-8.41-15.54-2.9-6.36-9.8-11-18.08-11.36a22.81,22.81,0,0,0-10.79,2.14,21.6,21.6,0,0,0-14.76-6.48c-9.34-.41-17.53,4.74-20.45,12.14a17.62,17.62,0,0,0-8.34,13.7,17,17,0,0,0,6.38,14c1.5,8.29,9.41,14.81,19.3,15.24a23.08,23.08,0,0,0,3.92-.16,22.5,22.5,0,0,0,9.82,2.7,22.81,22.81,0,0,0,11-2.26c.34,0,.69.06,1,.07,8.14.36,15.41-3.5,19.08-9.4C1087.34,496.13,1091.42,490.68,1091.78,484.28Z"/><path class="cls-21" d="M1050.94,521.58c.31-.55,0-11.65,0-11.65s-20-2.49-20.93-3.32-4.4-9.22-4.4-9.22l5,8.38,20.44,2.78-10.64-9.33-2.1-1.83,9.93,6.58,4.4,4.58,5.19-5.55L1055,500l3.46,2.08,5.51-1.94-4.41,3.19,10.86-1.25-11.33,2.5-5.35,5.54-1.1,11.51Z"/><polygon class="cls-16" points="848.09 415.65 837.75 414.94 836.75 429.53 847.4 429.49 848.09 415.65"/><polygon class="cls-20" points="847.89 295.84 827.5 323.74 833.55 324.62 816.22 351.96 821.74 352.34 803.99 383.74 809.96 384.15 792.71 416.31 899.8 424.35 881.98 389.42 888.54 390.01 871.89 356.02 877.04 356.21 858.9 326.68 865.08 326.94 847.89 295.84"/><polygon class="cls-26" points="886.51 519.57 838.54 541.13 860.53 570.74 908.51 549.19 886.51 519.57"/><polygon class="cls-27" points="899.59 537.16 851.62 558.72 852.29 559.61 900.26 538.06 899.59 537.16"/><polygon class="cls-27" points="902.09 540.57 854.12 562.12 854.79 563.02 902.76 541.47 902.09 540.57"/><polygon class="cls-27" points="904.45 543.77 856.48 565.32 857.15 566.22 905.12 544.67 904.45 543.77"/><polygon class="cls-27" points="906.81 546.97 858.84 568.53 859.51 569.42 907.48 547.87 906.81 546.97"/><polygon class="cls-27" points="897 533.74 849.02 555.3 849.69 556.2 897.66 534.64 897 533.74"/><polygon class="cls-27" points="894.64 530.54 846.66 552.09 847.33 552.99 895.3 531.44 894.64 530.54"/><polygon class="cls-27" points="892.03 527.11 844.06 548.66 844.78 549.51 892.76 527.96 892.03 527.11"/><polygon class="cls-27" points="889.46 523.65 841.49 545.21 842.22 546.06 890.19 524.5 889.46 523.65"/><polygon class="cls-27" points="886.97 520.25 838.99 541.8 839.72 542.65 887.69 521.1 886.97 520.25"/><polygon class="cls-13" points="776.45 562.07 766.19 561.36 765.2 575.85 775.77 575.81 776.45 562.07"/><polygon class="cls-14" points="776.26 443.13 756.02 470.82 762.01 471.69 744.82 498.84 750.29 499.22 732.67 530.39 738.6 530.8 721.47 562.72 827.79 570.7 810.1 536.02 816.61 536.62 800.08 502.87 805.19 503.06 787.19 473.74 793.33 474 776.26 443.13"/><polygon class="cls-13" points="490.32 515.07 478.95 514.92 478.73 531.94 490.19 530.86 490.32 515.07"/><polygon class="cls-24" points="480.98 371.4 460.3 405.16 466.97 405.79 449.62 438.71 455.69 438.79 438.12 476.45 444.68 476.54 422.81 515.76 546.77 516.27 523.89 477.97 531.12 478.24 510.85 439.8 516.5 439.69 494.87 406.54 501.66 406.44 480.98 371.4"/><rect class="cls-28" x="1190.66" y="413.49" width="1.47" height="3" rx="0.49"/><rect class="cls-29" x="1192.68" y="415.97" width="0.91" height="2.99" rx="0.31" transform="translate(-68.73 342.92) rotate(-15.9)"/><rect class="cls-6" x="1189.76" y="421.23" width="0.91" height="2.99" rx="0.31"/><path class="cls-29" d="M1191.5,415.94h-.07a.88.88,0,0,1-.71-.21,1.71,1.71,0,0,0-1,1.53V421a1.69,1.69,0,0,0,1.69,1.69h0a1.69,1.69,0,0,0,1.69-1.69v-3.72a1.7,1.7,0,0,0-1.06-1.57A.77.77,0,0,1,1191.5,415.94Z"/><rect class="cls-6" x="1189.76" y="422.81" width="0.91" height="2.99" rx="0.31"/><rect class="cls-6" x="1192.22" y="421.23" width="0.91" height="2.99" rx="0.31"/><rect class="cls-6" x="1192.22" y="422.81" width="0.91" height="2.99" rx="0.31"/><rect class="cls-29" x="1189.26" y="415.97" width="0.91" height="2.99" rx="0.31" transform="translate(2137.29 1249.23) rotate(-158.06)"/><rect class="cls-29" x="1188.78" y="418.25" width="0.91" height="2.05" rx="0.31" transform="translate(2322.22 972.82) rotate(-173.38)"/><rect class="cls-29" x="1193.15" y="418.35" width="0.9" height="2.03" rx="0.3" transform="translate(3.8 -10.65) rotate(0.51)"/><rect class="cls-30" x="1189.49" y="409.25" width="3.69" height="5.78" rx="1.24"/><path class="cls-6" d="M1189.76,420.81V422a.85.85,0,0,0,.91.76h1.56a.85.85,0,0,0,.91-.76V420.9a.28.28,0,0,0,0-.09Z"/><rect class="cls-30" x="1193.35" y="420.07" width="0.39" height="0.84" rx="0.13" transform="translate(3.81 -10.65) rotate(0.51)"/><rect class="cls-30" x="1193.28" y="420.77" width="0.55" height="1.19" rx="0.18" transform="translate(3.81 -10.65) rotate(0.51)"/><rect class="cls-28" x="1193.21" y="420.88" width="0.13" height="0.43" rx="0.04" transform="translate(3.81 -10.64) rotate(0.51)"/><rect class="cls-28" x="1189.17" y="420.66" width="0.13" height="0.43" rx="0.05" transform="translate(2250.37 1103.09) rotate(-166.75)"/><polygon class="cls-31" points="1186.22 422.82 1185.37 423.25 1186.13 423.77 1186.22 422.82"/><path class="cls-6" d="M1186.21,422.89s-.07,0,0,0l.44-.64s0,0,.05,0S1186.22,422.86,1186.21,422.89Z"/><polygon class="cls-32" points="1186.7 423.19 1185.85 423.62 1186.61 424.14 1186.7 423.19"/><path class="cls-6" d="M1186.69,423.26s-.06,0,0,0l.44-.65s.05,0,.05,0S1186.7,423.24,1186.69,423.26Z"/><polygon class="cls-33" points="1187.03 423.43 1186.12 423.71 1186.78 424.35 1187.03 423.43"/><path class="cls-6" d="M1187,423.5s-.06,0,0,0l.55-.57,0,0S1187,423.48,1187,423.5Z"/><polygon class="cls-31" points="1185.87 421.99 1184.92 421.99 1185.36 422.8 1185.87 421.99"/><path class="cls-6" d="M1185.83,422s0,0,0-.05l.69-.37s0,0,0,.05S1185.86,422,1185.83,422Z"/><polygon class="cls-32" points="1186.12 422.52 1185.16 422.52 1185.61 423.33 1186.12 422.52"/><path class="cls-6" d="M1186.07,422.58s0,0,0-.05l.68-.38s0,0,0,.05S1186.1,422.56,1186.07,422.58Z"/><polygon class="cls-31" points="1186.81 423.44 1185.91 423.75 1186.59 424.37 1186.81 423.44"/><path class="cls-6" d="M1186.79,423.51s-.06,0,0,0l.52-.58a.14.14,0,0,1,0,0S1186.81,423.49,1186.79,423.51Z"/><polygon class="cls-33" points="1185.84 422.31 1184.89 422.3 1185.33 423.11 1185.84 422.31"/><path class="cls-6" d="M1185.8,422.36s0,0,0-.05l.69-.38s0,0,0,.05S1185.83,422.35,1185.8,422.36Z"/><polygon class="cls-34" points="1186.9 423.31 1185.96 423.42 1186.5 424.17 1186.9 423.31"/><path class="cls-6" d="M1186.87,423.37s-.06,0,0-.05l.63-.45s0,0,0,0S1186.89,423.35,1186.87,423.37Z"/><polygon class="cls-35" points="1186.59 422.89 1185.64 423 1186.18 423.75 1186.59 422.89"/><path class="cls-6" d="M1186.56,423s-.06,0,0-.05l.64-.46s0,0,0,.05S1186.58,422.93,1186.56,423Z"/><polygon class="cls-34" points="1186.23 422.44 1185.33 422.13 1185.49 423.04 1186.23 422.44"/><path class="cls-6" d="M1186.18,422.48s0-.05,0-.05l.77-.14s0,0,0,.06S1186.2,422.48,1186.18,422.48Z"/><polygon class="cls-35" points="1187.12 423.83 1186.28 424.29 1187.06 424.78 1187.12 423.83"/><path class="cls-6" d="M1187.11,423.9s-.07,0,0,0l.42-.67a.14.14,0,0,1,0,0S1187.12,423.87,1187.11,423.9Z"/><polygon class="cls-9" points="1189.38 420.75 1185.76 421.77 1187.34 423.91 1189.38 420.75"/><polygon class="cls-36" points="1189.38 420.75 1186.63 422.95 1187.33 423.9 1189.38 420.75"/><rect class="cls-30" x="1188.89" y="419.8" width="0.39" height="0.85" rx="0.13" transform="translate(2250.23 1101.77) rotate(-166.75)"/><rect class="cls-30" x="1188.59" y="420.48" width="0.55" height="1.21" rx="0.19" transform="translate(2249.6 1103.41) rotate(-166.75)"/><path class="cls-37" d="M1190.86,425.79a.64.64,0,0,0-.65-.45.62.62,0,0,0-.64.46Z"/><path class="cls-37" d="M1193.32,425.79a.64.64,0,0,0-.65-.45.62.62,0,0,0-.64.46Z"/><path class="cls-38" d="M1191.24,416h.24c.41,0,.74-.12.74-.27h0l-.14-.07h0c-.12.14-.24.23-.67.25h-.06a.76.76,0,0,1-.63-.21l-.15.09C1190.57,416,1190.84,416,1191.24,416Z"/><polygon class="cls-4" points="1191.16 420.81 1191.7 420.81 1193.13 420.81 1193.13 420.98 1191.71 420.98 1191.16 420.98 1189.76 420.98 1189.76 420.81 1191.16 420.81"/><path class="cls-30" d="M1189.48,410.94h-.08a.53.53,0,0,0-.43.6.52.52,0,0,0,.52.43Z"/><path class="cls-30" d="M1193.17,410.92h.08a.49.49,0,0,1,.42.54.47.47,0,0,1-.5.37Z"/><ellipse class="cls-39" cx="1191.39" cy="409.79" rx="2.78" ry="1.89"/><ellipse class="cls-39" cx="1189.99" cy="409.13" rx="0.67" ry="0.54"/><ellipse class="cls-39" cx="1191.16" cy="408.84" rx="1.11" ry="0.89"/><ellipse class="cls-39" cx="1192.58" cy="409.25" rx="0.67" ry="0.54"/><ellipse class="cls-39" cx="1193.26" cy="409.25" rx="0.5" ry="0.4"/><ellipse class="cls-39" cx="1189.43" cy="408.9" rx="0.67" ry="0.54"/><ellipse class="cls-39" cx="1189.57" cy="409.19" rx="0.83" ry="0.6"/><ellipse class="cls-39" cx="1190.73" cy="408.3" rx="0.67" ry="0.54"/><ellipse class="cls-39" cx="1192.75" cy="408.56" rx="0.67" ry="0.54"/><ellipse class="cls-39" cx="1192.25" cy="408.3" rx="0.67" ry="0.54"/><ellipse class="cls-39" cx="1190.05" cy="408.49" rx="0.67" ry="0.54"/><ellipse class="cls-39" cx="1193.33" cy="409.13" rx="0.89" ry="0.71"/><path class="cls-40" d="M1191.68,422.7c-.12,0-.13-.24-.13-.32h0c0-.16,0-.9,0-.9,0,.68,0,1.19-.13,1.24h.29S1191.81,422.7,1191.68,422.7Z"/><rect class="cls-41" x="5.5" y="925.8" width="1911.9" height="156.86"/><path class="cls-42" d="M1911.9,931.3v145.86H11V931.3H1911.9m11-11H0v167.86H1922.9V920.3Z"/><path class="cls-41" d="M1240.9,226.27l-6.27,2.65C1194,267.73,1175.42,311,1182,359.39L1163.17,357l28.67,34.58,15.35-40.71-17.28,7.33C1177.7,309.73,1198.63,265.72,1240.9,226.27Z"/><path class="cls-43" d="M101.9,989.72l-2.77,3.53a5.63,5.63,0,0,1-1.36,1.4,2.57,2.57,0,0,1-1.31.32,2.74,2.74,0,0,1-2-.78,2.56,2.56,0,0,1-.82-1.94,4.37,4.37,0,0,1,1.16-2.37l3-3.83a17.25,17.25,0,0,1-3.64-10.91A16.57,16.57,0,0,1,99.6,962.3a14,14,0,0,1,9.7-4,13.71,13.71,0,0,1,8.1,2.64l2.19-2.8a6.09,6.09,0,0,1,1.38-1.41,2.47,2.47,0,0,1,1.31-.33,2.63,2.63,0,0,1,1.92.82,2.7,2.7,0,0,1,.82,2,4.34,4.34,0,0,1-1.13,2.32l-2.56,3.29a14.63,14.63,0,0,1,2.29,4.63,19.29,19.29,0,0,1,.85,5.71,16.55,16.55,0,0,1-5.22,12.6,14.09,14.09,0,0,1-9.92,4.12A13.87,13.87,0,0,1,101.9,989.72Zm12.18-24.47a8.56,8.56,0,0,0-4.75-1.5,9,9,0,0,0-6.76,3.23,11.54,11.54,0,0,0-3,8.13,12.12,12.12,0,0,0,1.72,6.46Zm-8.84,20.17a8.78,8.78,0,0,0,4.09,1.08,9,9,0,0,0,6.75-3.23,11.43,11.43,0,0,0,3-8.08,12.92,12.92,0,0,0-1.29-5.77Z"/><path class="cls-43" d="M142.71,984.55l5.83-12a6.32,6.32,0,0,1-2.77-.37,2.6,2.6,0,0,1-1.32-2.35,2.49,2.49,0,0,1,.83-1.93,4.11,4.11,0,0,1,2.78-.75h7.41a4.11,4.11,0,0,1,2.78.75,2.71,2.71,0,0,1,0,3.9,4.11,4.11,0,0,1-2.78.75h-.9l-9,18.54h-5.64l-9-18.54h-.76a4.11,4.11,0,0,1-2.78-.75,2.51,2.51,0,0,1-.83-2,2.46,2.46,0,0,1,.83-1.93,4.11,4.11,0,0,1,2.78-.75h7.25a4.1,4.1,0,0,1,2.76.75,2.71,2.71,0,0,1-.44,4.25,6.18,6.18,0,0,1-2.82.4Z"/><path class="cls-43" d="M180.07,962.3l-1.51,16.29a2.94,2.94,0,0,1-.84,2,2.78,2.78,0,0,1-3.69,0,2.94,2.94,0,0,1-.84-2l-1.53-16.29c-.07-.83-.11-1.37-.11-1.64a4.5,4.5,0,0,1,1.24-3.31,4.39,4.39,0,0,1,6.16,0,4.35,4.35,0,0,1,1.25,3.19C180.2,960.82,180.16,961.4,180.07,962.3Zm-.87,26.84a2.56,2.56,0,0,1-.87,2,4,4,0,0,1-4.8,0,2.63,2.63,0,0,1,0-3.9,3.36,3.36,0,0,1,2.41-.8,3.4,3.4,0,0,1,2.41.79A2.56,2.56,0,0,1,179.2,989.14Z"/><path class="cls-43" d="M249.41,982.42H236.27L235,985.71h1.31a4.14,4.14,0,0,1,2.79.75,2.54,2.54,0,0,1,.83,2,2.49,2.49,0,0,1-.83,1.93,4.08,4.08,0,0,1-2.79.76H229a4.06,4.06,0,0,1-2.78-.76,2.71,2.71,0,0,1,0-3.94,4.16,4.16,0,0,1,2.87-.71l8.49-21.15h-3.53a4.16,4.16,0,0,1-2.79-.75,2.52,2.52,0,0,1-.83-2,2.56,2.56,0,0,1,.83-2,4.16,4.16,0,0,1,2.79-.75l11.68,0,10.75,26.55a4.94,4.94,0,0,1,2.51.42,2.7,2.7,0,0,1,1.21,2.3,2.51,2.51,0,0,1-.81,1.93,4,4,0,0,1-2.77.76h-7.28a4.06,4.06,0,0,1-2.78-.76,2.71,2.71,0,0,1,0-3.9,4.11,4.11,0,0,1,2.78-.75h1.32ZM247.16,977l-4.35-10.7L238.44,977Z"/><path class="cls-43" d="M270.71,967.18V969A10.25,10.25,0,0,1,274,967.1a11.31,11.31,0,0,1,3.87-.64,9.92,9.92,0,0,1,7.59,3,8.75,8.75,0,0,1,2.22,6.23v10a3.66,3.66,0,0,1,2.53.75,2.56,2.56,0,0,1,.81,2,2.46,2.46,0,0,1-.83,1.93,4.06,4.06,0,0,1-2.78.76h-4.88a4.06,4.06,0,0,1-2.78-.76,2.72,2.72,0,0,1,0-3.9,3.64,3.64,0,0,1,2.53-.75v-10.2a3.26,3.26,0,0,0-1-2.59,5.63,5.63,0,0,0-3.72-1,7.11,7.11,0,0,0-3.28.72,14.74,14.74,0,0,0-3.57,3.08v10a5.69,5.69,0,0,1,2.69.4,2.55,2.55,0,0,1,1.29,2.32,2.49,2.49,0,0,1-.83,1.93,4.07,4.07,0,0,1-2.78.76h-6.15a4.06,4.06,0,0,1-2.78-.76,2.52,2.52,0,0,1-.83-2,2.57,2.57,0,0,1,1.27-2.29,5.82,5.82,0,0,1,2.71-.4V972.58a3.61,3.61,0,0,1-2.53-.76,2.58,2.58,0,0,1-.82-2,2.49,2.49,0,0,1,.83-1.93,4.14,4.14,0,0,1,2.79-.75Z"/><path class="cls-43" d="M308.22,972.58v10.84a2.8,2.8,0,0,0,.72,2.29,6.59,6.59,0,0,0,3.95.87,16.75,16.75,0,0,0,7.65-1.77,5.17,5.17,0,0,1,2.11-.68,2.48,2.48,0,0,1,1.83.79,2.65,2.65,0,0,1,.78,1.93,2.34,2.34,0,0,1-.85,1.81q-1.29,1.25-5.1,2.28a25,25,0,0,1-6.42,1q-5,0-7.55-2.18a6.79,6.79,0,0,1-2.52-5.34V972.58h-1.95a4.11,4.11,0,0,1-2.78-.75,2.51,2.51,0,0,1-.83-2,2.46,2.46,0,0,1,.83-1.93,4.11,4.11,0,0,1,2.78-.75h1.95V962.3a4.16,4.16,0,0,1,.75-2.79,2.54,2.54,0,0,1,2-.83,2.5,2.5,0,0,1,1.94.83,4.16,4.16,0,0,1,.75,2.79v4.88h10a4.13,4.13,0,0,1,2.78.75,2.71,2.71,0,0,1,0,3.9,4.13,4.13,0,0,1-2.78.75Z"/><path class="cls-43" d="M357,979.59a11.66,11.66,0,0,1-1.72,6,12.22,12.22,0,0,1-5.15,4.64,15.53,15.53,0,0,1-14.19,0,12.37,12.37,0,0,1-5.15-4.63,11.73,11.73,0,0,1-1.76-6.12,13,13,0,0,1,6.94-11.28,14.64,14.64,0,0,1,14.14,0,12.52,12.52,0,0,1,5.15,4.93A12.81,12.81,0,0,1,357,979.59Zm-5.4,0a7.27,7.27,0,0,0-1.87-4.8,9.15,9.15,0,0,0-12.85-.6,7.31,7.31,0,0,0-2.45,5.43,6.35,6.35,0,0,0,2.48,4.73,9.57,9.57,0,0,0,12.21,0A6.36,6.36,0,0,0,351.57,979.62Z"/><path class="cls-43" d="M370.84,967.18V969a10.19,10.19,0,0,1,3.26-1.89,11.21,11.21,0,0,1,3.86-.64,9.92,9.92,0,0,1,7.59,3,8.75,8.75,0,0,1,2.22,6.23v10a3.66,3.66,0,0,1,2.53.75,2.57,2.57,0,0,1,.82,2,2.49,2.49,0,0,1-.83,1.93,4.1,4.1,0,0,1-2.79.76h-4.87a4.08,4.08,0,0,1-2.79-.76,2.72,2.72,0,0,1,0-3.9,3.66,3.66,0,0,1,2.53-.75v-10.2a3.23,3.23,0,0,0-.95-2.59,5.62,5.62,0,0,0-3.72-1,7.14,7.14,0,0,0-3.28.72,14.74,14.74,0,0,0-3.57,3.08v10a5.69,5.69,0,0,1,2.69.4,2.55,2.55,0,0,1,1.29,2.32,2.49,2.49,0,0,1-.83,1.93,4.06,4.06,0,0,1-2.78.76h-6.15a4.07,4.07,0,0,1-2.78-.76,2.52,2.52,0,0,1-.83-2,2.57,2.57,0,0,1,1.27-2.29,5.85,5.85,0,0,1,2.71-.4V972.58a3.61,3.61,0,0,1-2.53-.76,2.57,2.57,0,0,1-.81-2,2.46,2.46,0,0,1,.83-1.93,4.11,4.11,0,0,1,2.78-.75Z"/><path class="cls-43" d="M443,972.58v13.13h7.7a4.16,4.16,0,0,1,2.79.75,2.54,2.54,0,0,1,.83,2,2.49,2.49,0,0,1-.83,1.93,4.1,4.1,0,0,1-2.79.76H434.4a4.06,4.06,0,0,1-2.78-.76,2.71,2.71,0,0,1,0-3.9,4.11,4.11,0,0,1,2.78-.75h3.22V972.58H435a4.14,4.14,0,0,1-2.79-.75,2.54,2.54,0,0,1-.83-2,2.49,2.49,0,0,1,.83-1.93,4.14,4.14,0,0,1,2.79-.75h2.58v-2.06a7.48,7.48,0,0,1,2.65-5.87q2.66-2.32,7.69-2.33a37,37,0,0,1,5.18.41,8,8,0,0,1,3.77,1.14,2.46,2.46,0,0,1,.83,1.9,2.82,2.82,0,0,1-.74,2,2.41,2.41,0,0,1-1.82.78,8.58,8.58,0,0,1-1.5-.19,31.17,31.17,0,0,0-5.94-.66,6.18,6.18,0,0,0-3.7.81,2.44,2.44,0,0,0-1,2v2.06h8.34a4.13,4.13,0,0,1,2.78.75,2.71,2.71,0,0,1,0,3.9,4.13,4.13,0,0,1-2.78.75Z"/><path class="cls-43" d="M479.12,967.18v18.53h6.48a4.14,4.14,0,0,1,2.79.75,2.54,2.54,0,0,1,.83,2,2.49,2.49,0,0,1-.83,1.93,4.08,4.08,0,0,1-2.79.76H467.23a4.1,4.1,0,0,1-2.79-.76,2.71,2.71,0,0,1,0-3.9,4.16,4.16,0,0,1,2.79-.75h6.48V972.58h-4.35a4.15,4.15,0,0,1-2.77-.75,2.52,2.52,0,0,1-.84-2,2.49,2.49,0,0,1,.83-1.93,4.11,4.11,0,0,1,2.78-.75Zm-.74-10.26v5.72H472v-5.72Z"/><path class="cls-43" d="M505.38,982.13v9h-6.33a4.06,4.06,0,0,1-2.78-.76,2.69,2.69,0,0,1,0-3.9,4.12,4.12,0,0,1,2.77-.75H500V962.32h-.92a4.11,4.11,0,0,1-2.78-.75,2.71,2.71,0,0,1,0-3.9,4.11,4.11,0,0,1,2.78-.75h6.33v18.22l4.22-3.4a4,4,0,0,1-.66-1.85,2.54,2.54,0,0,1,.81-2,4.08,4.08,0,0,1,2.77-.75h6.17a4.11,4.11,0,0,1,2.78.75,2.71,2.71,0,0,1,0,3.9,4.11,4.11,0,0,1-2.78.75h-1.5l-6.57,5.33,8.84,7.8H521a4.11,4.11,0,0,1,2.78.75,2.54,2.54,0,0,1,.83,2,2.49,2.49,0,0,1-.83,1.93,4.06,4.06,0,0,1-2.78.76h-6.22a4.08,4.08,0,0,1-2.79-.76,2.52,2.52,0,0,1-.83-2,3.06,3.06,0,0,1,.9-2l-5.72-5.06Z"/><path class="cls-43" d="M581.44,991.12v-1.27a17.51,17.51,0,0,1-4.48,1.62,20.93,20.93,0,0,1-4.46.54,10.59,10.59,0,0,1-7.07-2.3,6.66,6.66,0,0,1-2.71-5.11c0-2.26,1.15-4.37,3.47-6.31s5.5-2.91,9.58-2.91a35.76,35.76,0,0,1,5.67.52v-1.29a2.36,2.36,0,0,0-1-2c-.7-.51-2-.76-4-.76a26.66,26.66,0,0,0-6.22,1,10.07,10.07,0,0,1-2.22.34,2.44,2.44,0,0,1-1.83-.78,2.75,2.75,0,0,1-.75-2,2.54,2.54,0,0,1,.26-1.18,2.07,2.07,0,0,1,.74-.81,8.92,8.92,0,0,1,2-.72,37,37,0,0,1,4.08-.89,24.36,24.36,0,0,1,3.77-.33q5,0,7.82,2.18a7.12,7.12,0,0,1,2.78,5.94v11.13h.93a4.13,4.13,0,0,1,2.78.75,2.54,2.54,0,0,1,.83,2,2.49,2.49,0,0,1-.83,1.93,4.07,4.07,0,0,1-2.78.76Zm0-9.68a31.56,31.56,0,0,0-6-.63,9.84,9.84,0,0,0-5.67,1.61c-1,.68-1.47,1.38-1.47,2.08a1.45,1.45,0,0,0,.71,1.24,6.49,6.49,0,0,0,3.61.87,15.17,15.17,0,0,0,4.42-.77,16.18,16.18,0,0,0,4.39-2.08Z"/><path class="cls-43" d="M612.65,956.92v28.79h6.49a4.11,4.11,0,0,1,2.78.75,2.54,2.54,0,0,1,.83,2,2.49,2.49,0,0,1-.83,1.93,4.06,4.06,0,0,1-2.78.76H600.76a4.06,4.06,0,0,1-2.78-.76,2.71,2.71,0,0,1,0-3.9,4.11,4.11,0,0,1,2.78-.75h6.49V962.32H602.9a4.12,4.12,0,0,1-2.77-.75,2.69,2.69,0,0,1,0-3.9,4.11,4.11,0,0,1,2.78-.75Z"/><path class="cls-43" d="M655.73,956.92v28.79h.93a4.15,4.15,0,0,1,2.77.75,2.52,2.52,0,0,1,.84,2,2.49,2.49,0,0,1-.83,1.93,4.06,4.06,0,0,1-2.78.76h-6.33V989.8a16.09,16.09,0,0,1-3.86,1.63,15.73,15.73,0,0,1-4.18.56,13.72,13.72,0,0,1-9.81-3.52,11.58,11.58,0,0,1-3.72-8.77,12.7,12.7,0,0,1,3.9-9.36,13,13,0,0,1,9.52-3.88,13.57,13.57,0,0,1,4.14.65,16.59,16.59,0,0,1,4,1.94v-6.73h-.92a4.14,4.14,0,0,1-2.79-.75,2.5,2.5,0,0,1-.83-1.94,2.54,2.54,0,0,1,.83-2,4.14,4.14,0,0,1,2.79-.75Zm-5.4,22.94a7.66,7.66,0,0,0-2.35-5.67,8.25,8.25,0,0,0-11.47,0,7.59,7.59,0,0,0-2.34,5.59,6.33,6.33,0,0,0,2.1,4.89,10.25,10.25,0,0,0,11.92,0A6.18,6.18,0,0,0,650.33,979.86Z"/><path class="cls-43" d="M675.59,967.18v3.37a30,30,0,0,1,5.36-3.27,9.73,9.73,0,0,1,3.68-.82,8.17,8.17,0,0,1,5.11,1.95,3.58,3.58,0,0,1,1.69,2.69,2.7,2.7,0,0,1-.8,2,2.67,2.67,0,0,1-1.94.8,3.23,3.23,0,0,1-2.11-1,3.15,3.15,0,0,0-2-1,7.48,7.48,0,0,0-3.39,1.42,55.53,55.53,0,0,0-5.62,4.27v8.15h7.69a4.14,4.14,0,0,1,2.79.75,2.54,2.54,0,0,1,.83,2,2.49,2.49,0,0,1-.83,1.93,4.08,4.08,0,0,1-2.79.76H667a4.07,4.07,0,0,1-2.78-.76,2.71,2.71,0,0,1,0-3.9,4.13,4.13,0,0,1,2.78-.75h3.22V972.58h-1.95a4.11,4.11,0,0,1-2.78-.75,2.51,2.51,0,0,1-.83-2,2.46,2.46,0,0,1,.83-1.93,4.11,4.11,0,0,1,2.78-.75Z"/><path class="cls-43" d="M712.76,967.18v18.53h6.49a4.13,4.13,0,0,1,2.78.75,2.54,2.54,0,0,1,.83,2,2.49,2.49,0,0,1-.83,1.93,4.07,4.07,0,0,1-2.78.76H700.87a4.06,4.06,0,0,1-2.78-.76,2.71,2.71,0,0,1,0-3.9,4.11,4.11,0,0,1,2.78-.75h6.48V972.58H703a4.15,4.15,0,0,1-2.77-.75,2.52,2.52,0,0,1-.84-2,2.49,2.49,0,0,1,.83-1.93,4.11,4.11,0,0,1,2.78-.75ZM712,956.92v5.72h-6.43v-5.72Z"/><path class="cls-43" d="M749.41,968.78v-1.6h6.32a4.11,4.11,0,0,1,2.78.75,2.68,2.68,0,0,1,0,3.9,4.11,4.11,0,0,1-2.78.75h-.92v19.67a9.91,9.91,0,0,1-1.2,5,10.21,10.21,0,0,1-3.68,3.65,10.41,10.41,0,0,1-5.59,1.53h-6.11a4.16,4.16,0,0,1-2.79-.75,2.71,2.71,0,0,1,0-3.9,4.16,4.16,0,0,1,2.79-.75h5.95a5.23,5.23,0,0,0,3.85-1.35,4.54,4.54,0,0,0,1.38-3.4v-2.64a14.53,14.53,0,0,1-3.66,1.74,13.25,13.25,0,0,1-13-3.09,13,13,0,0,1,0-18.2,13,13,0,0,1,16.69-1.28Zm0,10.37a7.07,7.07,0,0,0-2.2-5.17,7.48,7.48,0,0,0-10.58,0,7.19,7.19,0,0,0,0,10.35,7.53,7.53,0,0,0,10.58,0A7.06,7.06,0,0,0,749.38,979.15Z"/><path class="cls-43" d="M816.16,968.78v-1.6h6.33a4.11,4.11,0,0,1,2.78.75,2.71,2.71,0,0,1,0,3.9,4.11,4.11,0,0,1-2.78.75h-.92v19.67a9.91,9.91,0,0,1-1.2,5,10.29,10.29,0,0,1-3.68,3.65,10.43,10.43,0,0,1-5.59,1.53H805a4.11,4.11,0,0,1-2.78-.75,2.71,2.71,0,0,1,0-3.9A4.11,4.11,0,0,1,805,997h6a5.25,5.25,0,0,0,3.85-1.35,4.57,4.57,0,0,0,1.37-3.4v-2.64a14.31,14.31,0,0,1-3.65,1.74,13.27,13.27,0,0,1-13-3.09,13,13,0,0,1,0-18.2A13.31,13.31,0,0,1,812.61,967,12.39,12.39,0,0,1,816.16,968.78Zm0,10.37a7,7,0,0,0-2.2-5.17,7.47,7.47,0,0,0-10.57,0,7.19,7.19,0,0,0,0,10.35,7.52,7.52,0,0,0,10.57,0A7,7,0,0,0,816.13,979.15Z"/><path class="cls-43" d="M846.27,967.18v18.53h6.48a4.16,4.16,0,0,1,2.79.75,2.54,2.54,0,0,1,.83,2,2.49,2.49,0,0,1-.83,1.93,4.1,4.1,0,0,1-2.79.76H834.38a4.1,4.1,0,0,1-2.79-.76,2.71,2.71,0,0,1,0-3.9,4.16,4.16,0,0,1,2.79-.75h6.48V972.58h-4.35a4.15,4.15,0,0,1-2.77-.75,2.52,2.52,0,0,1-.84-2,2.49,2.49,0,0,1,.83-1.93,4.11,4.11,0,0,1,2.78-.75Zm-.74-10.26v5.72H839.1v-5.72Z"/><path class="cls-43" d="M877,984.55l5.83-12a6.32,6.32,0,0,1-2.77-.37,2.6,2.6,0,0,1-1.32-2.35,2.49,2.49,0,0,1,.83-1.93,4.11,4.11,0,0,1,2.78-.75h7.41a4.11,4.11,0,0,1,2.78.75,2.71,2.71,0,0,1,0,3.9,4.11,4.11,0,0,1-2.78.75h-.9l-9,18.54h-5.64l-9.05-18.54h-.76a4.11,4.11,0,0,1-2.78-.75,2.51,2.51,0,0,1-.83-2,2.46,2.46,0,0,1,.83-1.93,4.11,4.11,0,0,1,2.78-.75h7.25a4.1,4.1,0,0,1,2.76.75,2.71,2.71,0,0,1-.44,4.25,6.18,6.18,0,0,1-2.82.4Z"/><path class="cls-43" d="M923.91,981.89H901.74a7,7,0,0,0,3,3.4,11.24,11.24,0,0,0,5.81,1.29,33.63,33.63,0,0,0,8-1.29,14,14,0,0,1,2.85-.53,2.43,2.43,0,0,1,1.82.77,2.66,2.66,0,0,1,.74,1.92,2.35,2.35,0,0,1-.79,1.79q-1.06,1-5.14,1.86a37.22,37.22,0,0,1-7.86.89c-4.33,0-7.78-1.23-10.38-3.67a11.91,11.91,0,0,1-3.89-9,11.6,11.6,0,0,1,4.21-9.26,14.48,14.48,0,0,1,9.69-3.58,15.5,15.5,0,0,1,6.05,1.16,12.93,12.93,0,0,1,4.1,2.51,15.83,15.83,0,0,1,3.14,4.82,12,12,0,0,1,.84,4.64Zm-6-5.41a8.54,8.54,0,0,0-3.25-3.47,10.49,10.49,0,0,0-9.51,0,8.65,8.65,0,0,0-3.27,3.47Z"/><path class="cls-43" d="M942.39,972.58v10.84a2.84,2.84,0,0,0,.71,2.29,6.65,6.65,0,0,0,4,.87,16.75,16.75,0,0,0,7.65-1.77,5.13,5.13,0,0,1,2.1-.68,2.48,2.48,0,0,1,1.84.79,2.65,2.65,0,0,1,.78,1.93,2.38,2.38,0,0,1-.85,1.81q-1.29,1.25-5.1,2.28a25,25,0,0,1-6.42,1q-5,0-7.55-2.18a6.79,6.79,0,0,1-2.52-5.34V972.58h-2a4.14,4.14,0,0,1-2.79-.75,2.54,2.54,0,0,1-.83-2,2.49,2.49,0,0,1,.83-1.93,4.14,4.14,0,0,1,2.79-.75h2V962.3a4.16,4.16,0,0,1,.75-2.79,2.71,2.71,0,0,1,3.9,0,4.16,4.16,0,0,1,.75,2.79v4.88h10a4.13,4.13,0,0,1,2.78.75,2.71,2.71,0,0,1,0,3.9,4.13,4.13,0,0,1-2.78.75Z"/><path class="cls-43" d="M1016.32,973.5a10.89,10.89,0,0,0-5.8-1.63,10.24,10.24,0,0,0-5,1c-.54.3-.81.62-.81,1s.37.8,1.1,1.19a15.31,15.31,0,0,0,3.78.82,44.12,44.12,0,0,1,7.48,1.47,9.06,9.06,0,0,1,4.27,2.9,6.48,6.48,0,0,1,1.51,4.06,5.9,5.9,0,0,1-2.56,4.86,15.18,15.18,0,0,1-9.52,2.82,21.84,21.84,0,0,1-4.34-.41,15.79,15.79,0,0,1-3.65-1.2,3.12,3.12,0,0,1-.84.53,2.47,2.47,0,0,1-.92.18,2.59,2.59,0,0,1-2-.83,4.11,4.11,0,0,1-.75-2.78v-1.82a4.11,4.11,0,0,1,.75-2.78,2.74,2.74,0,0,1,3.6-.29,3.63,3.63,0,0,1,1,1.86,8.35,8.35,0,0,0,3,1.59,13.49,13.49,0,0,0,4,.54,11.92,11.92,0,0,0,5.78-1.16c.65-.39,1-.79,1-1.21,0-.7-.46-1.28-1.39-1.74a20.42,20.42,0,0,0-5.78-1.16q-6.51-.69-8.7-2.64a6.06,6.06,0,0,1-2.19-4.74,5.91,5.91,0,0,1,2.45-4.83,13.6,13.6,0,0,1,8.71-2.64,17.56,17.56,0,0,1,3.59.36,14.94,14.94,0,0,1,3.31,1.09,5,5,0,0,1,.94-.55,2.12,2.12,0,0,1,.8-.18,2.35,2.35,0,0,1,1.85.83,4.17,4.17,0,0,1,.74,2.78v1.32a4.77,4.77,0,0,1-.42,2.4,2.69,2.69,0,0,1-2.3,1.21,2.58,2.58,0,0,1-1.71-.61A2.74,2.74,0,0,1,1016.32,973.5Z"/><path class="cls-43" d="M1046.53,967.18v18.53H1053a4.11,4.11,0,0,1,2.78.75,2.54,2.54,0,0,1,.83,2,2.49,2.49,0,0,1-.83,1.93,4.06,4.06,0,0,1-2.78.76h-18.38a4.06,4.06,0,0,1-2.78-.76,2.71,2.71,0,0,1,0-3.9,4.11,4.11,0,0,1,2.78-.75h6.49V972.58h-4.35a4.12,4.12,0,0,1-2.77-.75,2.68,2.68,0,0,1,0-3.9,4.14,4.14,0,0,1,2.79-.75Zm-.74-10.26v5.72h-6.43v-5.72Z"/><path class="cls-43" d="M1071.76,967.18V969a10.29,10.29,0,0,1,3.26-1.89,11.21,11.21,0,0,1,3.86-.64,9.92,9.92,0,0,1,7.59,3,8.75,8.75,0,0,1,2.22,6.23v10a3.64,3.64,0,0,1,2.53.75,2.54,2.54,0,0,1,.82,2,2.49,2.49,0,0,1-.83,1.93,4.07,4.07,0,0,1-2.78.76h-4.88a4.06,4.06,0,0,1-2.78-.76,2.49,2.49,0,0,1-.83-2,2.53,2.53,0,0,1,.81-1.94,3.66,3.66,0,0,1,2.53-.75v-10.2a3.26,3.26,0,0,0-.94-2.59,5.65,5.65,0,0,0-3.72-1,7.08,7.08,0,0,0-3.28.72,14.56,14.56,0,0,0-3.58,3.08v10a5.66,5.66,0,0,1,2.69.4,2.55,2.55,0,0,1,1.29,2.32,2.46,2.46,0,0,1-.83,1.93,4.06,4.06,0,0,1-2.78.76H1066a4.06,4.06,0,0,1-2.78-.76,2.49,2.49,0,0,1-.83-2,2.58,2.58,0,0,1,1.26-2.29,5.87,5.87,0,0,1,2.72-.4V972.58a3.58,3.58,0,0,1-2.53-.76,2.54,2.54,0,0,1-.82-2,2.46,2.46,0,0,1,.83-1.93,4.11,4.11,0,0,1,2.78-.75Z"/><path class="cls-43" d="M1124.18,981.89H1102a7,7,0,0,0,3,3.4,11.28,11.28,0,0,0,5.82,1.29,33.78,33.78,0,0,0,8-1.29,14,14,0,0,1,2.84-.53,2.42,2.42,0,0,1,1.82.77,2.62,2.62,0,0,1,.74,1.92,2.35,2.35,0,0,1-.79,1.79c-.7.65-2.42,1.27-5.14,1.86a37.08,37.08,0,0,1-7.86.89q-6.48,0-10.37-3.67a11.88,11.88,0,0,1-3.89-9,11.59,11.59,0,0,1,4.2-9.26,14.52,14.52,0,0,1,9.69-3.58,15.55,15.55,0,0,1,6.06,1.16,12.87,12.87,0,0,1,4.09,2.51,15.65,15.65,0,0,1,3.14,4.82,12,12,0,0,1,.85,4.64Zm-6-5.41A8.59,8.59,0,0,0,1115,973a10.51,10.51,0,0,0-9.52,0,8.65,8.65,0,0,0-3.27,3.47Z"/><path class="cls-43" d="M1183.31,968.78v-1.6h6.33a4.11,4.11,0,0,1,2.78.75,2.71,2.71,0,0,1,0,3.9,4.11,4.11,0,0,1-2.78.75h-.92v19.67a9.92,9.92,0,0,1-1.21,5,10.18,10.18,0,0,1-3.67,3.65,10.45,10.45,0,0,1-5.59,1.53h-6.12a4.11,4.11,0,0,1-2.78-.75,2.71,2.71,0,0,1,0-3.9,4.11,4.11,0,0,1,2.78-.75h6a5.27,5.27,0,0,0,3.85-1.35,4.57,4.57,0,0,0,1.37-3.4v-2.64a14.47,14.47,0,0,1-3.65,1.74,13.27,13.27,0,0,1-13-3.09,13,13,0,0,1,0-18.2,13,13,0,0,1,16.69-1.28Zm0,10.37a7,7,0,0,0-2.2-5.17,7.47,7.47,0,0,0-10.57,0,7.19,7.19,0,0,0,0,10.35,7.52,7.52,0,0,0,10.57,0A7,7,0,0,0,1183.28,979.15Z"/><path class="cls-43" d="M1215.61,991.12v-1.27a17.59,17.59,0,0,1-4.49,1.62,20.84,20.84,0,0,1-4.45.54,10.59,10.59,0,0,1-7.07-2.3,6.66,6.66,0,0,1-2.71-5.11c0-2.26,1.15-4.37,3.46-6.31s5.51-2.91,9.59-2.91a35.76,35.76,0,0,1,5.67.52v-1.29a2.35,2.35,0,0,0-1-2c-.69-.51-2-.76-4-.76a26.73,26.73,0,0,0-6.23,1,9.91,9.91,0,0,1-2.21.34,2.44,2.44,0,0,1-1.83-.78,2.75,2.75,0,0,1-.75-2,2.42,2.42,0,0,1,.26-1.18,2,2,0,0,1,.74-.81,8.57,8.57,0,0,1,2-.72,37.18,37.18,0,0,1,4.09-.89,24.36,24.36,0,0,1,3.77-.33q5,0,7.82,2.18a7.14,7.14,0,0,1,2.78,5.94v11.13h.92a4.14,4.14,0,0,1,2.79.75,2.54,2.54,0,0,1,.83,2,2.49,2.49,0,0,1-.83,1.93,4.08,4.08,0,0,1-2.79.76Zm0-9.68a31.64,31.64,0,0,0-6-.63,9.8,9.8,0,0,0-5.67,1.61c-1,.68-1.47,1.38-1.47,2.08a1.43,1.43,0,0,0,.71,1.24,6.49,6.49,0,0,0,3.61.87,15.17,15.17,0,0,0,4.42-.77,16.33,16.33,0,0,0,4.39-2.08Z"/><path class="cls-43" d="M1244.16,984.55l5.83-12a6.32,6.32,0,0,1-2.77-.37,2.6,2.6,0,0,1-1.32-2.35,2.49,2.49,0,0,1,.83-1.93,4.11,4.11,0,0,1,2.78-.75h7.41a4.11,4.11,0,0,1,2.78.75,2.71,2.71,0,0,1,0,3.9,4.11,4.11,0,0,1-2.78.75h-.9l-9,18.54h-5.64l-9-18.54h-.76a4.11,4.11,0,0,1-2.78-.75,2.51,2.51,0,0,1-.83-2,2.46,2.46,0,0,1,.83-1.93,4.11,4.11,0,0,1,2.78-.75h7.25a4.1,4.1,0,0,1,2.76.75,2.71,2.71,0,0,1-.44,4.25,6.18,6.18,0,0,1-2.82.4Z"/><path class="cls-43" d="M1291.06,981.89h-22.17a7,7,0,0,0,3,3.4,11.24,11.24,0,0,0,5.81,1.29,33.63,33.63,0,0,0,8-1.29,14,14,0,0,1,2.85-.53,2.43,2.43,0,0,1,1.82.77,2.66,2.66,0,0,1,.74,1.92,2.38,2.38,0,0,1-.79,1.79q-1.07,1-5.14,1.86a37.22,37.22,0,0,1-7.86.89q-6.49,0-10.38-3.67a11.91,11.91,0,0,1-3.89-9,11.57,11.57,0,0,1,4.21-9.26,14.48,14.48,0,0,1,9.69-3.58,15.5,15.5,0,0,1,6,1.16,12.93,12.93,0,0,1,4.1,2.51,15.83,15.83,0,0,1,3.14,4.82,12,12,0,0,1,.84,4.64Zm-6-5.41a8.54,8.54,0,0,0-3.25-3.47,10.51,10.51,0,0,0-9.52,0,8.7,8.7,0,0,0-3.26,3.47Z"/><path class="cls-43" d="M1309.75,967.18v3.37a30.38,30.38,0,0,1,5.37-3.27,9.69,9.69,0,0,1,3.68-.82,8.19,8.19,0,0,1,5.11,1.95,3.58,3.58,0,0,1,1.69,2.69,2.73,2.73,0,0,1-2.74,2.77,3.23,3.23,0,0,1-2.11-1,3.15,3.15,0,0,0-2-1,7.44,7.44,0,0,0-3.39,1.42,55.47,55.47,0,0,0-5.63,4.27v8.15h7.7a4.11,4.11,0,0,1,2.78.75,2.51,2.51,0,0,1,.83,2,2.46,2.46,0,0,1-.83,1.93,4.06,4.06,0,0,1-2.78.76h-16.32a4.06,4.06,0,0,1-2.78-.76,2.71,2.71,0,0,1,0-3.9,4.11,4.11,0,0,1,2.78-.75h3.22V972.58h-1.95a4.16,4.16,0,0,1-2.79-.75,2.54,2.54,0,0,1-.83-2,2.49,2.49,0,0,1,.83-1.93,4.16,4.16,0,0,1,2.79-.75Z"/><path class="cls-43" d="M1376.3,972.58v10.84a2.8,2.8,0,0,0,.71,2.29,6.61,6.61,0,0,0,4,.87,16.75,16.75,0,0,0,7.65-1.77,5.21,5.21,0,0,1,2.11-.68,2.48,2.48,0,0,1,1.83.79,2.65,2.65,0,0,1,.78,1.93,2.37,2.37,0,0,1-.84,1.81q-1.31,1.25-5.11,2.28a25,25,0,0,1-6.42,1q-5,0-7.55-2.18a6.79,6.79,0,0,1-2.52-5.34V972.58h-2a4.11,4.11,0,0,1-2.78-.75,2.51,2.51,0,0,1-.83-2,2.46,2.46,0,0,1,.83-1.93,4.11,4.11,0,0,1,2.78-.75h2V962.3a4.16,4.16,0,0,1,.75-2.79,2.54,2.54,0,0,1,2-.83,2.49,2.49,0,0,1,1.93.83,4.1,4.1,0,0,1,.76,2.79v4.88h10a4.11,4.11,0,0,1,2.78.75,2.71,2.71,0,0,1,0,3.9,4.11,4.11,0,0,1-2.78.75Z"/><path class="cls-43" d="M1413.68,967.18v18.53h6.49a4.11,4.11,0,0,1,2.78.75,2.54,2.54,0,0,1,.83,2,2.49,2.49,0,0,1-.83,1.93,4.06,4.06,0,0,1-2.78.76h-18.38a4.06,4.06,0,0,1-2.78-.76,2.71,2.71,0,0,1,0-3.9,4.11,4.11,0,0,1,2.78-.75h6.49V972.58h-4.35a4.12,4.12,0,0,1-2.77-.75,2.53,2.53,0,0,1-.85-2,2.49,2.49,0,0,1,.83-1.93,4.16,4.16,0,0,1,2.79-.75Zm-.74-10.26v5.72h-6.43v-5.72Z"/><path class="cls-43" d="M1447.09,956.92v28.79h6.48a4.11,4.11,0,0,1,2.78.75,2.51,2.51,0,0,1,.83,2,2.46,2.46,0,0,1-.83,1.93,4.06,4.06,0,0,1-2.78.76h-18.38a4.07,4.07,0,0,1-2.78-.76,2.71,2.71,0,0,1,0-3.9,4.13,4.13,0,0,1,2.78-.75h6.49V962.32h-4.35a4.13,4.13,0,0,1-2.77-.75,2.69,2.69,0,0,1,0-3.9,4.11,4.11,0,0,1,2.78-.75Z"/><path class="cls-43" d="M1507.43,977.8v7.91H1513a4.11,4.11,0,0,1,2.78.75,2.51,2.51,0,0,1,.83,2,2.46,2.46,0,0,1-.83,1.93,4.06,4.06,0,0,1-2.78.76h-11.79a4.07,4.07,0,0,1-2.78-.76,2.52,2.52,0,0,1-.83-2,2.46,2.46,0,0,1,.85-1.94,4.1,4.1,0,0,1,2.76-.75h.85V964.56h-.85a4.13,4.13,0,0,1-2.78-.75,2.52,2.52,0,0,1-.83-2,2.56,2.56,0,0,1,.83-2,4.13,4.13,0,0,1,2.78-.75l25.45,0v8.25a4.09,4.09,0,0,1-.75,2.76,2.54,2.54,0,0,1-2,.83,2.52,2.52,0,0,1-1.94-.82,4.06,4.06,0,0,1-.75-2.77v-2.85h-13.79v7.84h4.75a5.93,5.93,0,0,1,.39-2.72,2.6,2.6,0,0,1,2.32-1.29,2.46,2.46,0,0,1,1.94.83,4.11,4.11,0,0,1,.75,2.78v6.22a4.11,4.11,0,0,1-.75,2.78,2.5,2.5,0,0,1-2,.84,2.59,2.59,0,0,1-2.3-1.3,6,6,0,0,1-.39-2.74Z"/><path class="cls-43" d="M1547.19,967.18v18.53h6.49a4.11,4.11,0,0,1,2.78.75,2.54,2.54,0,0,1,.83,2,2.49,2.49,0,0,1-.83,1.93,4.06,4.06,0,0,1-2.78.76H1535.3a4.06,4.06,0,0,1-2.78-.76,2.71,2.71,0,0,1,0-3.9,4.11,4.11,0,0,1,2.78-.75h6.49V972.58h-4.36a4.1,4.1,0,0,1-2.76-.75,2.68,2.68,0,0,1,0-3.9,4.13,4.13,0,0,1,2.78-.75Zm-.74-10.26v5.72H1540v-5.72Z"/><path class="cls-43" d="M1591.46,981.89h-22.18a7,7,0,0,0,3,3.4,11.31,11.31,0,0,0,5.82,1.29,33.71,33.71,0,0,0,8-1.29,14,14,0,0,1,2.85-.53,2.45,2.45,0,0,1,1.82.77,2.66,2.66,0,0,1,.73,1.92,2.35,2.35,0,0,1-.79,1.79q-1.05,1-5.14,1.86a37.08,37.08,0,0,1-7.86.89q-6.48,0-10.37-3.67a11.88,11.88,0,0,1-3.89-9,11.59,11.59,0,0,1,4.2-9.26,14.52,14.52,0,0,1,9.69-3.58,15.55,15.55,0,0,1,6.06,1.16,13,13,0,0,1,4.1,2.51,15.81,15.81,0,0,1,3.13,4.82,11.78,11.78,0,0,1,.85,4.64Zm-6-5.41a8.52,8.52,0,0,0-3.24-3.47,10.51,10.51,0,0,0-9.52,0,8.65,8.65,0,0,0-3.27,3.47Z"/><path class="cls-43" d="M106.17,1047.15v5.56h5.46a4.13,4.13,0,0,1,2.78.75,2.54,2.54,0,0,1,.83,2,2.49,2.49,0,0,1-.83,1.93,4.07,4.07,0,0,1-2.78.76H99.92a4.06,4.06,0,0,1-2.78-.76,2.69,2.69,0,0,1,0-3.9,4.13,4.13,0,0,1,2.77-.75h.84v-21.15h-.84a4.11,4.11,0,0,1-2.78-.75,2.49,2.49,0,0,1-.83-2,2.53,2.53,0,0,1,.83-2,4.11,4.11,0,0,1,2.78-.75l12.44,0q5.49,0,8.69,3a9.61,9.61,0,0,1,3.21,7.29,9.76,9.76,0,0,1-1.09,4.49,10.08,10.08,0,0,1-2.73,3.12,12.74,12.74,0,0,1-9.16,3.1Zm0-5.41h5a9,9,0,0,0,5.6-1.59,4.73,4.73,0,0,0,2.07-3.84,4.28,4.28,0,0,0-1.67-3.32,7.21,7.21,0,0,0-4.79-1.43h-6.22Z"/><path class="cls-43" d="M141.55,1034.18v3.37a30.37,30.37,0,0,1,5.36-3.27,9.73,9.73,0,0,1,3.68-.82,8.22,8.22,0,0,1,5.12,2,3.6,3.6,0,0,1,1.68,2.69,2.73,2.73,0,0,1-2.74,2.77,3.23,3.23,0,0,1-2.11-1,3.13,3.13,0,0,0-2-1,7.4,7.4,0,0,0-3.39,1.42,55.47,55.47,0,0,0-5.63,4.27v8.15h7.7a4.11,4.11,0,0,1,2.78.75,2.54,2.54,0,0,1,.83,2,2.49,2.49,0,0,1-.83,1.93,4.06,4.06,0,0,1-2.78.76H132.93a4.1,4.1,0,0,1-2.79-.76,2.71,2.71,0,0,1,0-3.9,4.16,4.16,0,0,1,2.79-.75h3.21v-13.13h-1.95a4.11,4.11,0,0,1-2.78-.75,2.54,2.54,0,0,1-.83-2,2.49,2.49,0,0,1,.83-1.93,4.11,4.11,0,0,1,2.78-.75Z"/><path class="cls-43" d="M169.26,1057.48l-2.9,3a7.31,7.31,0,0,1-1.41,1.2,2.53,2.53,0,0,1-1.18.27,2.62,2.62,0,0,1-1.92-.8,2.72,2.72,0,0,1-.79-2,2.15,2.15,0,0,1,.26-1.07,7.4,7.4,0,0,1,1.13-1.38l2.32-2.4a11.31,11.31,0,0,1-3.16-7.86,12.48,12.48,0,0,1,1.82-6.34,12.64,12.64,0,0,1,5.29-4.93,15.47,15.47,0,0,1,14.54,0l2.27-2.37a6.17,6.17,0,0,1,1.41-1.2,2.36,2.36,0,0,1,1.17-.28,2.63,2.63,0,0,1,1.91.8,2.71,2.71,0,0,1,.81,2,2.33,2.33,0,0,1-.28,1.09,7.22,7.22,0,0,1-1.12,1.36l-1.93,2a11.74,11.74,0,0,1,2.09,3.71,12.37,12.37,0,0,1,.76,4.17,11.49,11.49,0,0,1-1.79,6.07,12.46,12.46,0,0,1-5.28,4.64,16.37,16.37,0,0,1-14,.26Zm10-18.14a11,11,0,0,0-3.33-.52,9,9,0,0,0-6.39,2.37,7.15,7.15,0,0,0-2.54,5.35,5.79,5.79,0,0,0,1.58,3.82Zm-5.88,13.9a11.93,11.93,0,0,0,2.58.29,9.39,9.39,0,0,0,6.41-2.23,6.31,6.31,0,0,0,2.56-4.71,7.09,7.09,0,0,0-1.3-4Z"/><path class="cls-43" d="M209.46,1051.55l5.83-12a6.38,6.38,0,0,1-2.77-.37,2.6,2.6,0,0,1-1.32-2.35,2.49,2.49,0,0,1,.83-1.93,4.14,4.14,0,0,1,2.79-.75h7.4a4.14,4.14,0,0,1,2.79.75,2.71,2.71,0,0,1,0,3.9,4.14,4.14,0,0,1-2.79.75h-.89l-9.05,18.54h-5.64l-9-18.54h-.77a4.13,4.13,0,0,1-2.78-.75,2.54,2.54,0,0,1-.83-2,2.49,2.49,0,0,1,.83-1.93,4.13,4.13,0,0,1,2.78-.75h7.25a4.07,4.07,0,0,1,2.76.75,2.71,2.71,0,0,1-.44,4.25,6.18,6.18,0,0,1-2.82.4Z"/><path class="cls-43" d="M278.85,1034.18v18.53h6.49a4.11,4.11,0,0,1,2.78.75,2.51,2.51,0,0,1,.83,2,2.46,2.46,0,0,1-.83,1.93,4.06,4.06,0,0,1-2.78.76H267a4.07,4.07,0,0,1-2.78-.76,2.71,2.71,0,0,1,0-3.9,4.13,4.13,0,0,1,2.78-.75h6.49v-13.13H269.1a4.13,4.13,0,0,1-2.77-.75,2.52,2.52,0,0,1-.84-2,2.46,2.46,0,0,1,.83-1.93,4.11,4.11,0,0,1,2.78-.75Zm-.73-10.26v5.72h-6.44v-5.72Z"/><path class="cls-43" d="M315.5,1035.78v-1.6h6.33a4.11,4.11,0,0,1,2.78.75,2.71,2.71,0,0,1,0,3.9,4.11,4.11,0,0,1-2.78.75h-.92v19.67a9.91,9.91,0,0,1-1.2,5,10.29,10.29,0,0,1-3.68,3.65,10.43,10.43,0,0,1-5.59,1.53h-6.12a4.11,4.11,0,0,1-2.78-.75,2.71,2.71,0,0,1,0-3.9,4.11,4.11,0,0,1,2.78-.75h6a5.25,5.25,0,0,0,3.85-1.35,4.57,4.57,0,0,0,1.37-3.4v-2.64a14.31,14.31,0,0,1-3.65,1.74,13.27,13.27,0,0,1-13-3.09,13,13,0,0,1,0-18.2A13.31,13.31,0,0,1,312,1034,12.39,12.39,0,0,1,315.5,1035.78Zm0,10.37a7,7,0,0,0-2.2-5.17,7.47,7.47,0,0,0-10.57,0,7.19,7.19,0,0,0,0,10.35,7.52,7.52,0,0,0,10.57,0A7,7,0,0,0,315.47,1046.15Z"/><path class="cls-43" d="M356.5,1048.89H334.32a7,7,0,0,0,3,3.4,11.24,11.24,0,0,0,5.81,1.29,33.71,33.71,0,0,0,8-1.29,14,14,0,0,1,2.85-.53,2.45,2.45,0,0,1,1.82.77,2.66,2.66,0,0,1,.73,1.92,2.35,2.35,0,0,1-.79,1.79q-1.05,1-5.14,1.86a37.08,37.08,0,0,1-7.86.89q-6.48,0-10.37-3.67a11.91,11.91,0,0,1-3.89-9,11.57,11.57,0,0,1,4.21-9.26,14.48,14.48,0,0,1,9.69-3.58,15.53,15.53,0,0,1,6.05,1.16,13,13,0,0,1,4.1,2.51,15.81,15.81,0,0,1,3.13,4.82,11.78,11.78,0,0,1,.85,4.64Zm-6-5.41a8.46,8.46,0,0,0-3.24-3.47,10.51,10.51,0,0,0-9.52,0,8.79,8.79,0,0,0-3.27,3.47Z"/><path class="cls-43" d="M370.84,1034.18V1036a10.19,10.19,0,0,1,3.26-1.89,11.21,11.21,0,0,1,3.86-.64,9.92,9.92,0,0,1,7.59,3,8.75,8.75,0,0,1,2.22,6.23v10a3.66,3.66,0,0,1,2.53.75,2.57,2.57,0,0,1,.82,2,2.49,2.49,0,0,1-.83,1.93,4.1,4.1,0,0,1-2.79.76h-4.87a4.08,4.08,0,0,1-2.79-.76,2.72,2.72,0,0,1,0-3.9,3.66,3.66,0,0,1,2.53-.75v-10.2a3.23,3.23,0,0,0-.95-2.59,5.62,5.62,0,0,0-3.72-1.05,7.14,7.14,0,0,0-3.28.72,14.74,14.74,0,0,0-3.57,3.08v10a5.69,5.69,0,0,1,2.69.4,2.55,2.55,0,0,1,1.29,2.32,2.49,2.49,0,0,1-.83,1.93,4.06,4.06,0,0,1-2.78.76h-6.15a4.07,4.07,0,0,1-2.78-.76,2.52,2.52,0,0,1-.83-2,2.57,2.57,0,0,1,1.27-2.29,5.85,5.85,0,0,1,2.71-.4v-13.13a3.61,3.61,0,0,1-2.53-.76,2.57,2.57,0,0,1-.81-2,2.46,2.46,0,0,1,.83-1.93,4.11,4.11,0,0,1,2.78-.75Z"/><path class="cls-43" d="M413.71,1029.3l-1.5,16.29a3,3,0,0,1-.85,2,2.78,2.78,0,0,1-3.69,0,2.94,2.94,0,0,1-.84-2l-1.53-16.29c-.07-.83-.11-1.37-.11-1.64a4.5,4.5,0,0,1,1.24-3.31,4.2,4.2,0,0,1,3.09-1.25,4.14,4.14,0,0,1,3.07,1.27,4.35,4.35,0,0,1,1.25,3.19C413.84,1027.82,413.8,1028.4,413.71,1029.3Zm-.87,26.84a2.56,2.56,0,0,1-.87,2,4,4,0,0,1-4.8,0,2.63,2.63,0,0,1,0-3.9,4.05,4.05,0,0,1,4.82,0A2.56,2.56,0,0,1,412.84,1056.14Z"/><path class="cls-41" d="M1267.23,221.53H1254.1l-1.32,3.29h1.32a4.16,4.16,0,0,1,2.79.76,2.71,2.71,0,0,1,0,3.9,4.16,4.16,0,0,1-2.79.75h-7.27a4.14,4.14,0,0,1-2.79-.75,2.54,2.54,0,0,1-.83-2,2.49,2.49,0,0,1,.87-2,4.19,4.19,0,0,1,2.88-.72l8.49-21.14h-3.54a4.13,4.13,0,0,1-2.78-.75,2.56,2.56,0,0,1-.83-2,2.52,2.52,0,0,1,.83-2,4.13,4.13,0,0,1,2.78-.75l11.69,0,10.75,26.55a4.83,4.83,0,0,1,2.51.43,2.68,2.68,0,0,1,1.21,2.29,2.5,2.5,0,0,1-.82,1.94,4,4,0,0,1-2.77.75h-7.27a4.11,4.11,0,0,1-2.78-.75,2.51,2.51,0,0,1-.83-2,2.46,2.46,0,0,1,.83-1.93,4.11,4.11,0,0,1,2.78-.76h1.32Zm-2.24-5.41-4.35-10.7-4.38,10.7Z"/><path class="cls-41" d="M1288.53,206.29v1.82a10.14,10.14,0,0,1,3.26-1.9,11.49,11.49,0,0,1,3.86-.63,9.92,9.92,0,0,1,7.6,3,8.76,8.76,0,0,1,2.21,6.22v10a3.64,3.64,0,0,1,2.53.76,2.72,2.72,0,0,1,0,3.9,4.11,4.11,0,0,1-2.78.75h-4.88a4.11,4.11,0,0,1-2.78-.75,2.51,2.51,0,0,1-.83-2,2.48,2.48,0,0,1,.82-1.93,3.63,3.63,0,0,1,2.53-.76v-10.2a3.22,3.22,0,0,0-1-2.58,5.6,5.6,0,0,0-3.72-1.06,7,7,0,0,0-3.28.73,14.61,14.61,0,0,0-3.58,3.07v10a5.79,5.79,0,0,1,2.69.4,2.55,2.55,0,0,1,1.3,2.32,2.51,2.51,0,0,1-.83,1.94,4.16,4.16,0,0,1-2.79.75h-6.14a4.11,4.11,0,0,1-2.78-.75,2.51,2.51,0,0,1-.83-2,2.58,2.58,0,0,1,1.26-2.29,6,6,0,0,1,2.72-.4V211.69a3.59,3.59,0,0,1-2.53-.76,2.54,2.54,0,0,1-.82-2,2.51,2.51,0,0,1,.83-1.94,4.11,4.11,0,0,1,2.78-.75Z"/><path class="cls-41" d="M1326.05,211.69v10.84a2.84,2.84,0,0,0,.71,2.29,6.65,6.65,0,0,0,4,.87,16.74,16.74,0,0,0,7.65-1.76,5.07,5.07,0,0,1,2.1-.69,2.52,2.52,0,0,1,1.84.79,2.65,2.65,0,0,1,.78,1.93,2.4,2.4,0,0,1-.85,1.82q-1.29,1.23-5.1,2.28a25.32,25.32,0,0,1-6.42,1q-5,0-7.55-2.18a6.79,6.79,0,0,1-2.52-5.34V211.69h-2a4.14,4.14,0,0,1-2.79-.75,2.71,2.71,0,0,1,0-3.9,4.14,4.14,0,0,1,2.79-.75h2v-4.88a4.11,4.11,0,0,1,.75-2.78,2.71,2.71,0,0,1,3.9,0,4.11,4.11,0,0,1,.75,2.78v4.88h10a4.13,4.13,0,0,1,2.78.75,2.54,2.54,0,0,1,.83,2,2.51,2.51,0,0,1-.83,1.94,4.13,4.13,0,0,1-2.78.75Z"/><path class="cls-41" d="M1374.8,218.71a11.67,11.67,0,0,1-1.73,6,12.13,12.13,0,0,1-5.14,4.64,15.55,15.55,0,0,1-14.2,0,12.34,12.34,0,0,1-5.14-4.63,11.64,11.64,0,0,1-1.76-6.12,13,13,0,0,1,6.94-11.28,14.7,14.7,0,0,1,7-1.79,14.88,14.88,0,0,1,7.11,1.83,12.52,12.52,0,0,1,5.15,4.93A12.87,12.87,0,0,1,1374.8,218.71Zm-5.4,0a7.23,7.23,0,0,0-1.88-4.8,9.14,9.14,0,0,0-12.84-.6,7.31,7.31,0,0,0-2.45,5.43,6.32,6.32,0,0,0,2.48,4.73,9.57,9.57,0,0,0,12.21,0A6.35,6.35,0,0,0,1369.4,218.73Z"/><path class="cls-41" d="M1388.67,206.29v1.82a10.09,10.09,0,0,1,3.25-1.9,11.55,11.55,0,0,1,3.87-.63,9.9,9.9,0,0,1,7.59,3,8.72,8.72,0,0,1,2.21,6.22v10a3.67,3.67,0,0,1,2.54.76,2.54,2.54,0,0,1,.81,2,2.48,2.48,0,0,1-.83,1.94,4.11,4.11,0,0,1-2.78.75h-4.88a4.11,4.11,0,0,1-2.78-.75,2.54,2.54,0,0,1-.83-2,2.48,2.48,0,0,1,.82-1.93,3.64,3.64,0,0,1,2.53-.76v-10.2a3.22,3.22,0,0,0-1-2.58,5.6,5.6,0,0,0-3.72-1.06,7,7,0,0,0-3.28.73,14.42,14.42,0,0,0-3.57,3.07v10a5.85,5.85,0,0,1,2.69.4,2.56,2.56,0,0,1,1.29,2.32,2.51,2.51,0,0,1-.83,1.94,4.13,4.13,0,0,1-2.78.75h-6.15a4.11,4.11,0,0,1-2.78-.75,2.72,2.72,0,0,1,.44-4.26,6,6,0,0,1,2.71-.4V211.69a3.59,3.59,0,0,1-2.53-.76,2.54,2.54,0,0,1-.82-2,2.51,2.51,0,0,1,.83-1.94,4.13,4.13,0,0,1,2.78-.75Z"/><rect x="1754.69" y="33.35" width="124.5" height="81.87" rx="25.02"/><path class="cls-44" d="M1854.16,38.85a19.55,19.55,0,0,1,19.53,19.52V90.2a19.54,19.54,0,0,1-19.53,19.52h-74.45a19.54,19.54,0,0,1-19.52-19.52V58.37a19.55,19.55,0,0,1,19.52-19.52h74.45m0-11h-74.45a30.51,30.51,0,0,0-30.52,30.52V90.2a30.51,30.51,0,0,0,30.52,30.52h74.45a30.52,30.52,0,0,0,30.53-30.52V58.37a30.52,30.52,0,0,0-30.53-30.52Z"/><rect class="cls-41" x="1757.21" y="37.16" width="119.13" height="74.48" rx="22.59"/><path class="cls-42" d="M1853.74,42.66a17.1,17.1,0,0,1,17.09,17.09v29.3a17.11,17.11,0,0,1-17.09,17.09H1779.8a17.11,17.11,0,0,1-17.09-17.09V59.75a17.1,17.1,0,0,1,17.09-17.09h73.94m0-11H1779.8a28.08,28.08,0,0,0-28.09,28.09v29.3a28.09,28.09,0,0,0,28.09,28.09h73.94a28.09,28.09,0,0,0,28.09-28.09V59.75a28.08,28.08,0,0,0-28.09-28.09Z"/><rect x="1576.55" y="33.35" width="124.5" height="81.87" rx="25.02"/><path class="cls-44" d="M1676,38.85a19.54,19.54,0,0,1,19.52,19.52V90.2A19.55,19.55,0,0,1,1676,109.72h-74.45a19.55,19.55,0,0,1-19.53-19.52V58.37a19.54,19.54,0,0,1,19.53-19.52H1676m0-11h-74.45a30.52,30.52,0,0,0-30.53,30.52V90.2a30.53,30.53,0,0,0,30.53,30.52H1676a30.52,30.52,0,0,0,30.52-30.52V58.37A30.51,30.51,0,0,0,1676,27.85Z"/><rect class="cls-41" x="1579.07" y="37.15" width="119.13" height="74.48" rx="22.59"/><path class="cls-42" d="M1675.61,42.65a17.12,17.12,0,0,1,17.09,17.1V89a17.12,17.12,0,0,1-17.09,17.1h-73.94a17.12,17.12,0,0,1-17.1-17.1V59.75a17.12,17.12,0,0,1,17.1-17.1h73.94m0-11h-73.94a28.1,28.1,0,0,0-28.1,28.1V89a28.1,28.1,0,0,0,28.1,28.1h73.94A28.1,28.1,0,0,0,1703.7,89V59.75a28.1,28.1,0,0,0-28.09-28.1Z"/><polygon class="cls-45" points="1838.26 62.14 1834.91 58.8 1819.65 74.06 1804.4 58.8 1801.06 62.14 1816.31 77.4 1801.06 92.66 1804.4 96 1819.65 80.74 1834.91 96 1838.26 92.66 1823 77.4 1838.26 62.14"/><path class="cls-45" d="M1640.74,56.54v-6l-14.48,6.69,14.48,8.46V59.77A17.43,17.43,0,1,1,1623,77.19c0-.07,0-.14,0-.21h-4c0,.14,0,.28,0,.42a20.9,20.9,0,1,0,21.73-20.86Z"/><path class="cls-46" d="M796.84,887.55s-.7,3-1.88,2.19c-5.56-4.07-9.45-.09-8.4,1,4,3.88,8.62-.48,8.62-.48L799,891.4Zm-7.91,2.21a.65.65,0,1,1,0-1.27.7.7,0,0,1,.78.62A.71.71,0,0,1,788.93,889.76Z"/><path class="cls-46" d="M1424.07,873.2s-7.1,9.49-9.86,4.7c-13.07-22.64-32.68-14.84-30.66-9.53,7.86,19.59,30.64,11.59,30.64,11.59l11.55,10Zm-30.81-4.5a2.45,2.45,0,1,1,3.62-1.08A2.7,2.7,0,0,1,1393.26,868.7Z"/><path class="cls-46" d="M1254.24,784.51s.84,4.75-1.35,4.24c-10.36-2.41-13.49,5.59-11.35,6.46,8,3.11,12-5.88,12-5.88l6.18-.66Zm-9.91,7.91a1.09,1.09,0,0,1-1.48-.41,1.21,1.21,0,1,1,1.48.41Z"/><path class="cls-46" d="M569.28,861.77s-1.62,6.56-4.13,4.67c-11.9-9-20.46-.54-18.22,1.81,8.48,8.54,18.66-.73,18.66-.73l8.29,2.67Zm-17.18,4.49a1.4,1.4,0,1,1,1.66-1.37A1.54,1.54,0,0,1,552.1,866.26Z"/><path class="cls-19" d="M1426.43,620.88a25.13,25.13,0,0,0-10.28-21.55,25.17,25.17,0,0,0-35.27-12.78,25.14,25.14,0,0,0-43,7.85,25.14,25.14,0,0,0-2.39,38.45,25.14,25.14,0,0,0,28.37,20.91,25.17,25.17,0,0,0,25.43.61c.42,0,.84.08,1.27.1a25.16,25.16,0,0,0,23.31-13A25.13,25.13,0,0,0,1426.43,620.88Z"/><path class="cls-21" d="M1376.53,672.59c.39-.77,0-16.15,0-16.15s-24.41-3.46-25.57-4.62-5.38-12.77-5.38-12.77l6.15,11.62,25,3.85-13-12.93-2.56-2.54,12.13,9.12,5.38,6.35,6.34-7.69-3.46-4.23,4.23,2.88,6.73-2.69-5.38,4.42,13.26-1.73-13.84,3.46-6.54,7.69-1.34,16Z"/></g></g></svg>