<svg id="Layer_1" data-name="Layer 1" xmlns="http://www.w3.org/2000/svg" width="1920" height="1080" viewBox="0 0 1920 1080"><defs><style>.cls-1{fill:#4c6483;}.cls-2{fill:#788ba2;}.cls-3{fill:#2d3c49;}.cls-4{fill:#a6b1c1;}.cls-5{fill:#ff7945;}.cls-6{fill:#dbb2a7;}.cls-7{fill:#ffd3c5;}.cls-8{fill:#89a052;}.cls-9{fill:#020000;}.cls-10{fill:#b90f00;}.cls-11{fill:#a01710;}.cls-12{fill:#acce76;}.cls-13{fill:#669fdd;}.cls-14{fill:#89686b;}.cls-15{fill:#b71313;}.cls-16{fill:#bcb52a;}.cls-17{fill:#fc8900;}.cls-18{fill:#9863c6;}.cls-19{fill:#97b262;}.cls-20{fill:#4c98d6;}.cls-21{fill:#ceb984;}.cls-22{fill:#020202;}.cls-23{fill:#aa1729;}.cls-24{fill:#f9f9f9;}.cls-25{fill:#2b7cb2;}.cls-26{fill:#634b4c;}.cls-27{fill:#5f4343;}.cls-28{fill:#6b6a6a;}</style></defs><title>Titelskærm</title><rect class="cls-1" x="6.01" y="5.49" width="1909" height="1069"/><path class="cls-2" d="M1909.51,11V1069H11.51V11h1898m11-11H.51V1080h1920V0Z"/><rect x="1019.84" y="806.6" width="334.4" height="135.27" rx="38.09"/><path class="cls-3" d="M1316.15,812.1a32.63,32.63,0,0,1,32.59,32.59v59.08a32.63,32.63,0,0,1-32.59,32.6H1057.93a32.63,32.63,0,0,1-32.59-32.6V844.69a32.63,32.63,0,0,1,32.59-32.59h258.22m0-11H1057.93a43.59,43.59,0,0,0-43.59,43.59v59.08a43.6,43.6,0,0,0,43.59,43.6h258.22a43.59,43.59,0,0,0,43.59-43.6V844.69a43.58,43.58,0,0,0-43.59-43.59Z"/><rect class="cls-1" x="1026.26" y="812.59" width="320.71" height="123.63" rx="38.09"/><path class="cls-2" d="M1308.88,818.09a32.63,32.63,0,0,1,32.59,32.59v47.45a32.63,32.63,0,0,1-32.59,32.59H1064.35a32.63,32.63,0,0,1-32.59-32.59V850.68a32.63,32.63,0,0,1,32.59-32.59h244.53m0-11H1064.35a43.6,43.6,0,0,0-43.59,43.59v47.45a43.59,43.59,0,0,0,43.59,43.59h244.53a43.59,43.59,0,0,0,43.59-43.59V850.68a43.6,43.6,0,0,0-43.59-43.59Z"/><rect x="565.76" y="806.59" width="334.4" height="135.27" rx="38.09"/><path class="cls-3" d="M862.07,812.09a32.63,32.63,0,0,1,32.59,32.59v59.09a32.63,32.63,0,0,1-32.59,32.59H603.85a32.63,32.63,0,0,1-32.59-32.59V844.68a32.63,32.63,0,0,1,32.59-32.59H862.07m0-11H603.85a43.59,43.59,0,0,0-43.59,43.59v59.09a43.59,43.59,0,0,0,43.59,43.59H862.07a43.6,43.6,0,0,0,43.59-43.59V844.68a43.6,43.6,0,0,0-43.59-43.59Z"/><rect class="cls-1" x="572.17" y="812.59" width="320.71" height="123.63" rx="38.09"/><path class="cls-2" d="M854.79,818.09a32.63,32.63,0,0,1,32.59,32.59v47.45a32.63,32.63,0,0,1-32.59,32.59H610.26a32.63,32.63,0,0,1-32.59-32.59V850.68a32.63,32.63,0,0,1,32.59-32.59H854.79m0-11H610.26a43.59,43.59,0,0,0-43.59,43.59v47.45a43.6,43.6,0,0,0,43.59,43.59H854.79a43.59,43.59,0,0,0,43.59-43.59V850.68a43.58,43.58,0,0,0-43.59-43.59Z"/><path class="cls-2" d="M397.63,238.31v67.08q0,21.93-10,37.29T363.7,358a23.93,23.93,0,0,1-13-3.86,36.85,36.85,0,0,1-10.95-11.38,68.44,68.44,0,0,1-7.55-15.64q-2.7-8.14-2.7-21.76V238.31q-4.74,0-7-3.35a14.93,14.93,0,0,1-2.26-8.54,14.63,14.63,0,0,1,2.26-8.55q2.27-3.23,7.74-3.23l19.63-.12q5.4,0,7.7,3.29a17.25,17.25,0,0,1,0,17.21q-2.29,3.28-7.7,3.29h-5.4v69.16A32.38,32.38,0,0,0,350,326.23q5.58,8.13,13.47,8.14a14.92,14.92,0,0,0,9.85-3.93q4.59-3.93,7.52-11.43a32.31,32.31,0,0,0,1.82-11.54V238.31h-5.4q-5.4,0-7.7-3.29a17.25,17.25,0,0,1,0-17.21q2.3-3.28,7.7-3.29l19.63.12q5.4,0,7.7,3.23a14.49,14.49,0,0,1,2.3,8.55,15,15,0,0,1-2.26,8.54Q402.38,238.31,397.63,238.31Z"/><path class="cls-2" d="M539.85,353.76l-25.91-80.35a7.91,7.91,0,0,1-5.55-3.93,15.29,15.29,0,0,1-1.89-7.85,14.65,14.65,0,0,1,2.3-8.6c1.53-2.2,4.09-3.29,7.69-3.29h13.65c3.6,0,6.17,1.09,7.7,3.29a14.72,14.72,0,0,1,2.3,8.6,14.55,14.55,0,0,1-2.3,8.49q-2.3,3.28-7.26,3.29l17.66,54.38,17.51-54.38q-4.82,0-7.11-3.29a14.76,14.76,0,0,1-2.3-8.61,14.5,14.5,0,0,1,2.3-8.48c1.53-2.2,4.1-3.29,7.7-3.29h14.08c3.55,0,6.1,1.09,7.63,3.29a14.72,14.72,0,0,1,2.3,8.6,15.35,15.35,0,0,1-2,8,7.51,7.51,0,0,1-5.84,3.76l-34.3,106.91c3.75,0,6.2.57,7.37,1.73q3.51,3.57,3.5,10.16a14.49,14.49,0,0,1-2.29,8.48c-1.54,2.2-4.1,3.3-7.7,3.3H516.49q-5.4,0-7.69-3.3a14.42,14.42,0,0,1-2.3-8.48,14.65,14.65,0,0,1,2.3-8.6c1.53-2.2,4.09-3.29,7.69-3.29h14.89Z"/><path class="cls-2" d="M628.29,315.2v39.37H610.77c-3.6,0-6.16-1.1-7.7-3.29a14.72,14.72,0,0,1-2.29-8.6,14.34,14.34,0,0,1,2.33-8.49q2.34-3.29,7.66-3.29h2.56V228.49h-2.56c-3.6,0-6.16-1.09-7.7-3.29a14.72,14.72,0,0,1-2.29-8.6,14.49,14.49,0,0,1,2.29-8.48c1.54-2.2,4.1-3.29,7.7-3.29h17.52v79.78L640,269.71a24.86,24.86,0,0,1-1.82-8.08,14.87,14.87,0,0,1,2.26-8.6c1.51-2.2,4.06-3.29,7.67-3.29h17.07c3.6,0,6.17,1.09,7.7,3.29a14.72,14.72,0,0,1,2.3,8.6,14.55,14.55,0,0,1-2.3,8.49q-2.3,3.28-7.7,3.29H661l-18.17,23.32,24.45,34.17h4.38c3.6,0,6.16,1.1,7.7,3.29a14.74,14.74,0,0,1,2.3,8.6,14.51,14.51,0,0,1-2.3,8.49c-1.54,2.19-4.1,3.29-7.7,3.29H654.41c-3.6,0-6.16-1.1-7.7-3.29a14.72,14.72,0,0,1-2.29-8.6,17.81,17.81,0,0,1,2.48-8.89l-15.84-22.17Z"/><path class="cls-2" d="M720.67,315.2v39.37H703.15q-5.4,0-7.69-3.29a14.65,14.65,0,0,1-2.3-8.6,14.34,14.34,0,0,1,2.33-8.49q2.34-3.29,7.66-3.29h2.56V228.49h-2.56c-3.6,0-6.16-1.09-7.69-3.29a14.65,14.65,0,0,1-2.3-8.6,14.42,14.42,0,0,1,2.3-8.48c1.53-2.2,4.09-3.29,7.69-3.29h17.52v79.78l11.68-14.9a24.66,24.66,0,0,1-1.83-8.08,14.94,14.94,0,0,1,2.26-8.6c1.51-2.2,4.07-3.29,7.67-3.29h17.07c3.6,0,6.17,1.09,7.7,3.29a14.65,14.65,0,0,1,2.3,8.6,14.48,14.48,0,0,1-2.3,8.49q-2.29,3.28-7.7,3.29h-4.16l-18.17,23.32,24.45,34.17H764q5.4,0,7.7,3.29a14.74,14.74,0,0,1,2.3,8.6,14.51,14.51,0,0,1-2.3,8.49q-2.29,3.29-7.7,3.29H746.8c-3.61,0-6.17-1.1-7.7-3.29a14.65,14.65,0,0,1-2.3-8.6,17.81,17.81,0,0,1,2.48-8.89l-15.84-22.17Z"/><path class="cls-2" d="M925.21,204.83V330.9h17.95q5.4,0,7.7,3.29a14.74,14.74,0,0,1,2.3,8.6,14.51,14.51,0,0,1-2.3,8.49q-2.29,3.29-7.7,3.29H892.3c-3.61,0-6.17-1.1-7.7-3.29a14.65,14.65,0,0,1-2.3-8.6,14.48,14.48,0,0,1,2.3-8.49c1.53-2.19,4.09-3.29,7.7-3.29h18V228.49h-12c-3.55,0-6.11-1.09-7.67-3.29a16.91,16.91,0,0,1,0-17.08c1.53-2.2,4.1-3.29,7.7-3.29Z"/><path class="cls-2" d="M1017.52,249.74V330.9h18q5.4,0,7.7,3.29a14.74,14.74,0,0,1,2.3,8.6,14.51,14.51,0,0,1-2.3,8.49q-2.3,3.29-7.7,3.29H984.6c-3.6,0-6.16-1.1-7.7-3.29a14.72,14.72,0,0,1-2.29-8.6,14.55,14.55,0,0,1,2.29-8.49c1.54-2.19,4.1-3.29,7.7-3.29h18V273.41h-12c-3.56,0-6.11-1.1-7.67-3.29a14.61,14.61,0,0,1-2.33-8.61,14.42,14.42,0,0,1,2.3-8.48c1.53-2.2,4.09-3.29,7.7-3.29Zm-2-44.91v25h-17.8v-25Z"/><path class="cls-2" d="M1119,256.78v-7h17.51c3.6,0,6.17,1.09,7.7,3.29a14.65,14.65,0,0,1,2.3,8.6,14.48,14.48,0,0,1-2.3,8.49q-2.29,3.28-7.7,3.29h-2.55v86.13a64.77,64.77,0,0,1-3.32,21.76,41.76,41.76,0,0,1-10.18,16q-6.86,6.69-15.47,6.7H1088c-3.61,0-6.17-1.1-7.7-3.3a14.42,14.42,0,0,1-2.3-8.48,14.65,14.65,0,0,1,2.3-8.6c1.53-2.2,4.09-3.29,7.7-3.29h16.49a12,12,0,0,0,10.65-5.89q3.8-5.9,3.8-14.89V348a37.52,37.52,0,0,1-10.11,7.62,23.59,23.59,0,0,1-10.54,2.54q-15.25,0-25.55-16.11t-10.29-39.77q0-23.79,10.29-39.89t25.55-16.11a23.74,23.74,0,0,1,10.83,2.6A33.12,33.12,0,0,1,1119,256.78Zm-.07,45.37q0-13-6.1-22.62t-14.63-9.59q-8.54,0-14.63,9.59t-6.1,22.62q0,13.17,6.1,22.69t14.63,9.53q8.53,0,14.63-9.53T1118.88,302.15Z"/><path class="cls-4" d="M768.17,479.15v26.2h5.4q5.4,0,7.7,3.29a14.78,14.78,0,0,1,2.3,8.61,14.5,14.5,0,0,1-2.3,8.48c-1.53,2.2-4.1,3.29-7.7,3.29h-22.7c-3.6,0-6.16-1.09-7.7-3.29a14.72,14.72,0,0,1-2.3-8.6,14.34,14.34,0,0,1,2.34-8.49q2.34-3.28,7.66-3.29h2.34V412.76h-2.34c-3.6,0-6.16-1.1-7.7-3.29a17.23,17.23,0,0,1,0-17.2c1.54-2.2,4.1-3.29,7.7-3.29l22.7.11q5.4,0,7.7,3.23a14.49,14.49,0,0,1,2.3,8.55,14.72,14.72,0,0,1-2.3,8.6q-2.29,3.28-7.7,3.29h-5.4v35.1l26.56-36.14a17.08,17.08,0,0,1-3.21-5,16.15,16.15,0,0,1-.87-5.66,15.19,15.19,0,0,1,2.3-8.78q2.29-3.35,7.69-3.34l15.26.11c3.6,0,6.16,1.08,7.7,3.23a14.49,14.49,0,0,1,2.29,8.55,14.78,14.78,0,0,1-2.29,8.54c-1.54,2.23-3.93,3.35-7.19,3.35l-26.86,37.18q7.51,6.81,14.12,20.78t11.72,34.63h4q5.33,0,7.63,3.29a17.19,17.19,0,0,1,0,17.09c-1.51,2.2-4.06,3.29-7.66,3.29H805.83q-4.68-17.65-10.22-33.71-4.53-13.05-8.58-19a33.33,33.33,0,0,0-9.67-9.53Z"/><path class="cls-4" d="M922.73,488.61H884.49q2,11.67,5,16.11t6.28,4.44q2.48,0,8.1-3.11,9.2-5.08,11.9-5.08c2,0,3.66,1.11,5,3.34a17.46,17.46,0,0,1,2,9,13.92,13.92,0,0,1-2,7.68q-2,3.18-11.46,7.5t-13.72,4.33q-6.5,0-13.72-7.73-2.11,4.15-5.55,4.15c-2.23,0-4.11-1.38-5.62-4.15a31.36,31.36,0,0,1-7.73,5.77,17.08,17.08,0,0,1-7.81,2q-6.78,0-13.32-5.54t-10.11-15.24A57.71,57.71,0,0,1,828.15,492a28.63,28.63,0,0,1,3-13.51,32.08,32.08,0,0,1,13-13.16q8.61-4.85,15.33-4.85a39.18,39.18,0,0,1,9.26,1.39v-5.08a15.67,15.67,0,0,0-2.11-8.6c-1.41-2.2-3.17-3.29-5.26-3.29s-5.71,1.27-11.31,3.81q-4.38,2.07-5.91,2.07c-2,0-3.62-1.15-5-3.46a16.12,16.12,0,0,1-2.11-8.54,15,15,0,0,1,2.15-8.49c1.44-2.11,4.85-4.16,10.25-6.12s9.39-2.94,12-2.94a15.05,15.05,0,0,1,9.42,3.4,33.33,33.33,0,0,1,8.17,10.22q7.89-13.62,17-13.62a13.22,13.22,0,0,1,8.83,3.46A39.82,39.82,0,0,1,915,438.85a97.42,97.42,0,0,1,6.31,20.55,91.11,91.11,0,0,1,1.46,17.21Zm-54-2.54a22.8,22.8,0,0,0-8.75-2A21.59,21.59,0,0,0,847.71,488c-2.92,1.92-4.38,4.35-4.38,7.27a15.68,15.68,0,0,0,3.39,9.18q3.39,4.68,7.92,4.67c1.94,0,4.1-.92,6.46-2.77a42.72,42.72,0,0,0,7.62-8.31Zm37.66-21.13q-1.75-10.15-5-15.12c-2.19-3.31-4.12-5-5.77-5s-3.49,1.65-5.66,5-3.85,8.35-5.07,15.12Z"/><path class="cls-4" d="M965.41,424.19V439q9.42-10.74,14.85-14.32t10.18-3.58q7.3,0,14.16,8.55,4.67,5.78,4.67,11.77a15.78,15.78,0,0,1-2.22,8.6q-2.24,3.52-5.37,3.53c-1.85,0-3.79-1.47-5.84-4.39s-3.86-4.39-5.47-4.39q-3.14,0-9.38,6.24a180.77,180.77,0,0,0-15.58,18.7v35.67h21.31q5.4,0,7.7,3.29a14.78,14.78,0,0,1,2.3,8.61,14.5,14.5,0,0,1-2.3,8.48c-1.53,2.2-4.1,3.29-7.7,3.29H941.55c-3.6,0-6.17-1.09-7.7-3.29a14.72,14.72,0,0,1-2.3-8.6,14.55,14.55,0,0,1,2.3-8.49q2.29-3.28,7.7-3.29h8.9V447.86h-5.4q-5.4,0-7.7-3.29a14.74,14.74,0,0,1-2.3-8.6,14.51,14.51,0,0,1,2.3-8.49q2.29-3.28,7.7-3.29Z"/><path class="cls-4" d="M1068.37,379.28V505.35h18c3.6,0,6.16,1.1,7.7,3.29a14.78,14.78,0,0,1,2.29,8.61,14.49,14.49,0,0,1-2.29,8.48c-1.54,2.2-4.1,3.29-7.7,3.29h-50.87c-3.6,0-6.17-1.09-7.7-3.29a14.72,14.72,0,0,1-2.3-8.6,14.55,14.55,0,0,1,2.3-8.49q2.29-3.28,7.7-3.29h18V403h-12q-5.32,0-7.66-3.29a16.9,16.9,0,0,1,0-17.09c1.54-2.2,4.1-3.29,7.7-3.29Z"/><path class="cls-4" d="M1160.68,424.19v81.16h18q5.4,0,7.69,3.29a14.7,14.7,0,0,1,2.3,8.61,14.42,14.42,0,0,1-2.3,8.48c-1.53,2.2-4.09,3.29-7.69,3.29h-50.87c-3.6,0-6.17-1.09-7.7-3.29a14.72,14.72,0,0,1-2.3-8.6,14.55,14.55,0,0,1,2.3-8.49q2.29-3.28,7.7-3.29h18V447.86h-12c-3.55,0-6.11-1.1-7.66-3.29a16.9,16.9,0,0,1,0-17.09q2.3-3.28,7.7-3.29Zm-2-44.91v25.05h-17.81V379.28Z"/><path class="cls-4" d="M1262.11,431.23v-7h17.52q5.4,0,7.7,3.29a14.72,14.72,0,0,1,2.3,8.6,14.53,14.53,0,0,1-2.3,8.49q-2.3,3.29-7.7,3.29h-2.55V534a64.51,64.51,0,0,1-3.33,21.76,41.45,41.45,0,0,1-10.18,16q-6.85,6.69-15.47,6.7h-16.93q-5.4,0-7.7-3.29a14.55,14.55,0,0,1-2.3-8.49,14.72,14.72,0,0,1,2.3-8.6q2.29-3.28,7.7-3.29h16.49a12,12,0,0,0,10.66-5.89q3.79-5.89,3.79-14.89V522.44a37.49,37.49,0,0,1-10.1,7.62,23.63,23.63,0,0,1-10.55,2.54q-15.26,0-25.54-16.1t-10.29-39.78q0-23.78,10.29-39.89t25.54-16.1a23.74,23.74,0,0,1,10.84,2.59A33.25,33.25,0,0,1,1262.11,431.23Zm-.07,45.38q0-13-6.09-22.63t-14.64-9.59q-8.54,0-14.63,9.59t-6.09,22.63q0,13.15,6.09,22.68t14.63,9.53q8.55,0,14.64-9.53T1262,476.61Z"/><path class="cls-4" d="M1322.6,379.28v50.45a34.78,34.78,0,0,1,9.45-6.52,23.58,23.58,0,0,1,9.67-2.14,23.83,23.83,0,0,1,13.8,4.16q6,4.15,10,13.1t4,22.57v44.45q5.68,0,7.44,1.74,3.51,3.57,3.51,10.16a14.64,14.64,0,0,1-2.27,8.48c-1.51,2.2-4.06,3.29-7.66,3.29h-17.08c-3.55,0-6.09-1.09-7.62-3.29a14.65,14.65,0,0,1-2.3-8.6q0-6.46,3.5-10,1.83-1.84,7.44-1.74V462.52q0-9.12-2.62-12.81-3.43-5-10.15-5a13.68,13.68,0,0,0-8.79,3.06q-3.83,3.06-10.33,13.22v44.33q5.78,0,7.45,1.74,3.57,3.57,3.57,10.16a14.42,14.42,0,0,1-2.3,8.48c-1.53,2.2-4.1,3.29-7.69,3.29h-17c-3.6,0-6.17-1.09-7.7-3.29a14.72,14.72,0,0,1-2.3-8.6q0-6.46,3.58-10,1.75-1.84,7.44-1.74V403h-2.55q-5.4,0-7.7-3.29a14.76,14.76,0,0,1-2.3-8.61,14.5,14.5,0,0,1,2.3-8.48c1.53-2.2,4.1-3.29,7.7-3.29Z"/><path class="cls-4" d="M1468,488.61h-61.38a30.29,30.29,0,0,0,8.28,14.9q6,5.65,16.1,5.65,8.31,0,22.11-5.65,5.68-2.31,7.88-2.31c2,0,3.67,1.11,5,3.35a15.94,15.94,0,0,1,2,8.42,13.65,13.65,0,0,1-2.19,7.85q-2.92,4.27-14.23,8.14a67.09,67.09,0,0,1-21.75,3.87q-18,0-28.72-16.05t-10.76-39.48q0-24.94,11.64-40.58t26.82-15.65a29.66,29.66,0,0,1,16.75,5.08,38.18,38.18,0,0,1,11.35,11,81.27,81.27,0,0,1,8.68,21.13,79.21,79.21,0,0,1,2.34,20.32Zm-16.57-23.67q-3.44-10.15-9-15.18a19.79,19.79,0,0,0-26.34,0q-5.55,5-9,15.18Z"/><path class="cls-4" d="M1557.14,379.28V505.35h2.55q5.32,0,7.67,3.29a16.93,16.93,0,0,1,0,17.09c-1.53,2.2-4.1,3.29-7.7,3.29h-17.51v-5.77a38.23,38.23,0,0,1-10.69,7.16,28.89,28.89,0,0,1-11.57,2.42q-16.86,0-27.15-15.41T1482.48,479q0-24,10.8-41t26.35-17a25.26,25.26,0,0,1,11.45,2.83,42,42,0,0,1,11.1,8.49V403h-2.56c-3.6,0-6.16-1.1-7.7-3.29a14.55,14.55,0,0,1-2.3-8.49,14.72,14.72,0,0,1,2.3-8.6c1.54-2.2,4.1-3.29,7.7-3.29Zm-15,100.44q0-14.66-6.5-24.82t-15.91-10.16q-9.35,0-15.83,10.16t-6.5,24.48q0,13,5.84,21.41t16.49,8.37q10.59,0,16.5-8.37T1542.18,479.72Z"/><path class="cls-4" d="M1093.06,879.67v9h2.58a5.46,5.46,0,0,1,3.68,1,3.31,3.31,0,0,1,1.1,2.6,3.26,3.26,0,0,1-1.1,2.56,5.4,5.4,0,0,1-3.68,1h-10.85a5.4,5.4,0,0,1-3.68-1,3.35,3.35,0,0,1-1.1-2.6,3.26,3.26,0,0,1,1.12-2.56,5.45,5.45,0,0,1,3.66-1h1.12v-28h-1.12a5.46,5.46,0,0,1-3.68-1,3.62,3.62,0,0,1,0-5.2,5.46,5.46,0,0,1,3.68-1l16.19,0q7.57,0,11.74,3.75a11.82,11.82,0,0,1,4.17,9.13,10.23,10.23,0,0,1-2,6.08,17,17,0,0,1-5.9,4.87,46,46,0,0,1,4.85,5.1q1.6,2,4.33,6.21a7.62,7.62,0,0,1,3.59.55,3.49,3.49,0,0,1,1.57,3,3.31,3.31,0,0,1-1.08,2.56,5.35,5.35,0,0,1-3.67,1h-4.08q-8.68-13.44-14.41-16.16Zm0-7.15h5.58a15.31,15.31,0,0,0,5.55-.94,10.62,10.62,0,0,0,4.41-2.65,4.38,4.38,0,0,0,1.14-2.76,4.83,4.83,0,0,0-2.17-3.75q-2.16-1.73-6.31-1.73h-8.2Z"/><path class="cls-4" d="M1159.8,864.15v24.53a4.74,4.74,0,0,1,3.35,1,3.37,3.37,0,0,1,1.08,2.58,3.29,3.29,0,0,1-1.1,2.56,5.4,5.4,0,0,1-3.68,1h-6.8v-1.64a34.07,34.07,0,0,1-5.86,2.09,21.73,21.73,0,0,1-5.31.7,12.11,12.11,0,0,1-6.1-1.48,10.88,10.88,0,0,1-4.09-4.1,9.38,9.38,0,0,1-1.08-4.71V871.3H1129a5.46,5.46,0,0,1-3.68-1,3.36,3.36,0,0,1-1.1-2.6,3.33,3.33,0,0,1,1.1-2.57,5.46,5.46,0,0,1,3.68-1h8.38v21.28a4.47,4.47,0,0,0,1.09,3.33,4.7,4.7,0,0,0,3.37,1.07,14.44,14.44,0,0,0,4.66-.86,33.41,33.41,0,0,0,6.16-3.09V871.3h-2.59a5.48,5.48,0,0,1-3.68-1,3.35,3.35,0,0,1-1.09-2.6,3.32,3.32,0,0,1,1.09-2.57,5.48,5.48,0,0,1,3.68-1Z"/><path class="cls-4" d="M1192.35,850.58v38.1h8.58a5.46,5.46,0,0,1,3.68,1,3.35,3.35,0,0,1,1.1,2.6,3.29,3.29,0,0,1-1.1,2.56,5.4,5.4,0,0,1-3.68,1h-24.32a5.4,5.4,0,0,1-3.68-1,3.35,3.35,0,0,1-1.1-2.6,3.31,3.31,0,0,1,1.1-2.56,5.46,5.46,0,0,1,3.68-1h8.58V857.73h-5.75a5.44,5.44,0,0,1-3.67-1,3.56,3.56,0,0,1,0-5.16,5.44,5.44,0,0,1,3.68-1Z"/><path class="cls-4" d="M1250.88,883.62h-29.34a9.24,9.24,0,0,0,4,4.5,14.9,14.9,0,0,0,7.7,1.71,44.53,44.53,0,0,0,10.57-1.71,18,18,0,0,1,3.76-.7,3.22,3.22,0,0,1,2.41,1,3.55,3.55,0,0,1,1,2.55,3.11,3.11,0,0,1-1.05,2.37q-1.39,1.29-6.8,2.46a49.19,49.19,0,0,1-10.4,1.17q-8.58,0-13.73-4.85a15.74,15.74,0,0,1-5.14-11.93,15.35,15.35,0,0,1,5.56-12.27,19.24,19.24,0,0,1,12.82-4.72,20.49,20.49,0,0,1,8,1.53,17.16,17.16,0,0,1,5.43,3.32,21.15,21.15,0,0,1,4.15,6.38,15.83,15.83,0,0,1,1.11,6.14Zm-7.92-7.16a11.15,11.15,0,0,0-4.29-4.58,13.8,13.8,0,0,0-12.59,0,11.43,11.43,0,0,0-4.33,4.58Z"/><path class="cls-4" d="M1284.83,872.52a14.42,14.42,0,0,0-3.67-1.62,14.71,14.71,0,0,0-4-.54,13.5,13.5,0,0,0-6.59,1.36q-1.08.6-1.08,1.29c0,.54.48,1.06,1.46,1.57a19.87,19.87,0,0,0,5,1.08,58.09,58.09,0,0,1,9.91,2,12.07,12.07,0,0,1,5.65,3.83,8.59,8.59,0,0,1,2,5.38,7.81,7.81,0,0,1-3.38,6.42q-4.86,3.74-12.6,3.73a28.63,28.63,0,0,1-5.74-.54,20.75,20.75,0,0,1-4.83-1.59,4,4,0,0,1-1.12.7,3.2,3.2,0,0,1-1.22.24,3.41,3.41,0,0,1-2.67-1.1,5.46,5.46,0,0,1-1-3.68v-2.4a5.46,5.46,0,0,1,1-3.68,3.33,3.33,0,0,1,2.6-1.1,3.27,3.27,0,0,1,2.16.71,4.77,4.77,0,0,1,1.37,2.46,10.88,10.88,0,0,0,3.94,2.11,17.74,17.74,0,0,0,5.3.72,15.6,15.6,0,0,0,7.64-1.54c.86-.51,1.29-1,1.29-1.6,0-.93-.61-1.7-1.85-2.31s-3.78-1.11-7.64-1.53q-8.61-.92-11.51-3.49a8,8,0,0,1-2.9-6.28,7.77,7.77,0,0,1,3.25-6.38q4.4-3.5,11.51-3.49a23.08,23.08,0,0,1,4.76.47,18.93,18.93,0,0,1,4.38,1.45,6.51,6.51,0,0,1,1.24-.74,2.81,2.81,0,0,1,1.06-.24,3.12,3.12,0,0,1,2.45,1.1,5.52,5.52,0,0,1,1,3.68v1.74a6.3,6.3,0,0,1-.55,3.18,3.52,3.52,0,0,1-3,1.6,3.44,3.44,0,0,1-2.27-.8A3.57,3.57,0,0,1,1284.83,872.52Z"/><path class="cls-4" d="M658.51,882.31v7.37h7.22a5.46,5.46,0,0,1,3.68,1,3.31,3.31,0,0,1,1.1,2.6,3.26,3.26,0,0,1-1.1,2.56,5.4,5.4,0,0,1-3.68,1H650.24a5.4,5.4,0,0,1-3.68-1,3.35,3.35,0,0,1-1.1-2.6,3.26,3.26,0,0,1,1.12-2.56,5.45,5.45,0,0,1,3.66-1h1.12v-28h-1.12a5.46,5.46,0,0,1-3.68-1,3.62,3.62,0,0,1,0-5.2,5.46,5.46,0,0,1,3.68-1l16.47,0q7.26,0,11.5,4a13.08,13.08,0,0,1,2.8,15.58,13.31,13.31,0,0,1-3.61,4.13,19.05,19.05,0,0,1-5.16,3.07,19.43,19.43,0,0,1-7,1Zm0-7.15h6.63a11.8,11.8,0,0,0,7.41-2.11,6.24,6.24,0,0,0,2.74-5.08,5.63,5.63,0,0,0-2.21-4.39,9.5,9.5,0,0,0-6.34-1.89h-8.23Z"/><path class="cls-4" d="M710.39,851.58v38.1H719a5.46,5.46,0,0,1,3.68,1,3.35,3.35,0,0,1,1.1,2.6,3.29,3.29,0,0,1-1.1,2.56,5.4,5.4,0,0,1-3.68,1H694.65a5.4,5.4,0,0,1-3.68-1,3.35,3.35,0,0,1-1.1-2.6,3.31,3.31,0,0,1,1.1-2.56,5.46,5.46,0,0,1,3.68-1h8.58V858.73h-5.75a5.44,5.44,0,0,1-3.67-1,3.56,3.56,0,0,1,0-5.16,5.46,5.46,0,0,1,3.68-1Z"/><path class="cls-4" d="M757.41,896.83v-1.68a23.07,23.07,0,0,1-5.93,2.15,27.37,27.37,0,0,1-5.9.71,13.94,13.94,0,0,1-9.35-3q-3.59-3-3.59-6.75,0-4.5,4.59-8.36T749.91,876a46.56,46.56,0,0,1,7.5.7V875a3.12,3.12,0,0,0-1.38-2.62q-1.38-1-5.25-1a35.7,35.7,0,0,0-8.23,1.26,13.66,13.66,0,0,1-2.93.45,3.24,3.24,0,0,1-2.43-1,3.64,3.64,0,0,1-1-2.63,3.22,3.22,0,0,1,.35-1.57,2.78,2.78,0,0,1,1-1.07,11.21,11.21,0,0,1,2.62-1,48.6,48.6,0,0,1,5.41-1.17,32.25,32.25,0,0,1,5-.43q6.66,0,10.34,2.88a9.41,9.41,0,0,1,3.68,7.86v14.73h1.22a5.49,5.49,0,0,1,3.69,1,3.34,3.34,0,0,1,1.09,2.6,3.28,3.28,0,0,1-1.09,2.56,5.43,5.43,0,0,1-3.69,1Zm0-12.81a42.18,42.18,0,0,0-7.92-.83,13.09,13.09,0,0,0-7.5,2.12q-1.95,1.37-2,2.76a1.89,1.89,0,0,0,.94,1.64,8.56,8.56,0,0,0,4.78,1.15,19.75,19.75,0,0,0,5.84-1,21.08,21.08,0,0,0,5.81-2.76Z"/><path class="cls-4" d="M791.14,896.58,778.76,872.3a4.11,4.11,0,0,1-2.65-1.19,3.58,3.58,0,0,1,.19-5,5.46,5.46,0,0,1,3.68-1h6.52a5.46,5.46,0,0,1,3.68,1,3.33,3.33,0,0,1,1.1,2.6,3.29,3.29,0,0,1-1.1,2.57,5.08,5.08,0,0,1-3.47,1l8.45,16.43,8.37-16.43a5,5,0,0,1-3.4-1,3.33,3.33,0,0,1-1.1-2.6,3.29,3.29,0,0,1,1.1-2.57,5.46,5.46,0,0,1,3.68-1h6.73a5.4,5.4,0,0,1,3.65,1,3.36,3.36,0,0,1,1.1,2.6,3.44,3.44,0,0,1-.94,2.43,4.13,4.13,0,0,1-2.8,1.13l-16.39,32.31a7.65,7.65,0,0,1,3.52.52,3.44,3.44,0,0,1,1.67,3.07,3.32,3.32,0,0,1-1.09,2.57,5.49,5.49,0,0,1-3.69,1H780a5.46,5.46,0,0,1-3.68-1,3.33,3.33,0,0,1-1.1-2.57,3.36,3.36,0,0,1,1.1-2.6,5.46,5.46,0,0,1,3.68-1h7.12Z"/><path class="cls-5" d="M2007.84,598.47,1918.15,408c12.26-19.35,19.51-43.32,19.51-69.28,0-64.2-44.33-116.24-99-116.24s-99,52-99,116.24c0,25.92,7.24,49.85,19.45,69.18l-89.73,190.56Z"/><rect class="cls-6" x="1822.86" y="512.25" width="37.64" height="96.43" rx="6.8"/><path class="cls-7" d="M1926.81,642.54h0c0-23.77-19.64-43.22-43.63-43.22h-75c-24,0-42.11,14.25-42.11,38l16.51,6Z"/><rect class="cls-7" x="1775.75" y="301.31" width="125.71" height="263.67" rx="19.81"/><rect class="cls-7" x="1868.56" y="913.86" width="23.58" height="106.03" rx="6.91"/><rect class="cls-7" x="1868.58" y="991.97" width="23.53" height="76.12" rx="4.3"/><rect class="cls-7" x="1811.07" y="913.86" width="23.58" height="106.03" rx="6.91"/><rect class="cls-7" x="1811.09" y="991.97" width="23.53" height="76.12" rx="4.3"/><polygon class="cls-8" points="1989.1 930.31 1887.35 746.24 1926.81 638.89 1764.55 633.55 1810.54 748.62 1710.11 930.31 1989.1 930.31"/><ellipse class="cls-9" cx="1860.36" cy="384.8" rx="11.14" ry="8.88"/><ellipse class="cls-9" cx="1816.84" cy="384.8" rx="11.14" ry="8.88"/><rect class="cls-7" x="1755.93" y="598.79" width="23.58" height="106.03" rx="6.91" transform="translate(3109.67 1974.24) rotate(-155.66)"/><rect class="cls-7" x="1706.48" y="651.04" width="23.53" height="76.12" rx="6.77" transform="translate(842.36 2320.06) rotate(-83.62)"/><rect class="cls-7" x="1672.44" y="678.37" width="10.09" height="21.96" rx="2.66" transform="translate(1661.46 2502.88) rotate(-111.83)"/><rect class="cls-7" x="1649.1" y="681.89" width="14.25" height="31" rx="2.66" transform="translate(1624.83 2494.18) rotate(-111.83)"/><rect class="cls-6" x="1664.23" y="695.18" width="3.45" height="11.08" rx="1.01" transform="translate(2054.46 -1064.35) rotate(79.6)"/><rect class="cls-7" x="1910.47" y="598.86" width="23.58" height="106.03" rx="6.91" transform="translate(-97.81 850.21) rotate(-24.34)"/><rect class="cls-7" x="1914.82" y="675.94" width="23.53" height="76.12" rx="6.77" transform="translate(545.45 -807.18) rotate(27.43)"/><rect class="cls-7" x="1898.66" y="736.75" width="10.09" height="21.96" rx="2.66" transform="translate(1446.7 -1245.85) rotate(55.65)"/><rect class="cls-7" x="1878.06" y="745.41" width="14.25" height="31" rx="2.66" transform="translate(1449.52 -1224.81) rotate(55.65)"/><rect class="cls-6" x="1885.35" y="745.52" width="3.45" height="11.08" rx="1.01" transform="translate(1836.7 -1279.36) rotate(66.88)"/><path class="cls-10" d="M1853.51,523.32v-2.15a13.86,13.86,0,1,0-27.71,0v2.15Z"/><rect class="cls-11" x="1832.54" y="513.2" width="14.23" height="27.71" rx="3.87" transform="translate(1312.6 2366.7) rotate(-90)"/><polygon class="cls-5" points="1880.99 303.16 1810.33 227.55 1778.76 319.26 1880.99 303.16"/><path class="cls-12" d="M1837.94,1069.08a15.09,15.09,0,0,0-30.16-.46Z"/><path class="cls-12" d="M1895.42,1069.08a15.08,15.08,0,0,0-30.15-.46Z"/><circle class="cls-6" cx="1839.65" cy="438.87" r="6.35"/><polygon class="cls-6" points="1839.65 422.47 1833.47 437.31 1845.83 437.31 1839.65 422.47"/><path class="cls-7" d="M1775.83,389.93a12.91,12.91,0,0,0-1.85.14,12,12,0,0,0,2,23.89Z"/><path class="cls-6" d="M1775.85,395.16a6.19,6.19,0,0,0-1,.08,6.78,6.78,0,0,0,1.11,13.48Z"/><path class="cls-7" d="M1901.35,389.9a13,13,0,0,1,1.85.14,12,12,0,0,1-2,23.89Z"/><path class="cls-6" d="M1901.32,395.13a6.39,6.39,0,0,1,1.06.08,6.78,6.78,0,0,1-1.11,13.48Z"/><polygon class="cls-12" points="1908.44 407.82 1904.24 419.86 1912.84 419.79 1908.44 407.82"/><polygon class="cls-12" points="1772.18 409.86 1764.28 419.88 1772.43 422.61 1772.18 409.86"/><polygon class="cls-13" points="1581.71 842.26 1558.29 868.77 1591.7 876.2 1581.71 842.26"/><path class="cls-14" d="M1582.26,844.76c-.17,1-2.32.52-2.1-.47l6.31-28.4s1.61-.13,2.1.47S1582.43,843.74,1582.26,844.76Z"/><polygon class="cls-15" points="1603.55 848.52 1580.12 875.03 1613.54 882.46 1603.55 848.52"/><path class="cls-14" d="M1604.1,851c-.17,1-2.33.52-2.11-.47l6.31-28.4s1.62-.13,2.11.47S1604.27,850,1604.1,851Z"/><polygon class="cls-16" points="1618.31 852.17 1590.68 874.26 1622.33 887.32 1618.31 852.17"/><path class="cls-14" d="M1618.43,854.72c-.35,1-2.39.11-2-.82l11.09-26.9s1.62.15,2,.82S1618.77,853.75,1618.43,854.72Z"/><polygon class="cls-13" points="1558.41 818.46 1525.54 831.53 1551.99 853.25 1558.41 818.46"/><path class="cls-14" d="M1557.78,820.94c-.61.83-2.31-.59-1.67-1.37l18.46-22.49s1.5.62,1.67,1.37S1558.39,820.11,1557.78,820.94Z"/><polygon class="cls-15" points="1574.08 833.48 1541.2 846.55 1567.66 868.27 1574.08 833.48"/><path class="cls-14" d="M1573.44,836c-.61.83-2.31-.59-1.67-1.37l18.47-22.49s1.5.62,1.67,1.37S1574.05,835.13,1573.44,836Z"/><polygon class="cls-13" points="1610.75 855.6 1583.89 878.63 1615.97 890.59 1610.75 855.6"/><path class="cls-14" d="M1611,858.15c-.31,1-2.38.19-2-.76l10.16-27.26s1.62.1,2,.76S1611.26,857.16,1611,858.15Z"/><polygon class="cls-16" points="1561.73 829.76 1528.86 842.83 1555.31 864.55 1561.73 829.76"/><path class="cls-14" d="M1561.1,832.24c-.62.83-2.31-.59-1.67-1.37l18.46-22.49s1.5.62,1.67,1.37S1561.71,831.41,1561.1,832.24Z"/><polygon class="cls-17" points="1612.17 849.81 1581.11 866.74 1609.99 885.11 1612.17 849.81"/><path class="cls-14" d="M1611.84,852.34c-.51.9-2.36-.31-1.82-1.16l15.62-24.54s1.56.43,1.82,1.16S1612.35,851.44,1611.84,852.34Z"/><polygon class="cls-18" points="1595.54 839.5 1564.48 856.43 1593.36 874.81 1595.54 839.5"/><path class="cls-14" d="M1595.21,842c-.51.9-2.37-.31-1.82-1.16L1609,816.34s1.56.42,1.82,1.15S1595.72,841.14,1595.21,842Z"/><polygon class="cls-17" points="1577.08 829.22 1541.74 830.82 1559.64 860 1577.08 829.22"/><path class="cls-14" d="M1575.67,831.35c-.85.59-2-1.31-1.13-1.84l24.81-15.21s1.21,1.07,1.12,1.84S1576.52,830.77,1575.67,831.35Z"/><polygon class="cls-18" points="1626.64 864.73 1604.13 892.02 1637.78 898.3 1626.64 864.73"/><path class="cls-14" d="M1627.27,867.2c-.13,1-2.31.6-2.12-.39l5.34-28.6s1.61-.19,2.12.39S1627.41,866.18,1627.27,867.2Z"/><polygon class="cls-12" points="1662.2 727.52 1551.47 812.52 1635.43 864.52 1662.2 727.52"/><polygon class="cls-19" points="1662.2 727.52 1597.76 841.21 1635.13 864.36 1662.2 727.52"/><rect class="cls-20" x="63.15" y="652.81" width="137.32" height="288.02" rx="19.81"/><rect class="cls-20" x="206.94" y="649.3" width="37.1" height="121.15" rx="9.95" transform="translate(-415.12 329.9) rotate(-41.7)"/><rect class="cls-14" x="63.15" y="882.26" width="37.1" height="121.15" rx="9.95"/><rect class="cls-14" x="63.15" y="946.3" width="37.1" height="121.15" rx="9.95"/><rect class="cls-14" x="162.91" y="882.26" width="37.1" height="121.15" rx="9.95"/><rect class="cls-14" x="162.91" y="946.3" width="37.1" height="121.15" rx="9.95"/><rect class="cls-20" x="22.56" y="653.27" width="37.1" height="121.15" rx="9.95" transform="translate(-403.1 1274.15) rotate(-138.3)"/><rect class="cls-20" x="-11.31" y="735.08" width="37.1" height="83.14" rx="9.95" transform="translate(-75.08 1548.96) rotate(-173.38)"/><rect class="cls-20" x="263.2" y="689.87" width="37.1" height="83.14" rx="9.95" transform="translate(-276.09 1282.08) rotate(-113.56)"/><rect class="cls-6" x="99.73" y="555.02" width="59.53" height="121.81" rx="15.97"/><ellipse class="cls-21" cx="129.55" cy="418.24" rx="112.55" ry="76.5"/><rect class="cls-7" x="52.26" y="396.58" width="149.69" height="234.53" rx="29.19"/><ellipse class="cls-9" cx="150.07" cy="466.1" rx="12.17" ry="9.7"/><ellipse class="cls-9" cx="102.52" cy="466.1" rx="12.17" ry="9.7"/><ellipse class="cls-21" cx="72.68" cy="391.64" rx="27.33" ry="21.79"/><ellipse class="cls-21" cx="120.23" cy="379.87" rx="45.04" ry="35.9"/><ellipse class="cls-21" cx="177.74" cy="396.45" rx="27.34" ry="21.79"/><ellipse class="cls-21" cx="205.07" cy="396.45" rx="20.42" ry="16.28"/><ellipse class="cls-21" cx="50" cy="382.46" rx="27.34" ry="21.79"/><ellipse class="cls-21" cx="55.6" cy="394.01" rx="33.52" ry="24.16"/><ellipse class="cls-21" cx="102.52" cy="357.86" rx="27.34" ry="21.79"/><ellipse class="cls-21" cx="184.65" cy="368.61" rx="27.34" ry="21.79"/><ellipse class="cls-21" cx="164.3" cy="357.86" rx="27.34" ry="21.79"/><ellipse class="cls-21" cx="75.19" cy="365.76" rx="27.34" ry="21.79"/><ellipse class="cls-21" cx="208.03" cy="391.64" rx="35.98" ry="28.67"/><path class="cls-14" d="M63.45,865.24a25.48,25.48,0,0,0-.3,3.73v42.4c0,16.93,16.62,30.78,36.92,30.78h63.48c20.31,0,36.92-13.85,36.92-30.78V869a25.48,25.48,0,0,0-.3-3.73Z"/><path class="cls-22" d="M135.45,585A22.17,22.17,0,0,1,150,590.06c10.33-5.71,16.59-15.62,15.21-26.23h0a24.37,24.37,0,0,0-4.56-11.15L96.1,558a22.69,22.69,0,0,0-1.58,11.65h0c1.45,11.16,11,20.17,23.44,23.74C121.25,588.39,127.84,585,135.45,585Z"/><path class="cls-23" d="M133.53,594.92h0a43,43,0,0,0,7.58-1.31,38.18,38.18,0,0,0,13.44-6.55A71.53,71.53,0,0,0,144.38,583,68.35,68.35,0,0,0,134,580.5c-11.18-1.39-22.25,7-25,9.17a41.84,41.84,0,0,0,16.72,5.21A42.71,42.71,0,0,0,133.53,594.92Z"/><path class="cls-24" d="M144.19,554.06l-7.68.51-5.86.66,2.23,17.46c.26,2,3.22,3.33,6.59,3l6.78-.57c3.37-.28,5.92-2.11,5.66-4.07l-2.29-17.45Z"/><rect class="cls-6" x="114.23" y="495.06" width="25.74" height="40.71" rx="5.02"/><rect class="cls-7" x="316.97" y="697.17" width="15.92" height="34.64" rx="2.66" transform="translate(-200.11 1297.93) rotate(-113.56)"/><rect class="cls-7" x="346.29" y="675.06" width="22.48" height="48.91" rx="2.66" transform="translate(-140.76 1306.86) rotate(-113.56)"/><rect class="cls-7" x="-6.49" y="797.7" width="15.92" height="34.64" rx="2.66" transform="translate(-183.87 1608.7) rotate(-166.75)"/><rect class="cls-7" x="-18.66" y="825.32" width="22.48" height="48.91" rx="2.66" transform="translate(-209.38 1675.24) rotate(-166.75)"/><path class="cls-10" d="M106.51,1069.12c-1.94-16.27-12.92-28.74-26.19-28.74S56,1053,54.12,1069.31Z"/><path class="cls-10" d="M207.66,1069.12c-1.94-16.27-12.93-28.74-26.19-28.74s-24.33,12.57-26.2,28.93Z"/><path class="cls-25" d="M123.53,686.91h1.19l3.62-8.79,3.62,8.79h1.18a29.85,29.85,0,0,0,29.77-29.76v-4.34H158.7c-4.67,14.7-11.15,21.16-28.62,23.64l-2.14.11c-13.54-.92-23.84-10.13-27.87-23.75l-6.31.54C93.76,669.72,107.16,686.91,123.53,686.91Z"/><polygon class="cls-26" points="120.19 865.24 142.04 865.24 200.17 865.24 200.01 872.01 142.5 872.01 120.19 872.01 63.15 872.01 63.45 865.24 120.19 865.24"/><path class="cls-27" d="M136.73,865.24s18,.77,23.08,10.31-2.05,4.51-2.05,4.51-16.92-8-20.1-8-.93-6.07-.93-6.07Z"/><rect class="cls-28" x="128.47" y="865.24" width="1.42" height="6.77"/><rect class="cls-28" x="135.96" y="865.24" width="1.42" height="6.77"/><rect class="cls-28" x="131.86" y="862.56" width="1.42" height="6.77" transform="translate(-733.38 998.51) rotate(-90)"/><rect class="cls-28" x="131.86" y="867.92" width="1.42" height="6.77" transform="translate(-738.74 1003.87) rotate(-90)"/><path class="cls-7" d="M52.16,464.94a22.47,22.47,0,0,0-3.25.26,20.93,20.93,0,0,0,3.38,41.62Z"/><path class="cls-6" d="M52.19,474.07a11.72,11.72,0,0,0-1.86.13,11.81,11.81,0,0,0,1.93,23.49Z"/><path class="cls-7" d="M201.75,464.36a22.27,22.27,0,0,1,3.12.31c11,1.91,18.59,11.68,16.84,21.82-1.59,9.21-10.3,15.55-20.16,15.22Z"/><path class="cls-6" d="M201.71,472.5a12.13,12.13,0,0,1,1.78.16c6.24,1.08,10.5,6.6,9.51,12.33-.9,5.2-5.83,8.78-11.4,8.58Z"/><polygon class="cls-13" points="372.91 595.43 379.42 557.34 344.11 569.66 372.91 595.43"/><path class="cls-14" d="M371,593.43c-.42-1,1.87-1.82,2.23-.78l10.48,30s-1.43,1.05-2.23.78S371.39,594.47,371,593.43Z"/><polygon class="cls-15" points="349.04 602.17 355.54 564.08 320.24 576.41 349.04 602.17"/><path class="cls-14" d="M347.09,600.17c-.43-1,1.86-1.82,2.23-.77l10.47,30s-1.42,1.05-2.22.78S347.52,601.22,347.09,600.17Z"/><polygon class="cls-16" points="333.23 607.28 346.17 570.87 309.28 576.95 333.23 607.28"/><path class="cls-14" d="M331.65,605c-.24-1.11,2.15-1.48,2.33-.39L339.15,636s-1.59.79-2.33.38S331.89,606.08,331.65,605Z"/><polygon class="cls-13" points="408.24 604.13 431.25 573.09 394.19 568.13 408.24 604.13"/><path class="cls-14" d="M407.4,601.46c.09-1.12,2.49-.78,2.34.32l-4.21,31.5s-1.75.29-2.34-.31S407.31,602.59,407.4,601.46Z"/><polygon class="cls-15" points="385.05 599.19 408.06 568.15 371 563.19 385.05 599.19"/><path class="cls-14" d="M384.22,596.53c.09-1.13,2.48-.79,2.34.31l-4.22,31.5s-1.74.29-2.33-.31S384.13,597.65,384.22,596.53Z"/><polygon class="cls-13" points="338.28 599.74 349.97 562.91 313.3 570.25 338.28 599.74"/><path class="cls-14" d="M336.62,597.49c-.28-1.09,2.1-1.54,2.32-.46l6.24,31.16s-1.56.85-2.32.47S336.9,598.58,336.62,597.49Z"/><polygon class="cls-16" points="398.66 595.54 421.67 564.5 384.61 559.55 398.66 595.54"/><path class="cls-14" d="M397.82,592.88c.09-1.12,2.49-.78,2.34.31L396,624.69s-1.75.3-2.34-.31S397.73,594,397.82,592.88Z"/><polygon class="cls-17" points="340.29 605.94 359.39 572.36 322.01 571.9 340.29 605.94"/><path class="cls-14" d="M339.14,603.4c-.05-1.13,2.37-1.08,2.36,0l-.39,31.78s-1.7.5-2.36,0S339.18,604.53,339.14,603.4Z"/><polygon class="cls-18" points="361.65 605.94 380.76 572.36 343.38 571.9 361.65 605.94"/><path class="cls-14" d="M360.51,603.4c-.05-1.13,2.37-1.08,2.36,0l-.39,31.78s-1.7.5-2.36,0S360.55,604.53,360.51,603.4Z"/><polygon class="cls-17" points="384.71 604.88 416.61 583.07 383.21 566.26 384.71 604.88"/><path class="cls-14" d="M384.8,602.09c.45-1,2.6.07,2.1,1.06l-14.28,28.39s-1.74-.3-2.11-1.06S384.34,603.12,384.8,602.09Z"/><polygon class="cls-18" points="318.27 600.4 323.47 562.11 288.61 575.64 318.27 600.4"/><path class="cls-14" d="M316.26,598.47c-.47-1,1.8-1.88,2.2-.85L330,627.25s-1.39,1.1-2.2.85S316.72,599.5,316.26,598.47Z"/><polygon class="cls-12" points="364.17 748.27 418.11 605.65 310.23 605.65 364.17 748.27"/><polygon class="cls-19" points="364.17 748.27 358.61 605.64 310.6 605.64 364.17 748.27"/><rect class="cls-6" x="339.88" y="684.65" width="5.44" height="17.49" rx="1.33" transform="translate(-156.04 1284.61) rotate(-113.56)"/><rect class="cls-20" x="1265.49" y="393.13" width="15.22" height="31.91" rx="7.61"/><rect class="cls-20" x="1283.28" y="386.42" width="4.11" height="13.42" rx="2.06" transform="translate(1438.77 1728.46) rotate(-113.56)"/><rect class="cls-14" x="1261.65" y="418.43" width="4.11" height="13.42" rx="2.06" transform="translate(712.74 -789) rotate(47)"/><rect class="cls-14" x="1260.22" y="425.69" width="4.11" height="13.42" rx="2.06" transform="translate(-60.64 606.24) rotate(-26.4)"/><rect class="cls-14" x="1272.92" y="418.33" width="4.11" height="13.42" rx="2.06" transform="translate(1088.9 -905.97) rotate(63.6)"/><rect class="cls-14" x="1269.74" y="425.46" width="4.11" height="13.89" rx="2.06" transform="translate(-65.42 304.73) rotate(-13.32)"/><rect class="cls-20" x="1260.99" y="393.18" width="4.11" height="13.42" rx="2.06" transform="translate(1939.99 1538.72) rotate(-138.3)"/><rect class="cls-20" x="1257.24" y="402.25" width="4.11" height="9.21" rx="2.06" transform="translate(2463.3 956.13) rotate(-173.38)"/><rect class="cls-20" x="1288.61" y="382.75" width="4.11" height="9.21" rx="2.06" transform="translate(2516.2 947.65) rotate(-172.14)"/><rect class="cls-6" x="1269.54" y="382.29" width="6.6" height="13.5" rx="3.3"/><ellipse class="cls-21" cx="1272.84" cy="367.14" rx="12.47" ry="8.48"/><rect class="cls-7" x="1264.28" y="364.74" width="16.59" height="25.99" rx="8.29"/><ellipse class="cls-9" cx="1275.12" cy="372.44" rx="1.35" ry="1.08"/><ellipse class="cls-9" cx="1269.85" cy="372.44" rx="1.35" ry="1.08"/><ellipse class="cls-21" cx="1266.54" cy="364.19" rx="3.03" ry="2.41"/><ellipse class="cls-21" cx="1271.81" cy="362.89" rx="4.99" ry="3.98"/><ellipse class="cls-21" cx="1278.18" cy="364.72" rx="3.03" ry="2.41"/><ellipse class="cls-21" cx="1281.21" cy="364.72" rx="2.26" ry="1.8"/><ellipse class="cls-21" cx="1264.03" cy="363.17" rx="3.03" ry="2.41"/><ellipse class="cls-21" cx="1264.65" cy="364.45" rx="3.71" ry="2.68"/><ellipse class="cls-21" cx="1269.85" cy="360.45" rx="3.03" ry="2.41"/><ellipse class="cls-21" cx="1278.95" cy="361.64" rx="3.03" ry="2.41"/><ellipse class="cls-21" cx="1276.69" cy="360.45" rx="3.03" ry="2.41"/><ellipse class="cls-21" cx="1266.82" cy="361.32" rx="3.03" ry="2.41"/><ellipse class="cls-21" cx="1281.54" cy="364.19" rx="3.99" ry="3.18"/><path class="cls-14" d="M1265.52,416.67a2.73,2.73,0,0,0,0,.41v4.7c0,1.88,1.84,3.41,4.09,3.41h7c2.25,0,4.09-1.53,4.09-3.41v-4.7a2.73,2.73,0,0,0,0-.41Z"/><path class="cls-22" d="M1273.5,385.61a2.44,2.44,0,0,1,1.61.57,3,3,0,0,0,1.68-2.91h0a2.62,2.62,0,0,0-.5-1.23l-7.15.59a2.45,2.45,0,0,0-.18,1.29h0a3.39,3.39,0,0,0,2.6,2.63A2.28,2.28,0,0,1,1273.5,385.61Z"/><path class="cls-23" d="M1273.28,386.72h0a5,5,0,0,0,.84-.15,4.08,4.08,0,0,0,1.49-.73,8.81,8.81,0,0,0-1.12-.45,7.15,7.15,0,0,0-1.15-.27,4.19,4.19,0,0,0-2.77,1,4.66,4.66,0,0,0,1.86.58A4.89,4.89,0,0,0,1273.28,386.72Z"/><path class="cls-24" d="M1274.47,382.19l-.86.05-.64.08.24,1.93c0,.22.36.37.73.34l.75-.06c.38,0,.66-.24.63-.45l-.25-1.94Z"/><rect class="cls-6" x="1271.15" y="375.65" width="2.85" height="4.51" rx="1.43"/><rect class="cls-7" x="1290.68" y="380.37" width="1.76" height="3.84" rx="0.88" transform="translate(2518.68 937.69) rotate(-172.14)"/><rect class="cls-7" x="1290.78" y="375.63" width="2.49" height="5.42" rx="1.25" transform="translate(2520.15 929.9) rotate(-172.14)"/><rect class="cls-6" x="1290.29" y="378.43" width="0.6" height="1.94" rx="0.3" transform="matrix(-0.99, -0.14, 0.14, -0.99, 2517.13, 931.82)"/><rect class="cls-7" x="1257.77" y="409.18" width="1.76" height="3.84" rx="0.88" transform="translate(2389.6 1099.71) rotate(-166.75)"/><rect class="cls-7" x="1256.42" y="412.24" width="2.49" height="5.42" rx="1.25" transform="translate(2386.76 1107.09) rotate(-166.75)"/><rect class="cls-6" x="1256.4" y="412.48" width="0.6" height="1.94" rx="0.3" transform="translate(2385.21 1103.89) rotate(-166.75)"/><path class="cls-10" d="M1268.28,438.4c-.83-1.62-2.44-2.5-3.82-2s-2,2.23-1.62,4Z"/><path class="cls-10" d="M1276.07,439.2c-.51-1.75-1.94-2.91-3.39-2.66s-2.43,1.82-2.34,3.64Z"/><path class="cls-25" d="M1272.18,396.91h.13l.4-1,.4,1h.13a3.31,3.31,0,0,0,3.3-3.3v-.48h-.47a3.25,3.25,0,0,1-3.17,2.62h-.24a3.43,3.43,0,0,1-3.08-2.63l-.7.06C1268.88,395,1270.36,396.91,1272.18,396.91Z"/><polygon class="cls-26" points="1271.81 416.67 1274.23 416.67 1280.67 416.67 1280.65 417.42 1274.28 417.42 1271.81 417.42 1265.49 417.42 1265.52 416.67 1271.81 416.67"/><path class="cls-27" d="M1273.64,416.67s2,.08,2.56,1.14-.23.5-.23.5a14.68,14.68,0,0,0-2.23-.89c-.35,0-.1-.67-.1-.67Z"/><rect class="cls-28" x="1272.72" y="416.67" width="0.16" height="0.75"/><rect class="cls-28" x="1273.55" y="416.67" width="0.16" height="0.75"/><rect class="cls-28" x="1273.1" y="416.37" width="0.16" height="0.75" transform="translate(856.43 1689.92) rotate(-90)"/><rect class="cls-28" x="1273.1" y="416.96" width="0.16" height="0.75" transform="translate(855.84 1690.52) rotate(-90)"/><path class="cls-7" d="M1264.27,372.31l-.36,0a2.32,2.32,0,0,0,.37,4.61Z"/><path class="cls-6" d="M1264.27,373.32l-.2,0a1.31,1.31,0,0,0,.21,2.6Z"/><path class="cls-7" d="M1280.84,372.25a2.07,2.07,0,0,1,.35,0,2.18,2.18,0,0,1,1.87,2.42,2.15,2.15,0,0,1-2.24,1.69Z"/><path class="cls-6" d="M1280.84,373.15l.2,0a1.22,1.22,0,0,1,1,1.36,1.19,1.19,0,0,1-1.26,1Z"/><path class="cls-5" d="M846.56,235.54l-13.33-28.32a19.25,19.25,0,0,0,2.9-10.3c0-9.54-6.59-17.28-14.72-17.28s-14.72,7.74-14.72,17.28a19.24,19.24,0,0,0,2.89,10.29l-13.34,28.33Z"/><rect class="cls-6" x="819.06" y="222.72" width="5.6" height="14.34" rx="2.8"/><path class="cls-7" d="M834.52,242.1h0a6.48,6.48,0,0,0-6.49-6.43H816.88c-3.57,0-6.26,2.12-6.26,5.65l2.45.89Z"/><rect class="cls-7" x="812.06" y="191.36" width="18.69" height="39.2" rx="9.35"/><ellipse class="cls-9" cx="824.64" cy="203.77" rx="1.66" ry="1.32"/><ellipse class="cls-9" cx="818.17" cy="203.77" rx="1.66" ry="1.32"/><path class="cls-10" d="M823.62,224.37v-.32a2.06,2.06,0,0,0-4.12,0v.32Z"/><rect class="cls-11" x="820.5" y="222.86" width="2.12" height="4.12" rx="1.06" transform="translate(596.63 1046.48) rotate(-90)"/><polygon class="cls-5" points="827.7 191.63 817.2 180.39 812.5 194.03 827.7 191.63"/><circle class="cls-6" cx="821.56" cy="211.81" r="0.94"/><polygon class="cls-6" points="821.56 209.37 820.64 211.58 822.48 211.58 821.56 209.37"/><path class="cls-7" d="M812.07,204.53l-.28,0a1.79,1.79,0,0,0,.29,3.55Z"/><path class="cls-6" d="M812.07,205.31h-.16a1,1,0,0,0,.17,2Z"/><path class="cls-7" d="M830.73,204.53l.28,0a1.79,1.79,0,0,1-.29,3.55Z"/><path class="cls-6" d="M830.73,205.31h.15a1,1,0,0,1,.84,1.15,1,1,0,0,1-1,.86Z"/><polygon class="cls-12" points="831.79 207.2 831.16 208.99 832.44 208.97 831.79 207.2"/><polygon class="cls-12" points="811.52 207.5 810.35 208.99 811.56 209.4 811.52 207.5"/><polygon class="cls-8" points="813.84 261.1 827.34 261.1 827.04 258.02 834.28 242.63 810.31 239.74 815.63 257.38 813.84 261.1"/><path class="cls-2" d="M463.3,204.83V330.9h18c3.6,0,6.16,1.1,7.7,3.29a14.74,14.74,0,0,1,2.29,8.6,14.51,14.51,0,0,1-2.29,8.49c-1.54,2.19-4.1,3.29-7.7,3.29H430.39q-5.4,0-7.7-3.29a14.72,14.72,0,0,1-2.3-8.6,14.55,14.55,0,0,1,2.3-8.49q2.3-3.29,7.7-3.29h17.95V228.49h-12c-3.55,0-6.11-1.09-7.66-3.29a16.88,16.88,0,0,1,0-17.08c1.53-2.2,4.1-3.29,7.7-3.29Z"/><rect class="cls-7" x="825.03" y="279.92" width="3.51" height="15.78" rx="1.56" transform="translate(-28.99 103.27) rotate(-7.02)"/><rect class="cls-7" x="814.23" y="276.69" width="3.51" height="15.78" rx="1.56" transform="translate(158.91 -276.73) rotate(21.28)"/><rect class="cls-7" x="813.84" y="287.72" width="3.5" height="11.33" rx="1.56" transform="translate(-37.43 447.1) rotate(-30)"/><polygon class="cls-8" points="829.32 258.42 815.11 258.42 801.45 283.13 842.98 283.13 829.32 258.42"/><path class="cls-2" d="M863,314H800.6A30.85,30.85,0,0,0,809,329.17q6,5.74,16.37,5.75,8.46,0,22.49-5.75c3.86-1.57,6.54-2.35,8-2.35q3,0,5.12,3.4a16.21,16.21,0,0,1,2.08,8.58,13.85,13.85,0,0,1-2.23,8q-3,4.35-14.47,8.28A68.13,68.13,0,0,1,824.29,359q-18.27,0-29.22-16.33t-11-40.16q0-25.38,11.84-41.29t27.29-15.91a30,30,0,0,1,17,5.17,38.67,38.67,0,0,1,11.55,11.16,82.13,82.13,0,0,1,8.83,21.49A80.9,80.9,0,0,1,863,303.8Zm-16.85-24.08q-3.5-10.33-9.14-15.44a20.12,20.12,0,0,0-26.8,0q-5.64,5.1-9.2,15.44Z"/><rect class="cls-7" x="809.11" y="235.59" width="3.51" height="15.76" rx="1.75" transform="translate(1449.3 799.5) rotate(-155.66)"/><rect class="cls-7" x="810.6" y="246.08" width="3.5" height="11.32" rx="1.75" transform="translate(1435.31 -327.24) rotate(119.88)"/><rect class="cls-7" x="817.18" y="252.48" width="1.5" height="3.26" rx="0.75" transform="translate(1095.64 -556.1) rotate(91.66)"/><rect class="cls-7" x="820.24" y="251.97" width="2.12" height="4.61" rx="1.06" transform="translate(1099.28 -559.31) rotate(91.66)"/><rect class="cls-6" x="819.92" y="252.42" width="0.51" height="1.65" rx="0.26" transform="translate(387.68 994.71) rotate(-76.9)"/><rect class="cls-7" x="833.59" y="234.92" width="3.51" height="15.77" rx="1.75" transform="matrix(0.82, -0.58, 0.58, 0.82, 13.08, 526.75)"/><rect class="cls-7" x="833.13" y="244.6" width="3.5" height="11.32" rx="1.75" transform="translate(737.79 -615.9) rotate(66.92)"/><rect class="cls-7" x="828.32" y="250.34" width="1.5" height="3.27" rx="0.75" transform="translate(1154.34 -551.17) rotate(95.14)"/><rect class="cls-7" x="824.63" y="249.43" width="2.12" height="4.61" rx="1.06" transform="translate(1150.43 -548.07) rotate(95.14)"/><rect class="cls-6" x="826.59" y="249.96" width="0.51" height="1.65" rx="0.26" transform="translate(1300.53 -471.84) rotate(106.37)"/></svg>