<svg id="Layer_1" data-name="Layer 1" xmlns="http://www.w3.org/2000/svg" width="5000" height="3000" viewBox="0 0 5000 3000"><defs><style>.cls-1{fill:#864131;}</style></defs><title>portfolio_logo</title><path class="cls-1" d="M774.25,1526.05V1078h149q63.85,0,97.46,31.15t33.61,91.19v57.23q0,58.93-33.61,89.52t-96.9,30.58H853.22v148.43Zm79-210h59.94q33,0,47.89-14.89t14.84-49.73v-46.64q0-35.4-14.84-50.29t-47.89-14.9H853.22Z"/><path class="cls-1" d="M1311.41,1531.66q-76.74,0-116.79-39.49t-40-112.87v-154q0-73.37,40.33-113.14t116.51-39.77q76.17,0,115.95,39.77t39.77,113.14v154q0,73.38-39.77,112.87T1311.41,1531.66Zm0-61.62q42,0,59.65-21.35t17.65-73.63V1229.5q0-52.26-17.65-73.9T1311.41,1134q-42.57,0-60.21,21.64t-17.65,73.9v145.56q0,52.28,17.65,73.63T1311.41,1470Z"/><path class="cls-1" d="M1660.93,1526.05h-79V1078h180.36q61.62,0,93.83,30.87t32.2,89.23v37q0,48.83-21.28,79.13t-63.3,39.84l95.22,172h-89.62l-92.42-167.48h-56Zm0-229.09h91.3q29.68,0,43.69-14.34t14-48.62v-34.85q0-33.17-13.72-46.37t-44-13.22h-91.3Z"/><path class="cls-1" d="M2103.43,1526.05V1139.56H1986.92V1078h312.56v61.61H2182.41v386.49Z"/><path class="cls-1" d="M2390.78,1526.05V1078h275.58v61.61h-196.6v152.92h163.55v61.61H2469.76v172Z"/><path class="cls-1" d="M2927.94,1531.66q-76.74,0-116.79-39.49T2771.1,1379.3v-154q0-73.37,40.33-113.14t116.51-39.77q76.17,0,115.95,39.77t39.77,113.14v154q0,73.38-39.77,112.87T2927.94,1531.66Zm0-61.62q42,0,59.65-21.35t17.65-73.63V1229.5q0-52.26-17.65-73.9T2927.94,1134q-42.57,0-60.21,21.64t-17.65,73.9v145.56q0,52.28,17.65,73.63T2927.94,1470Z"/><path class="cls-1" d="M3198.48,1526.05V1078h79v386.49H3442.7v61.61Z"/><path class="cls-1" d="M3532.87,1526.05v-61.61h93.55V1139.56h-93.55V1078h266.07v61.61h-93.55v324.88h93.55v61.61Z"/><path class="cls-1" d="M4070,1531.66q-76.76,0-116.79-39.49T3913.2,1379.3v-154q0-73.37,40.33-113.14T4070,1072.35q76.17,0,115.94,39.77t39.77,113.14v154q0,73.38-39.77,112.87T4070,1531.66Zm0-61.62q42,0,59.65-21.35t17.65-73.63V1229.5q0-52.26-17.65-73.9T4070,1134q-42.59,0-60.22,21.64t-17.64,73.9v145.56q0,52.28,17.64,73.63T4070,1470Z"/><path class="cls-1" d="M1974,1676l6-14.66c10.85-26.11,21.41-32.56,24.93-32.56,2.35,0,2.64,1.61,2.64,2.93,0,5.87-9.53,16.57-19.8,26.4l-8.8,21c-2.64,6.16-1.46,8.8.74,8.8,4.84,0,11-10.26,11-16-2.79-1.76-1.91-5.58,1.17-5.58,1.32,0,3.52,1.32,4.25,5.72a34.64,34.64,0,0,0,12.17,2.2c6.31,0,15.84-1.61,21.56-4.69.44-.29,1,0,1.32.59a1.09,1.09,0,0,1-.14,1.46c-6.9,3.67-16.58,5-22.74,5a34.42,34.42,0,0,1-12-2c-.3,5.28-6.75,15.25-16.87,15.25C1972.1,1689.74,1970.34,1684.9,1974,1676Zm31.09-44c0-.3,0-1-.88-1-1.76,0-6,3.67-14.23,21.85C1997.91,1644.71,2005.1,1636.06,2005.1,1632Z"/><path class="cls-1" d="M2007.45,1738.13c0-9.09,9.24-22.58,23.17-33.87a55.86,55.86,0,0,1,6.45-4.7l9.68-23.9c-2.49,4-9.82,14.08-15.4,14.08-3.66,0-5.42-2.64-3.66-6.75l4.4-10.56c.29-.73-.45-1.17-1.33-.73a1.1,1.1,0,0,1-1.61-.44,1.18,1.18,0,0,1,.44-1.61l5-2.64a6.1,6.1,0,0,1,2.93-.74c1.76,0,3.23,1,2,3.82l-5.13,12.32c-.44,1,.29,1.46.73,1.46,2.35,0,7.34-6.45,13.5-14.37,2.05-2.64,3.37-3.23,4.25-3.23,1.76,0,3.81,1,1.47,6.6l-9,21.56a363.25,363.25,0,0,1,35.93-17.74.83.83,0,0,1,1,.58,1,1,0,0,1-.44,1.18,365.1,365.1,0,0,0-38.43,20.38c-9.24,22.44-19.5,44.88-32,44.88C2008.91,1743.71,2007.45,1741.36,2007.45,1738.13Zm27.86-34c-10.85,7.77-25.37,27.72-25.37,34.9,0,1,.44,2.5,1.91,2.5C2018,1741.51,2028.27,1722.44,2035.31,1704.11Z"/><path class="cls-1" d="M2127.41,1676.69c0-8.8,9.1-10.86,18.19-10.86,15.11,0,31.38,3.52,49.72,6,37.25-59.4,68.19-87.26,78.6-87.26,6.9,0,8.51,8.94-11.14,55.72l-14.08,33.3c13.64-.59,28.3-1.91,36.08-4.4,1.17-.44,1.76,2-.74,2.78-9.53,2.79-23.31,4.11-36.66,4.84l-11.44,27.28c-.73,1.91-7.77,1.91-6.6-.73l11-26.25c-6,.29-11.73.29-16.57.29-8.66,0-16.58-.29-23.76-.73-4.25,6.3-7.77,12-10.56,16.72-5.13,8.65-12.76,12.9-23.32,12.9C2139.15,1706.31,2127.41,1690.62,2127.41,1676.69Zm55.15,16.13,10-16.57c-24.93-2.06-41.8-6-54.26-6-3.38,0-8.22,1.32-8.22,6.16,0,7.63,18.34,27.28,36.52,27.28C2172.88,1703.67,2179.33,1698.39,2182.56,1692.82Zm59.1-18.92,20.09-47.81c14.08-33.29,16.43-38.72,12.17-38.72-10.26,0-48,50.16-71.27,85.36a211.21,211.21,0,0,0,24.2,1.32C2230.81,1674.05,2236.09,1674.05,2241.66,1673.9Z"/><path class="cls-1" d="M2280,1687.54l6.3-15.11c.3-.73-.44-1.17-1.32-.73a1.1,1.1,0,0,1-1.61-.44,1.17,1.17,0,0,1,.44-1.61l5-2.64a6.1,6.1,0,0,1,2.93-.74c1.76,0,3.23,1,2.05,3.82l-2.93,7c3.23-4,10.12-10.86,15.25-10.86,2.35,0,4.4,1.47,2.2,6.6l-4,9.54c-1,2.49-1.46,4.4,2.2,4.4,6.75,0,28.6-8.07,39-11.88a1,1,0,0,1,1.17.73c.15.59.15,1-.29,1.32-18,6.6-35.05,12.76-43.55,12.76-4.26,0-7-2.64-5.29-6.75l4.26-10.12c.73-1.76-1.32-1.17-2.49-.29a48.69,48.69,0,0,0-12.62,14.37,5.49,5.49,0,0,1-5.13,2.79C2280.39,1689.74,2279.21,1689.3,2280,1687.54Z"/><path class="cls-1" d="M2337.88,1684.46c0-7.63,8.94-18.19,18.18-18.19a10,10,0,0,1,5.58,1.62l13.05-28.6c1.61-3.67,3.37-4.84,4.84-4.84,2.49,0,1.32,3.37.44,5.43l-17,40.62c-2.2,5.13.44,6.45,2.49,6.45,6.16,0,21.71-8.65,31-13.78l6.59-3.67c.44-.29,1,0,1.32.59a1.09,1.09,0,0,1-.14,1.46l-6.6,3.67c-13.2,7.33-27.28,14.52-33.44,14.52-9.24,0-9-6-7-11.15-4.25,5.43-9.68,11.15-13.79,11.15C2339.79,1689.74,2337.88,1687.83,2337.88,1684.46Zm22.29-13.79a3.92,3.92,0,0,0-3.37-2.05c-5.87,0-11.88,10.56-11.88,15.11,0,1.61.59,1.61,1.32,1.61C2349,1685.34,2357.24,1676.1,2360.17,1670.67Z"/><path class="cls-1" d="M2398.89,1687.54c.29-.59,1.32-2.93,6.31-15.11.29-.73-.44-1.17-1.32-.73a1.11,1.11,0,0,1-1.62-.44,1.18,1.18,0,0,1,.44-1.61l5-2.64a6.1,6.1,0,0,1,2.93-.74c1.76,0,3.23,1,2.06,3.82l-1.18,2.78c2.35-2.2,4.55-4.25,6.75-6,.15-4.84,4.55-11.29,8.36-11.29,1.17,0,1.61.58,1.61,1.9,0,2.06-2.35,5.58-7.62,10.56.58,5.87,7,9.39,13.93,9.39a95.58,95.58,0,0,0,21.41-2.64.84.84,0,0,1,1,.59c.14.58-.15,1.46-.59,1.61a90.57,90.57,0,0,1-21.85,2.79c-7.33,0-14.37-3.67-16-9.83-2.2,2.2-4.84,4.69-4.84,4.69a38.14,38.14,0,0,0-7,9.83l-1,2.49c-.88,2.06-2.94,2.79-5.14,2.79C2399.33,1689.74,2398.16,1689.3,2398.89,1687.54Z"/><path class="cls-1" d="M2449.49,1681.67c0-7,6.74-15.4,17.6-15.4,1.17,0,4.84.3,4.84,3.52,0,4.84-8.66,7-14.38,7.48a16.58,16.58,0,0,0-1.46,5.58c0,2.05,1.32,4.1,4.69,4.1,9.83,0,29.33-7,42.53-12a1,1,0,0,1,1.17.73c.15.59.15,1-.29,1.32-26,9.68-37.69,12.76-45,12.76C2452.13,1689.74,2449.49,1686.37,2449.49,1681.67Zm19.5-11.88c0-1-.73-1.61-1.9-1.61-3.38,0-6.31,2.79-8.22,6.31C2463.71,1674.49,2469,1673,2469,1669.79Z"/><path class="cls-1" d="M2496,1684.46c0-7.63,8.36-18.19,17.16-18.19a9.52,9.52,0,0,1,6.74,2.64,8.4,8.4,0,0,1,1.18-.14c3.08,0,3.08,2.34,2.2,4.4l-3.52,8.36c-1.76,4.1,0,5.42,1.76,5.42,5.86,0,22.58-9.09,30.94-13.64l7.19-3.81c.44-.29,1,0,1.32.59a1.11,1.11,0,0,1-.15,1.46l-7.19,3.82c-14.08,7.48-27.13,14.37-33.73,14.37-7,0-8.8-4.4-7.18-8.36-3.67,4.4-7.92,8.36-11.3,8.36S2496,1687.83,2496,1684.46Zm21.56-13.79a4.73,4.73,0,0,0-3.67-2.05c-4.4,0-10.85,10.41-10.85,15,0,1.61.88,1.76,1.61,1.76C2507.42,1685.34,2514.75,1677,2517.54,1670.67Z"/><path class="cls-1" d="M2551.71,1685.19a3.66,3.66,0,0,1,3.52-1.9c1.61,0,2.64.73,1.32,3.66-.73,1.47-.59,2.94,1.47,2.94,4,0,5.86-5.28,6-10.27l.29-10-3.81,2a1.1,1.1,0,0,1-1.61-.44,1.32,1.32,0,0,1,.44-1.61l5.13-2.94c.29-4.69,4.69-11.14,8.36-11.14,1.17,0,1.61.73,1.61,1.9,0,3.38-4.25,7.92-7,10,0,3.37,2.64,6.6,2.64,12.46,0,4-3.08,11.88-12.76,11.88C2550.68,1691.79,2550.39,1687.83,2551.71,1685.19Z"/><path class="cls-1" d="M2625.19,1708.07c0-8.36,9.38-11.14,18.48-11.14,15.25,0,29,3.07,44.14,5l26.54-63.5c8.66-20.53,12.76-33.73,12.76-40.19,0-1.61.3-9.09-8.8-9.09-10.41,0-40.62,7.19-40.62,18.19,0,4.4,8.07,8.5,15.55,10.26.73.15.29,1.47-.3,1.47-8.65-.88-18.18-4.69-18.18-12.47,0-10.26,18-21.41,38.57-22,12.61-.3,17.45,7.33,17.45,16.28,0,11-5.13,26.69-11.44,41.94l-24.93,59.83a140.33,140.33,0,0,0,38.72-1.32c.88-.14,1,1.32,0,1.62a164.69,164.69,0,0,1-40.19,3.23l-7.18,17.15c-1.91,4.7-4.4,12-17.9,12C2638.53,1735.35,2625.19,1720.68,2625.19,1708.07Zm54.55,13.35,6.46-15.7c-17.31-.88-32.41-4.1-48.25-4.1-4.4,0-10.12.88-10.12,6.16,0,6.45,19.36,24.93,38.86,24.93C2674.17,1732.71,2677.1,1727.58,2679.74,1721.42Z"/><path class="cls-1" d="M2727.56,1681.67c0-7,6.74-15.4,17.6-15.4,1.17,0,4.84.3,4.84,3.52,0,4.84-8.66,7-14.38,7.48a16.58,16.58,0,0,0-1.46,5.58c0,2.05,1.32,4.1,4.69,4.1,9,0,30.65-11,42.38-17.45.44-.29,1,0,1.32.59a1.09,1.09,0,0,1-.14,1.46c-20.24,10.71-36.52,18.19-45.32,18.19C2730.2,1689.74,2727.56,1686.37,2727.56,1681.67Zm19.5-11.88c0-1-.73-1.61-1.9-1.61-3.38,0-6.31,2.79-8.22,6.31C2741.78,1674.49,2747.06,1673,2747.06,1669.79Z"/><path class="cls-1" d="M2777.13,1687.54l6.3-15.11c.3-.73-.44-1.17-1.32-.73a1.1,1.1,0,0,1-1.61-.44,1.17,1.17,0,0,1,.44-1.61l5-2.64a6.1,6.1,0,0,1,2.93-.74c1.76,0,3.23,1,2,3.82l-2.93,7c3.23-4,10.12-10.86,15.25-10.86,2.35,0,4.4,1.47,2.2,6.6l-4,9.54c-1,2.49-1.46,4.4,2.2,4.4,7.19,0,30.07-12.47,38.87-17.31.44-.29,1,0,1.32.59a1.11,1.11,0,0,1-.15,1.46c-16.72,9-33.73,18.19-43.7,18.19-4.26,0-7-2.64-5.28-6.75l4.25-10.12c.73-1.76-1.32-1.17-2.49-.29a48.69,48.69,0,0,0-12.62,14.37,5.49,5.49,0,0,1-5.13,2.79C2777.57,1689.74,2776.39,1689.3,2777.13,1687.54Z"/><path class="cls-1" d="M2834.48,1685.93a4.64,4.64,0,0,1,2.78-2.06c2.35-.73,5.57-1.61,9.53-2.64a5.83,5.83,0,0,0,.15-1.61l.29-10-3.81,2a1.1,1.1,0,0,1-1.61-.44,1.33,1.33,0,0,1,.44-1.61l5.13-2.94c.29-4.69,4.69-11.14,8.36-11.14,1.17,0,1.61.73,1.61,1.9,0,3.38-4.25,7.92-7,10,0,3.37,2.49,6.6,2.63,12.32,11.15-2.5,25.23-5,34.61-5a.88.88,0,0,1,.89,1.17c-.15.74-.59,1.18-.89,1.18-9.23,0-23.75,2.64-34.9,5.28-1,4.1-4.55,9.38-12.47,9.38C2833.6,1691.79,2833.45,1688,2834.48,1685.93Zm11.88-2.06-4.84,1.32a3.47,3.47,0,0,0-2.21,1.91c-.58,1.32-.44,2.79,1.62,2.79C2843.71,1689.89,2845.47,1687.24,2846.36,1683.87Z"/><path class="cls-1" d="M2881,1681.67c0-7,6.74-15.4,17.59-15.4,1.18,0,4.84.3,4.84,3.52,0,4.84-8.65,7-14.37,7.48a16.58,16.58,0,0,0-1.46,5.58c0,2.05,1.32,4.1,4.69,4.1,8.94,0,30.65-11,42.38-17.45.44-.29,1,0,1.32.59a1.09,1.09,0,0,1-.14,1.46c-20.24,10.71-36.52,18.19-45.32,18.19C2883.61,1689.74,2881,1686.37,2881,1681.67Zm19.5-11.88c0-1-.73-1.61-1.91-1.61-3.37,0-6.3,2.79-8.21,6.31C2895.19,1674.49,2900.47,1673,2900.47,1669.79Z"/><path class="cls-1" d="M2930.54,1687.54l6.3-15.11c.3-.73-.44-1.17-1.32-.73a1.1,1.1,0,0,1-1.61-.44,1.17,1.17,0,0,1,.44-1.61l5-2.64a6.1,6.1,0,0,1,2.93-.74c1.76,0,3.23,1,2.05,3.82l-2.93,7c3.23-4,10.12-10.86,15.25-10.86,2.35,0,4.4,1.47,2.2,6.6l-4,9.54c-1.17,2.78-1.17,4.4,2.06,4.4,6.3,0,22.43-8.07,30.06-12.62.44-.29.88.15,1,.59a1,1,0,0,1-.44,1.17s-22,13.79-34.17,13.79c-4.4,0-6.9-2.79-5.28-6.75l4.25-10.12c.73-1.76-1.32-1.17-2.49-.29a48.69,48.69,0,0,0-12.62,14.37,5.49,5.49,0,0,1-5.13,2.79C2931,1689.74,2929.8,1689.3,2930.54,1687.54Z"/></svg>