<svg id="Layer_1" data-name="Layer 1" xmlns="http://www.w3.org/2000/svg" xmlns:xlink="http://www.w3.org/1999/xlink" width="5000" height="1849.54" viewBox="0 0 5000 1849.54"><defs><style>.cls-1{fill:#864131;}.cls-2{fill:#999;}.cls-3{fill:url(#linear-gradient);}.cls-4,.cls-9{fill:#b3b3b3;}.cls-5{fill:#6c5d53;}.cls-6{fill:#483737;}.cls-7{fill:#ccc;}.cls-8{fill:url(#linear-gradient-2);}.cls-10,.cls-13,.cls-14,.cls-9{fill-rule:evenodd;}.cls-10{fill:#e9afaf;}.cls-11{fill:#483e37;}.cls-12{fill:url(#linear-gradient-3);}.cls-13,.cls-16{fill:#fff;}.cls-15{fill:#a40;}.cls-17{fill:#ff7f2a;}.cls-18{fill:#fca;}.cls-19{fill:url(#linear-gradient-4);}.cls-20{fill:url(#linear-gradient-5);}</style><linearGradient id="linear-gradient" x1="3681.06" y1="-5358.98" x2="3786.18" y2="-5170.05" gradientTransform="matrix(1, 0, 0, -1, 667.12, -4895.11)" gradientUnits="userSpaceOnUse"><stop offset="0" stop-color="#4d4d4d"/><stop offset="1" stop-color="#4d4d4d" stop-opacity="0"/></linearGradient><linearGradient id="linear-gradient-2" x1="4118.49" y1="-5433.72" x2="4185.79" y2="-5433.72" gradientTransform="matrix(1, 0, 0, -1, 259.02, -4919.35)" gradientUnits="userSpaceOnUse"><stop offset="0" stop-color="gray"/><stop offset="1" stop-color="gray" stop-opacity="0"/></linearGradient><linearGradient id="linear-gradient-3" x1="3861.35" y1="-5531.21" x2="3894.02" y2="-5601.53" gradientTransform="matrix(1, 0, 0, -1, 408.52, -5127.44)" gradientUnits="userSpaceOnUse"><stop offset="0" stop-color="#6c5d53"/><stop offset="1" stop-color="#6c5d53" stop-opacity="0"/></linearGradient><linearGradient id="linear-gradient-4" x1="4037.91" y1="-5435.76" x2="4081.95" y2="-5368.28" gradientTransform="matrix(1, 0, 0, -1, 259.02, -4919.35)" gradientUnits="userSpaceOnUse"><stop offset="0" stop-color="#917c6f"/><stop offset="1" stop-color="#917c6f" stop-opacity="0"/></linearGradient><linearGradient id="linear-gradient-5" x1="4180.94" y1="-5367.08" x2="4343.67" y2="-5208.37" gradientTransform="matrix(1, 0, 0, -1, 259.02, -4919.35)" gradientUnits="userSpaceOnUse"><stop offset="0" stop-color="#e6e6e6"/><stop offset="1" stop-color="#e6e6e6" stop-opacity="0"/></linearGradient></defs><title>portfolio_logo_mobil</title><path class="cls-1" d="M802.81,1052.46V604.36h149q63.86,0,97.46,31.15t33.61,91.19v57.23q0,58.94-33.61,89.52T952.37,904H881.79v148.43Zm79-210.05h59.94q33,0,47.89-14.88t14.84-49.73V731.16q0-35.4-14.84-50.29T941.73,666H881.79Z"/><path class="cls-1" d="M1340,1058.07q-76.76,0-116.79-39.49t-40-112.87v-154q0-73.36,40.33-113.14T1340,598.76q76.17,0,115.94,39.77t39.77,113.14v154q0,73.38-39.77,112.87T1340,1058.07Zm0-61.62q42,0,59.65-21.35t17.65-73.63V755.91q0-52.26-17.65-73.9T1340,660.37q-42.59,0-60.22,21.64t-17.64,73.9V901.47q0,52.28,17.64,73.63T1340,996.45Z"/><path class="cls-1" d="M1689.5,1052.46h-79V604.36h180.36q61.62,0,93.82,30.87t32.21,89.22v37q0,48.82-21.28,79.13t-63.3,39.84l95.22,172h-89.62L1745.51,885h-56Zm0-229.09h91.3q29.68,0,43.69-14.34t14-48.62V725.56q0-33.16-13.72-46.37t-44-13.22h-91.3Z"/><path class="cls-1" d="M2132,1052.46V666H2015.49V604.36H2328V666H2211v386.49Z"/><path class="cls-1" d="M2419.34,1052.46V604.36h275.59V666H2498.32V818.89h163.56V880.5H2498.32v172Z"/><path class="cls-1" d="M2956.51,1058.07q-76.76,0-116.79-39.49t-40-112.87v-154q0-73.36,40.33-113.14t116.51-39.77q76.17,0,115.95,39.77t39.76,113.14v154q0,73.38-39.76,112.87T2956.51,1058.07Zm0-61.62q42,0,59.65-21.35t17.65-73.63V755.91q0-52.26-17.65-73.9t-59.65-21.64q-42.57,0-60.22,21.64t-17.64,73.9V901.47q0,52.28,17.64,73.63T2956.51,996.45Z"/><path class="cls-1" d="M3227.05,1052.46V604.36h79V990.85h165.24v61.61Z"/><path class="cls-1" d="M3561.44,1052.46V990.85H3655V666h-93.54V604.36H3827.5V666H3734V990.85h93.54v61.61Z"/><path class="cls-1" d="M4098.61,1058.07q-76.75,0-116.79-39.49t-40.05-112.87v-154q0-73.36,40.33-113.14t116.51-39.77q76.16,0,115.94,39.77t39.77,113.14v154q0,73.38-39.77,112.87T4098.61,1058.07Zm0-61.62q42,0,59.65-21.35t17.64-73.63V755.91q0-52.26-17.64-73.9t-59.65-21.64q-42.59,0-60.22,21.64t-17.64,73.9V901.47q0,52.28,17.64,73.63T4098.61,996.45Z"/><path class="cls-1" d="M1915.61,1244.38l7.62-18.59c13.75-33.09,27.14-41.27,31.6-41.27,3,0,3.35,2,3.35,3.72,0,7.44-12.09,21-25.1,33.46l-11.15,26.59c-3.35,7.8-1.86,11.15.93,11.15,6.13,0,13.94-13,13.94-20.26-3.53-2.23-2.42-7.07,1.48-7.07,1.68,0,4.47,1.68,5.4,7.25a43.71,43.71,0,0,0,15.43,2.79c8,0,20.07-2,27.32-6,.56-.37,1.3,0,1.68.75a1.41,1.41,0,0,1-.19,1.86c-8.74,4.64-21,6.32-28.81,6.32a43.53,43.53,0,0,1-15.25-2.61c-.37,6.7-8.55,19.34-21.37,19.34C1913.19,1261.86,1911,1255.72,1915.61,1244.38Zm39.41-55.77c0-.37,0-1.3-1.12-1.3-2.23,0-7.62,4.65-18,27.7C1945.91,1204.79,1955,1193.82,1955,1188.61Z"/><path class="cls-1" d="M1958,1323.2c0-11.52,11.72-28.62,29.38-42.94a71,71,0,0,1,8.18-6l12.27-30.3c-3.17,5-12.46,17.85-19.53,17.85-4.64,0-6.87-3.35-4.64-8.55l5.58-13.39c.37-.93-.56-1.49-1.68-.93a1.39,1.39,0,0,1-2-.56,1.49,1.49,0,0,1,.55-2l6.32-3.35a7.86,7.86,0,0,1,3.72-.93c2.23,0,4.09,1.3,2.61,4.84l-6.51,15.61c-.56,1.3.37,1.86.93,1.86,3,0,9.29-8.18,17.1-18.22,2.6-3.34,4.28-4.09,5.39-4.09,2.23,0,4.84,1.3,1.86,8.37l-11.34,27.33c16-9.3,34-17.48,45.55-22.5a1.07,1.07,0,0,1,1.3.74,1.25,1.25,0,0,1-.56,1.49,462.69,462.69,0,0,0-48.71,25.84c-11.71,28.45-24.72,56.89-40.52,56.89C1959.85,1330.27,1958,1327.29,1958,1323.2Zm35.32-43.13c-13.75,9.86-32.16,35.14-32.16,44.25,0,1.3.56,3.16,2.42,3.16C1971.38,1327.48,1984.39,1303.31,1993.31,1280.07Z"/><path class="cls-1" d="M2110.06,1245.31c0-11.15,11.53-13.75,23.05-13.75,19.15,0,39.78,4.46,63,7.62,47.22-75.29,86.44-110.61,99.64-110.61,8.74,0,10.78,11.34-14.13,70.64l-17.84,42.2c17.29-.75,35.87-2.42,45.73-5.58,1.48-.56,2.23,2.6-.93,3.53-12.08,3.54-29.56,5.21-46.48,6.14l-14.49,34.57c-.94,2.42-9.86,2.42-8.37-.92l13.94-33.28c-7.62.37-14.87.37-21,.37-11,0-21-.37-30.11-.93-5.39,8-9.85,15.25-13.38,21.19-6.51,11-16.18,16.36-29.56,16.36C2124.93,1282.86,2110.06,1263,2110.06,1245.31Zm69.9,20.45,12.64-21c-31.6-2.6-53-7.62-68.78-7.62-4.28,0-10.41,1.68-10.41,7.81,0,9.67,23.23,34.58,46.29,34.58C2167.69,1279.52,2175.87,1272.83,2180,1265.76Zm74.91-24,25.47-60.6c17.85-42.2,20.82-49.08,15.43-49.08-13,0-60.79,63.58-90.35,108.19a267,267,0,0,0,30.68,1.68C2241.12,1242,2247.81,1242,2254.87,1241.78Z"/><path class="cls-1" d="M2303.41,1259.07l8-19.15c.37-.93-.56-1.49-1.67-.93a1.4,1.4,0,0,1-2.05-.56,1.49,1.49,0,0,1,.56-2l6.32-3.35a7.84,7.84,0,0,1,3.72-.93c2.23,0,4.09,1.3,2.6,4.84l-3.72,8.92c4.09-5,12.83-13.76,19.33-13.76,3,0,5.58,1.86,2.79,8.37l-5,12.08c-1.3,3.16-1.85,5.58,2.79,5.58,8.55,0,36.25-10.22,49.45-15.06a1.23,1.23,0,0,1,1.49.93c.18.74.18,1.3-.37,1.67-22.87,8.37-44.43,16.18-55.21,16.18-5.4,0-8.93-3.35-6.7-8.55l5.39-12.83c.93-2.23-1.67-1.49-3.16-.37a61.8,61.8,0,0,0-16,18.21,7,7,0,0,1-6.51,3.54C2304,1261.86,2302.48,1261.3,2303.41,1259.07Z"/><path class="cls-1" d="M2376.84,1255.16c0-9.66,11.34-23.05,23-23.05a12.62,12.62,0,0,1,7.06,2.05l16.55-36.25c2-4.65,4.28-6.14,6.13-6.14,3.16,0,1.68,4.28.56,6.88l-21.56,51.5c-2.79,6.5.56,8.17,3.16,8.17,7.8,0,27.51-11,39.22-17.47l8.37-4.65c.55-.37,1.3,0,1.67.75a1.41,1.41,0,0,1-.19,1.86l-8.36,4.64c-16.73,9.3-34.58,18.41-42.39,18.41-11.71,0-11.33-7.62-8.92-14.13-5.39,6.88-12.27,14.13-17.47,14.13C2379.26,1261.86,2376.84,1259.44,2376.84,1255.16Zm28.26-17.47a5,5,0,0,0-4.28-2.6c-7.44,0-15.06,13.38-15.06,19.15,0,2,.75,2,1.68,2C2391,1256.28,2401.38,1244.57,2405.1,1237.69Z"/><path class="cls-1" d="M2454.18,1259.07c.37-.75,1.67-3.72,8-19.15.37-.93-.56-1.49-1.67-.93a1.4,1.4,0,0,1-2.05-.56,1.49,1.49,0,0,1,.56-2l6.32-3.35a7.84,7.84,0,0,1,3.72-.93c2.23,0,4.09,1.3,2.6,4.84l-1.49,3.53c3-2.79,5.76-5.39,8.55-7.62.19-6.14,5.77-14.32,10.6-14.32,1.49,0,2,.75,2,2.42,0,2.6-3,7.06-9.66,13.38.74,7.44,8.92,11.9,17.66,11.9a121.4,121.4,0,0,0,27.14-3.34,1,1,0,0,1,1.3.74c.19.74-.19,1.86-.74,2a114.74,114.74,0,0,1-27.7,3.54c-9.3,0-18.22-4.65-20.26-12.46-2.79,2.79-6.14,6-6.14,6a48.16,48.16,0,0,0-8.92,12.45l-1.3,3.16c-1.12,2.61-3.72,3.54-6.51,3.54C2454.73,1261.86,2453.25,1261.3,2454.18,1259.07Z"/><path class="cls-1" d="M2518.31,1251.63c0-8.92,8.55-19.52,22.31-19.52,1.49,0,6.13.38,6.13,4.47,0,6.13-11,8.92-18.21,9.47a21,21,0,0,0-1.87,7.07c0,2.6,1.68,5.2,5.95,5.2,12.46,0,37.18-8.92,53.91-15.24a1.23,1.23,0,0,1,1.49.93c.19.74.19,1.3-.37,1.67-32.9,12.27-47.77,16.18-57.07,16.18C2521.66,1261.86,2518.31,1257.58,2518.31,1251.63Zm24.72-15.05c0-1.31-.92-2-2.41-2-4.28,0-8,3.53-10.41,8C2536.34,1242.52,2543,1240.66,2543,1236.58Z"/><path class="cls-1" d="M2577.24,1255.16c0-9.66,10.6-23.05,21.75-23.05a12,12,0,0,1,8.55,3.35,9.82,9.82,0,0,1,1.49-.19c3.9,0,3.9,3,2.79,5.58l-4.47,10.6c-2.23,5.2,0,6.87,2.24,6.87,7.43,0,28.62-11.52,39.22-17.28l9.11-4.84c.56-.37,1.3,0,1.67.75a1.42,1.42,0,0,1-.18,1.86l-9.11,4.83c-17.85,9.48-34.39,18.22-42.76,18.22-8.92,0-11.15-5.58-9.11-10.6-4.64,5.58-10,10.6-14.31,10.6C2579.66,1261.86,2577.24,1259.44,2577.24,1255.16Zm27.33-17.47a6,6,0,0,0-4.65-2.6c-5.58,0-13.76,13.2-13.76,19,0,2,1.12,2.23,2.05,2.23C2591.74,1256.28,2601,1245.68,2604.57,1237.69Z"/><path class="cls-1" d="M2647.88,1256.09a4.66,4.66,0,0,1,4.47-2.41c2,0,3.34.93,1.67,4.64-.93,1.86-.74,3.72,1.86,3.72,5,0,7.44-6.69,7.62-13l.37-12.64L2659,1239a1.4,1.4,0,0,1-2.05-.56,1.68,1.68,0,0,1,.56-2l6.51-3.72c.37-6,6-14.13,10.6-14.13,1.48,0,2,.93,2,2.42,0,4.28-5.39,10-8.92,12.64,0,4.28,3.34,8.37,3.34,15.8,0,5-3.9,15.06-16.17,15.06C2646.58,1264.46,2646.21,1259.44,2647.88,1256.09Z"/><path class="cls-1" d="M2741,1285.09c0-10.59,11.9-14.12,23.43-14.12,19.33,0,36.8,3.9,56,6.32l33.65-80.5c11-26,16.17-42.75,16.17-50.93,0-2,.37-11.53-11.15-11.53-13.2,0-51.5,9.11-51.5,23.05,0,5.58,10.23,10.78,19.71,13,.93.18.37,1.85-.37,1.85-11-1.11-23.06-5.94-23.06-15.8,0-13,22.87-27.14,48.9-27.88,16-.37,22.12,9.29,22.12,20.63,0,13.94-6.51,33.84-14.5,53.17l-31.6,75.85a178.77,178.77,0,0,0,49.07-1.68c1.12-.18,1.3,1.68,0,2-17.1,3.71-34.58,4.65-50.93,4.09l-9.11,21.75c-2.42,6-5.58,15.24-22.68,15.24C2757.94,1319.67,2741,1301.08,2741,1285.09Zm69.15,16.92,8.18-19.89c-21.93-1.12-41.08-5.2-61.16-5.2-5.57,0-12.82,1.11-12.82,7.8,0,8.18,24.53,31.6,49.26,31.6C2803.11,1316.32,2806.83,1309.82,2810.17,1302Z"/><path class="cls-1" d="M2870.78,1251.63c0-8.92,8.55-19.52,22.31-19.52,1.49,0,6.13.38,6.13,4.47,0,6.13-11,8.92-18.21,9.47a21,21,0,0,0-1.86,7.07c0,2.6,1.67,5.2,5.95,5.2,11.34,0,38.85-13.94,53.72-22.12.56-.37,1.3,0,1.67.75a1.4,1.4,0,0,1-.18,1.86c-25.65,13.57-46.29,23-57.44,23C2874.13,1261.86,2870.78,1257.58,2870.78,1251.63Zm24.73-15.05c0-1.31-.93-2-2.42-2-4.28,0-8,3.53-10.41,8C2888.81,1242.52,2895.51,1240.66,2895.51,1236.58Z"/><path class="cls-1" d="M2933.62,1259.07l8-19.15c.37-.93-.56-1.49-1.67-.93a1.4,1.4,0,0,1-2.05-.56,1.5,1.5,0,0,1,.56-2l6.32-3.35a7.84,7.84,0,0,1,3.72-.93c2.23,0,4.09,1.3,2.6,4.84l-3.72,8.92c4.09-5,12.83-13.76,19.34-13.76,3,0,5.57,1.86,2.78,8.37l-5,12.08c-1.3,3.16-1.85,5.58,2.79,5.58,9.11,0,38.11-15.8,49.27-21.94.55-.37,1.3,0,1.67.75a1.41,1.41,0,0,1-.19,1.86c-21.19,11.34-42.75,23-55.39,23-5.39,0-8.93-3.35-6.7-8.55l5.4-12.83c.92-2.23-1.68-1.49-3.17-.37a61.8,61.8,0,0,0-16,18.21,7,7,0,0,1-6.51,3.54C2934.17,1261.86,2932.69,1261.3,2933.62,1259.07Z"/><path class="cls-1" d="M3006.31,1257a6,6,0,0,1,3.53-2.6c3-.93,7.06-2,12.08-3.35a7.43,7.43,0,0,0,.19-2l.37-12.64-4.83,2.6a1.4,1.4,0,0,1-2.05-.56,1.68,1.68,0,0,1,.56-2l6.51-3.72c.37-6,5.95-14.13,10.59-14.13,1.49,0,2,.93,2,2.42,0,4.28-5.39,10-8.92,12.64,0,4.28,3.15,8.37,3.34,15.62,14.13-3.17,32-6.32,43.87-6.32a1.11,1.11,0,0,1,1.12,1.48c-.19.93-.74,1.49-1.12,1.49-11.71,0-30.11,3.35-44.24,6.69-1.3,5.21-5.76,11.9-15.8,11.9C3005.19,1264.46,3005,1259.63,3006.31,1257Zm15.06-2.6-6.14,1.67a4.38,4.38,0,0,0-2.79,2.42c-.74,1.67-.56,3.53,2,3.53C3018,1262,3020.25,1258.7,3021.37,1254.42Z"/><path class="cls-1" d="M3065.24,1251.63c0-8.92,8.55-19.52,22.31-19.52,1.48,0,6.13.38,6.13,4.47,0,6.13-11,8.92-18.22,9.47a21.19,21.19,0,0,0-1.86,7.07c0,2.6,1.68,5.2,6,5.2,11.34,0,38.85-13.94,53.73-22.12.55-.37,1.3,0,1.67.75a1.41,1.41,0,0,1-.19,1.86c-25.65,13.57-46.29,23-57.44,23C3068.58,1261.86,3065.24,1257.58,3065.24,1251.63Zm24.72-15.05c0-1.31-.93-2-2.41-2-4.28,0-8,3.53-10.42,8C3083.27,1242.52,3090,1240.66,3090,1236.58Z"/><path class="cls-1" d="M3128.07,1259.07l8-19.15c.37-.93-.56-1.49-1.68-.93a1.39,1.39,0,0,1-2-.56,1.49,1.49,0,0,1,.56-2l6.32-3.35a7.8,7.8,0,0,1,3.71-.93c2.24,0,4.09,1.3,2.61,4.84l-3.72,8.92c4.09-5,12.83-13.76,19.33-13.76,3,0,5.58,1.86,2.79,8.37l-5,12.08c-1.49,3.53-1.49,5.58,2.61,5.58,8,0,28.44-10.22,38.1-16,.56-.37,1.12.19,1.3.75a1.24,1.24,0,0,1-.55,1.48s-27.89,17.48-43.32,17.48c-5.57,0-8.74-3.54-6.69-8.55l5.39-12.83c.93-2.23-1.67-1.49-3.16-.37a61.67,61.67,0,0,0-16,18.21,7,7,0,0,1-6.5,3.54C3128.63,1261.86,3127.14,1261.3,3128.07,1259.07Z"/><g id="layer1"><g id="layer1-2" data-name="layer1"><g id="g4831"><path id="path3701-2" class="cls-2" d="M4405.71,256.19c-10.19,0-30.8,16.9-45.59,46.32a51.88,51.88,0,0,0-3.94,7.48c-20.49,47.47-20.09,79.37-35.16,90.42s-10,33.13-3,61.26l65.29,26.12,45.22-28.12,7-82.38s-9.05-21.08-12.06-29.11c-.47-1.24-1.53-4.26-2.84-7.89,3.89-5.74,6.07-11.6,5.36-17-.77-3.64-4.21-4.92-9-4.22,4.28-6,6.76-12.21,6-17.88-.77-3.64-4.22-4.92-9-4.22,4.28-6,6.76-12.21,6-17.89-.93-4.37-5.73-5.33-12.13-3.54,2.87-4.91,4.4-9.83,3.81-14.43A5.67,5.67,0,0,0,4405.71,256.19Z"/><path id="path4821" class="cls-3" d="M4405.71,256.19c-10.19,0-30.8,16.9-45.59,46.32a51.88,51.88,0,0,0-3.94,7.48c-20.49,47.47-20.09,79.37-35.16,90.42s-10,33.13-3,61.26l65.29,26.12,45.22-28.12,7-82.38s-9.05-21.08-12.06-29.11c-.47-1.24-1.53-4.26-2.84-7.89,3.89-5.74,6.07-11.6,5.36-17-.77-3.64-4.21-4.92-9-4.22,4.28-6,6.76-12.21,6-17.88-.77-3.64-4.22-4.92-9-4.22,4.28-6,6.76-12.21,6-17.89-.93-4.37-5.73-5.33-12.13-3.54,2.87-4.91,4.4-9.83,3.81-14.43A5.67,5.67,0,0,0,4405.71,256.19Z"/></g><path id="path3632" class="cls-4" d="M4249.55,465.06c7.73,5.28,37.52,44.24,43.12,57.64,5.09,12.17,11.65,24.71,19.58,33.46,27.58,30.49,48.49,43.17,89.74,43.46,10.52.1,40.05-5.28,71.29-13.49,28-7.36,30,4,41.75,5.06,47,4.19,65.78,6.58,82.78,2.29-55.83-32-181.91-127.9-240.76-137.75-23.62-2.19-44.69-11.18-52.73-16.21-4.23-2.66-14.73-8.07-20.08-16.34-6.33-9.8-17.47-17.34-30.57-13.27-12.64,3.94-21.75,9.2-24.67,18.39-2.67,8.39,1.31,13.16,4.7,19.59,7.61,14.45,7,11.26,15.85,17.17Z"/><path id="path3699" class="cls-5" d="M4350.27,453.09c-30.26,4.11-40.29,31.41-54.13,54.77-.72.93-2.69,4.47-5.54,4.45-.15,0-.74,1.19-2.71-.46,1.48,2.31,2.83,5.9,4.29,8.31,2,1.9,6.18-2.38,10.94-6.24,9.81-8.69,13.74-23.56,20.38-34.44,7.53-8.89,16.42-21,26.77-26.39Z"/><path id="path2968" class="cls-4" d="M4356.27,456.32c13.45-4.37,22.41,0,28-20.77a88.11,88.11,0,0,0,1.12-39.36l-3.06-9s-1.42-1.92,3.06-10.66,87.39-77.63,99.72-87.47,32.49-17.5,32.49-17.5c18.16-.41,29.91,12,20.16,52.48,1.4,7.66-6.72,68.89-14.56,75.45s-42.54,44.11-41.42,56.14,11.14,60.68-12.39,50.84-46.32-17.77-50.8-16.68-4.07,14.66-8.55,14.66-42.57-5.47-49.3-16.4-2.24-30.62-4.48-31.71Z"/><path id="path2970" class="cls-4" d="M4496.34,528.61c47.59,22,115.07,41.2,115.07,41.2s29.12,9.94,19.18,10.65-35.52-4.26-46.88-6.39-74.58-19.18-74.58-19.18l-12.79-26.28Z"/><path id="path3744" class="cls-2" d="M4519.78,556.31c42.62,14.92,88.08,26.28,88.08,26.28s9.94,7.11-2.13,5-72.45-16.33-72.45-16.33Z"/><path id="path2842" class="cls-6" d="M4409.64,483.75c62.87,25.42,67.8,30.46,88.21,31.19s15.26-2.58,4.91-10.34a180.28,180.28,0,0,0-21.05-13.4s13.23,4.33,14.45-.66c.75-3.07-7.08-11.88-12.37-15.15-4.57-2.82,13-1.35,12.36-3.41-.81-2.43-24.92-25-24.92-25s3.29,2.29.55,13.51c-2.85,11.64-8.84,15.76-18.21,20.18-9.17,4.32-41.67,2.89-43.93,3.07Z"/><path id="path3701" class="cls-7" d="M4580,237c-25.56-.19-99.37,50.48-111,65.33,5.57.28,14.29-1.52,24.52-4.75a39.29,39.29,0,0,0-4.55,3.34c3.89.71,9.9.47,17.05-.48-8.75,3-15.6,5.78-18.74,7.84,3.44,1.2,8.77,1.88,15.23,2.11-5.67,1.46-10.11,3-12.55,4.33,5,3.19,14.61,5.71,26.12,7.32-9.36.76-16.85,1.92-20.45,3.27,5.37,4,17.09,7.81,30.85,10.7-17.24.39-32.54,2-38.24,4.18,5.14,3.79,16,7.48,29,10.32-18,.36-34.17,2.36-40.06,5,8.52,7.42,33,14.53,56.28,17.23-26-1.71-56.71.41-65.33,3.64,3.22,2.38,8.75,4.72,15.6,6.84-9.55-.16-17.24.26-21,1.27,4.92,4.43,16,9.34,29.25,13.52-15.56-2.06-29.18-2.51-34.67-1,5.75,6.9,20.69,15.2,37.55,21.76-21.25-3.27-42.39-4.41-49.6-2.82,6.65,6.55,25.57,14.65,45.53,20.29-23.47-2.77-48.58-2.24-56.53.68,5.65,6.12,19.9,12.73,36.12,17.62-18.59-2.74-35.86-3.65-42.26-2.26,14.49,15.08,88.35,38.61,102.38,24.87-1.14-6.22-12.46-11.6-27.27-15.8,15.72,1.63,29.21.21,34.28-6.37-1-5.25-7.34-9.41-16.53-12.55,12.41,1.39,22.59.67,26.92-3.51-.67-3.36-4.55-6.43-10.41-9.17,10.35.91,18.66-.33,22.45-4.79-1.17-7.13-12.09-13.2-26.45-17.9,15.16,1.67,28,.86,32.78-4.2-1.1-4.43-7.83-8.09-17.4-11,11.52-.55,20.64-2.72,24.13-7.21-2-5.78-14.11-9.21-29.43-11,17.95,1,33.61-1.09,38.46-8.44-1.25-4.15-6.19-7.26-13.32-9.54,11.63-.52,20.86-2.7,24.37-7.23-1.21-3.42-5.93-6-12.74-7.93,9.61-.83,17.07-3,20.14-7-2.13-6-15.13-9.5-31.37-11.19,12.73-1.89,22.75-5.51,26-11.29-2.51-5.73-13.54-8.09-27.64-8.42,12.56-3.49,22.21-8,24.72-13.29-3.84-5.17-19.18-4.58-37.07-1.47,17.71-6.54,32.37-14.55,34.56-21.93-4.45-4.37-18.75-1.74-35.29,3.75,17.37-10.6,30.61-21.93,31.93-30.89A9.88,9.88,0,0,0,4580,237Z"/><path id="path4043" class="cls-8" d="M4355.77,502.51c13.06,9.46,19.08,15.77,38.17,15.77s41.18-6.94,41.18-6.94S4408,529,4392.94,525.84s-40.18-23.33-37.17-23.33Z"/><path id="path4107" class="cls-9" d="M4388.74,590.83c12.79,7.46,25.57,23.43,44,13.84s21.31-19.16,21.31-19.16-18.47-4.26-32.67-3.2-32.68,8.52-32.68,8.52Z"/><path id="path4618" class="cls-10" d="M4422.84,599.42c7.71-1.2,12.34.53,15.62,7.1s14.16-1.42,21.31-1.42c8.14,0,9.11-6.26,12.79-9.94,6.58-6.59,10.81-8.53,12.78-8.53,6.23,0-12.89.06-18.46,2.84-.87.44-14.6,13.18-4.27,2.85,9.59-9.59-3.15-2.61-8.52,1.42-9.39,7-8.48,2.85-19.89,0-4.58-1.15-7.36,3.28-11.36,5.68Z"/><g id="g4890"><path id="path3632-1-7" class="cls-11" d="M4245.08,462.16c8.07,20.24,40,48.3,40.92,49.7,10.6,16.2,26.41-60.34,66-57.14-21.35-3.25-33.48-8.83-47.89-15.47-4.52-2.08-10.51-6.07-19.85-17-7.55-8.86-17.68-16.74-31.07-13.74-12.23,2.73-23.34,10.24-26.26,19.43-2.66,8.39,2.37,13.36,5.76,19.79,7.62,14.45,3.53,8.54,12.37,14.45Z"/><path id="path4856" class="cls-12" d="M4245.08,462.16c8.07,20.24,40,48.3,40.92,49.7,10.6,16.2,26.41-60.34,66-57.14-21.35-3.25-33.48-8.83-47.89-15.47-4.52-2.08-10.51-6.07-19.85-17-7.55-8.86-17.68-16.74-31.07-13.74-12.23,2.73-23.34,10.24-26.26,19.43-2.66,8.39,2.37,13.36,5.76,19.79,7.62,14.45,3.53,8.54,12.37,14.45Z"/></g><g id="g4837"><g id="g3700"><path id="path3640" class="cls-13" d="M4253.23,437.74c1.79,3.83,6.72,5.31,11,3.31s6.33-6.73,4.54-10.56-6.71-5.31-11-3.31S4251.45,433.91,4253.23,437.74Z"/><path id="path3644" class="cls-14" d="M4254.44,438.11a4.83,4.83,0,1,0,2.3-6.5A4.87,4.87,0,0,0,4254.44,438.11Z"/><path id="path3648" class="cls-13" d="M4256.77,434.49a4.25,4.25,0,1,0,2.24-5.18A4,4,0,0,0,4256.77,434.49Z"/></g><g id="g3708"><path id="path3642" class="cls-13" d="M4231.4,447.58c1.58,3.38,4.43,5.38,6.38,4.47s2.24-4.38.67-7.76-4.43-5.38-6.38-4.47S4229.83,444.2,4231.4,447.58Z"/><path id="path3646" class="cls-14" d="M4234.23,447.87c.87,1.87,2.5,2.95,3.64,2.42s1.37-2.48.5-4.35-2.51-2.95-3.65-2.42S4233.35,446,4234.23,447.87Z"/><g id="g3705"><path id="path3652" class="cls-13" d="M4232.67,447.24c.67,1.42,1.95,2.22,2.88,1.79s1.14-1.94.48-3.36-1.95-2.22-2.88-1.79S4232,445.82,4232.67,447.24Z"/></g></g><path id="path2846" class="cls-15" d="M4246.48,461.34c4.14,1.14,14.7-6.71,13.06-10.24-.13-.28.22-.36,0-.12a21.46,21.46,0,0,1-2.71,2.17c-2.12,1.91-6.06,3.11-7.74,4.42a9,9,0,0,0-2.65,3.77Z"/><path id="path3624" class="cls-16" d="M4239.05,449.61c-1.42-5.26,8-10,11.28-8.81.59.21,3,.65,2.42,1.41-1.06,1.34-6.2,1.82-8.24,2.72-2.52,1.12-4.25,3.56-5.5,4.8"/><path id="path3695" class="cls-6" d="M4246.13,461.85c4.27-1.15,7.94-2,10-4.67,1.19-.85,3.32-3.1,3.57-4.53,1.17,2.51-1.61,8-2.41,10.29-2.21,3.83-2.8,7.43-1.57,11.19-1.42.68-2-.1-4.09-2.24-3.6-6.11-4.14-6-5.52-10Z"/><path id="path2844" class="cls-17" d="M4248.43,442.4c-7.18,2-8.2,4.24-10.7,10.46a19.08,19.08,0,0,0,1.25,7.52c1.23,3.48,2.32,5.61,4.57,5,3.52-1,1.17-3.38,4.33-6.68,2.52-2.62,4.43-2.26,7.9-4.49s4.44-3.08,4.23-5.62C4260.07,441.9,4253.73,441.85,4248.43,442.4Z"/><path id="path2850" class="cls-15" d="M4250.09,446.59a1.17,1.17,0,0,1,1.59.27c1.68,1.46-2.56,5.21-2.86,4.57s1.34-2.5,1.48-2.91C4250.35,448.36,4247.67,448.39,4250.09,446.59Z"/><path id="path3697" class="cls-18" d="M4241.36,447.16a10.45,10.45,0,0,0-1.86,8.18,45.25,45.25,0,0,0,2.1,7.19c.09-4.23,0-8.75,2.49-12.2a16.66,16.66,0,0,0,3-5.42s-2.54-.39-5.74,2.25Z"/></g><path id="path4896" class="cls-19" d="M4350.27,453.09c-30.26,4.11-40.29,31.41-54.13,54.77-.72.93-2.69,4.47-5.54,4.45-.15,0-.74,1.19-2.71-.46,1.48,2.31,2.83,5.9,4.29,8.31,2,1.9,6.18-2.38,10.94-6.24,9.81-8.69,13.74-23.56,20.38-34.44,7.53-8.89,16.42-21,26.77-26.39Z"/><path id="path4915" class="cls-20" d="M4580,237c-25.56-.19-99.37,50.48-111,65.33,5.57.28,14.29-1.52,24.52-4.75a39.29,39.29,0,0,0-4.55,3.34c3.89.71,9.9.47,17.05-.48-8.75,3-15.6,5.78-18.74,7.84,3.44,1.2,8.77,1.88,15.23,2.11-5.67,1.46-10.11,3-12.55,4.33,5,3.19,14.61,5.71,26.12,7.32-9.36.76-16.85,1.92-20.45,3.27,5.37,4,17.09,7.81,30.85,10.7-17.24.39-32.54,2-38.24,4.18,5.14,3.79,16,7.48,29,10.32-18,.36-34.17,2.36-40.06,5,8.52,7.42,33,14.53,56.28,17.23-26-1.71-56.71.41-65.33,3.64,3.22,2.38,8.75,4.72,15.6,6.84-9.55-.16-17.24.26-21,1.27,4.92,4.43,16,9.34,29.25,13.52-15.56-2.06-29.18-2.51-34.67-1,5.75,6.9,20.69,15.2,37.55,21.76-21.25-3.27-42.39-4.41-49.6-2.82,6.65,6.55,25.57,14.65,45.53,20.29-23.47-2.77-48.58-2.24-56.53.68,5.65,6.12,19.9,12.73,36.12,17.62-18.59-2.74-35.86-3.65-42.26-2.26,14.49,15.08,88.35,38.61,102.38,24.87-1.14-6.22-12.46-11.6-27.27-15.8,15.72,1.63,29.21.21,34.28-6.37-1-5.25-7.34-9.41-16.53-12.55,12.41,1.39,22.59.67,26.92-3.51-.67-3.36-4.55-6.43-10.41-9.17,10.35.91,18.66-.33,22.45-4.79-1.17-7.13-12.09-13.2-26.45-17.9,15.16,1.67,28,.86,32.78-4.2-1.1-4.43-7.83-8.09-17.4-11,11.52-.55,20.64-2.72,24.13-7.21-2-5.78-14.11-9.21-29.43-11,17.95,1,33.61-1.09,38.46-8.44-1.25-4.15-6.19-7.26-13.32-9.54,11.63-.52,20.86-2.7,24.37-7.23-1.21-3.42-5.93-6-12.74-7.93,9.61-.83,17.07-3,20.14-7-2.13-6-15.13-9.5-31.37-11.19,12.73-1.89,22.75-5.51,26-11.29-2.51-5.73-13.54-8.09-27.64-8.42,12.56-3.49,22.21-8,24.72-13.29-3.84-5.17-19.18-4.58-37.07-1.47,17.71-6.54,32.37-14.55,34.56-21.93-4.45-4.37-18.75-1.74-35.29,3.75,17.37-10.6,30.61-21.93,31.93-30.89A9.88,9.88,0,0,0,4580,237Z"/></g></g></svg>