<svg id="Layer_1" data-name="Layer 1" xmlns="http://www.w3.org/2000/svg" width="5000" height="2494.18" viewBox="0 0 5000 2494.18"><defs><style>.cls-1{fill:#864131;}</style></defs><title>portfolio_logo</title><path class="cls-1" d="M802.81,1417V968.92h149q63.86,0,97.46,31.15t33.61,91.19v57.24q0,58.93-33.61,89.51t-96.9,30.58H881.79V1417Zm79-210h59.94q33,0,47.89-14.89t14.84-49.73v-46.64q0-35.38-14.84-50.29t-47.89-14.89H881.79Z"/><path class="cls-1" d="M1340,1422.63q-76.76,0-116.79-39.49t-40-112.87v-154q0-73.38,40.33-113.15T1340,963.32q76.17,0,115.94,39.77t39.77,113.15v154q0,73.39-39.77,112.87T1340,1422.63Zm0-61.61q42,0,59.65-21.36t17.65-73.62V1120.47q0-52.26-17.65-73.9T1340,1024.94q-42.59,0-60.22,21.63t-17.64,73.9V1266q0,52.28,17.64,73.62T1340,1361Z"/><path class="cls-1" d="M1689.5,1417h-79V968.92h180.36q61.62,0,93.82,30.87t32.21,89.23v37q0,48.82-21.28,79.12t-63.3,39.84l95.22,172h-89.62l-92.42-167.48h-56Zm0-229.1h91.3q29.68,0,43.69-14.33t14-48.63v-34.85q0-33.16-13.72-46.37t-44-13.21h-91.3Z"/><path class="cls-1" d="M2132,1417V1030.54H2015.49V968.92H2328v61.62H2211V1417Z"/><path class="cls-1" d="M2419.34,1417V968.92h275.59v61.62H2498.32v152.91h163.56v61.62H2498.32v172Z"/><path class="cls-1" d="M2956.51,1422.63q-76.76,0-116.79-39.49t-40-112.87v-154q0-73.38,40.33-113.15t116.51-39.77q76.17,0,115.95,39.77t39.76,113.15v154q0,73.39-39.76,112.87T2956.51,1422.63Zm0-61.61q42,0,59.65-21.36t17.65-73.62V1120.47q0-52.26-17.65-73.9t-59.65-21.63q-42.57,0-60.22,21.63t-17.64,73.9V1266q0,52.28,17.64,73.62T2956.51,1361Z"/><path class="cls-1" d="M3227.05,1417V968.92h79v386.49h165.24V1417Z"/><path class="cls-1" d="M3561.44,1417v-61.62H3655V1030.54h-93.54V968.92H3827.5v61.62H3734v324.87h93.54V1417Z"/><path class="cls-1" d="M4098.61,1422.63q-76.75,0-116.79-39.49t-40.05-112.87v-154q0-73.38,40.33-113.15t116.51-39.77q76.16,0,115.94,39.77t39.77,113.15v154q0,73.39-39.77,112.87T4098.61,1422.63Zm0-61.61q42,0,59.65-21.36T4175.9,1266V1120.47q0-52.26-17.64-73.9t-59.65-21.63q-42.59,0-60.22,21.63t-17.64,73.9V1266q0,52.28,17.64,73.62T4098.61,1361Z"/><path class="cls-1" d="M2002.58,1566.93l6-14.67c10.85-26.1,21.41-32.56,24.93-32.56,2.35,0,2.64,1.62,2.64,2.94,0,5.86-9.53,16.57-19.8,26.39l-8.8,21c-2.64,6.16-1.47,8.8.73,8.8,4.84,0,11-10.27,11-16-2.78-1.76-1.9-5.57,1.18-5.57,1.32,0,3.52,1.32,4.25,5.72a34.64,34.64,0,0,0,12.17,2.2c6.31,0,15.84-1.62,21.56-4.7.44-.29,1,0,1.32.59a1.12,1.12,0,0,1-.15,1.47c-6.89,3.66-16.57,5-22.73,5a34.42,34.42,0,0,1-12-2c-.3,5.28-6.75,15.25-16.87,15.25C2000.67,1580.71,1998.91,1575.87,2002.58,1566.93Zm31.09-44c0-.29,0-1-.88-1-1.76,0-6,3.67-14.23,21.85C2026.48,1535.69,2033.67,1527,2033.67,1522.93Z"/><path class="cls-1" d="M2036,1629.11c0-9.09,9.24-22.59,23.18-33.88a55,55,0,0,1,6.45-4.69l9.68-23.91c-2.49,4-9.83,14.08-15.4,14.08-3.67,0-5.43-2.64-3.67-6.74l4.4-10.56c.3-.74-.44-1.18-1.32-.74a1.09,1.09,0,0,1-1.61-.44,1.18,1.18,0,0,1,.44-1.61l5-2.64a6.08,6.08,0,0,1,2.93-.73c1.76,0,3.23,1,2.05,3.81l-5.13,12.32c-.44,1,.29,1.47.73,1.47,2.35,0,7.34-6.46,13.5-14.38,2.05-2.64,3.37-3.22,4.25-3.22,1.76,0,3.81,1,1.46,6.6l-8.94,21.56a361.37,361.37,0,0,1,35.93-17.75.84.84,0,0,1,1,.59,1,1,0,0,1-.44,1.17,365.1,365.1,0,0,0-38.43,20.38c-9.24,22.44-19.5,44.88-32,44.88C2037.48,1634.68,2036,1632.34,2036,1629.11Zm27.87-34c-10.85,7.78-25.37,27.72-25.37,34.91,0,1,.44,2.49,1.9,2.49C2046.58,1632.48,2056.84,1613.42,2063.88,1595.08Z"/><path class="cls-1" d="M2156,1567.66c0-8.8,9.09-10.85,18.19-10.85,15.1,0,31.38,3.52,49.71,6,37.26-59.39,68.2-87.26,78.61-87.26,6.89,0,8.51,9-11.14,55.73l-14.08,33.29c13.64-.59,28.3-1.91,36.07-4.4,1.18-.44,1.76,2-.73,2.79-9.53,2.78-23.32,4.1-36.66,4.84l-11.44,27.27c-.74,1.91-7.77,1.91-6.6-.73l11-26.25c-6,.29-11.73.29-16.57.29-8.66,0-16.58-.29-23.76-.73-4.26,6.31-7.78,12-10.56,16.72-5.13,8.65-12.76,12.91-23.32,12.91C2167.72,1597.29,2156,1581.59,2156,1567.66Zm55.14,16.13,10-16.57c-24.93-2-41.8-6-54.26-6-3.38,0-8.22,1.32-8.22,6.16,0,7.62,18.33,27.27,36.52,27.27C2201.45,1594.64,2207.9,1589.37,2211.12,1583.79Zm59.11-18.92,20.09-47.81c14.08-33.29,16.43-38.71,12.17-38.71-10.26,0-48,50.15-71.27,85.35a211.21,211.21,0,0,0,24.2,1.32C2259.37,1565,2264.66,1565,2270.23,1564.87Z"/><path class="cls-1" d="M2308.51,1578.51l6.31-15.1c.29-.74-.44-1.18-1.32-.74a1.08,1.08,0,0,1-1.61-.44,1.17,1.17,0,0,1,.44-1.61l5-2.64a6.14,6.14,0,0,1,2.94-.73c1.76,0,3.22,1,2.05,3.81l-2.93,7c3.22-4,10.12-10.85,15.25-10.85,2.35,0,4.4,1.46,2.2,6.6l-4,9.53c-1,2.49-1.47,4.4,2.2,4.4,6.75,0,28.6-8.07,39-11.88a1,1,0,0,1,1.17.73c.15.59.15,1-.29,1.32-18,6.6-35,12.76-43.56,12.76-4.25,0-7-2.64-5.28-6.74l4.26-10.12c.73-1.76-1.32-1.18-2.5-.3a48.75,48.75,0,0,0-12.61,14.38,5.51,5.51,0,0,1-5.13,2.78C2309,1580.71,2307.78,1580.27,2308.51,1578.51Z"/><path class="cls-1" d="M2366.45,1575.43c0-7.62,8.94-18.18,18.18-18.18a10,10,0,0,1,5.58,1.61l13.05-28.6c1.61-3.66,3.37-4.84,4.84-4.84,2.49,0,1.32,3.38.44,5.43l-17,40.62c-2.2,5.14.44,6.46,2.49,6.46,6.16,0,21.7-8.66,30.94-13.79l6.6-3.67c.44-.29,1,0,1.32.59a1.11,1.11,0,0,1-.14,1.47l-6.6,3.66c-13.2,7.34-27.28,14.52-33.44,14.52-9.24,0-8.95-6-7-11.14-4.25,5.42-9.68,11.14-13.79,11.14C2368.35,1580.71,2366.45,1578.81,2366.45,1575.43Zm22.29-13.78a3.91,3.91,0,0,0-3.37-2.06c-5.87,0-11.88,10.56-11.88,15.11,0,1.61.58,1.61,1.32,1.61C2377.59,1576.31,2385.81,1567.07,2388.74,1561.65Z"/><path class="cls-1" d="M2427.46,1578.51c.29-.58,1.32-2.93,6.3-15.1.3-.74-.44-1.18-1.31-.74a1.09,1.09,0,0,1-1.62-.44,1.18,1.18,0,0,1,.44-1.61l5-2.64a6.08,6.08,0,0,1,2.93-.73c1.76,0,3.23,1,2,3.81l-1.17,2.79c2.35-2.2,4.55-4.26,6.75-6,.14-4.84,4.54-11.29,8.36-11.29,1.17,0,1.61.59,1.61,1.91,0,2-2.35,5.57-7.63,10.56.59,5.86,7,9.38,13.94,9.38a95.58,95.58,0,0,0,21.41-2.64.83.83,0,0,1,1,.59c.15.59-.14,1.47-.58,1.61a90.57,90.57,0,0,1-21.85,2.79c-7.34,0-14.38-3.67-16-9.83-2.2,2.2-4.84,4.7-4.84,4.7a38.15,38.15,0,0,0-7,9.82l-1,2.5c-.88,2-2.93,2.78-5.13,2.78C2427.9,1580.71,2426.73,1580.27,2427.46,1578.51Z"/><path class="cls-1" d="M2478.06,1572.65c0-7,6.74-15.4,17.6-15.4,1.17,0,4.83.29,4.83,3.52,0,4.84-8.65,7-14.37,7.48a16.53,16.53,0,0,0-1.47,5.57c0,2,1.33,4.11,4.7,4.11,9.83,0,29.33-7,42.53-12a1,1,0,0,1,1.17.73c.15.59.15,1-.29,1.32-26,9.68-37.69,12.76-45,12.76C2480.7,1580.71,2478.06,1577.34,2478.06,1572.65Zm19.5-11.88c0-1-.73-1.62-1.9-1.62-3.38,0-6.31,2.79-8.22,6.31C2492.28,1565.46,2497.56,1564,2497.56,1560.77Z"/><path class="cls-1" d="M2524.55,1575.43c0-7.62,8.36-18.18,17.16-18.18a9.48,9.48,0,0,1,6.74,2.64,7.87,7.87,0,0,1,1.18-.15c3.07,0,3.07,2.35,2.19,4.4l-3.52,8.36c-1.76,4.11,0,5.43,1.77,5.43,5.86,0,22.58-9.1,30.94-13.64l7.19-3.82c.44-.29,1,0,1.31.59a1.11,1.11,0,0,1-.14,1.47l-7.19,3.81c-14.08,7.48-27.13,14.37-33.73,14.37-7,0-8.8-4.4-7.18-8.36-3.67,4.4-7.92,8.36-11.3,8.36S2524.55,1578.81,2524.55,1575.43Zm21.56-13.78a4.73,4.73,0,0,0-3.67-2.06c-4.4,0-10.85,10.42-10.85,15,0,1.62.88,1.76,1.61,1.76C2536,1576.31,2543.32,1568,2546.11,1561.65Z"/><path class="cls-1" d="M2580.28,1576.17a3.67,3.67,0,0,1,3.52-1.91c1.61,0,2.64.73,1.32,3.67-.73,1.46-.59,2.93,1.47,2.93,3.95,0,5.86-5.28,6-10.27l.29-10-3.81,2.05a1.08,1.08,0,0,1-1.61-.44,1.32,1.32,0,0,1,.44-1.61l5.13-2.93c.29-4.7,4.69-11.15,8.36-11.15,1.17,0,1.61.73,1.61,1.91,0,3.37-4.25,7.92-7,10,0,3.37,2.64,6.6,2.64,12.47,0,4-3.08,11.87-12.76,11.87C2579.25,1582.76,2579,1578.81,2580.28,1576.17Z"/><path class="cls-1" d="M2653.76,1599c0-8.36,9.38-11.14,18.47-11.14,15.26,0,29,3.08,44.15,5l26.54-63.51c8.66-20.53,12.76-33.73,12.76-40.18,0-1.61.3-9.09-8.8-9.09-10.41,0-40.62,7.18-40.62,18.18,0,4.4,8.07,8.51,15.54,10.27.74.14.3,1.46-.29,1.46-8.65-.88-18.19-4.69-18.19-12.46,0-10.27,18-21.41,38.58-22,12.61-.29,17.45,7.33,17.45,16.28,0,11-5.14,26.69-11.44,41.94L2723,1593.62a141,141,0,0,0,38.71-1.32c.88-.15,1,1.32,0,1.61a164.08,164.08,0,0,1-40.18,3.23l-7.18,17.16c-1.91,4.69-4.4,12-17.9,12C2667.1,1626.32,2653.76,1611.66,2653.76,1599Zm54.55,13.35,6.45-15.69c-17.3-.88-32.41-4.11-48.25-4.11-4.39,0-10.12.88-10.12,6.16,0,6.45,19.36,24.93,38.87,24.93C2702.74,1623.68,2705.67,1618.55,2708.31,1612.39Z"/><path class="cls-1" d="M2756.13,1572.65c0-7,6.74-15.4,17.59-15.4,1.18,0,4.84.29,4.84,3.52,0,4.84-8.65,7-14.37,7.48a16.48,16.48,0,0,0-1.46,5.57c0,2,1.32,4.11,4.69,4.11,8.95,0,30.65-11,42.38-17.46.44-.29,1,0,1.32.59a1.11,1.11,0,0,1-.14,1.47c-20.24,10.7-36.52,18.18-45.32,18.18C2758.77,1580.71,2756.13,1577.34,2756.13,1572.65Zm19.5-11.88c0-1-.73-1.62-1.91-1.62-3.37,0-6.3,2.79-8.21,6.31C2770.35,1565.46,2775.63,1564,2775.63,1560.77Z"/><path class="cls-1" d="M2805.7,1578.51l6.3-15.1c.29-.74-.44-1.18-1.32-.74a1.09,1.09,0,0,1-1.61-.44,1.18,1.18,0,0,1,.44-1.61l5-2.64a6.08,6.08,0,0,1,2.93-.73c1.76,0,3.22,1,2.05,3.81l-2.93,7c3.23-4,10.12-10.85,15.25-10.85,2.35,0,4.4,1.46,2.2,6.6l-4,9.53c-1,2.49-1.47,4.4,2.2,4.4,7.19,0,30.07-12.47,38.86-17.31.44-.29,1,0,1.32.59a1.11,1.11,0,0,1-.14,1.47c-16.72,8.94-33.73,18.18-43.71,18.18-4.25,0-7-2.64-5.27-6.74l4.25-10.12c.73-1.76-1.32-1.18-2.5-.3a48.75,48.75,0,0,0-12.61,14.38,5.5,5.5,0,0,1-5.13,2.78C2806.14,1580.71,2805,1580.27,2805.7,1578.51Z"/><path class="cls-1" d="M2863,1576.9a4.69,4.69,0,0,1,2.79-2.05c2.35-.74,5.57-1.62,9.53-2.64a5.93,5.93,0,0,0,.15-1.62l.29-10-3.81,2.05a1.08,1.08,0,0,1-1.61-.44,1.32,1.32,0,0,1,.44-1.61l5.13-2.93c.29-4.7,4.69-11.15,8.36-11.15,1.17,0,1.61.73,1.61,1.91,0,3.37-4.25,7.92-7,10,0,3.37,2.5,6.6,2.64,12.32,11.15-2.49,25.23-5,34.61-5a.88.88,0,0,1,.88,1.18c-.14.73-.58,1.17-.88,1.17-9.24,0-23.76,2.64-34.9,5.28-1,4.11-4.55,9.38-12.47,9.38C2862.16,1582.76,2862,1579,2863,1576.9Zm11.88-2.05-4.84,1.32a3.43,3.43,0,0,0-2.2,1.9c-.58,1.32-.44,2.79,1.62,2.79C2872.28,1580.86,2874,1578.22,2874.92,1574.85Z"/><path class="cls-1" d="M2909.53,1572.65c0-7,6.75-15.4,17.6-15.4,1.18,0,4.84.29,4.84,3.52,0,4.84-8.65,7-14.37,7.48a16.53,16.53,0,0,0-1.47,5.57c0,2,1.32,4.11,4.7,4.11,8.94,0,30.65-11,42.38-17.46.44-.29,1,0,1.32.59a1.12,1.12,0,0,1-.15,1.47c-20.23,10.7-36.51,18.18-45.31,18.18C2912.17,1580.71,2909.53,1577.34,2909.53,1572.65Zm19.51-11.88c0-1-.73-1.62-1.91-1.62-3.37,0-6.3,2.79-8.21,6.31C2923.76,1565.46,2929,1564,2929,1560.77Z"/><path class="cls-1" d="M2959.11,1578.51l6.3-15.1c.29-.74-.44-1.18-1.32-.74a1.09,1.09,0,0,1-1.61-.44,1.18,1.18,0,0,1,.44-1.61l5-2.64a6.08,6.08,0,0,1,2.93-.73c1.76,0,3.22,1,2,3.81l-2.93,7c3.22-4,10.12-10.85,15.25-10.85,2.35,0,4.4,1.46,2.2,6.6l-4,9.53c-1.17,2.79-1.17,4.4,2.05,4.4,6.31,0,22.44-8.07,30.07-12.61.44-.3.88.14,1,.58a1,1,0,0,1-.44,1.18s-22,13.78-34.17,13.78c-4.4,0-6.89-2.78-5.28-6.74l4.26-10.12c.73-1.76-1.32-1.18-2.5-.3a48.75,48.75,0,0,0-12.61,14.38,5.51,5.51,0,0,1-5.13,2.78C2959.55,1580.71,2958.37,1580.27,2959.11,1578.51Z"/></svg>