<svg id="Layer_1" data-name="Layer 1" xmlns="http://www.w3.org/2000/svg" width="3181.52" height="2691.7" viewBox="0 0 3181.52 2691.7"><defs><style>.cls-1{fill:none;stroke:#864131;stroke-miterlimit:10;stroke-width:4px;}.cls-2{fill:#864131;}</style></defs><title>aktivitetsdiagram</title><rect class="cls-1" x="1069.5" y="337.39" width="865.23" height="114.52" rx="22.79"/><rect class="cls-1" x="1069.5" y="590.72" width="865.23" height="114.52" rx="22.79"/><polygon class="cls-2" points="1480.19 534 1480.12 534.14 1502.12 578.15 1524.13 534.14 1524.05 534 1480.19 534"/><line class="cls-1" x1="1502.12" y1="534" x2="1502.12" y2="452.05"/><polygon class="cls-2" points="1480.19 269.78 1480.12 269.93 1502.12 313.93 1524.13 269.93 1524.05 269.78 1480.19 269.78"/><line class="cls-1" x1="1502.12" y1="269.78" x2="1502.12" y2="187.83"/><polygon class="cls-2" points="1480.19 787.19 1480.12 787.34 1502.12 831.34 1524.13 787.34 1524.05 787.19 1480.19 787.19"/><line class="cls-1" x1="1502.12" y1="787.19" x2="1502.12" y2="705.24"/><polygon class="cls-2" points="1480.19 2277.56 1480.12 2277.71 1502.12 2321.72 1524.13 2277.71 1524.05 2277.56 1480.19 2277.56"/><line class="cls-1" x1="1502.12" y1="2299.64" x2="1502.12" y2="2217.69"/><polygon class="cls-2" points="1480.19 1841.24 1480.12 1841.38 1502.12 1885.39 1524.13 1841.38 1524.05 1841.24 1480.19 1841.24"/><line class="cls-1" x1="1502.12" y1="1863.31" x2="1502.12" y2="1781.37"/><polygon class="cls-2" points="1480.19 2064.94 1480.12 2065.09 1502.12 2109.09 1524.13 2065.09 1524.05 2064.94 1480.19 2064.94"/><line class="cls-1" x1="1502.12" y1="2087.02" x2="1502.12" y2="2005.07"/><polygon class="cls-2" points="2262.45 1351.09 2262.37 1351.23 2284.38 1395.24 2306.38 1351.23 2306.31 1351.09 2262.45 1351.09"/><line class="cls-1" x1="2284.38" y1="1351.09" x2="2284.38" y2="1041.63"/><polygon class="cls-2" points="690.17 1351.09 690.1 1351.23 712.1 1395.24 734.11 1351.23 734.03 1351.09 690.17 1351.09"/><line class="cls-1" x1="712.1" y1="1351.09" x2="712.1" y2="1041.63"/><line class="cls-1" x1="1311.55" y1="1041.63" x2="712.1" y2="1041.63"/><line class="cls-1" x1="712.1" y1="1534.63" x2="712.1" y2="1782.99"/><line class="cls-1" x1="1524.13" y1="1782.99" x2="712.1" y2="1782.99"/><line class="cls-1" x1="2286.15" y1="1533.26" x2="2286.15" y2="1781.63"/><line class="cls-1" x1="1524.13" y1="1782.99" x2="2286.15" y2="1781.63"/><line class="cls-1" x1="2284.38" y1="1041.63" x2="1684.93" y2="1041.63"/><path class="cls-2" d="M1429.79,416.54A24.07,24.07,0,0,0,1442,420c6.94,0,11-3.67,11-9,0-4.92-2.8-7.72-9.9-10.45-8.58-3.05-13.89-7.49-13.89-14.9,0-8.19,6.79-14.28,17-14.28a23.83,23.83,0,0,1,11.62,2.58l-1.87,5.54a20.92,20.92,0,0,0-10-2.5c-7.17,0-9.9,4.29-9.9,7.88,0,4.91,3.2,7.33,10.45,10.14,8.89,3.43,13.42,7.72,13.42,15.44,0,8.11-6,15.13-18.41,15.13-5.07,0-10.61-1.48-13.42-3.35Z"/><path class="cls-2" d="M1477,376.21v10.84h9.83v5.23H1477v20.36c0,4.68,1.32,7.33,5.15,7.33a15.33,15.33,0,0,0,4-.47l.32,5.15a16.8,16.8,0,0,1-6.09.93c-3.2,0-5.77-1-7.41-2.88-2-2-2.65-5.38-2.65-9.83V392.28h-5.85v-5.23h5.85V378Z"/><path class="cls-2" d="M1515.43,424.81l-.54-4.76h-.24a14.05,14.05,0,0,1-11.54,5.61c-7.65,0-11.55-5.38-11.55-10.84,0-9.13,8.12-14.12,22.7-14V400c0-3.12-.86-8.74-8.58-8.74a18.9,18.9,0,0,0-9.83,2.81l-1.56-4.52a23.44,23.44,0,0,1,12.41-3.36c11.54,0,14.35,7.88,14.35,15.45v14.12a53.09,53.09,0,0,0,.62,9.05Zm-1-19.27c-7.49-.16-16,1.17-16,8.5,0,4.45,3,6.55,6.47,6.55a9.39,9.39,0,0,0,9.13-6.32,7.26,7.26,0,0,0,.39-2.18Zm-14.74-29.72c0-4.13,3-7.41,8-7.41,4.68,0,7.72,3.2,7.72,7.33s-3.35,7.18-7.8,7.18C1502.87,382.92,1499.68,379.8,1499.68,375.82Zm11.85-.16a4,4,0,0,0-4-4.29c-2.42,0-3.83,2-3.83,4.45a4,4,0,1,0,7.88-.16Z"/><path class="cls-2" d="M1582.82,405.62c0,14-9.67,20-18.8,20-10.21,0-18.09-7.49-18.09-19.42,0-12.64,8.27-20.05,18.72-20.05C1575.49,386.19,1582.82,394.07,1582.82,405.62Zm-30,.39c0,8.26,4.76,14.51,11.47,14.51,6.55,0,11.46-6.17,11.46-14.67,0-6.4-3.2-14.51-11.31-14.51S1552.87,398.83,1552.87,406Z"/><path class="cls-2" d="M1591.48,399.38c0-4.84-.16-8.74-.31-12.33h6.16l.31,6.48h.16a14.83,14.83,0,0,1,13.41-7.34c9.13,0,16,7.73,16,19.19,0,13.58-8.26,20.28-17.16,20.28-5,0-9.36-2.18-11.62-5.93h-.15v20.52h-6.79Zm6.79,10.06a15.2,15.2,0,0,0,.31,2.81,10.59,10.59,0,0,0,10.29,8c7.26,0,11.47-5.93,11.47-14.59,0-7.56-4-14-11.23-14a11,11,0,0,0-10.38,8.51,11.23,11.23,0,0,0-.46,2.8Z"/><path class="cls-2" d="M1280.12,613.72h6.78v25.35h.24c1.4-2,2.81-3.9,4.13-5.62l16.07-19.73h8.43l-19,22.3,20.52,30.27h-8l-17.31-25.82-5,5.77v20h-6.78Z"/><path class="cls-2" d="M1330.58,617.93a4.25,4.25,0,0,1-8.5,0,4.18,4.18,0,0,1,4.29-4.29A4.07,4.07,0,0,1,1330.58,617.93Zm-7.64,48.36V628.54h6.86v37.75Z"/><path class="cls-2" d="M1373.72,628.54c-.16,2.73-.31,5.77-.31,10.37v21.92c0,8.66-1.72,14-5.39,17.24s-9,4.52-13.72,4.52c-4.53,0-9.52-1.09-12.56-3.12l1.71-5.22a21.32,21.32,0,0,0,11.08,3c7,0,12.17-3.67,12.17-13.18v-4.21h-.16c-2.1,3.51-6.16,6.31-12,6.31-9.36,0-16.07-8-16.07-18.4,0-12.8,8.35-20.05,17-20.05,6.55,0,10.14,3.43,11.77,6.55h.16l.31-5.69Zm-7.1,14.9a10,10,0,0,0-10-10.38c-6.55,0-11.23,5.54-11.23,14.28,0,7.41,3.75,13.57,11.16,13.57a10,10,0,0,0,9.51-7,12,12,0,0,0,.55-3.67Z"/><path class="cls-2" d="M1432.92,656c0,3.9.08,7.34.31,10.3h-6.08l-.39-6.16h-.16a14.2,14.2,0,0,1-12.48,7c-5.93,0-13-3.28-13-16.54V628.54H1408v20.9c0,7.18,2.18,12,8.42,12a9.64,9.64,0,0,0,9.67-9.75V628.54h6.87Z"/><path class="cls-2" d="M1476.91,610.91v45.63c0,3.35.08,7.18.31,9.75h-6.16l-.31-6.55h-.16c-2.1,4.21-6.71,7.41-12.87,7.41-9.13,0-16.15-7.72-16.15-19.19-.07-12.56,7.73-20.28,16.93-20.28,5.77,0,9.67,2.73,11.39,5.77h.16V610.91Zm-6.86,33a11.83,11.83,0,0,0-.32-2.88,10.08,10.08,0,0,0-9.9-8c-7.1,0-11.31,6.24-11.31,14.59,0,7.64,3.74,14,11.15,14a10.31,10.31,0,0,0,10.06-8.19,11.64,11.64,0,0,0,.32-3Z"/><path class="cls-2" d="M1525.74,666.29l-.55-4.76H1525a14.07,14.07,0,0,1-11.55,5.62c-7.64,0-11.54-5.38-11.54-10.84,0-9.13,8.11-14.12,22.7-14v-.79c0-3.12-.86-8.73-8.58-8.73a18.78,18.78,0,0,0-9.83,2.81L1504.6,631a23.4,23.4,0,0,1,12.4-3.35c11.54,0,14.35,7.88,14.35,15.44v14.12a52.87,52.87,0,0,0,.63,9Zm-1-19.27c-7.49-.15-16,1.17-16,8.51,0,4.44,3,6.55,6.48,6.55a9.39,9.39,0,0,0,9.12-6.32,7,7,0,0,0,.39-2.18Z"/><path class="cls-2" d="M1543.13,666.29V633.76h-5.31v-5.22h5.31v-1.8c0-5.3,1.17-10.14,4.37-13.18a13.1,13.1,0,0,1,9.2-3.51,16,16,0,0,1,5.85,1.09l-.93,5.31a10.25,10.25,0,0,0-4.37-.86c-5.85,0-7.33,5.15-7.33,10.92v2H1559v5.22h-9.12v32.53Z"/><path class="cls-2" d="M1584.39,628.54l7.41,21.21a97.3,97.3,0,0,1,3,9.68h.24c.85-3.12,2-6.24,3.19-9.68l7.34-21.21h7.17L1598,666.29h-6.55l-14.35-37.75Z"/><path class="cls-2" d="M1626.9,617.93a4.25,4.25,0,0,1-8.5,0,4.18,4.18,0,0,1,4.29-4.29A4.07,4.07,0,0,1,1626.9,617.93Zm-7.65,48.36V628.54h6.87v37.75Z"/><path class="cls-2" d="M1637.51,638.75c0-3.9-.08-7.09-.32-10.21h6.09l.39,6.24h.15a13.89,13.89,0,0,1,12.48-7.1c5.23,0,13.34,3.12,13.34,16.07v22.54h-6.86V644.53c0-6.09-2.26-11.16-8.74-11.16a9.75,9.75,0,0,0-9.2,7,9.94,9.94,0,0,0-.47,3.2v22.7h-6.86Z"/><path class="cls-2" d="M1713.4,610.91v45.63c0,3.35.08,7.18.31,9.75h-6.16l-.31-6.55h-.16c-2.1,4.21-6.71,7.41-12.87,7.41-9.12,0-16.14-7.72-16.14-19.19-.08-12.56,7.72-20.28,16.92-20.28,5.77,0,9.67,2.73,11.39,5.77h.16V610.91Zm-6.86,33a11.83,11.83,0,0,0-.32-2.88,10.08,10.08,0,0,0-9.9-8c-7.1,0-11.31,6.24-11.31,14.59,0,7.64,3.74,14,11.15,14a10.31,10.31,0,0,0,10.06-8.19,11.64,11.64,0,0,0,.32-3Z"/><path class="cls-2" d="M1756.38,656c0,3.9.08,7.34.31,10.3h-6.08l-.39-6.16h-.16a14.2,14.2,0,0,1-12.48,7c-5.93,0-13-3.28-13-16.54V628.54h6.87v20.9c0,7.18,2.18,12,8.42,12a9.64,9.64,0,0,0,9.67-9.75V628.54h6.87Z"/><path class="cls-2" d="M1771.59,648.66c.15,9.28,6.08,13.11,13,13.11a24.88,24.88,0,0,0,10.45-1.95l1.17,4.91a30.61,30.61,0,0,1-12.56,2.34c-11.62,0-18.57-7.64-18.57-19s6.71-20.36,17.71-20.36c12.33,0,15.6,10.84,15.6,17.78a25.57,25.57,0,0,1-.23,3.2Zm20.12-4.91c.08-4.37-1.79-11.16-9.51-11.16-7,0-10,6.4-10.54,11.16Z"/><path class="cls-2" d="M1815.11,617.69v10.85h9.83v5.22h-9.83v20.36c0,4.68,1.33,7.33,5.15,7.33a15.58,15.58,0,0,0,4-.46l.31,5.14a16.72,16.72,0,0,1-6.09.94c-3.19,0-5.77-1-7.41-2.89-2-2-2.65-5.38-2.65-9.82v-20.6h-5.85v-5.22h5.85v-9Z"/><rect class="cls-1" x="279.49" y="1420.11" width="865.23" height="114.52" rx="22.79"/><rect class="cls-1" x="1829.75" y="1420.11" width="865.23" height="114.52" rx="22.79"/><rect class="cls-1" x="1069.5" y="1888.78" width="865.23" height="114.52" rx="22.79"/><rect class="cls-1" x="1069.5" y="2105.04" width="865.23" height="114.52" rx="22.79"/><path class="cls-2" d="M769.32,1005.3V943.13h14.27v4.29h-9V1001h9v4.29Z"/><path class="cls-2" d="M789.83,989.54a18,18,0,0,0,9,2.73c5,0,7.33-2.49,7.33-5.61,0-3.28-2-5.07-7-6.94-6.78-2.42-10-6.17-10-10.69,0-6.08,4.91-11.08,13-11.08a18.94,18.94,0,0,1,9.28,2.34l-1.72,5a14.64,14.64,0,0,0-7.72-2.19c-4.06,0-6.32,2.34-6.32,5.15,0,3.12,2.26,4.52,7.18,6.4,6.55,2.49,9.9,5.77,9.9,11.38,0,6.64-5.14,11.31-14.11,11.31a21.52,21.52,0,0,1-10.61-2.57Z"/><path class="cls-2" d="M855.82,977.38c0,14-9.67,20-18.8,20-10.21,0-18.09-7.49-18.09-19.42,0-12.64,8.27-20,18.72-20C848.49,958,855.82,965.83,855.82,977.38Zm-30,.39c0,8.26,4.76,14.5,11.47,14.5,6.55,0,11.46-6.16,11.46-14.66,0-6.4-3.2-14.51-11.31-14.51S825.87,970.59,825.87,977.77Z"/><path class="cls-2" d="M864.48,941.18h6.86v55.38h-6.86Z"/><path class="cls-2" d="M886.71,978.94c.15,9.28,6.08,13.1,12.95,13.1a24.84,24.84,0,0,0,10.45-1.95l1.17,4.91a30.45,30.45,0,0,1-12.56,2.34c-11.62,0-18.56-7.64-18.56-19s6.7-20.36,17.7-20.36c12.33,0,15.6,10.85,15.6,17.79a25.89,25.89,0,0,1-.23,3.2ZM906.83,974c.08-4.37-1.79-11.15-9.51-11.15-7,0-10,6.39-10.53,11.15Z"/><path class="cls-2" d="M922,969c0-3.9-.07-7.1-.31-10.22h6.09l.39,6.24h.15a13.88,13.88,0,0,1,12.48-7.1c5.23,0,13.34,3.12,13.34,16.07v22.54h-6.86V974.8c0-6.08-2.27-11.15-8.74-11.15a10.07,10.07,0,0,0-9.67,10.22v22.69H922Z"/><path class="cls-2" d="M980.85,989.54a18,18,0,0,0,9,2.73c5,0,7.33-2.49,7.33-5.61,0-3.28-2-5.07-7-6.94-6.78-2.42-10-6.17-10-10.69,0-6.08,4.91-11.08,13-11.08a19,19,0,0,1,9.29,2.34l-1.72,5a14.64,14.64,0,0,0-7.72-2.19c-4.06,0-6.32,2.34-6.32,5.15,0,3.12,2.26,4.52,7.18,6.4,6.55,2.49,9.9,5.77,9.9,11.38,0,6.64-5.14,11.31-14.12,11.31a21.5,21.5,0,0,1-10.6-2.57Z"/><path class="cls-2" d="M1019.46,976.13h.16c.93-1.33,2.26-3,3.35-4.29l11.08-13h8.27l-14.59,15.52,16.61,22.23H1036l-13-18.09-3.51,3.9v14.19h-6.78V941.18h6.78Z"/><path class="cls-2" d="M1058.23,948.2a4.25,4.25,0,0,1-8.5,0,4.18,4.18,0,0,1,4.29-4.29A4.08,4.08,0,0,1,1058.23,948.2Zm-7.65,48.36V958.81h6.87v37.75Z"/><path class="cls-2" d="M1068.84,969c0-3.9-.08-7.1-.32-10.22h6.09l.39,6.24h.15a13.89,13.89,0,0,1,12.48-7.1c5.23,0,13.34,3.12,13.34,16.07v22.54h-6.86V974.8c0-6.08-2.26-11.15-8.74-11.15a9.75,9.75,0,0,0-9.2,7,9.94,9.94,0,0,0-.47,3.2v22.69h-6.86Z"/><path class="cls-2" d="M1112.12,969c0-3.9-.07-7.1-.31-10.22h6.09l.39,6.24h.15a13.88,13.88,0,0,1,12.48-7.1c5.23,0,13.34,3.12,13.34,16.07v22.54h-6.86V974.8c0-6.08-2.27-11.15-8.74-11.15a10.07,10.07,0,0,0-9.67,10.22v22.69h-6.87Z"/><path class="cls-2" d="M1159.24,978.94c.15,9.28,6.08,13.1,12.94,13.1a24.89,24.89,0,0,0,10.46-1.95l1.17,4.91a30.49,30.49,0,0,1-12.56,2.34c-11.62,0-18.57-7.64-18.57-19s6.71-20.36,17.71-20.36c12.32,0,15.6,10.85,15.6,17.79a28.05,28.05,0,0,1-.23,3.2Zm20.12-4.92c.08-4.37-1.79-11.15-9.52-11.15-6.94,0-10,6.39-10.53,11.15Z"/><path class="cls-2" d="M1194.49,970.59c0-4.45-.08-8.27-.31-11.78h6l.23,7.41h.31c1.72-5.07,5.85-8.27,10.45-8.27a7.23,7.23,0,0,1,2,.24v6.47a10.65,10.65,0,0,0-2.34-.23c-4.83,0-8.26,3.66-9.2,8.81a19,19,0,0,0-.31,3.2v20.12h-6.79Z"/><path class="cls-2" d="M1230.06,943.05v62.25h-14.28V1001h9V947.35h-9v-4.3Z"/><path class="cls-2" d="M1851.3,1005.3V943.13h14.28v4.29h-9V1001h9v4.29Z"/><path class="cls-2" d="M1905.36,941.18v45.63c0,3.36.07,7.18.31,9.75h-6.16l-.32-6.55H1899c-2.11,4.21-6.71,7.41-12.87,7.41-9.13,0-16.15-7.72-16.15-19.19-.08-12.55,7.72-20.28,16.93-20.28,5.77,0,9.67,2.73,11.39,5.78h.15V941.18Zm-6.87,33a12.36,12.36,0,0,0-.31-2.89,10.09,10.09,0,0,0-9.91-7.95c-7.09,0-11.31,6.24-11.31,14.58,0,7.65,3.75,14,11.16,14a10.32,10.32,0,0,0,10.06-8.19,12.06,12.06,0,0,0,.31-3Z"/><path class="cls-2" d="M1920.56,978.94c.16,9.28,6.09,13.1,13,13.1a24.89,24.89,0,0,0,10.46-1.95l1.17,4.91a30.49,30.49,0,0,1-12.56,2.34c-11.63,0-18.57-7.64-18.57-19s6.71-20.36,17.71-20.36c12.32,0,15.6,10.85,15.6,17.79a28.05,28.05,0,0,1-.23,3.2Zm20.13-4.92c.08-4.37-1.79-11.15-9.52-11.15-6.94,0-10,6.39-10.53,11.15Z"/><path class="cls-2" d="M1964.09,948v10.84h9.83V964h-9.83V984.4c0,4.68,1.32,7.33,5.15,7.33a15.33,15.33,0,0,0,4-.47l.32,5.15a16.8,16.8,0,0,1-6.09.93c-3.2,0-5.77-1-7.41-2.88-2-2-2.65-5.38-2.65-9.83V964h-5.85v-5.23h5.85v-9Z"/><path class="cls-2" d="M1998.17,970.59c0-4.45-.08-8.27-.31-11.78h6l.23,7.41h.31c1.72-5.07,5.85-8.27,10.45-8.27a7.3,7.3,0,0,1,2,.24v6.47a10.78,10.78,0,0,0-2.34-.23c-4.84,0-8.27,3.66-9.21,8.81a19,19,0,0,0-.31,3.2v20.12h-6.79Z"/><path class="cls-2" d="M2026.72,978.94c.16,9.28,6.08,13.1,13,13.1a24.84,24.84,0,0,0,10.45-1.95l1.17,4.91a30.45,30.45,0,0,1-12.56,2.34c-11.62,0-18.56-7.64-18.56-19s6.71-20.36,17.71-20.36c12.32,0,15.6,10.85,15.6,17.79a25.49,25.49,0,0,1-.24,3.2Zm20.13-4.92c.07-4.37-1.8-11.15-9.52-11.15-6.94,0-10,6.39-10.53,11.15Z"/><path class="cls-2" d="M2094.5,958.81c-.15,2.73-.31,5.77-.31,10.38V991.1c0,8.66-1.72,14-5.38,17.24-3.67,3.44-9,4.53-13.73,4.53-4.52,0-9.52-1.09-12.56-3.12l1.72-5.23a21.24,21.24,0,0,0,11.07,3c7,0,12.17-3.67,12.17-13.19v-4.21h-.15c-2.11,3.51-6.17,6.32-12,6.32-9.36,0-16.06-8-16.06-18.41,0-12.79,8.34-20,17-20,6.55,0,10.14,3.44,11.78,6.56h.15l.32-5.7Zm-7.1,14.9a9.57,9.57,0,0,0-.39-3.12,9.87,9.87,0,0,0-9.59-7.25c-6.55,0-11.23,5.53-11.23,14.27,0,7.41,3.74,13.57,11.15,13.57a10,10,0,0,0,9.52-7,11.9,11.9,0,0,0,.54-3.66Z"/><path class="cls-2" d="M2105.11,969c0-3.9-.08-7.1-.31-10.22h6.08l.39,6.24h.16a13.88,13.88,0,0,1,12.48-7.1c5.22,0,13.34,3.12,13.34,16.07v22.54h-6.87V974.8c0-6.08-2.26-11.15-8.73-11.15a9.76,9.76,0,0,0-9.21,7,9.94,9.94,0,0,0-.47,3.2v22.69h-6.86Z"/><path class="cls-2" d="M2152.22,978.94c.16,9.28,6.08,13.1,13,13.1a24.84,24.84,0,0,0,10.45-1.95l1.17,4.91a30.45,30.45,0,0,1-12.56,2.34c-11.62,0-18.56-7.64-18.56-19s6.71-20.36,17.71-20.36c12.32,0,15.6,10.85,15.6,17.79a25.49,25.49,0,0,1-.24,3.2Zm20.13-4.92c.07-4.37-1.8-11.15-9.52-11.15-6.94,0-10,6.39-10.53,11.15Z"/><path class="cls-2" d="M2187.48,970.59c0-4.45-.08-8.27-.32-11.78h6l.23,7.41h.32c1.71-5.07,5.85-8.27,10.45-8.27a7.28,7.28,0,0,1,1.95.24v6.47a10.71,10.71,0,0,0-2.34-.23c-4.84,0-8.27,3.66-9.21,8.81a20.07,20.07,0,0,0-.31,3.2v20.12h-6.78Z"/><path class="cls-2" d="M2223,943.05v62.25h-14.27V1001h9V947.35h-9v-4.3Z"/><path class="cls-2" d="M1975.37,1452.16h-16v-5.77h38.92v5.77h-16.06V1499h-6.87Z"/><path class="cls-2" d="M2019.83,1499l-.54-4.76h-.24a14.05,14.05,0,0,1-11.54,5.61c-7.65,0-11.55-5.38-11.55-10.84,0-9.13,8.11-14.12,22.7-14v-.78c0-3.12-.86-8.74-8.58-8.74a18.87,18.87,0,0,0-9.83,2.81l-1.56-4.52a23.43,23.43,0,0,1,12.4-3.36c11.55,0,14.36,7.88,14.36,15.45v14.12a53.09,53.09,0,0,0,.62,9Zm-1-19.27c-7.49-.16-16,1.17-16,8.5,0,4.45,3,6.55,6.47,6.55a9.39,9.39,0,0,0,9.13-6.31,7.38,7.38,0,0,0,.39-2.19Z"/><path class="cls-2" d="M2069.05,1461.21c-.16,2.73-.31,5.77-.31,10.38v21.91c0,8.66-1.72,14-5.38,17.24-3.67,3.44-9,4.53-13.73,4.53-4.53,0-9.52-1.09-12.56-3.12l1.71-5.23a21.31,21.31,0,0,0,11.08,3c7,0,12.17-3.67,12.17-13.19v-4.21h-.16c-2.1,3.51-6.16,6.32-12,6.32-9.36,0-16.07-8-16.07-18.41,0-12.79,8.35-20.05,17-20.05,6.55,0,10.14,3.44,11.78,6.56h.15l.31-5.7Zm-7.1,14.9a10,10,0,0,0-10-10.37c-6.56,0-11.24,5.53-11.24,14.27,0,7.41,3.75,13.57,11.16,13.57a10,10,0,0,0,9.52-7,11.9,11.9,0,0,0,.54-3.66Z"/><path class="cls-2" d="M2096.66,1443.58h6.86V1499h-6.86Z"/><path class="cls-2" d="M2136,1499l-.54-4.76h-.24a14.05,14.05,0,0,1-11.54,5.61c-7.65,0-11.55-5.38-11.55-10.84,0-9.13,8.11-14.12,22.7-14v-.78c0-3.12-.86-8.74-8.58-8.74a18.87,18.87,0,0,0-9.83,2.81l-1.56-4.52a23.43,23.43,0,0,1,12.4-3.36c11.55,0,14.36,7.88,14.36,15.45v14.12a53.09,53.09,0,0,0,.62,9Zm-1-19.27c-7.49-.16-16,1.17-16,8.5,0,4.45,3,6.55,6.47,6.55a9.41,9.41,0,0,0,9.13-6.31,7.38,7.38,0,0,0,.39-2.19Z"/><path class="cls-2" d="M2152.66,1471.43c0-3.9-.08-7.1-.31-10.22h6.08l.39,6.24h.16a13.88,13.88,0,0,1,12.48-7.1c5.23,0,13.34,3.12,13.34,16.07V1499h-6.87V1477.2c0-6.08-2.26-11.15-8.73-11.15a9.76,9.76,0,0,0-9.21,7,10,10,0,0,0-.46,3.2V1499h-6.87Z"/><path class="cls-2" d="M2228.48,1461.21c-.16,2.73-.31,5.77-.31,10.38v21.91c0,8.66-1.72,14-5.39,17.24-3.66,3.44-9,4.53-13.72,4.53-4.53,0-9.52-1.09-12.56-3.12l1.71-5.23a21.31,21.31,0,0,0,11.08,3c7,0,12.17-3.67,12.17-13.19v-4.21h-.16c-2.1,3.51-6.16,6.32-12,6.32-9.36,0-16.07-8-16.07-18.41,0-12.79,8.35-20.05,17-20.05,6.55,0,10.14,3.44,11.77,6.56h.16l.31-5.7Zm-7.1,14.9a10,10,0,0,0-10-10.37c-6.56,0-11.24,5.53-11.24,14.27,0,7.41,3.75,13.57,11.16,13.57a10,10,0,0,0,9.51-7,11.91,11.91,0,0,0,.55-3.66Z"/><path class="cls-2" d="M2243.38,1481.34c.15,9.28,6.08,13.1,12.94,13.1a24.89,24.89,0,0,0,10.46-2l1.17,4.92a30.65,30.65,0,0,1-12.56,2.34c-11.63,0-18.57-7.65-18.57-19s6.71-20.36,17.71-20.36c12.32,0,15.6,10.85,15.6,17.79a28.05,28.05,0,0,1-.23,3.2Zm20.12-4.92c.08-4.37-1.79-11.15-9.52-11.15-6.94,0-10,6.39-10.53,11.15Z"/><path class="cls-2" d="M2294.85,1499c.16-2.58.32-6.4.32-9.76v-45.63H2302v23.72h.16c2.42-4.22,6.78-7,12.87-7,9.36,0,16,7.8,15.91,19.27,0,13.5-8.5,20.2-16.93,20.2-5.46,0-9.83-2.1-12.63-7.09h-.24l-.31,6.24Zm7.1-15.14a13.35,13.35,0,0,0,.31,2.5,10.6,10.6,0,0,0,10.3,8c7.18,0,11.47-5.85,11.47-14.51,0-7.56-3.9-14-11.24-14a11,11,0,0,0-10.45,8.43,13.21,13.21,0,0,0-.39,2.81Z"/><path class="cls-2" d="M2371.14,1488.67c0,3.9.08,7.33.31,10.3h-6.09l-.39-6.17h-.15a14.19,14.19,0,0,1-12.48,7c-5.93,0-13-3.27-13-16.53v-22.08h6.87v20.91c0,7.17,2.18,12,8.42,12a9.64,9.64,0,0,0,9.67-9.75v-23.17h6.87Z"/><path class="cls-2" d="M2389.31,1478.53h.16c.93-1.33,2.26-3,3.35-4.29l11.08-13h8.26l-14.58,15.52,16.61,22.24h-8.34l-13-18.1-3.51,3.9V1499h-6.79v-55.39h6.79Z"/><path class="cls-2" d="M2418.17,1492a18.07,18.07,0,0,0,9,2.73c5,0,7.33-2.5,7.33-5.62,0-3.28-2-5.07-7-6.94-6.79-2.42-10-6.17-10-10.69,0-6.08,4.91-11.08,13-11.08a18.91,18.91,0,0,1,9.28,2.34l-1.71,5a14.64,14.64,0,0,0-7.72-2.19c-4.06,0-6.32,2.34-6.32,5.15,0,3.12,2.26,4.52,7.17,6.4,6.56,2.49,9.91,5.77,9.91,11.39,0,6.63-5.15,11.31-14.12,11.31a21.54,21.54,0,0,1-10.61-2.58Z"/><path class="cls-2" d="M2453.81,1481.34c.16,9.28,6.09,13.1,13,13.1a24.89,24.89,0,0,0,10.46-2l1.17,4.92a30.65,30.65,0,0,1-12.56,2.34c-11.63,0-18.57-7.65-18.57-19s6.71-20.36,17.71-20.36c12.32,0,15.6,10.85,15.6,17.79a28.05,28.05,0,0,1-.23,3.2Zm20.13-4.92c.08-4.37-1.79-11.15-9.52-11.15-6.94,0-10,6.39-10.53,11.15Z"/><path class="cls-2" d="M2489.07,1473c0-4.45-.08-8.27-.31-11.78h6l.24,7.41h.31c1.72-5.07,5.85-8.27,10.45-8.27a7.23,7.23,0,0,1,1.95.24v6.47a10.65,10.65,0,0,0-2.34-.23c-4.83,0-8.27,3.66-9.2,8.81a19,19,0,0,0-.31,3.2V1499h-6.79Z"/><path class="cls-2" d="M2531.11,1473.54c0-4.84-.16-8.74-.31-12.33H2537l.31,6.48h.16a14.83,14.83,0,0,1,13.42-7.34c9.12,0,16,7.73,16,19.19,0,13.58-8.27,20.28-17.16,20.28-5,0-9.37-2.18-11.63-5.92h-.15v20.51h-6.79Zm6.79,10.06a15.2,15.2,0,0,0,.31,2.81,10.59,10.59,0,0,0,10.3,8c7.25,0,11.46-5.93,11.46-14.59,0-7.56-4-14-11.23-14a11,11,0,0,0-10.37,8.51,10.8,10.8,0,0,0-.47,2.8Z"/><path class="cls-2" d="M2596.4,1499l-.55-4.76h-.23a14.09,14.09,0,0,1-11.55,5.61c-7.64,0-11.54-5.38-11.54-10.84,0-9.13,8.11-14.12,22.7-14v-.78c0-3.12-.86-8.74-8.58-8.74a18.87,18.87,0,0,0-9.83,2.81l-1.56-4.52a23.4,23.4,0,0,1,12.4-3.36c11.54,0,14.35,7.88,14.35,15.45v14.12a53,53,0,0,0,.63,9Zm-1-19.27c-7.49-.16-16,1.17-16,8.5,0,4.45,3,6.55,6.48,6.55a9.39,9.39,0,0,0,9.12-6.31,7.07,7.07,0,0,0,.39-2.19ZM2580.64,1450c0-4.13,3-7.41,8-7.41,4.68,0,7.72,3.2,7.72,7.33s-3.36,7.18-7.8,7.18C2583.84,1457.08,2580.64,1454,2580.64,1450Zm11.86-.16a4,4,0,0,0-4.06-4.29c-2.42,0-3.82,2-3.82,4.45a4,4,0,1,0,7.88-.16Z"/><path class="cls-2" d="M500.08,1452.16h-16v-5.77H523v5.77H507V1499h-6.87Z"/><path class="cls-2" d="M544.54,1499l-.54-4.76h-.24a14.05,14.05,0,0,1-11.54,5.61c-7.64,0-11.54-5.38-11.54-10.84,0-9.13,8.11-14.12,22.69-14v-.78c0-3.12-.85-8.74-8.58-8.74a18.83,18.83,0,0,0-9.82,2.81l-1.56-4.52a23.4,23.4,0,0,1,12.4-3.36c11.54,0,14.35,7.88,14.35,15.45v14.12a54.13,54.13,0,0,0,.62,9Zm-1-19.27c-7.49-.16-16,1.17-16,8.5,0,4.45,3,6.55,6.47,6.55a9.39,9.39,0,0,0,9.13-6.31,7.38,7.38,0,0,0,.39-2.19Z"/><path class="cls-2" d="M593.76,1461.21c-.15,2.73-.31,5.77-.31,10.38v21.91c0,8.66-1.72,14-5.38,17.24-3.67,3.44-9,4.53-13.73,4.53-4.52,0-9.52-1.09-12.56-3.12l1.72-5.23a21.24,21.24,0,0,0,11.07,3c7,0,12.17-3.67,12.17-13.19v-4.21h-.15c-2.11,3.51-6.17,6.32-12,6.32-9.36,0-16.07-8-16.07-18.41,0-12.79,8.35-20.05,17-20.05,6.55,0,10.14,3.44,11.78,6.56h.15l.32-5.7Zm-7.1,14.9a9.57,9.57,0,0,0-.39-3.12,9.87,9.87,0,0,0-9.59-7.25c-6.55,0-11.23,5.53-11.23,14.27,0,7.41,3.74,13.57,11.15,13.57a10,10,0,0,0,9.52-7,11.9,11.9,0,0,0,.54-3.66Z"/><path class="cls-2" d="M620.44,1492a18,18,0,0,0,9,2.73c5,0,7.34-2.5,7.34-5.62,0-3.28-2-5.07-7-6.94-6.79-2.42-10-6.17-10-10.69,0-6.08,4.92-11.08,13-11.08a18.94,18.94,0,0,1,9.28,2.34l-1.72,5a14.64,14.64,0,0,0-7.72-2.19c-4,0-6.32,2.34-6.32,5.15,0,3.12,2.27,4.52,7.18,6.4,6.55,2.49,9.91,5.77,9.91,11.39,0,6.63-5.15,11.31-14.12,11.31a21.51,21.51,0,0,1-10.61-2.58Z"/><path class="cls-2" d="M652.26,1443.58h6.86v23.56h.16a12.76,12.76,0,0,1,4.91-4.84,14.14,14.14,0,0,1,7-2c5.07,0,13.19,3.12,13.19,16.15V1499h-6.87v-21.69c0-6.08-2.26-11.23-8.73-11.23a9.87,9.87,0,0,0-9.21,6.86,8.33,8.33,0,0,0-.47,3.28V1499h-6.86Z"/><path class="cls-2" d="M729.71,1479.78c0,14-9.67,20-18.8,20-10.21,0-18.09-7.49-18.09-19.42,0-12.64,8.27-20.05,18.72-20.05C722.38,1460.35,729.71,1468.23,729.71,1479.78Zm-30,.39c0,8.27,4.76,14.51,11.47,14.51,6.55,0,11.46-6.17,11.46-14.67,0-6.4-3.19-14.51-11.31-14.51S699.76,1473,699.76,1480.17Z"/><path class="cls-2" d="M738.37,1473c0-4.45-.08-8.27-.31-11.78h6l.24,7.41h.31c1.72-5.07,5.85-8.27,10.45-8.27a7.23,7.23,0,0,1,2,.24v6.47a10.65,10.65,0,0,0-2.34-.23c-4.83,0-8.27,3.66-9.2,8.81a19,19,0,0,0-.31,3.2V1499h-6.79Z"/><path class="cls-2" d="M774,1450.37v10.84h9.83v5.23H774v20.36c0,4.68,1.33,7.33,5.15,7.33a15,15,0,0,0,4-.47l.31,5.15a16.66,16.66,0,0,1-6.08.94c-3.2,0-5.77-1-7.41-2.89-2-2-2.65-5.38-2.65-9.83v-20.59h-5.85v-5.23h5.85v-9Z"/><path class="cls-2" d="M790.63,1492a18,18,0,0,0,9,2.73c5,0,7.33-2.5,7.33-5.62,0-3.28-2-5.07-7-6.94-6.79-2.42-10-6.17-10-10.69,0-6.08,4.92-11.08,13-11.08a18.91,18.91,0,0,1,9.28,2.34l-1.71,5a14.71,14.71,0,0,0-7.73-2.19c-4,0-6.31,2.34-6.31,5.15,0,3.12,2.26,4.52,7.17,6.4,6.55,2.49,9.91,5.77,9.91,11.39,0,6.63-5.15,11.31-14.12,11.31a21.54,21.54,0,0,1-10.61-2.58Z"/><path class="cls-2" d="M839,1473.54c0-4.84-.16-8.74-.31-12.33h6.16l.31,6.48h.16a14.82,14.82,0,0,1,13.41-7.34c9.13,0,16,7.73,16,19.19,0,13.58-8.27,20.28-17.16,20.28-5,0-9.36-2.18-11.62-5.92h-.16v20.51H839Zm6.78,10.06a15.17,15.17,0,0,0,.32,2.81,10.58,10.58,0,0,0,10.29,8c7.26,0,11.47-5.93,11.47-14.59,0-7.56-4-14-11.23-14a11,11,0,0,0-10.38,8.51,11.24,11.24,0,0,0-.47,2.8Z"/><path class="cls-2" d="M904.27,1499l-.54-4.76h-.24a14.05,14.05,0,0,1-11.54,5.61c-7.65,0-11.55-5.38-11.55-10.84,0-9.13,8.12-14.12,22.7-14v-.78c0-3.12-.86-8.74-8.58-8.74a18.9,18.9,0,0,0-9.83,2.81l-1.56-4.52a23.44,23.44,0,0,1,12.41-3.36c11.54,0,14.35,7.88,14.35,15.45v14.12a54.13,54.13,0,0,0,.62,9Zm-1-19.27c-7.49-.16-16,1.17-16,8.5,0,4.45,3,6.55,6.47,6.55a9.39,9.39,0,0,0,9.13-6.31,7.38,7.38,0,0,0,.39-2.19ZM888.52,1450c0-4.13,3-7.41,8-7.41,4.68,0,7.73,3.2,7.73,7.33s-3.36,7.18-7.81,7.18C891.71,1457.08,888.52,1454,888.52,1450Zm11.85-.16a4,4,0,0,0-4-4.29c-2.42,0-3.83,2-3.83,4.45a4,4,0,1,0,7.88-.16Z"/><path class="cls-2" d="M1355.21,1920.77h-16V1915h38.92v5.77h-16.07v46.8h-6.86Z"/><path class="cls-2" d="M1399.67,1967.57l-.55-4.75h-.23a14.07,14.07,0,0,1-11.54,5.61c-7.65,0-11.55-5.38-11.55-10.84,0-9.13,8.11-14.12,22.7-14v-.78c0-3.12-.86-8.74-8.58-8.74a18.78,18.78,0,0,0-9.83,2.81l-1.56-4.52a23.43,23.43,0,0,1,12.4-3.36c11.55,0,14.36,7.88,14.36,15.45v14.12a52.89,52.89,0,0,0,.62,9Zm-1-19.26c-7.49-.16-16,1.17-16,8.5,0,4.45,3,6.55,6.47,6.55a9.41,9.41,0,0,0,9.13-6.32,7.26,7.26,0,0,0,.39-2.18Z"/><path class="cls-2" d="M1448.89,1929.82c-.16,2.73-.31,5.77-.31,10.37v21.92c0,8.66-1.72,14-5.39,17.24-3.66,3.43-9,4.53-13.72,4.53-4.53,0-9.52-1.1-12.56-3.12l1.71-5.23a21.32,21.32,0,0,0,11.08,3c7,0,12.17-3.66,12.17-13.18v-4.21h-.16c-2.1,3.51-6.16,6.32-12,6.32-9.36,0-16.07-8-16.07-18.41,0-12.79,8.35-20,17-20,6.55,0,10.14,3.43,11.77,6.55h.16l.31-5.69Zm-7.1,14.9a10.05,10.05,0,0,0-10-10.38c-6.56,0-11.24,5.54-11.24,14.28,0,7.41,3.75,13.57,11.16,13.57a10,10,0,0,0,9.51-7,11.93,11.93,0,0,0,.55-3.67Z"/><path class="cls-2" d="M1475.56,1960.55a18,18,0,0,0,9,2.73c5,0,7.33-2.49,7.33-5.61,0-3.28-2-5.07-7-6.94-6.78-2.42-10-6.17-10-10.69,0-6.09,4.91-11.08,13-11.08a18.84,18.84,0,0,1,9.29,2.34l-1.72,5a14.74,14.74,0,0,0-7.72-2.18c-4.06,0-6.32,2.34-6.32,5.15,0,3.12,2.26,4.52,7.18,6.39,6.55,2.5,9.9,5.78,9.9,11.39,0,6.63-5.15,11.31-14.12,11.31a21.5,21.5,0,0,1-10.6-2.57Z"/><path class="cls-2" d="M1514.17,1947.14h.16c.93-1.33,2.26-3,3.35-4.29l11.08-13H1537l-14.59,15.52,16.61,22.23h-8.34l-13-18.09-3.51,3.9v14.19h-6.78v-55.38h6.78Z"/><path class="cls-2" d="M1578.13,1948.38c0,14-9.67,20-18.8,20-10.22,0-18.09-7.49-18.09-19.42,0-12.64,8.27-20,18.72-20C1570.8,1929,1578.13,1936.84,1578.13,1948.38Zm-30,.39c0,8.27,4.76,14.51,11.47,14.51,6.55,0,11.46-6.16,11.46-14.66,0-6.4-3.2-14.51-11.31-14.51S1548.18,1941.6,1548.18,1948.77Z"/><path class="cls-2" d="M1603.32,1942.14c0-4.83-.15-8.73-.31-12.32h6.16l.32,6.47h.15a14.86,14.86,0,0,1,13.42-7.33c9.12,0,16,7.72,16,19.19,0,13.57-8.27,20.28-17.16,20.28-5,0-9.36-2.18-11.62-5.93h-.16V1983h-6.79Zm6.79,10.07a16.1,16.1,0,0,0,.31,2.81,10.6,10.6,0,0,0,10.3,8c7.25,0,11.46-5.93,11.46-14.59,0-7.56-4-14-11.23-14a11.9,11.9,0,0,0-10.84,11.31Z"/><path class="cls-2" d="M1668.61,1967.57l-.55-4.75h-.23a14.07,14.07,0,0,1-11.55,5.61c-7.64,0-11.54-5.38-11.54-10.84,0-9.13,8.11-14.12,22.7-14v-.78c0-3.12-.86-8.74-8.58-8.74a18.78,18.78,0,0,0-9.83,2.81l-1.56-4.52a23.4,23.4,0,0,1,12.4-3.36c11.55,0,14.36,7.88,14.36,15.45v14.12a52.89,52.89,0,0,0,.62,9Zm-1-19.26c-7.49-.16-16,1.17-16,8.5,0,4.45,3,6.55,6.48,6.55a9.41,9.41,0,0,0,9.13-6.32,7.26,7.26,0,0,0,.39-2.18Zm-14.75-29.72c0-4.14,3-7.41,8-7.41,4.68,0,7.72,3.2,7.72,7.33s-3.35,7.18-7.8,7.18C1656.05,1925.69,1652.85,1922.57,1652.85,1918.59Zm11.86-.16a4,4,0,0,0-4.06-4.29c-2.41,0-3.82,2-3.82,4.45a4,4,0,1,0,7.88-.16Z"/><path class="cls-2" d="M1467.05,2177.12a49.07,49.07,0,0,1-16.15,2.89c-8,0-14.51-2-19.66-6.94-4.52-4.37-7.33-11.39-7.33-19.58.08-15.68,10.84-27.15,28.47-27.15a32.57,32.57,0,0,1,13.11,2.42l-1.64,5.54a27.23,27.23,0,0,0-11.62-2.26c-12.8,0-21.14,7.95-21.14,21.14s8,21.21,20.28,21.21c4.44,0,7.49-.62,9.05-1.4v-15.68h-10.69v-5.46h17.32Z"/><path class="cls-2" d="M1498.71,2179.46l-.54-4.76h-.24a14,14,0,0,1-11.54,5.62c-7.65,0-11.55-5.38-11.55-10.84,0-9.13,8.12-14.12,22.7-14v-.78c0-3.12-.86-8.74-8.58-8.74a18.8,18.8,0,0,0-9.83,2.81l-1.56-4.52a23.44,23.44,0,0,1,12.41-3.36c11.54,0,14.35,7.88,14.35,15.45v14.11a52.94,52.94,0,0,0,.62,9.05Zm-1-19.26c-7.49-.16-16,1.17-16,8.5,0,4.44,3,6.55,6.47,6.55a9.39,9.39,0,0,0,9.13-6.32,7.26,7.26,0,0,0,.39-2.18ZM1483,2130.48c0-4.14,3-7.41,8-7.41,4.68,0,7.72,3.19,7.72,7.33s-3.35,7.17-7.8,7.17C1486.15,2137.57,1483,2134.45,1483,2130.48Zm11.85-.16a4,4,0,0,0-4-4.29c-2.42,0-3.83,2-3.83,4.45a4,4,0,1,0,7.88-.16Z"/><path class="cls-2" d="M1563.53,2169.17c0,3.9.08,7.33.31,10.29h-6.08l-.39-6.16h-.16a14.2,14.2,0,0,1-12.48,7c-5.93,0-13-3.28-13-16.54v-22.07h6.87v20.9c0,7.18,2.18,12,8.42,12a9.92,9.92,0,0,0,9-6.24,10.1,10.1,0,0,0,.63-3.51v-23.17h6.86Z"/><path class="cls-2" d="M1607.52,2124.08v45.63c0,3.36.08,7.18.31,9.75h-6.16l-.31-6.55h-.16c-2.1,4.21-6.7,7.41-12.87,7.41-9.12,0-16.14-7.72-16.14-19.19-.08-12.56,7.72-20.28,16.92-20.28,5.77,0,9.68,2.73,11.39,5.77h.16v-22.54Zm-6.86,33a11.86,11.86,0,0,0-.32-2.89,10.08,10.08,0,0,0-9.9-8c-7.1,0-11.31,6.24-11.31,14.59,0,7.64,3.74,14,11.15,14a10.31,10.31,0,0,0,10.06-8.19,11.59,11.59,0,0,0,.32-3Z"/><path class="cls-2" d="M1502.12,2340.3a136.06,136.06,0,1,1-96.19,39.85,135.11,135.11,0,0,1,96.19-39.85m0-4a140,140,0,1,0,140,140,140,140,0,0,0-140-140Z"/><circle class="cls-2" cx="1502.12" cy="2476.34" r="107.41"/><circle class="cls-2" cx="1502.12" cy="117.55" r="81.02"/><rect class="cls-1" x="1367.37" y="906.88" width="269.5" height="269.5" transform="translate(1176.5 -757.07) rotate(45)"/><path class="cls-2" d="M2411,101.65l-5.25,15.9H2399L2416.17,67h7.88l17.25,50.55h-7l-5.4-15.9Zm16.57-5.1-5-14.55c-1.12-3.3-1.87-6.3-2.62-9.22h-.15c-.75,3-1.58,6.07-2.55,9.15l-5,14.62Z"/><path class="cls-2" d="M2448.28,91.07c0-3.74-.08-6.82-.3-9.82h5.84l.38,6h.15a13.35,13.35,0,0,1,12-6.82c5,0,12.82,3,12.82,15.44v21.68h-6.6V96.62c0-5.85-2.17-10.72-8.4-10.72a9.39,9.39,0,0,0-8.85,6.75,9.75,9.75,0,0,0-.44,3.07v21.83h-6.6Z"/><path class="cls-2" d="M2521.25,64.3v43.87c0,3.23.07,6.9.3,9.38h-5.93l-.3-6.3h-.15c-2,4-6.45,7.12-12.37,7.12-8.78,0-15.52-7.42-15.52-18.45-.08-12.07,7.42-19.49,16.27-19.49,5.55,0,9.3,2.62,10.95,5.55h.15V64.3ZM2514.65,96a11.87,11.87,0,0,0-.3-2.77,9.72,9.72,0,0,0-9.53-7.65c-6.82,0-10.87,6-10.87,14,0,7.35,3.6,13.43,10.72,13.43a9.93,9.93,0,0,0,9.68-7.88,11.71,11.71,0,0,0,.3-2.85Z"/><path class="cls-2" d="M2532.2,92.57c0-4.27-.08-7.94-.3-11.32h5.77l.23,7.13h.3c1.65-4.88,5.62-7.95,10.05-7.95a7.11,7.11,0,0,1,1.87.22v6.23a9.86,9.86,0,0,0-2.25-.23c-4.65,0-7.95,3.52-8.85,8.47a18.59,18.59,0,0,0-.3,3.08v19.35h-6.52Z"/><path class="cls-2" d="M2559.65,100.6c.15,8.92,5.85,12.6,12.45,12.6a23.89,23.89,0,0,0,10.05-1.88l1.12,4.73a29.37,29.37,0,0,1-12.07,2.25c-11.18,0-17.85-7.35-17.85-18.3s6.45-19.57,17-19.57c11.85,0,15,10.42,15,17.09a26.36,26.36,0,0,1-.22,3.08ZM2579,95.87c.07-4.2-1.73-10.72-9.15-10.72-6.68,0-9.6,6.15-10.13,10.72Z"/><path class="cls-2" d="M2616,97.9h.15c.9-1.28,2.18-2.85,3.23-4.13L2630,81.25H2638l-14,14.92,16,21.38h-8l-12.52-17.4L2616,103.9v13.65h-6.52V64.3H2616Z"/><path class="cls-2" d="M2677.47,99.1c0,13.42-9.3,19.27-18.07,19.27-9.83,0-17.4-7.2-17.4-18.67,0-12.15,7.95-19.27,18-19.27C2670.42,80.43,2677.47,88,2677.47,99.1Zm-28.8.37c0,8,4.58,14,11,14s11-5.92,11-14.1c0-6.15-3.07-13.94-10.87-13.94S2648.67,92.57,2648.67,99.47Z"/><path class="cls-2" d="M2685.8,91.07c0-3.74-.08-6.82-.3-9.82h5.77l.3,5.85h.23a12.5,12.5,0,0,1,11.4-6.67,10.72,10.72,0,0,1,10.27,7.27h.15a15,15,0,0,1,4.05-4.72,12.41,12.41,0,0,1,8-2.55c4.8,0,11.92,3.15,11.92,15.74v21.38h-6.45V97c0-7-2.55-11.17-7.87-11.17a8.54,8.54,0,0,0-7.8,6,10.86,10.86,0,0,0-.53,3.3v22.43h-6.45V95.8c0-5.78-2.55-10-7.57-10-4.13,0-7.13,3.3-8.18,6.59a9.24,9.24,0,0,0-.52,3.23v21.9h-6.45Z"/><path class="cls-2" d="M2748.35,93.1c0-4.65-.15-8.4-.3-11.85H2754l.3,6.23h.15a14.27,14.27,0,0,1,12.9-7c8.78,0,15.38,7.42,15.38,18.44,0,13-7.95,19.5-16.5,19.5-4.8,0-9-2.1-11.18-5.7h-.15V132.4h-6.52Zm6.52,9.67a14.76,14.76,0,0,0,.3,2.7,10.19,10.19,0,0,0,9.9,7.73c7,0,11-5.7,11-14,0-7.27-3.83-13.49-10.8-13.49a10.54,10.54,0,0,0-10,8.17,10.89,10.89,0,0,0-.45,2.7Z"/><path class="cls-2" d="M2823.87,99.1c0,13.42-9.3,19.27-18.07,19.27-9.83,0-17.4-7.2-17.4-18.67,0-12.15,7.95-19.27,18-19.27C2816.82,80.43,2823.87,88,2823.87,99.1Zm-28.8.37c0,8,4.58,14,11,14s11-5.92,11-14.1c0-6.15-3.07-13.94-10.87-13.94S2795.07,92.57,2795.07,99.47Z"/><path class="cls-2" d="M2832.2,91.07c0-3.74-.08-6.82-.3-9.82h5.85l.37,6h.15a13.35,13.35,0,0,1,12-6.82c5,0,12.82,3,12.82,15.44v21.68h-6.6V96.62c0-5.85-2.17-10.72-8.4-10.72a9.68,9.68,0,0,0-9.29,9.82v21.83h-6.6Z"/><path class="cls-2" d="M2877.5,100.6c.15,8.92,5.84,12.6,12.45,12.6a23.8,23.8,0,0,0,10-1.88l1.13,4.73a29.37,29.37,0,0,1-12.07,2.25c-11.18,0-17.85-7.35-17.85-18.3s6.45-19.57,17-19.57c11.85,0,15,10.42,15,17.09a23.91,23.91,0,0,1-.23,3.08Zm19.34-4.73c.08-4.2-1.72-10.72-9.14-10.72-6.68,0-9.6,6.15-10.13,10.72Z"/><path class="cls-2" d="M2911.39,91.07c0-3.74-.07-6.82-.3-9.82h5.85l.38,6h.15a13.35,13.35,0,0,1,12-6.82c5,0,12.82,3,12.82,15.44v21.68h-6.6V96.62c0-5.85-2.17-10.72-8.4-10.72a9.68,9.68,0,0,0-9.3,9.82v21.83h-6.6Z"/><path class="cls-2" d="M2960.67,70.83V81.25h9.45v5h-9.45v19.58c0,4.5,1.27,7.05,4.95,7.05a14.86,14.86,0,0,0,3.82-.45l.3,5a16.25,16.25,0,0,1-5.85.9,9.14,9.14,0,0,1-7.12-2.78c-1.88-2-2.55-5.17-2.55-9.45V86.27h-5.63v-5h5.63v-8.7Z"/><path class="cls-2" d="M2980.77,100.6c.15,8.92,5.85,12.6,12.45,12.6a23.89,23.89,0,0,0,10.05-1.88l1.12,4.73a29.37,29.37,0,0,1-12.07,2.25c-11.18,0-17.85-7.35-17.85-18.3s6.45-19.57,17-19.57c11.85,0,15,10.42,15,17.09a26.36,26.36,0,0,1-.22,3.08Zm19.35-4.73c.07-4.2-1.73-10.72-9.15-10.72-6.68,0-9.6,6.15-10.13,10.72Z"/><path class="cls-2" d="M3014.67,92.57c0-4.27-.08-7.94-.3-11.32h5.77l.23,7.13h.3c1.65-4.88,5.62-7.95,10-7.95a7.11,7.11,0,0,1,1.87.22v6.23a9.86,9.86,0,0,0-2.25-.23c-4.65,0-8,3.52-8.85,8.47a18.59,18.59,0,0,0-.3,3.08v19.35h-6.52Z"/><path class="cls-2" d="M3038.29,87.25a4.44,4.44,0,0,1,4.5-4.72c2.63,0,4.35,2,4.43,4.72a4.47,4.47,0,1,1-8.93,0Zm0,26.47a4.44,4.44,0,0,1,4.5-4.72c2.63,0,4.35,2,4.43,4.72a4.47,4.47,0,1,1-8.93,0Z"/><path class="cls-2" d="M2460.37,260.06,2445,212.87h6.58l7.35,23.25c2,6.37,3.78,12.11,5,17.64h.14c1.33-5.46,3.29-11.41,5.39-17.57l8-23.32H2484l-16.87,47.19Z"/><path class="cls-2" d="M2490,244.24c.14,8.33,5.46,11.76,11.62,11.76a22.28,22.28,0,0,0,9.38-1.75l1.05,4.41a27.44,27.44,0,0,1-11.27,2.1c-10.43,0-16.66-6.86-16.66-17.08s6-18.28,15.89-18.28c11.06,0,14,9.74,14,16a23.23,23.23,0,0,1-.21,2.87Zm18.06-4.41c.07-3.92-1.61-10-8.54-10-6.23,0-9,5.74-9.45,10Z"/><path class="cls-2" d="M2550.88,210.35v41c0,3,.07,6.44.28,8.75h-5.53l-.28-5.88h-.14c-1.89,3.78-6,6.65-11.55,6.65-8.19,0-14.49-6.93-14.49-17.22-.07-11.27,6.93-18.21,15.19-18.21,5.18,0,8.68,2.46,10.22,5.19h.14V210.35ZM2544.72,240a10.87,10.87,0,0,0-.28-2.59,9.06,9.06,0,0,0-8.89-7.14c-6.37,0-10.15,5.6-10.15,13.09,0,6.86,3.36,12.53,10,12.53a9.26,9.26,0,0,0,9-7.35,10.7,10.7,0,0,0,.28-2.66Z"/><path class="cls-2" d="M2582,241.72h.14c.84-1.19,2-2.66,3-3.85l9.94-11.7h7.42l-13.09,13.94,14.91,19.95h-7.49l-11.69-16.24-3.15,3.5v12.74h-6.1V210.35h6.1Z"/><path class="cls-2" d="M2610,210.35h6.16v49.71H2610Z"/><path class="cls-2" d="M2633.33,216.65a3.82,3.82,0,0,1-7.63,0,3.75,3.75,0,0,1,3.85-3.85A3.66,3.66,0,0,1,2633.33,216.65Zm-6.86,43.41V226.17h6.16v33.89Z"/><path class="cls-2" d="M2648.94,241.72h.14c.84-1.19,2-2.66,3-3.85l9.95-11.7h7.42l-13.1,13.94,14.92,19.95h-7.49l-11.7-16.24-3.15,3.5v12.74h-6.09V210.35h6.09Z"/><path class="cls-2" d="M2690.52,237.24c0-4.34-.14-7.84-.28-11.07h5.53l.28,5.82h.14a13.33,13.33,0,0,1,12-6.59c8.2,0,14.36,6.94,14.36,17.23,0,12.18-7.42,18.2-15.41,18.2-4.48,0-8.4-2-10.43-5.32h-.14v18.41h-6.09Zm6.09,9a13.87,13.87,0,0,0,.28,2.52,9.5,9.5,0,0,0,9.24,7.21c6.51,0,10.3-5.32,10.3-13.09,0-6.79-3.58-12.6-10.09-12.6a9.83,9.83,0,0,0-9.31,7.63,10,10,0,0,0-.42,2.52Z"/><path class="cls-2" d="M2749.11,260.06l-.49-4.27h-.21a12.62,12.62,0,0,1-10.36,5c-6.86,0-10.36-4.83-10.36-9.73,0-8.19,7.28-12.67,20.37-12.6v-.7c0-2.8-.77-7.84-7.7-7.84a16.88,16.88,0,0,0-8.82,2.52l-1.4-4.06a21,21,0,0,1,11.13-3c10.36,0,12.88,7.08,12.88,13.87v12.67a47.7,47.7,0,0,0,.56,8.12Zm-.91-17.29c-6.72-.14-14.35,1-14.35,7.63,0,4,2.66,5.88,5.81,5.88a8.43,8.43,0,0,0,8.19-5.67,6.43,6.43,0,0,0,.35-2ZM2735,216.09c0-3.71,2.73-6.65,7.14-6.65,4.2,0,6.93,2.87,6.93,6.58s-3,6.44-7,6.44C2737.84,222.46,2735,219.66,2735,216.09Zm10.64-.14a3.62,3.62,0,0,0-3.64-3.85c-2.17,0-3.43,1.82-3.43,4a3.55,3.55,0,1,0,7.07-.14Z"/><path class="cls-2" d="M2793.21,238.85v4.55h-17.29v-4.55Z"/><path class="cls-2" d="M2459,371.42h-14.35v-5.18h34.93v5.18h-14.42v42H2459Z"/><path class="cls-2" d="M2490.61,370a3.82,3.82,0,0,1-7.63,0,3.75,3.75,0,0,1,3.85-3.85A3.66,3.66,0,0,1,2490.61,370Zm-6.86,43.41V379.54h6.16v33.89Z"/><path class="cls-2" d="M2500.13,388.72c0-3.51-.07-6.38-.28-9.18h5.39l.28,5.46h.21a11.68,11.68,0,0,1,10.64-6.23,10,10,0,0,1,9.59,6.79h.14a14,14,0,0,1,3.78-4.41,11.56,11.56,0,0,1,7.49-2.38c4.48,0,11.13,2.94,11.13,14.71v19.95h-6V394.25c0-6.52-2.38-10.44-7.35-10.44a8,8,0,0,0-7.28,5.61,10.14,10.14,0,0,0-.49,3.08v20.93h-6v-20.3c0-5.4-2.38-9.32-7.07-9.32-3.85,0-6.65,3.09-7.63,6.17a8.49,8.49,0,0,0-.49,3v20.44h-6Z"/><path class="cls-2" d="M2561.94,397.61c.14,8.33,5.46,11.76,11.62,11.76a22.28,22.28,0,0,0,9.38-1.75l1,4.41a27.44,27.44,0,0,1-11.27,2.1c-10.43,0-16.67-6.86-16.67-17.08s6-18.28,15.9-18.28c11.06,0,14,9.73,14,16a23.23,23.23,0,0,1-.21,2.87ZM2580,393.2c.07-3.92-1.61-10-8.54-10-6.23,0-9,5.75-9.45,10Z"/><path class="cls-2" d="M2593.57,390.12c0-4-.07-7.43-.28-10.58h5.4l.21,6.65h.28c1.54-4.55,5.25-7.42,9.38-7.42a6.66,6.66,0,0,1,1.75.21v5.81a9.25,9.25,0,0,0-2.1-.21c-4.34,0-7.42,3.3-8.26,7.92a17.34,17.34,0,0,0-.28,2.87v18.06h-6.1Z"/><path class="cls-2" d="M2645.59,392.22v4.55h-17.3v-4.55Z"/><path class="cls-2" d="M2449.17,540.92a21.58,21.58,0,0,0,10.92,3.08c6.23,0,9.87-3.29,9.87-8,0-4.41-2.52-6.93-8.89-9.38-7.7-2.73-12.46-6.72-12.46-13.37,0-7.36,6.09-12.82,15.26-12.82a21.44,21.44,0,0,1,10.43,2.31l-1.68,5a18.77,18.77,0,0,0-9-2.25c-6.44,0-8.89,3.86-8.89,7.08,0,4.41,2.87,6.58,9.38,9.1,8,3.08,12,6.93,12,13.86,0,7.28-5.39,13.58-16.52,13.58-4.55,0-9.52-1.33-12-3Z"/><path class="cls-2" d="M2484.31,525.52c0-4.34-.14-7.84-.28-11.06h5.53l.28,5.81h.14a13.32,13.32,0,0,1,12-6.58c8.19,0,14.35,6.93,14.35,17.22,0,12.18-7.42,18.2-15.4,18.2-4.48,0-8.4-2-10.43-5.32h-.14V562.2h-6.09Zm6.09,9a13.87,13.87,0,0,0,.28,2.52,9.5,9.5,0,0,0,9.24,7.21c6.51,0,10.29-5.32,10.29-13.09,0-6.79-3.57-12.6-10.08-12.6a9.83,9.83,0,0,0-9.31,7.63,10,10,0,0,0-.42,2.52Z"/><path class="cls-2" d="M2524.13,498.63h6.17v49.71h-6.17Z"/><path class="cls-2" d="M2547.51,504.94a3.82,3.82,0,0,1-7.63,0,3.76,3.76,0,0,1,3.85-3.86A3.66,3.66,0,0,1,2547.51,504.94Zm-6.86,43.4V514.46h6.16v33.88Z"/><path class="cls-2" d="M2564.45,504.72v9.74h8.83v4.69h-8.83v18.27c0,4.2,1.19,6.58,4.62,6.58a13.73,13.73,0,0,0,3.58-.42l.28,4.62a15.14,15.14,0,0,1-5.47.84,8.54,8.54,0,0,1-6.65-2.59c-1.75-1.82-2.38-4.83-2.38-8.82V519.15h-5.25v-4.69h5.25v-8.13Z"/><path class="cls-2" d="M2575,551.14l19.53-50.76h4.77l-19.61,50.76Z"/><path class="cls-2" d="M2614.08,501.15h6.09v31.58c0,12.53-6.16,16.38-14.28,16.38a19.72,19.72,0,0,1-6.51-1.12l.91-5a14.53,14.53,0,0,0,5.11.91c5.46,0,8.68-2.45,8.68-11.69Z"/><path class="cls-2" d="M2660.78,531.12c0,12.53-8.69,18-16.88,18-9.17,0-16.24-6.72-16.24-17.43,0-11.34,7.42-18,16.8-18C2654.19,513.69,2660.78,520.76,2660.78,531.12Zm-26.89.35c0,7.42,4.27,13,10.29,13s10.29-5.53,10.29-13.16c0-5.74-2.87-13-10.15-13S2633.89,525,2633.89,531.47Z"/><path class="cls-2" d="M2675.4,504.94a3.82,3.82,0,0,1-7.63,0,3.76,3.76,0,0,1,3.85-3.86A3.66,3.66,0,0,1,2675.4,504.94Zm-6.86,43.4V514.46h6.16v33.88Z"/><path class="cls-2" d="M2684.92,523.63c0-3.5-.07-6.37-.28-9.17h5.46l.35,5.6h.14a12.46,12.46,0,0,1,11.2-6.37c4.69,0,12,2.8,12,14.42v20.23h-6.16V528.81c0-5.46-2-10-7.84-10a8.75,8.75,0,0,0-8.26,6.3,8.86,8.86,0,0,0-.42,2.87v20.37h-6.16Z"/><path class="cls-2" d="M2752.89,527.13v4.55H2735.6v-4.55Z"/><polygon class="cls-1" points="2887.88 197.63 2919.6 243.2 2887.88 288.77 3117.37 288.77 3117.37 197.63 2887.88 197.63"/><polygon class="cls-1" points="3064.99 464.91 3002.63 402.55 2940.27 464.91 2940.27 464.91 3064.99 464.91"/><polygon class="cls-1" points="2940.13 340.33 2939.53 340.92 3001.89 403.28 3064.25 340.92 3063.66 340.33 2940.13 340.33"/><rect class="cls-2" x="2892.54" y="530.14" width="188.92" height="12.57"/></svg>