<svg id="Layer_1" data-name="Layer 1" xmlns="http://www.w3.org/2000/svg" width="1920" height="2147.54" viewBox="0 0 1920 2147.54"><defs><style>.cls-1{fill:#ffd3c5;}.cls-2{fill:#dbb2a7;}.cls-3{fill:#5f4343;}.cls-4{fill:#89686b;}.cls-5{fill:#b90f00;}.cls-6{fill:#6b6a6a;}.cls-7{fill:#634b4c;}.cls-8{fill:#4c98d6;}.cls-9{fill:#2b7cb2;}.cls-10{fill:#acce76;}.cls-11{fill:#ceb984;}.cls-12{fill:#020000;}.cls-13{fill:#020202;}.cls-14{fill:#aa1729;}.cls-15{fill:#f9f9f9;}.cls-16{fill:#ef6c6c;}.cls-17{fill:#97b262;}.cls-18{fill:#e52929;}.cls-19{fill:#b20000;}.cls-20{fill:#f7ecb5;}.cls-21{fill:none;}.cls-22{fill:#669fdd;}.cls-23{fill:#b71313;}.cls-24{fill:#bcb52a;}.cls-25{fill:#fc8900;}.cls-26{fill:#9863c6;}.cls-27{fill:#72575a;}.cls-28{fill:#ff7945;}.cls-29{fill:#a01710;}.cls-30{fill:#89a052;}</style></defs><title>figur</title><rect class="cls-1" x="97.61" y="312.88" width="94.41" height="94.41"/><rect class="cls-2" x="209.54" y="312.88" width="94.41" height="94.41"/><rect class="cls-3" x="97.61" y="544.56" width="94.41" height="94.41"/><rect class="cls-4" x="317.19" y="544.56" width="93.1" height="94.41"/><rect class="cls-5" x="97.61" y="652.76" width="93.1" height="94.41"/><rect class="cls-6" x="210.2" y="652.76" width="93.1" height="94.41"/><rect class="cls-7" x="210.2" y="544.56" width="93.1" height="94.41"/><rect class="cls-8" x="97.61" y="433.3" width="94.41" height="94.41"/><rect class="cls-9" x="209.54" y="433.3" width="94.41" height="94.41"/><rect class="cls-10" x="156.56" y="787.5" width="103.64" height="217.39" rx="19.81"/><circle class="cls-10" cx="346.92" cy="952.54" r="53.57"/><rect class="cls-8" x="547.19" y="668.47" width="103.64" height="217.39" rx="19.81"/><rect class="cls-8" x="636.7" y="654.47" width="91.44" height="28" rx="9.95" transform="translate(-210.31 328.49) rotate(-23.56)"/><rect class="cls-4" x="547.19" y="841.66" width="28" height="91.44" rx="9.95"/><rect class="cls-4" x="547.19" y="889.99" width="28" height="91.44" rx="9.95"/><rect class="cls-4" x="622.49" y="841.66" width="28" height="91.44" rx="9.95"/><rect class="cls-4" x="622.49" y="889.99" width="28" height="91.44" rx="9.95"/><rect class="cls-8" x="484.78" y="700.53" width="91.44" height="28" rx="9.95" transform="translate(-355.9 635.29) rotate(-48.3)"/><rect class="cls-8" x="473.64" y="747.92" width="62.76" height="28" rx="9.95" transform="translate(-310.05 1175.74) rotate(-83.38)"/><rect class="cls-8" x="687.31" y="615.15" width="62.76" height="28" rx="9.95" transform="translate(-2.84 1255.05) rotate(-82.14)"/><rect class="cls-2" x="574.8" y="594.66" width="44.93" height="91.94" rx="15.97"/><ellipse class="cls-11" cx="597.31" cy="491.42" rx="84.95" ry="57.74"/><rect class="cls-1" x="538.97" y="475.07" width="112.98" height="177.02" rx="29.19"/><ellipse class="cls-12" cx="612.8" cy="527.55" rx="9.19" ry="7.32"/><ellipse class="cls-12" cx="576.91" cy="527.55" rx="9.19" ry="7.32"/><ellipse class="cls-11" cx="554.39" cy="471.35" rx="20.63" ry="16.44"/><ellipse class="cls-11" cx="590.28" cy="462.46" rx="34" ry="27.1"/><ellipse class="cls-11" cx="633.68" cy="474.98" rx="20.63" ry="16.44"/><ellipse class="cls-11" cx="654.31" cy="474.98" rx="15.41" ry="12.28"/><ellipse class="cls-11" cx="537.27" cy="464.42" rx="20.63" ry="16.44"/><ellipse class="cls-11" cx="541.49" cy="473.14" rx="25.3" ry="18.24"/><ellipse class="cls-11" cx="576.91" cy="445.85" rx="20.63" ry="16.44"/><ellipse class="cls-11" cx="638.9" cy="453.96" rx="20.63" ry="16.44"/><ellipse class="cls-11" cx="623.53" cy="445.85" rx="20.63" ry="16.44"/><ellipse class="cls-11" cx="556.28" cy="451.81" rx="20.63" ry="16.44"/><ellipse class="cls-11" cx="656.54" cy="471.35" rx="27.15" ry="21.64"/><path class="cls-4" d="M547.42,828.81a20.35,20.35,0,0,0-.23,2.81v32c0,12.78,12.54,23.23,27.87,23.23H623c15.33,0,27.87-10.45,27.87-23.23v-32a18.91,18.91,0,0,0-.23-2.81Z"/><path class="cls-13" d="M601.76,617.26a16.72,16.72,0,0,1,11,3.85c7.8-4.31,12.52-11.79,11.47-19.8h0a18.32,18.32,0,0,0-3.43-8.41l-48.72,4a17.2,17.2,0,0,0-1.19,8.8h0c1.1,8.42,8.28,15.22,17.69,17.92C591,619.85,596,617.26,601.76,617.26Z"/><path class="cls-14" d="M600.32,624.78h0a32.51,32.51,0,0,0,5.71-1,28.74,28.74,0,0,0,10.15-4.95,55.84,55.84,0,0,0-7.68-3.06,51.17,51.17,0,0,0-7.82-1.88c-8.43-1-16.79,5.3-18.83,6.92a31.72,31.72,0,0,0,12.62,3.93A32.65,32.65,0,0,0,600.32,624.78Z"/><path class="cls-15" d="M608.36,593.94l-5.8.38-4.42.5L599.82,608c.2,1.48,2.44,2.51,5,2.3l5.12-.42c2.54-.22,4.46-1.6,4.27-3.08l-1.73-13.17Z"/><rect class="cls-2" x="585.75" y="549.41" width="19.43" height="30.72" rx="5.02"/><rect class="cls-1" x="711.69" y="588.66" width="26.15" height="12.02" rx="2.66" transform="matrix(0.14, -0.99, 0.99, 0.14, 36.57, 1231.31)"/><rect class="cls-1" x="711.78" y="557.28" width="36.91" height="16.97" rx="2.66" transform="translate(67.8 1209.59) rotate(-81.95)"/><rect class="cls-2" x="711.54" y="572.94" width="13.2" height="4.11" rx="1.33" transform="translate(50.34 1207.76) rotate(-82.14)"/><rect class="cls-1" x="487.6" y="784.89" width="26.15" height="12.02" rx="2.66" transform="translate(-383.93 1096.97) rotate(-76.75)"/><rect class="cls-1" x="475.49" y="808.64" width="36.92" height="16.97" rx="2.66" transform="translate(-414.63 1110.64) rotate(-76.75)"/><rect class="cls-2" x="480.79" y="804.82" width="13.2" height="4.11" rx="1.33" transform="translate(-409.72 1096.35) rotate(-76.75)"/><path class="cls-5" d="M579.92,982.69c-1.46-12.28-9.75-21.69-19.77-21.69s-18.36,9.49-19.77,21.84Z"/><path class="cls-5" d="M656.26,982.69C654.8,970.41,646.51,961,636.5,961s-18.37,9.49-19.78,21.84Z"/><path class="cls-9" d="M592.77,694.21h.89l2.73-6.64,2.74,6.64H600a22.52,22.52,0,0,0,22.47-22.47v-3.27h-3.18c-3.52,11.1-8.41,16-21.6,17.85l-1.62.08c-10.22-.7-18-7.65-21-17.93l-4.76.41C570.3,681.24,580.41,694.21,592.77,694.21Z"/><polygon class="cls-7" points="590.25 828.81 606.74 828.81 650.61 828.81 650.49 833.92 607.09 833.92 590.25 833.92 547.19 833.92 547.42 828.81 590.25 828.81"/><path class="cls-3" d="M602.73,828.81s13.55.58,17.42,7.78S618.6,840,618.6,840s-12.77-6-15.17-6.08-.7-4.58-.7-4.58Z"/><rect class="cls-6" x="596.5" y="828.81" width="1.07" height="5.11"/><rect class="cls-6" x="602.14" y="828.81" width="1.07" height="5.11"/><rect class="cls-6" x="597.03" y="828.81" width="5.11" height="1.07"/><rect class="cls-6" x="597.03" y="832.85" width="5.11" height="1.07"/><path class="cls-1" d="M538.9,526.67a16.75,16.75,0,0,0-2.45.2A15.79,15.79,0,0,0,539,558.28Z"/><path class="cls-2" d="M538.92,533.56a9.32,9.32,0,0,0-1.4.1A8.91,8.91,0,0,0,539,551.39Z"/><path class="cls-1" d="M651.8,526.23a18.68,18.68,0,0,1,2.36.24c8.34,1.44,14,8.82,12.71,16.47-1.2,6.95-7.77,11.74-15.21,11.48Z"/><path class="cls-2" d="M651.77,532.38a10.26,10.26,0,0,1,1.35.12c4.71.82,7.92,5,7.18,9.3a8.2,8.2,0,0,1-8.61,6.48Z"/><rect class="cls-8" x="1224.53" y="676.89" width="103.64" height="217.39" rx="19.81"/><rect class="cls-8" x="1333.08" y="674.32" width="28" height="91.44" rx="9.95" transform="translate(-137.7 1078.55) rotate(-41.7)"/><rect class="cls-4" x="1224.53" y="850.08" width="28" height="91.44" rx="9.95"/><rect class="cls-4" x="1224.53" y="898.41" width="28" height="91.44" rx="9.95"/><rect class="cls-4" x="1299.82" y="850.08" width="28" height="91.44" rx="9.95"/><rect class="cls-4" x="1299.82" y="898.41" width="28" height="91.44" rx="9.95"/><rect class="cls-8" x="1162.09" y="708.99" width="91.44" height="28" rx="9.95" transform="translate(-135.47 1143.83) rotate(-48.3)"/><rect class="cls-8" x="1150.97" y="756.31" width="62.76" height="28" rx="9.95" transform="translate(280.87 1855.98) rotate(-83.38)"/><rect class="cls-8" x="1358.17" y="722.24" width="62.76" height="28" rx="9.95" transform="translate(-178.45 616.79) rotate(-23.56)"/><rect class="cls-2" x="1252.13" y="603.08" width="44.93" height="91.94" rx="15.97"/><ellipse class="cls-11" cx="1274.65" cy="499.84" rx="84.95" ry="57.74"/><rect class="cls-1" x="1216.3" y="483.49" width="112.98" height="177.02" rx="29.19"/><ellipse class="cls-12" cx="1290.13" cy="535.97" rx="9.19" ry="7.32"/><ellipse class="cls-12" cx="1254.24" cy="535.97" rx="9.19" ry="7.32"/><ellipse class="cls-11" cx="1231.72" cy="479.77" rx="20.63" ry="16.44"/><ellipse class="cls-11" cx="1267.61" cy="470.88" rx="34" ry="27.1"/><ellipse class="cls-11" cx="1311.01" cy="483.4" rx="20.63" ry="16.44"/><ellipse class="cls-11" cx="1331.64" cy="483.4" rx="15.41" ry="12.28"/><ellipse class="cls-11" cx="1214.6" cy="472.84" rx="20.63" ry="16.44"/><ellipse class="cls-11" cx="1218.83" cy="481.56" rx="25.3" ry="18.24"/><ellipse class="cls-11" cx="1254.24" cy="454.27" rx="20.63" ry="16.44"/><ellipse class="cls-11" cx="1316.23" cy="462.38" rx="20.63" ry="16.44"/><ellipse class="cls-11" cx="1300.87" cy="454.27" rx="20.63" ry="16.44"/><ellipse class="cls-11" cx="1233.61" cy="460.23" rx="20.63" ry="16.44"/><ellipse class="cls-11" cx="1333.88" cy="479.77" rx="27.15" ry="21.64"/><path class="cls-4" d="M1224.75,837.23a20.33,20.33,0,0,0-.22,2.81v32c0,12.78,12.54,23.23,27.87,23.23h47.9c15.33,0,27.87-10.45,27.87-23.23V840a18.91,18.91,0,0,0-.23-2.81Z"/><path class="cls-13" d="M1279.1,625.67a16.78,16.78,0,0,1,11,3.86c7.8-4.31,12.52-11.79,11.48-19.8h0a18.34,18.34,0,0,0-3.44-8.41l-48.71,4a17.1,17.1,0,0,0-1.2,8.8h0c1.1,8.42,8.28,15.22,17.7,17.92C1268.38,628.27,1273.35,625.67,1279.1,625.67Z"/><path class="cls-14" d="M1277.65,633.2h0a32.62,32.62,0,0,0,5.72-1,28.8,28.8,0,0,0,10.14-5,55.72,55.72,0,0,0-7.67-3.06,51.17,51.17,0,0,0-7.82-1.88c-8.44-1-16.8,5.3-18.84,6.92a31.72,31.72,0,0,0,12.62,3.93A33.61,33.61,0,0,0,1277.65,633.2Z"/><path class="cls-15" d="M1285.69,602.36l-5.8.38-4.42.5,1.69,13.18c.19,1.48,2.43,2.51,5,2.3l5.12-.43c2.54-.21,4.46-1.59,4.27-3.07l-1.73-13.17Z"/><rect class="cls-2" x="1263.08" y="557.83" width="19.43" height="30.72" rx="5.02"/><rect class="cls-1" x="1409.07" y="717.44" width="26.15" height="12.02" rx="2.66" transform="translate(-170.62 628.75) rotate(-23.56)"/><rect class="cls-1" x="1428.3" y="703.66" width="36.92" height="16.97" rx="2.66" transform="translate(-164.05 637.65) rotate(-23.56)"/><rect class="cls-2" x="1427.97" y="698.94" width="4.11" height="13.2" rx="1.33"/><rect class="cls-1" x="1164.93" y="793.29" width="26.15" height="12.02" rx="2.66" transform="translate(129.98 1762.75) rotate(-76.75)"/><rect class="cls-1" x="1152.83" y="817.04" width="36.92" height="16.97" rx="2.66" transform="translate(99.29 1776.43) rotate(-76.75)"/><rect class="cls-2" x="1158.13" y="813.22" width="13.2" height="4.11" rx="1.33" transform="translate(104.2 1762.13) rotate(-76.75)"/><path class="cls-5" d="M1257.25,991.11c-1.46-12.28-9.75-21.69-19.76-21.69s-18.37,9.49-19.78,21.83Z"/><path class="cls-5" d="M1333.59,991.11c-1.46-12.28-9.75-21.69-19.76-21.69s-18.36,9.49-19.78,21.83Z"/><path class="cls-9" d="M1270.1,702.63h.89l2.74-6.64,2.73,6.64h.89a22.52,22.52,0,0,0,22.47-22.47v-3.27h-3.18c-3.52,11.1-8.41,16-21.59,17.85l-1.63.08c-10.21-.7-18-7.65-21-17.93l-4.77.41C1247.63,689.66,1257.74,702.63,1270.1,702.63Z"/><polygon class="cls-7" points="1267.58 837.23 1284.07 837.23 1327.94 837.23 1327.83 842.34 1284.42 842.34 1267.58 842.34 1224.53 842.34 1224.76 837.23 1267.58 837.23"/><path class="cls-3" d="M1280.06,837.23s13.55.58,17.42,7.78-1.55,3.41-1.55,3.41-12.77-6-15.17-6.08-.7-4.58-.7-4.58Z"/><rect class="cls-6" x="1273.83" y="837.23" width="1.07" height="5.11"/><rect class="cls-6" x="1279.48" y="837.23" width="1.07" height="5.11"/><rect class="cls-6" x="1274.36" y="837.22" width="5.11" height="1.07"/><rect class="cls-6" x="1274.37" y="841.27" width="5.11" height="1.07"/><path class="cls-1" d="M1216.23,535.09a16.75,16.75,0,0,0-2.45.2,15.79,15.79,0,0,0,2.55,31.41Z"/><path class="cls-2" d="M1216.25,542a9.32,9.32,0,0,0-1.4.1,8.91,8.91,0,0,0,1.46,17.73Z"/><path class="cls-1" d="M1329.14,534.65a18.53,18.53,0,0,1,2.35.24c8.34,1.44,14,8.82,12.71,16.47-1.2,6.95-7.77,11.74-15.21,11.48Z"/><path class="cls-2" d="M1329.1,540.79a10.28,10.28,0,0,1,1.35.13c4.71.81,7.93,5,7.18,9.3a8.2,8.2,0,0,1-8.61,6.48Z"/><rect class="cls-16" x="1432.08" y="648.4" width="82.84" height="63.74"/><rect class="cls-17" x="1468.54" y="648.4" width="12.76" height="63.74"/><path class="cls-18" d="M1452,659.77s-7.6,1.81-8.91-4.7,3.41-7.1,3.41-7.1,2.68-1.81,3.18-4.06.73-8.33,1.45-9.77,1.09-4.28,4.93-2.32a51.89,51.89,0,0,1,10.06,6.81c1.45,1.45,4.93,4.34,4.93,4.34l2.53,1.23a3.39,3.39,0,0,0,2.39,0,26.9,26.9,0,0,0,4.93-3.76,83.92,83.92,0,0,1,9.56-7.24c1.52-.73,6.23-3.63,7.09-.51s.8,4.27,1.16,8.18,1.34,4.84,4.06,7c1.08.87,3.28,1.23,3.07,6.08,0,0,.19,4.42-3.22,5.36s-6.15.71-12.52-2.48-2.83-1.43-7.68-3.75l-6.23-3-1.56-.36h-1s-7.75,3.23-9.42,4.62S1454.77,658.9,1452,659.77Z"/><path class="cls-19" d="M1469.55,649.78l-11.08,6.3a37.63,37.63,0,0,1-8.69,2.9,3.37,3.37,0,0,1-3.94-2.67,3.47,3.47,0,0,1-.06-.45,4.45,4.45,0,0,1,3-3.33c2.47-.65,6.38-1.59,8.19-1.81S1469.55,649.78,1469.55,649.78Z"/><path class="cls-19" d="M1480.05,649.78l11.08,6.3a37.63,37.63,0,0,0,8.69,2.9,3.35,3.35,0,0,0,3.94-2.65,3.78,3.78,0,0,0,.06-.47,4.45,4.45,0,0,0-3-3.33q-4-1.11-8.18-1.81C1490.84,650.5,1480.05,649.78,1480.05,649.78Z"/><path class="cls-19" d="M1471,650.87l.11-7.9s.47-2.06,1.74-1.19,1.84,1.34,1.84,1.34l2.18-1.56a1.28,1.28,0,0,1,1.43,1.11,1.69,1.69,0,0,1,0,.23v8h-1.62l-1.85-1.27-2.36,1.08Z"/><polygon class="cls-18" points="1474.91 646.45 1491.78 682.91 1493.48 674.62 1501.09 673.79 1475.09 646.45 1474.91 646.45"/><polygon class="cls-18" points="1474.63 646.54 1457.75 683 1456.05 674.71 1448.44 673.88 1474.44 646.54 1474.63 646.54"/><path class="cls-20" d="M1463.4,641.81l10.36,5.58a2.7,2.7,0,0,0,3.66-1.1h0l2.2-4.08a2.71,2.71,0,0,0-1.1-3.66L1468.16,633a2.71,2.71,0,0,0-3.66,1.1l-2.2,4.08A2.71,2.71,0,0,0,1463.4,641.81Zm12.19,4.51a.39.39,0,0,1-.37.69h0a.4.4,0,0,1-.15-.53.37.37,0,0,1,.51-.16Z"/><line class="cls-21" x1="1472.75" y1="641.97" x2="1466.17" y2="638.43"/><line class="cls-21" x1="1474.29" y1="639.11" x2="1467.72" y2="635.56"/><line class="cls-21" x1="1474.44" y1="639.18" x2="1467.72" y2="635.56"/><path d="M1474.86,644.63l-.67-.35.08-.14.5.28.22-.41-.46-.25.07-.14.46.26.3-.56.16.08Z"/><path d="M1474.36,643.56l-.14.28-.14-.07.08-.18h0a.3.3,0,0,1-.35.06h0l.09-.15h0a.25.25,0,0,0,.33-.09v-.07l.26-.47.16.08Z"/><path d="M1473.61,642.37v.12h0a.34.34,0,0,1,.34,0,.29.29,0,0,1,.15.37l0,0c-.11.21-.37.23-.71,0h0a.2.2,0,0,0,0,.28l0,0a.43.43,0,0,0,.27.06v.13a.76.76,0,0,1-.33-.08.34.34,0,0,1-.14-.54l.17-.34a.88.88,0,0,0,.1-.22Zm-.22.47c.17.1.39.17.48,0a.16.16,0,0,0,0-.21l0,0a.23.23,0,0,0-.29,0h0Z"/><path d="M1472.86,642.92a.13.13,0,0,1-.17.06.14.14,0,0,1,0-.17.13.13,0,0,1,.16-.07h0a.12.12,0,0,1,0,.17Zm.35-.64a.11.11,0,0,1-.14.07l0,0a.12.12,0,0,1,0-.17h0a.12.12,0,0,1,.17,0h0a.13.13,0,0,1,0,.12Z"/><path d="M1471.66,641.82l.33-.32.17.09-1.08,1-.2-.11.25-1.45.17.09-.08.46Zm-.47-.09-.07.42-.06.26h0l.18-.19.32-.29Z"/><path d="M1470.61,641.59c0,.09-.08.17-.12.24l-.14-.07.07-.15h0a.33.33,0,0,1-.38,0,.36.36,0,0,1-.14-.49l0,0,.29-.53.16.09-.28.51c-.07.14-.08.29.07.37a.24.24,0,0,0,.3,0v-.07l.29-.53.16.09Z"/><path d="M1469.15,641.44l.14-.25-.23-.13.06-.12.23.12.26-.47q.09-.17,0-.24h-.1l.06-.12h.15a.25.25,0,0,1,.14.16.43.43,0,0,1-.06.27l-.26.48.14.07-.07.12-.14-.07-.11.21Z"/><path d="M1468.32,640.1a.49.49,0,0,1,.66-.24h0a.49.49,0,0,1,.19.67v0a.49.49,0,0,1-.67.2A.48.48,0,0,1,1468.32,640.1Zm.71.37a.34.34,0,0,0-.08-.47h0a.4.4,0,0,0-.38.68h0a.35.35,0,0,0,.43-.2Z"/><path d="M1468,640.19l-.13.25-.14-.08.07-.15h0a.37.37,0,0,1-.38,0c-.13-.06-.28-.24-.11-.54l.28-.53.16.09-.27.51c-.08.14-.09.29.06.37a.23.23,0,0,0,.3-.05s.05,0,.06-.07l.28-.53.16.09Z"/><path d="M1476.17,641.64l.37.2-.07.13-.91-.49.07-.13.38.2.59-1.1.16.09Z"/><path d="M1475.33,641.23a.1.1,0,0,1,.14,0h0a.11.11,0,0,1,0,.15.11.11,0,0,1-.16,0h0a.1.1,0,0,1,0-.14Zm.79-1-.48.89-.16-.09.48-.88Z"/><path d="M1475,641.26l-.16-.09.7-1.29.16.08Z"/><path d="M1474.9,640.49a.13.13,0,0,1-.17.06.13.13,0,0,1,0-.18.12.12,0,0,1,.17,0h0A.13.13,0,0,1,1474.9,640.49Zm.35-.64a.12.12,0,0,1-.17,0h0a.12.12,0,0,1,0-.17h0a.13.13,0,0,1,.17-.06.14.14,0,0,1,0,.19S1475.26,639.84,1475.25,639.85Z"/><path d="M1472.8,640l-.16-.09.45-.82c.17-.33.39-.34.6-.23a.44.44,0,0,1,.15.12l-.09.12-.12-.1c-.14-.07-.26-.06-.39.19Z"/><path d="M1472,638.56a.48.48,0,0,1,.63-.26l.06,0a.47.47,0,0,1,.21.63l0,0a.48.48,0,0,1-.63.26l-.06,0a.46.46,0,0,1-.22-.61A.16.16,0,0,1,1472,638.56Zm.7.37a.35.35,0,0,0-.06-.48h0a.41.41,0,0,0-.5.27.42.42,0,0,0,.13.42.34.34,0,0,0,.46-.2Z"/><path d="M1472,638.18a.39.39,0,0,0-.18-.18.16.16,0,0,0-.24,0,.35.35,0,0,0,.08.25.34.34,0,0,1,.1.38.32.32,0,0,1-.44.1h0a.52.52,0,0,1-.19-.17l.11-.09a.34.34,0,0,0,.15.14.29.29,0,0,0,.21,0s0-.13-.08-.24a.38.38,0,0,1-.09-.39.34.34,0,0,1,.47-.09.7.7,0,0,1,.22.2Z"/><path d="M1471,638a.31.31,0,0,0-.07-.43l-.06,0a.66.66,0,0,0-.27-.09v-.13a.76.76,0,0,1,.32.11.46.46,0,0,1,.24.6.2.2,0,0,1,0,.08.48.48,0,0,1-.64.26h0a.43.43,0,0,1-.16-.59l0,0v-.07Zm-.53-.14a.25.25,0,0,0,0,.36l0,0a.3.3,0,0,0,.39-.13Z"/><path d="M1470.4,637.11l-.41.76.12.07-.07.12-.12-.06h0a.4.4,0,0,1-.5.23l-.09-.05a.47.47,0,0,1-.19-.18l.11-.1a.41.41,0,0,0,.16.16c.17.09.28,0,.36-.14v0l-.51-.28.47-.88.16.09-.41.76.36.19.41-.76Z"/><path d="M1469.11,637.25a1.15,1.15,0,0,0-.12.25l-.14-.08.07-.15h0a.37.37,0,0,1-.38,0,.38.38,0,0,1-.13-.52l0,0,.29-.53.16.09-.28.51c-.08.14-.08.29.07.37a.24.24,0,0,0,.3,0,.09.09,0,0,0,0-.07l.29-.53.16.09Z"/><path d="M1468.14,636.43a.31.31,0,0,0-.09-.44l0,0a.66.66,0,0,0-.27-.09v-.13a.76.76,0,0,1,.33.11.47.47,0,0,1,.23.61.25.25,0,0,1,0,.07.48.48,0,0,1-.64.26h0a.41.41,0,0,1-.16-.57.08.08,0,0,1,0,0v-.08Zm-.54-.14a.26.26,0,0,0,.06.36l0,0a.28.28,0,0,0,.38-.13Z"/><rect class="cls-8" x="858.55" y="674.77" width="103.64" height="217.39" rx="19.81"/><rect class="cls-8" x="967.08" y="672.19" width="28" height="91.44" rx="9.95" transform="translate(-229.01 834.54) rotate(-41.7)"/><rect class="cls-4" x="858.55" y="847.96" width="28" height="91.44" rx="9.95"/><rect class="cls-4" x="858.55" y="896.29" width="28" height="91.44" rx="9.95"/><rect class="cls-4" x="933.85" y="847.96" width="28" height="91.44" rx="9.95"/><rect class="cls-4" x="933.85" y="896.29" width="28" height="91.44" rx="9.95"/><rect class="cls-8" x="796.12" y="706.86" width="91.44" height="28" rx="9.95" transform="translate(-256.4 869.87) rotate(-48.3)"/><rect class="cls-8" x="784.99" y="754.22" width="62.76" height="28" rx="9.95" transform="translate(-40.84 1490.58) rotate(-83.38)"/><rect class="cls-8" x="992.19" y="720.13" width="62.76" height="28" rx="9.95" transform="translate(-208.11 470.32) rotate(-23.56)"/><rect class="cls-2" x="886.15" y="600.97" width="44.93" height="91.94" rx="15.97"/><ellipse class="cls-11" cx="908.67" cy="497.73" rx="84.95" ry="57.74"/><rect class="cls-1" x="850.33" y="481.38" width="112.98" height="177.02" rx="29.19"/><ellipse class="cls-12" cx="924.15" cy="533.85" rx="9.19" ry="7.32"/><ellipse class="cls-12" cx="888.27" cy="533.85" rx="9.19" ry="7.32"/><ellipse class="cls-11" cx="865.74" cy="477.65" rx="20.63" ry="16.44"/><ellipse class="cls-11" cx="901.63" cy="468.77" rx="34" ry="27.1"/><ellipse class="cls-11" cx="945.03" cy="481.28" rx="20.63" ry="16.44"/><ellipse class="cls-11" cx="965.67" cy="481.28" rx="15.41" ry="12.28"/><ellipse class="cls-11" cx="848.63" cy="470.72" rx="20.63" ry="16.44"/><ellipse class="cls-11" cx="852.85" cy="479.44" rx="25.3" ry="18.24"/><ellipse class="cls-11" cx="888.27" cy="452.16" rx="20.63" ry="16.44"/><ellipse class="cls-11" cx="950.25" cy="460.27" rx="20.63" ry="16.44"/><ellipse class="cls-11" cx="934.89" cy="452.16" rx="20.63" ry="16.44"/><ellipse class="cls-11" cx="867.63" cy="458.11" rx="20.63" ry="16.44"/><ellipse class="cls-11" cx="967.9" cy="477.65" rx="27.15" ry="21.64"/><path class="cls-4" d="M858.78,835.11a19,19,0,0,0-.23,2.82v32c0,12.78,12.54,23.23,27.87,23.23h47.91c15.32,0,27.86-10.45,27.86-23.23v-32a20.48,20.48,0,0,0-.22-2.82Z"/><path class="cls-13" d="M913.12,623.56a16.72,16.72,0,0,1,11,3.85c7.8-4.3,12.53-11.78,11.48-19.8h0a18.34,18.34,0,0,0-3.44-8.41l-48.71,4a17.17,17.17,0,0,0-1.2,8.79h0c1.1,8.42,8.28,15.23,17.7,17.92C902.4,626.15,907.38,623.56,913.12,623.56Z"/><path class="cls-14" d="M911.67,631.08h0a31.72,31.72,0,0,0,5.72-1,28.8,28.8,0,0,0,10.15-4.94,55.89,55.89,0,0,0-7.68-3.07A51.92,51.92,0,0,0,912,620.2c-8.44-1.05-16.8,5.3-18.83,6.92a31.72,31.72,0,0,0,12.61,3.93A32.19,32.19,0,0,0,911.67,631.08Z"/><path class="cls-15" d="M919.71,600.24l-5.8.39-4.42.49,1.69,13.18c.19,1.48,2.43,2.52,5,2.3l5.12-.42c2.54-.21,4.46-1.6,4.27-3.08l-1.72-13.17Z"/><rect class="cls-2" x="897.11" y="555.71" width="19.43" height="30.72" rx="5.02"/><rect class="cls-1" x="1045.16" y="711.55" width="26.23" height="12.06" rx="2.67" transform="translate(-198.36 481.47) rotate(-23.5)"/><rect class="cls-1" x="1062.3" y="701.55" width="36.92" height="16.97" rx="2.66" transform="translate(-193.72 491.18) rotate(-23.56)"/><rect class="cls-1" x="798.95" y="791.18" width="26.15" height="12.02" rx="2.66" transform="translate(-150.05 1404.88) rotate(-76.75)"/><rect class="cls-1" x="786.86" y="814.94" width="36.92" height="16.97" rx="2.66" transform="translate(-180.77 1418.58) rotate(-76.75)"/><rect class="cls-2" x="792.15" y="811.11" width="13.2" height="4.11" rx="1.33" transform="translate(-175.85 1404.28) rotate(-76.75)"/><path class="cls-5" d="M891.27,989c-1.46-12.28-9.75-21.69-19.76-21.69s-18.36,9.48-19.78,21.83Z"/><path class="cls-5" d="M967.62,989c-1.46-12.28-9.76-21.69-19.77-21.69s-18.36,9.48-19.77,21.83Z"/><path class="cls-9" d="M904.12,700.51h.9l2.73-6.63,2.73,6.63h.89a22.53,22.53,0,0,0,22.47-22.46v-3.28h-3.18c-3.52,11.1-8.41,16-21.59,17.85l-1.62.08c-10.22-.69-18-7.64-21-17.93l-4.77.41C881.65,687.54,891.76,700.51,904.12,700.51Z"/><polygon class="cls-7" points="901.6 835.11 918.09 835.11 961.97 835.11 961.85 840.22 918.44 840.22 901.6 840.22 858.55 840.22 858.78 835.11 901.6 835.11"/><path class="cls-3" d="M914.09,835.11s13.54.58,17.42,7.78S930,846.3,930,846.3s-12.78-6-15.18-6.08-.69-4.58-.69-4.58Z"/><rect class="cls-6" x="907.85" y="835.11" width="1.07" height="5.11"/><rect class="cls-6" x="913.5" y="835.11" width="1.07" height="5.11"/><rect class="cls-6" x="908.39" y="835.11" width="5.11" height="1.07"/><rect class="cls-6" x="908.38" y="839.15" width="5.11" height="1.07"/><path class="cls-1" d="M850.25,533a15.46,15.46,0,0,0-2.45.19,15.79,15.79,0,0,0,2.55,31.41Z"/><path class="cls-2" d="M850.27,539.86a9.32,9.32,0,0,0-1.4.1,8.92,8.92,0,0,0,1.46,17.74Z"/><path class="cls-1" d="M963.16,532.54a16.85,16.85,0,0,1,2.35.23c8.35,1.45,14,8.82,12.72,16.47-1.21,7-7.78,11.74-15.22,11.48Z"/><path class="cls-2" d="M963.13,538.68a10,10,0,0,1,1.34.12c4.71.82,7.93,5,7.18,9.31a8.19,8.19,0,0,1-8.61,6.47Z"/><polygon class="cls-22" points="1092.35 631.46 1097.26 602.71 1070.61 612.01 1092.35 631.46"/><path class="cls-4" d="M1090.88,630c-.32-.78,1.4-1.37,1.68-.58l7.91,22.64s-1.08.8-1.68.59S1091.2,630.74,1090.88,630Z"/><polygon class="cls-23" points="1074.33 636.56 1079.24 607.8 1052.59 617.11 1074.33 636.56"/><path class="cls-4" d="M1072.86,635.05c-.32-.79,1.4-1.38,1.68-.59l7.91,22.65s-1.08.79-1.68.58S1073.18,635.83,1072.86,635.05Z"/><polygon class="cls-24" points="1062.4 640.41 1072.17 612.93 1044.32 617.52 1062.4 640.41"/><path class="cls-4" d="M1061.21,638.67c-.19-.83,1.62-1.11,1.75-.29l3.91,23.67s-1.2.6-1.76.29S1061.39,639.5,1061.21,638.67Z"/><polygon class="cls-22" points="1119.01 638.03 1136.38 614.6 1108.41 610.86 1119.01 638.03"/><path class="cls-4" d="M1118.38,636c.07-.85,1.88-.59,1.77.24L1117,660s-1.32.22-1.77-.23S1118.31,636.87,1118.38,636Z"/><polygon class="cls-23" points="1101.51 634.3 1118.88 610.87 1090.91 607.13 1101.51 634.3"/><path class="cls-4" d="M1100.88,632.29c.07-.85,1.88-.59,1.77.24l-3.18,23.77s-1.32.23-1.77-.23S1100.81,633.14,1100.88,632.29Z"/><polygon class="cls-22" points="1066.21 634.72 1075.03 606.92 1047.36 612.46 1066.21 634.72"/><path class="cls-4" d="M1065,633c-.21-.82,1.58-1.16,1.74-.35l4.72,23.52s-1.18.64-1.75.35S1065.17,633.85,1065,633Z"/><polygon class="cls-24" points="1111.78 631.55 1129.15 608.12 1101.18 604.38 1111.78 631.55"/><path class="cls-4" d="M1111.15,629.54c.07-.85,1.88-.59,1.77.24l-3.18,23.77s-1.32.22-1.77-.23S1111.08,630.39,1111.15,629.54Z"/><polygon class="cls-25" points="1067.72 639.4 1082.15 614.05 1053.93 613.7 1067.72 639.4"/><path class="cls-4" d="M1066.86,637.48c0-.85,1.79-.81,1.78,0l-.3,24s-1.28.38-1.78,0S1066.89,638.33,1066.86,637.48Z"/><polygon class="cls-26" points="1083.85 639.4 1098.28 614.05 1070.06 613.7 1083.85 639.4"/><path class="cls-4" d="M1083,637.48c0-.85,1.79-.81,1.78,0l-.3,24s-1.28.38-1.78,0S1083,638.33,1083,637.48Z"/><polygon class="cls-25" points="1101.26 638.6 1125.33 622.13 1100.12 609.45 1101.26 638.6"/><path class="cls-4" d="M1101.32,636.49c.34-.78,2,.06,1.59.8l-10.78,21.43s-1.32-.22-1.59-.8S1101,637.27,1101.32,636.49Z"/><polygon class="cls-26" points="1051.11 635.22 1055.03 606.32 1028.72 616.53 1051.11 635.22"/><path class="cls-4" d="M1049.59,633.76c-.35-.77,1.35-1.42,1.66-.64l8.67,22.36s-1.05.83-1.66.65S1049.94,634.54,1049.59,633.76Z"/><polygon class="cls-10" points="1085.75 746.83 1126.46 639.18 1045.04 639.18 1085.75 746.83"/><polygon class="cls-17" points="1085.75 746.83 1081.56 639.17 1045.32 639.17 1085.75 746.83"/><rect class="cls-2" x="1062.9" y="703.36" width="13.2" height="4.11" rx="1.33" transform="translate(-192.81 486.29) rotate(-23.56)"/><path d="M116.35,97.87H91.92L89.46,104h2.46c2.42,0,4.14.46,5.17,1.4a5,5,0,0,1,.19,7.07l-.19.19c-1,.93-2.76,1.39-5.17,1.4H78.37q-3.63,0-5.17-1.4a5,5,0,0,1-.21-7.07l.28-.27q1.62-1.42,5.35-1.32l15.8-39.36H87.85c-2.43,0-4.15-.46-5.18-1.39A5.1,5.1,0,0,1,82.56,56l.11-.11c1-.93,2.75-1.39,5.18-1.39l21.73.05,20,49.41c2.36,0,3.91.26,4.66.78a5,5,0,0,1,2.26,4.27,4.69,4.69,0,0,1-1.52,3.61c-1,.93-2.72,1.39-5.15,1.4H116.3q-3.63,0-5.17-1.4a4.71,4.71,0,0,1-1.55-3.66,4.65,4.65,0,0,1,1.55-3.6c1-.94,2.75-1.4,5.17-1.4h2.46Zm-4.17-10.06-8.09-19.92L95.94,87.81Z"/><path d="M156,69.51V72.9a19.23,19.23,0,0,1,6.06-3.54,21.4,21.4,0,0,1,7.18-1.17q8.94,0,14.14,5.54,4.11,4.42,4.12,11.58V104a6.77,6.77,0,0,1,4.71,1.4,4.76,4.76,0,0,1,1.52,3.65,4.68,4.68,0,0,1-1.55,3.61c-1,.93-2.76,1.39-5.17,1.4h-9.08q-3.63,0-5.18-1.4a4.7,4.7,0,0,1-1.54-3.66,4.64,4.64,0,0,1,1.52-3.6,6.77,6.77,0,0,1,4.71-1.4V85c0-2.19-.59-3.8-1.77-4.81-1.54-1.31-3.84-2-6.92-2a13.18,13.18,0,0,0-6.11,1.35A27.33,27.33,0,0,0,156,85.31V104c2.58,0,4.25.24,5,.73a4.79,4.79,0,0,1,2.4,4.32,4.67,4.67,0,0,1-1.54,3.61c-1,.93-2.76,1.39-5.18,1.4H145.25q-3.63,0-5.18-1.4a4.7,4.7,0,0,1-1.54-3.66,4.81,4.81,0,0,1,2.35-4.27c.79-.49,2.47-.73,5.06-.73V79.57a6.67,6.67,0,0,1-4.71-1.42,4.76,4.76,0,0,1-1.53-3.63,4.64,4.64,0,0,1,1.55-3.61c1-.93,2.76-1.39,5.18-1.4Z"/><path d="M225.81,79.57V99.74c0,2.16.45,3.58,1.33,4.27,1.37,1.08,3.83,1.62,7.36,1.62a31.22,31.22,0,0,0,14.23-3.29,9.6,9.6,0,0,1,3.92-1.28,4.61,4.61,0,0,1,3.42,1.48,4.9,4.9,0,0,1,1.44,3.58,4.38,4.38,0,0,1-1.57,3.38q-2.4,2.31-9.49,4.25a47,47,0,0,1-11.95,1.94q-9.37,0-14.06-4a12.66,12.66,0,0,1-4.69-9.94V79.57h-3.63q-3.63,0-5.17-1.4a5,5,0,0,1,.05-7.26c1-.93,2.76-1.39,5.17-1.4h3.63V60.43q0-3.63,1.4-5.17a5,5,0,0,1,7.27,0c.93,1,1.4,2.76,1.39,5.17v9.08h18.6q3.63,0,5.18,1.4a4.7,4.7,0,0,1,1.54,3.66,4.61,4.61,0,0,1-1.54,3.6c-1,.93-2.75,1.39-5.18,1.4Z"/><path d="M316.54,92.62a21.81,21.81,0,0,1-3.22,11.22,22.62,22.62,0,0,1-9.57,8.63,28.91,28.91,0,0,1-26.42,0,22.81,22.81,0,0,1-9.57-8.61,21.73,21.73,0,0,1-3.29-11.38,24.25,24.25,0,0,1,12.93-21,27.33,27.33,0,0,1,26.3.08,23.3,23.3,0,0,1,9.6,9.17A23.88,23.88,0,0,1,316.54,92.62Zm-10.06,0A13.38,13.38,0,0,0,303,83.74a17,17,0,0,0-23.89-1.13,13.61,13.61,0,0,0-4.57,10.11q0,4.71,4.62,8.81a17.77,17.77,0,0,0,22.71,0q4.61-4.09,4.61-8.86Z"/><path d="M342.34,69.51V72.9a19.23,19.23,0,0,1,6.06-3.54,21.42,21.42,0,0,1,7.19-1.17q8.93,0,14.13,5.54,4.13,4.42,4.12,11.58V104a6.77,6.77,0,0,1,4.71,1.4,5.07,5.07,0,0,1,0,7.26c-1,.93-2.75,1.39-5.18,1.4h-9.08q-3.63,0-5.17-1.4a5.07,5.07,0,0,1-.1-7.16.94.94,0,0,1,.1-.1,6.77,6.77,0,0,1,4.71-1.4V85c0-2.19-.59-3.8-1.76-4.81q-2.31-2-6.92-2A13.17,13.17,0,0,0,349,79.6a27.13,27.13,0,0,0-6.65,5.71V104c2.58,0,4.25.24,5,.73a4.77,4.77,0,0,1,2.41,4.32,4.68,4.68,0,0,1-1.55,3.61c-1,.93-2.75,1.39-5.17,1.4H331.59q-3.63,0-5.17-1.4a4.71,4.71,0,0,1-1.55-3.66,4.83,4.83,0,0,1,2.36-4.27c.78-.49,2.47-.73,5-.73V79.57a6.67,6.67,0,0,1-4.71-1.42A4.75,4.75,0,0,1,326,74.52a4.64,4.64,0,0,1,1.54-3.61c1-.93,2.76-1.39,5.18-1.4Z"/><path d="M406.32,52.58h13.44L405.29,79.87c-.85,1.6-1.92,2.4-3.19,2.4a3.08,3.08,0,0,1-2.18-.83,2.5,2.5,0,0,1-.91-1.87,8,8,0,0,1,.34-2Z"/><path d="M487.62,81.29A20.15,20.15,0,0,0,482.47,79a20.75,20.75,0,0,0-5.65-.76c-3.89,0-7,.63-9.27,1.91-1,.56-1.52,1.16-1.52,1.82s.69,1.48,2.06,2.2c1.05.53,3.39,1,7,1.53q10,1.36,13.93,2.74a16.87,16.87,0,0,1,8,5.4,12.09,12.09,0,0,1,2.8,7.56,11,11,0,0,1-4.76,9q-6.83,5.25-17.71,5.25a40.59,40.59,0,0,1-8.08-.76,29.55,29.55,0,0,1-6.79-2.24,5.38,5.38,0,0,1-1.57,1,4.41,4.41,0,0,1-1.72.35,4.83,4.83,0,0,1-3.75-1.55c-.94-1-1.4-2.75-1.4-5.17v-3.39c0-2.42.46-4.15,1.4-5.18A4.69,4.69,0,0,1,459,97.17a4.59,4.59,0,0,1,3,1,6.73,6.73,0,0,1,1.92,3.46,15.48,15.48,0,0,0,5.54,3,25.43,25.43,0,0,0,7.46,1q6.92,0,10.75-2.16c1.21-.72,1.81-1.47,1.81-2.26,0-1.31-.86-2.39-2.6-3.24s-5.31-1.57-10.74-2.16q-12.12-1.28-16.2-4.9a11.36,11.36,0,0,1-4-8.84,11,11,0,0,1,4.56-9q6.19-4.91,16.2-4.9a32.64,32.64,0,0,1,6.69.66,27.22,27.22,0,0,1,6.16,2,8.36,8.36,0,0,1,1.74-1,3.7,3.7,0,0,1,1.5-.35A4.45,4.45,0,0,1,496.29,71c.91,1,1.37,2.76,1.37,5.17v2.46c0,2.19-.26,3.68-.79,4.46a5.1,5.1,0,0,1-7.09,1.39l-.36-.26A5,5,0,0,1,487.62,81.29Z"/><path d="M624.07,50.42V104h1.71c2.39,0,4.11.46,5.16,1.4a5,5,0,0,1,.19,7.07l-.19.19c-1,.93-2.75,1.4-5.18,1.4H614V111.6a29.2,29.2,0,0,1-15,4.08q-11.32,0-18.25-6.55a21.56,21.56,0,0,1-6.92-16.32,23.67,23.67,0,0,1,7.26-17.42,24.19,24.19,0,0,1,17.72-7.21,25.48,25.48,0,0,1,7.7,1.2A30.66,30.66,0,0,1,614,73V60.48h-1.72c-2.42,0-4.15-.46-5.18-1.4a4.61,4.61,0,0,1-1.54-3.6,4.7,4.7,0,0,1,1.54-3.66c1-.93,2.75-1.4,5.18-1.4ZM614,93.11a14.31,14.31,0,0,0-4.37-10.55,15.36,15.36,0,0,0-21.34,0A14.08,14.08,0,0,0,583.93,93a11.77,11.77,0,0,0,3.92,9.1q3.93,3.56,11.09,3.56T610,102.07A11.53,11.53,0,0,0,614,93.11Z"/><path d="M688.34,96.89H647.07a13,13,0,0,0,5.57,6.33q4,2.41,10.82,2.41a62.41,62.41,0,0,0,14.87-2.41,25.82,25.82,0,0,1,5.3-1,4.56,4.56,0,0,1,3.39,1.42,5,5,0,0,1,1.37,3.59,4.36,4.36,0,0,1-1.47,3.33q-2,1.81-9.57,3.46a69.12,69.12,0,0,1-14.62,1.65q-12.08,0-19.31-6.82a22.13,22.13,0,0,1-7.24-16.79A21.57,21.57,0,0,1,644,74.84a27,27,0,0,1,18-6.65,28.79,28.79,0,0,1,11.26,2.16A23.83,23.83,0,0,1,680.93,75a29.55,29.55,0,0,1,5.84,9,22,22,0,0,1,1.57,8.63ZM677.2,86.83a15.81,15.81,0,0,0-6-6.45,19.49,19.49,0,0,0-17.72,0,16.07,16.07,0,0,0-6.08,6.45Z"/><path d="M736.08,81.29A20.15,20.15,0,0,0,730.93,79a20.75,20.75,0,0,0-5.65-.76c-3.89,0-7,.63-9.27,1.91-1,.56-1.52,1.16-1.52,1.82s.69,1.48,2.06,2.2c1.05.53,3.38,1,7,1.53q10,1.36,13.93,2.74a16.82,16.82,0,0,1,8,5.4,12.09,12.09,0,0,1,2.8,7.56,11,11,0,0,1-4.76,9q-6.82,5.25-17.72,5.25a40.49,40.49,0,0,1-8.07-.76,29.4,29.4,0,0,1-6.79-2.24,5.38,5.38,0,0,1-1.57,1,4.41,4.41,0,0,1-1.72.35,4.83,4.83,0,0,1-3.75-1.55c-.94-1-1.4-2.75-1.4-5.17v-3.39c0-2.42.46-4.15,1.4-5.18a4.69,4.69,0,0,1,3.65-1.54,4.64,4.64,0,0,1,3,1,6.73,6.73,0,0,1,1.92,3.46,15.48,15.48,0,0,0,5.54,3,25.43,25.43,0,0,0,7.46,1q6.91,0,10.75-2.16c1.21-.72,1.81-1.47,1.81-2.26,0-1.31-.87-2.39-2.6-3.24s-5.32-1.57-10.75-2.16q-12.12-1.28-16.19-4.9a11.34,11.34,0,0,1-4.07-8.84,11,11,0,0,1,4.56-9q6.18-4.91,16.2-4.9a32.64,32.64,0,0,1,6.69.66,27.22,27.22,0,0,1,6.16,2,8.36,8.36,0,0,1,1.74-1,3.7,3.7,0,0,1,1.5-.35A4.42,4.42,0,0,1,744.7,71c.92,1,1.38,2.76,1.38,5.17v2.46c0,2.19-.26,3.68-.79,4.46A4.91,4.91,0,0,1,741,85.41a4.81,4.81,0,0,1-3.18-1.13A5.07,5.07,0,0,1,736.08,81.29Z"/><path d="M792.31,69.51V104h12.07c2.42,0,4.14.46,5.17,1.4a5,5,0,0,1,.19,7.07c-.06.06-.12.13-.19.19-1,.93-2.75,1.39-5.17,1.4h-34.2c-2.43,0-4.15-.47-5.18-1.4a4.71,4.71,0,0,1-1.55-3.66,4.65,4.65,0,0,1,1.55-3.6c1-.94,2.75-1.4,5.18-1.4h12.07V79.57h-8.1c-2.39,0-4.1-.47-5.15-1.4a5,5,0,0,1-.19-7.07c.06-.06.12-.13.19-.19,1-.93,2.75-1.39,5.18-1.4Zm-1.38-19.09V61.07H779V50.42Z"/><path d="M860.5,72.51v-3h11.78q3.63,0,5.18,1.4A4.7,4.7,0,0,1,879,74.57a4.61,4.61,0,0,1-1.54,3.6c-1,.93-2.76,1.39-5.18,1.4h-1.72v36.61a18.42,18.42,0,0,1-2.23,9.25,20.08,20.08,0,0,1-17.25,9.64H839.7q-3.63,0-5.18-1.4a4.64,4.64,0,0,1-1.54-3.61,4.69,4.69,0,0,1,1.54-3.65c1-.93,2.75-1.39,5.18-1.4h11.09a9.79,9.79,0,0,0,7.16-2.5,8.5,8.5,0,0,0,2.55-6.33v-4.91a28.06,28.06,0,0,1-6.79,3.24,24.65,24.65,0,0,1-24.27-5.77,22.84,22.84,0,0,1-6.91-16.9,22.91,22.91,0,0,1,6.91-17A23.44,23.44,0,0,1,846.62,68a24,24,0,0,1,7.29,1.1A23.46,23.46,0,0,1,860.5,72.51Zm0,19.28a13.14,13.14,0,0,0-4.1-9.62,13.92,13.92,0,0,0-19.68,0,13.36,13.36,0,0,0-.37,18.89l.37.37a14,14,0,0,0,19.68,0,13.08,13.08,0,0,0,4.06-9.64Z"/><path d="M901.37,69.51V72.9a19.23,19.23,0,0,1,6.06-3.54,21.42,21.42,0,0,1,7.19-1.17q8.94,0,14.13,5.54,4.13,4.42,4.13,11.58V104a6.77,6.77,0,0,1,4.71,1.4,4.76,4.76,0,0,1,1.52,3.65,4.68,4.68,0,0,1-1.55,3.61c-1,.93-2.75,1.39-5.18,1.4h-9.07q-3.63,0-5.18-1.4a5,5,0,0,1,0-7.26,6.77,6.77,0,0,1,4.71-1.4V85c0-2.19-.59-3.8-1.77-4.81-1.54-1.31-3.84-2-6.92-2A13.17,13.17,0,0,0,908,79.6a27.13,27.13,0,0,0-6.65,5.71V104c2.59,0,4.25.24,5,.73a4.79,4.79,0,0,1,2.4,4.32,4.67,4.67,0,0,1-1.54,3.61c-1,.93-2.75,1.39-5.18,1.4h-11.4q-3.63,0-5.18-1.4A4.71,4.71,0,0,1,883.9,109a4.83,4.83,0,0,1,2.36-4.27c.78-.49,2.47-.73,5-.73V79.57a6.72,6.72,0,0,1-4.71-1.42A4.75,4.75,0,0,1,885,74.52a4.64,4.64,0,0,1,1.55-3.61c1-.93,2.75-1.39,5.17-1.4Z"/><rect class="cls-2" x="1584.53" y="142.21" width="31.23" height="63.82" rx="6.57"/><path class="cls-8" d="M1633.24,194.74l-9.47,2.7a4.8,4.8,0,0,0-3.3,5.93l14.78,51.82a4.81,4.81,0,0,0,5.93,3.3l9.48-2.7a4.81,4.81,0,0,0,3.3-5.93L1639.18,198A4.82,4.82,0,0,0,1633.24,194.74Z"/><rect class="cls-4" x="1565.34" y="306.57" width="19.46" height="63.48" rx="4.1"/><path class="cls-8" d="M1602.42,194.12l-1.42.1c-5.5,0-11.64-.32-15-4.41a36.11,36.11,0,0,0-20.61,32.5v79a36.09,36.09,0,0,0,36,36h0a36.09,36.09,0,0,0,36-36v-79a36.12,36.12,0,0,0-22.66-33.4C1612.94,191.87,1607.13,194.12,1602.42,194.12Z"/><rect class="cls-4" x="1565.34" y="340.12" width="19.46" height="63.48" rx="4.1"/><rect class="cls-4" x="1617.67" y="306.57" width="19.46" height="63.48" rx="4.1"/><rect class="cls-4" x="1617.67" y="340.12" width="19.46" height="63.48" rx="4.1"/><path class="cls-8" d="M1571.93,195.33l9.14,3.68a4.82,4.82,0,0,1,2.66,6.25l-20.15,50a4.82,4.82,0,0,1-6.25,2.65l-9.14-3.67a4.82,4.82,0,0,1-2.66-6.25l20.15-50A4.82,4.82,0,0,1,1571.93,195.33Z"/><rect class="cls-8" x="1532.43" y="255.36" width="43.57" height="19.46" rx="4.1" transform="matrix(0.12, -0.99, 0.99, 0.12, 1111.98, 1778.46)"/><rect class="cls-8" x="1625.58" y="257.36" width="43.04" height="19.22" rx="4.05" transform="matrix(0.01, -1, 1, 0.01, 1365.48, 1911.63)"/><rect class="cls-1" x="1559.63" y="52.07" width="78.52" height="122.89" rx="16.53"/><path class="cls-4" d="M1565.5,297.65a14.84,14.84,0,0,0-.16,2v22.22c0,8.87,8.72,16.13,19.37,16.13H1618c10.66,0,19.37-7.26,19.37-16.13V299.6a12.17,12.17,0,0,0-.16-2Z"/><rect class="cls-1" x="1637.02" y="286.83" width="17.93" height="8.25" rx="1.74" transform="translate(1340.4 1934.29) rotate(-89.49)"/><rect class="cls-1" x="1633.25" y="305.53" width="25.32" height="11.65" rx="2.45" transform="translate(1318.11 1954.07) rotate(-89.43)"/><rect class="cls-2" x="1635.75" y="302.25" width="9.05" height="2.82" rx="0.59" transform="translate(1322.02 1941.17) rotate(-89.49)"/><rect class="cls-2" x="1549.77" y="297.78" width="9.16" height="2.85" rx="0.7" transform="translate(907.1 1743.71) rotate(-76.76)"/><rect class="cls-1" x="1542.25" y="281.07" width="18.15" height="8.35" rx="2.06" transform="translate(918.37 1730) rotate(-76.76)"/><rect class="cls-16" x="1499.66" y="280.99" width="53.1" height="69.04" transform="translate(542.05 1523.93) rotate(-62.52)"/><rect class="cls-17" x="1498.62" y="309.65" width="53.1" height="10.63" transform="translate(541.96 1522.71) rotate(-62.52)"/><path class="cls-18" d="M1534.2,338.91s6.32,1.59,4.77,6.91-5.25,3.93-5.25,3.93-2.68.31-3.92,1.77-3.74,5.87-4.83,6.67-2.45,2.73-4.53-.19a43.8,43.8,0,0,1-4.83-8.9c-.51-1.62-2-5.1-2-5.1l-1.4-1.88a2.81,2.81,0,0,0-1.76-.92,22,22,0,0,0-5.09.88,68.62,68.62,0,0,1-9.86,1.68c-1.4-.05-6,.28-5.44-2.36a30.54,30.54,0,0,1,2.29-6.49c1.24-3,.87-4.09-.3-6.75-.46-1.05-2-2.17.08-5.67,0,0,1.56-3.34,4.44-2.72s4.82,1.84,8.31,6.64,1.53,2.15,4.23,5.73l3.46,4.59,1,.86.73.38s7,.59,8.74.2S1531.83,338.5,1534.2,338.91Z"/><path class="cls-19" d="M1517.39,339.56l10.62-.4a31.07,31.07,0,0,1,7.54,1.21,2.8,2.8,0,0,1,1.89,3.47c0,.12-.09.24-.14.36a3.73,3.73,0,0,1-3.48,1.32c-2.07-.47-5.33-1.28-6.75-1.81S1517.39,339.56,1517.39,339.56Z"/><path class="cls-19" d="M1509.62,335.52l-5.76-8.92a31,31,0,0,0-5.31-5.48,2.81,2.81,0,0,0-4,.47l-.2.3a3.71,3.71,0,0,0,.92,3.6,65.51,65.51,0,0,0,5.35,4.49C1501.92,330.83,1509.62,335.52,1509.62,335.52Z"/><path class="cls-19" d="M1516.76,338.21l-3.12,5.79s-1.14,1.34-1.74.21-.85-1.7-.85-1.7l-2.21.32a1.06,1.06,0,0,1-.63-1.37,1,1,0,0,1,.08-.18c.54-1.11,3.06-5.88,3.06-5.88l1.21.62.88,1.65,2.16.1Z"/><polygon class="cls-18" points="1512.14 339.96 1513.7 306.53 1509.26 312 1503.31 309.69 1512.01 339.89 1512.14 339.96"/><polygon class="cls-18" points="1512.39 340 1538.9 319.55 1536.97 326.33 1542.27 329.87 1512.52 340.06 1512.39 340"/><path class="cls-20" d="M1518.87,347.81l-5.52-8.11a2.26,2.26,0,0,0-3.12-.6l-3.2,2.17a2.26,2.26,0,0,0-.6,3.13l5.52,8.11a2.25,2.25,0,0,0,3.12.59l3.2-2.16A2.26,2.26,0,0,0,1518.87,347.81Zm-7.28-8a.32.32,0,1,1,.45.09.33.33,0,0,1-.45-.09Z"/><line class="cls-21" x1="1512.01" y1="344.09" x2="1515.51" y2="349.24"/><line class="cls-21" x1="1509.77" y1="345.62" x2="1513.27" y2="350.76"/><line class="cls-21" x1="1509.69" y1="345.5" x2="1513.27" y2="350.76"/><path d="M1511.5,341.28l.35.52-.11.07-.26-.39-.32.22.24.36-.1.07-.25-.36-.43.29-.09-.12Z"/><path d="M1511.45,342.27l.22-.16.07.11-.13.1h0a.24.24,0,0,1,.28.09h0l-.12.08h0a.21.21,0,0,0-.28-.06h-.06l-.37.25-.08-.12Z"/><path d="M1511.55,343.43l.08-.07h0a.35.35,0,0,1-.25-.14.25.25,0,0,1,.06-.35h0c.16-.11.36,0,.54.24h0a.16.16,0,0,0,0-.22l0,0a.35.35,0,0,0-.17-.15l.06-.08a.55.55,0,0,1,.22.18.31.31,0,0,1-.07.43l0,0-.25.17-.16.12Zm.34-.26c-.09-.14-.22-.27-.35-.18a.13.13,0,0,0,0,.18l0,0a.19.19,0,0,0,.23.08h0Z"/><path d="M1511.81,343.66a.1.1,0,0,1,.14,0h0a.12.12,0,0,1,0,.16.11.11,0,0,1-.16,0l0,0A.1.1,0,0,1,1511.81,343.66Zm.5-.35a.11.11,0,0,1,.15,0,.09.09,0,0,1,0,.13h0a.1.1,0,0,1-.14,0h0A.12.12,0,0,1,1512.31,343.31Z"/><path d="M1512.78,344.59l-.37.11-.09-.13,1.19-.33.1.15-.74,1-.09-.13.23-.31Zm.31.25.22-.28a1.15,1.15,0,0,1,.14-.17h0l-.21.07-.34.09Z"/><path d="M1513.46,345.16l.19-.13.07.11-.11.09h0a.29.29,0,0,1,.28.14c.07.09.11.28-.13.44l-.41.28-.08-.12.39-.27c.11-.08.18-.18.1-.3a.2.2,0,0,0-.24-.08h-.07l-.41.28-.09-.13Z"/><path d="M1514.49,345.84l-.2.13.12.18-.09.07-.13-.18-.37.25c-.08.06-.12.12-.07.19l.06.06-.09.07a.28.28,0,0,1-.09-.1.17.17,0,0,1,0-.17c0-.06.06-.11.14-.17l.38-.25-.07-.11.09-.07.08.11.16-.11Z"/><path d="M1514.59,347.14a.41.41,0,0,1-.58-.06l0,0a.4.4,0,0,1,.09-.56l0,0a.43.43,0,0,1,.59.08v0a.4.4,0,0,1-.11.56Zm-.38-.54a.3.3,0,0,0-.13.39h0a.28.28,0,0,0,.4,0h0a.26.26,0,0,0,.14-.35v0a.27.27,0,0,0-.4,0Z"/><path d="M1514.85,347.2l.18-.14.08.11-.11.09h0a.29.29,0,0,1,.28.14c.07.1.11.28-.13.44l-.41.28-.08-.12.39-.27c.12-.08.18-.18.1-.3a.2.2,0,0,0-.24-.08h-.07l-.41.28-.09-.12Z"/><path d="M1509.37,343l-.2-.29.11-.07.48.71-.1.07-.2-.29-.86.58-.08-.13Z"/><path d="M1508.86,344.08l.69-.47.09.12-.7.47Zm1-.46a.09.09,0,0,1-.13,0h0a.09.09,0,0,1,0-.13h0a.1.1,0,0,1,.14,0,.11.11,0,0,1,0,.13Z"/><path d="M1510.1,343.72l.08.13-1,.69-.08-.13Z"/><path d="M1509.37,344.67a.1.1,0,0,1,.14,0h0a.11.11,0,0,1,0,.15.1.1,0,1,1-.11-.17h0Zm.5-.34a.1.1,0,0,1,.14,0h0a.12.12,0,0,1,0,.16.11.11,0,0,1-.16,0l0,0a.1.1,0,0,1,0-.12Z"/><path d="M1511.23,345.5l.08.12-.64.44c-.25.17-.42.1-.53-.07a.61.61,0,0,1-.07-.14l.12-.05a.21.21,0,0,0,0,.11c.07.11.17.15.36,0Z"/><path d="M1511.27,346.86a.4.4,0,0,1-.56,0l0-.05a.38.38,0,0,1,.09-.54l0,0a.41.41,0,0,1,.58.06l0,0a.38.38,0,0,1-.09.54Zm-.38-.54a.3.3,0,0,0-.13.39h0a.31.31,0,0,0,.42,0,.3.3,0,0,0,.12-.39.28.28,0,0,0-.4,0Z"/><path d="M1511.14,347.16a.36.36,0,0,0,.06.2c.07.09.14.1.2.06s.07-.1,0-.21a.27.27,0,0,1,.07-.32.27.27,0,0,1,.36.09h0a.5.5,0,0,1,.08.2h-.12a.49.49,0,0,0,0-.17.14.14,0,0,0-.18,0v.21c0,.11,0,.25-.09.32a.28.28,0,0,1-.38-.11.5.5,0,0,1-.09-.23Z"/><path d="M1511.78,347.68a.25.25,0,0,0-.11.35l0,.05a.41.41,0,0,0,.16.16l-.07.09a.8.8,0,0,1-.2-.21.38.38,0,0,1,.06-.53l.06,0a.39.39,0,0,1,.56,0l0,0a.36.36,0,0,1-.11.5h-.08Zm.34.3a.22.22,0,0,0,.1-.28l0,0a.24.24,0,0,0-.33-.05Z"/><path d="M1511.9,348.55l.6-.4-.07-.1.1-.06.06.09h0a.35.35,0,0,1,.48.05l0,.05a.48.48,0,0,1,.07.2h-.12a.35.35,0,0,0-.06-.17c-.09-.13-.21-.11-.32,0h0l.27.4-.69.47-.08-.13.59-.4-.19-.28-.59.41Z"/><path d="M1512.9,348.94l.19-.13.07.11-.11.09h0a.31.31,0,0,1,.28.14c.07.1.11.28-.13.44l-.41.28-.09-.12.4-.27c.11-.08.18-.18.1-.3a.2.2,0,0,0-.24-.08h-.07l-.41.28-.09-.12Z"/><path d="M1513.31,349.93a.25.25,0,0,0-.11.35l0,.05a.46.46,0,0,0,.17.17l-.08.08a.64.64,0,0,1-.2-.2.4.4,0,0,1,.07-.55l0,0a.39.39,0,0,1,.56,0l0,0a.36.36,0,0,1-.11.5h-.08Zm.34.31a.23.23,0,0,0,.09-.31h0a.26.26,0,0,0-.34-.05Z"/><rect class="cls-1" x="1533.85" y="297.55" width="25.63" height="11.79" rx="2.91" transform="translate(897.05 1739.5) rotate(-76.76)"/><path class="cls-5" d="M1588.81,403.54c-1-5.44-6.78-9.6-13.73-9.6s-12.76,4.19-13.75,9.66Z"/><path class="cls-5" d="M1641.14,403.54c-1-5.44-6.78-9.6-13.73-9.6s-12.77,4.19-13.75,9.66Z"/><path class="cls-9" d="M1597,196.29h5c8.59,0,15.62-2.61,15.62-5.79v-.24l-3-1.35h0c-2.45,2.87-5.1,4.86-14.26,5.35h-1.12c-7.11-.18-11.27-1.81-13.38-4.47l-3.24,1.76C1582.71,194.75,1588.43,196.29,1597,196.29Z"/><polygon class="cls-7" points="1595.26 297.64 1606.72 297.64 1637.21 297.64 1637.13 301.19 1606.96 301.19 1595.26 301.19 1565.34 301.19 1565.5 297.64 1595.26 297.64"/><path class="cls-1" d="M1559.58,87.9a11,11,0,0,0-11.06,10.94,11.36,11.36,0,0,0,.13,1.75,11,11,0,0,0,11,9.25Z"/><path class="cls-1" d="M1638,87.59a11.26,11.26,0,0,1,1.64.17c5.8,1,9.75,6.12,8.83,11.43-.83,4.82-5.4,8.15-10.57,8Z"/><ellipse class="cls-11" cx="1600.17" cy="63.43" rx="59.04" ry="40.09"/><ellipse class="cls-11" cx="1570.34" cy="49.49" rx="14.34" ry="11.42"/><ellipse class="cls-11" cx="1595.28" cy="43.32" rx="23.63" ry="18.81"/><ellipse class="cls-11" cx="1625.45" cy="52.01" rx="14.34" ry="11.42"/><ellipse class="cls-11" cx="1639.78" cy="52.01" rx="10.71" ry="8.53"/><ellipse class="cls-11" cx="1558.45" cy="44.68" rx="14.34" ry="11.42"/><ellipse class="cls-11" cx="1561.38" cy="50.73" rx="17.58" ry="12.66"/><ellipse class="cls-11" cx="1586" cy="31.79" rx="14.34" ry="11.42"/><ellipse class="cls-11" cx="1629.07" cy="37.42" rx="14.34" ry="11.42"/><ellipse class="cls-11" cx="1618.4" cy="31.79" rx="14.34" ry="11.42"/><ellipse class="cls-11" cx="1571.66" cy="35.93" rx="14.34" ry="11.42"/><ellipse class="cls-11" cx="1641.34" cy="49.49" rx="18.87" ry="15.03"/><path class="cls-27" d="M1606.18,337.86c-2.43.11-2.66-5.23-2.68-6.87v-.5h0c-.06-3.34-.57-19.05-.57-19.05.52,14.54-.14,25.28-2.84,26.4l-.78.1h6.86S1609.05,337.72,1606.18,337.86Z"/><rect class="cls-2" x="1804.26" y="142.33" width="30.82" height="63" rx="6.57"/><path class="cls-8" d="M1852.35,194.18l-9.35,2.66a4.74,4.74,0,0,0-3.26,5.85l14.59,51.15a4.75,4.75,0,0,0,5.86,3.26l9.35-2.66a4.77,4.77,0,0,0,3.26-5.86l-14.59-51.15A4.76,4.76,0,0,0,1852.35,194.18Z"/><rect class="cls-4" x="1785.33" y="304.55" width="19.21" height="62.66" rx="4.1"/><path class="cls-8" d="M1821.93,193.56l-1.4.11c-5.44,0-11.49-.32-14.86-4.36a35.62,35.62,0,0,0-20.34,32.08v77.94a35.63,35.63,0,0,0,35.55,35.51h0a35.63,35.63,0,0,0,35.54-35.51V221.39a35.65,35.65,0,0,0-22.36-33C1832.31,191.34,1826.58,193.56,1821.93,193.56Z"/><rect class="cls-4" x="1785.33" y="337.67" width="19.21" height="62.66" rx="4.1"/><rect class="cls-4" x="1836.98" y="304.55" width="19.21" height="62.66" rx="4.1"/><rect class="cls-4" x="1836.98" y="337.67" width="19.21" height="62.66" rx="4.1"/><path class="cls-8" d="M1791.83,194.76l9,3.63a4.75,4.75,0,0,1,2.63,6.16l-19.89,49.34a4.77,4.77,0,0,1-6.17,2.62l-9-3.63a4.75,4.75,0,0,1-2.63-6.16l19.89-49.33A4.77,4.77,0,0,1,1791.83,194.76Z"/><rect class="cls-8" x="1752.84" y="254.03" width="43" height="19.21" rx="4.1" transform="translate(1308.21 1995.84) rotate(-83.39)"/><rect class="cls-8" x="1844.78" y="255.98" width="42.48" height="18.98" rx="4.05" transform="translate(1583.95 2129.05) rotate(-89.49)"/><rect class="cls-1" x="1779.69" y="53.36" width="77.5" height="121.3" rx="16.53"/><path class="cls-4" d="M1785.48,295.75a12.45,12.45,0,0,0-.15,1.93v21.93c0,8.76,8.6,15.92,19.11,15.92h32.87c10.51,0,19.11-7.16,19.11-15.92V297.68a12.45,12.45,0,0,0-.15-1.93Z"/><rect class="cls-1" x="1856.09" y="285.07" width="17.7" height="8.15" rx="1.74" transform="translate(1559.2 2151.44) rotate(-89.49)"/><rect class="cls-1" x="1852.62" y="301.72" width="24.99" height="11.5" rx="2.45" transform="translate(1541.06 2169.78) rotate(-89.49)"/><rect class="cls-2" x="1854.82" y="300.3" width="8.94" height="2.78" rx="0.59" transform="translate(1541.07 2158.22) rotate(-89.49)"/><rect class="cls-2" x="1769.98" y="295.87" width="9.05" height="2.82" rx="0.7" transform="translate(1078.7 1956.53) rotate(-76.76)"/><polygon class="cls-22" points="1711.05 337.86 1693.18 346.85 1709.16 357.75 1711.05 337.86"/><path class="cls-4" d="M1710.81,339.28c-.3.5-1.33-.21-1-.68L1719.1,325s.87.27,1,.69S1711.11,338.79,1710.81,339.28Z"/><polygon class="cls-23" points="1721.19 345.73 1703.32 354.71 1719.31 365.62 1721.19 345.73"/><path class="cls-4" d="M1721,347.15c-.3.5-1.33-.22-1-.69l9.28-13.57s.88.27,1,.69S1721.26,346.65,1721,347.15Z"/><polygon class="cls-24" points="1728.18 350.74 1709.03 356.53 1722.9 370.02 1728.18 350.74"/><path class="cls-4" d="M1727.7,352.1c-.38.44-1.27-.44-.87-.85l11.48-11.78s.81.42.87.85S1728.09,351.66,1727.7,352.1Z"/><polygon class="cls-22" points="1703.82 320.48 1683.81 320.43 1693.13 337.38 1703.82 320.48"/><path class="cls-4" d="M1703,321.65c-.49.31-1.09-.8-.59-1.07l14.42-7.92s.66.64.59,1.07S1703.46,321.34,1703,321.65Z"/><polygon class="cls-23" points="1708.88 331.65 1688.88 331.6 1698.2 348.55 1708.88 331.65"/><path class="cls-4" d="M1708,332.81c-.5.31-1.09-.79-.59-1.06l14.42-7.92s.66.64.59,1.07S1708.53,332.51,1708,332.81Z"/><polygon class="cls-22" points="1723.49 350.95 1704.55 357.39 1718.87 370.4 1723.49 350.95"/><path class="cls-4" d="M1723.06,352.33c-.37.45-1.29-.4-.91-.82l11.07-12.17s.83.39.9.83S1723.43,351.88,1723.06,352.33Z"/><polygon class="cls-24" points="1703.18 327.11 1683.18 327.06 1692.5 344 1703.18 327.11"/><path class="cls-4" d="M1702.33,328.27c-.5.31-1.09-.79-.59-1.07l14.42-7.91s.66.63.59,1.06S1702.83,328,1702.33,328.27Z"/><polygon class="cls-25" points="1725.45 348.21 1705.59 350.57 1716.88 366.27 1725.45 348.21"/><path class="cls-4" d="M1724.75,349.47c-.46.36-1.18-.66-.72-1l13.37-9.59s.73.55.71,1S1725.2,349.1,1724.75,349.47Z"/><polygon class="cls-26" points="1718.89 339.32 1699.02 341.67 1710.32 357.38 1718.89 339.32"/><path class="cls-4" d="M1718.18,340.57c-.46.37-1.18-.65-.71-1l13.36-9.59s.73.55.71,1S1718.64,340.21,1718.18,340.57Z"/><polygon class="cls-25" points="1711.36 330.05 1692.47 323.46 1695.73 342.52 1711.36 330.05"/><path class="cls-4" d="M1710.17,330.87c-.57.13-.77-1.11-.21-1.2l16.22-2.78s.42.82.21,1.21S1710.74,330.74,1710.17,330.87Z"/><polygon class="cls-26" points="1729.91 359.07 1712.36 368.67 1728.7 379.02 1729.91 359.07"/><path class="cls-4" d="M1729.72,360.51c-.28.5-1.33-.17-1-.66l8.82-13.88s.88.24,1,.66S1730,360,1729.72,360.51Z"/><polygon class="cls-10" points="1777.42 294.58 1701.42 315.91 1734.57 360.81 1777.42 294.58"/><polygon class="cls-17" points="1777.42 294.58 1719.69 340.68 1734.45 360.66 1777.42 294.58"/><path class="cls-1" d="M1765.92,289.29l3.17-13.48a2,2,0,0,1,2.41-1.49l4.06,1a2,2,0,0,1,1.49,2.4l-3.17,13.49a2,2,0,0,1-2.4,1.49l-4.07-1A2,2,0,0,1,1765.92,289.29Z"/><rect class="cls-1" x="1754.25" y="295.64" width="25.3" height="11.64" rx="2.87" transform="translate(1068.78 1952.36) rotate(-76.76)"/><path class="cls-5" d="M1808.49,400.27c-1-5.37-6.69-9.48-13.55-9.48s-12.6,4.15-13.57,9.54Z"/><path class="cls-5" d="M1860.14,400.27c-1-5.37-6.69-9.48-13.55-9.48s-12.6,4.15-13.57,9.54Z"/><path class="cls-9" d="M1816.59,195.71h5c8.48,0,15.42-2.58,15.42-5.72v-.24l-2.92-1.33h0c-2.42,2.83-5,4.8-14.08,5.28h-1.11c-7-.18-11.12-1.79-13.2-4.41l-3.2,1.73C1802.47,194.19,1808.11,195.71,1816.59,195.71Z"/><polygon class="cls-7" points="1814.86 295.75 1826.17 295.75 1856.27 295.75 1856.19 299.25 1826.41 299.25 1814.86 299.25 1785.33 299.25 1785.48 295.75 1814.86 295.75"/><path class="cls-1" d="M1779.64,88.72a10.56,10.56,0,0,0-1.68.13,10.82,10.82,0,0,0,1.74,21.52Z"/><path class="cls-1" d="M1857.09,88.41a10.85,10.85,0,0,1,1.61.17c5.72,1,9.63,6,8.72,11.28-.82,4.76-5.33,8-10.44,7.87Z"/><ellipse class="cls-11" cx="1819.71" cy="64.56" rx="58.27" ry="39.57"/><ellipse class="cls-11" cx="1790.26" cy="50.8" rx="14.15" ry="11.27"/><ellipse class="cls-11" cx="1814.88" cy="44.72" rx="23.32" ry="18.57"/><ellipse class="cls-11" cx="1844.65" cy="53.29" rx="14.15" ry="11.27"/><ellipse class="cls-11" cx="1858.81" cy="53.29" rx="10.57" ry="8.42"/><ellipse class="cls-11" cx="1778.52" cy="46.06" rx="14.15" ry="11.27"/><ellipse class="cls-11" cx="1781.42" cy="52.03" rx="17.35" ry="12.5"/><ellipse class="cls-11" cx="1805.71" cy="33.34" rx="14.15" ry="11.27"/><ellipse class="cls-11" cx="1848.23" cy="38.89" rx="14.15" ry="11.27"/><ellipse class="cls-11" cx="1837.69" cy="33.34" rx="14.15" ry="11.27"/><ellipse class="cls-11" cx="1791.56" cy="37.42" rx="14.15" ry="11.27"/><ellipse class="cls-11" cx="1860.34" cy="50.8" rx="18.63" ry="14.83"/><path class="cls-27" d="M1825.64,335.44c-2.4.11-2.63-5.16-2.64-6.78a1.13,1.13,0,0,1,0-.26v-.23h0c-.06-3.29-.56-18.79-.56-18.79.51,14.35-.14,24.94-2.81,26.06l-.77.09h6.78S1828.47,335.31,1825.64,335.44Z"/><polygon class="cls-10" points="288.12 1846.38 228.62 1954.01 347.62 1954.01 288.12 1846.38"/><rect class="cls-1" x="57.04" y="1390.35" width="94.4" height="94.4"/><rect class="cls-2" x="168.96" y="1390.35" width="94.4" height="94.4"/><rect class="cls-28" x="57.04" y="1622" width="94.4" height="94.4"/><rect class="cls-29" x="276.59" y="1622" width="93.08" height="94.4"/><rect class="cls-5" x="169.61" y="1622" width="93.08" height="94.4"/><rect class="cls-10" x="57.04" y="1510.76" width="94.4" height="94.4"/><rect class="cls-30" x="168.96" y="1510.76" width="94.4" height="94.4"/><rect class="cls-10" x="108.73" y="1864.91" width="103.63" height="217.36" rx="19.81"/><circle class="cls-10" cx="288.12" cy="2029.65" r="53.57"/><path class="cls-28" d="M795.8,1718.54l-73.94-157A106.78,106.78,0,0,0,738,1504.43c0-52.92-36.55-95.82-81.62-95.82s-81.61,42.93-81.61,95.8a106.73,106.73,0,0,0,16,57l-74,157.13Z"/><rect class="cls-2" x="643.31" y="1647.45" width="31.03" height="79.5" rx="6.8"/><path class="cls-1" d="M729,1754.87h0a35.91,35.91,0,0,0-36-35.64H631.2c-19.78,0-34.71,11.75-34.71,31.35l13.61,5Z"/><rect class="cls-1" x="604.47" y="1473.56" width="103.63" height="217.36" rx="19.81"/><rect class="cls-1" x="680.98" y="1978.54" width="19.44" height="87.41" rx="6.91"/><rect class="cls-1" x="681" y="2042.92" width="19.4" height="62.75" rx="4.3"/><rect class="cls-1" x="633.59" y="1978.54" width="19.44" height="87.41" rx="6.91"/><rect class="cls-1" x="633.61" y="2042.92" width="19.4" height="62.75" rx="4.3"/><polygon class="cls-30" points="780.35 1992.1 696.47 1840.35 729 1751.85 595.24 1747.45 633.15 1842.32 550.35 1992.1 780.35 1992.1"/><ellipse class="cls-12" cx="674.22" cy="1542.39" rx="9.19" ry="7.32"/><ellipse class="cls-12" cx="638.34" cy="1542.39" rx="9.19" ry="7.32"/><rect class="cls-1" x="554.14" y="1752.78" width="87.41" height="19.44" rx="6.91" transform="translate(-1254.4 1580.79) rotate(-65.66)"/><rect class="cls-1" x="589.41" y="1783.17" width="19.4" height="62.75" rx="6.77" transform="translate(-1004.07 774.69) rotate(-38.76)"/><rect class="cls-1" x="618.91" y="1829.09" width="8.32" height="18.1" rx="2.66" transform="translate(-1312.35 1692.78) rotate(-66.98)"/><rect class="cls-1" x="634.3" y="1833.01" width="11.75" height="25.56" rx="2.66" transform="translate(-1308.98 1713.19) rotate(-66.98)"/><rect class="cls-2" x="635" y="1833.66" width="2.84" height="9.14" rx="1.01" transform="translate(-1239.35 1322.85) rotate(-55.54)"/><rect class="cls-1" x="715.53" y="1718.86" width="19.44" height="87.41" rx="6.91" transform="translate(-661.98 455.57) rotate(-24.34)"/><rect class="cls-1" x="697.4" y="1804.09" width="62.75" height="19.4" rx="6.77" transform="translate(-1216.82 1625.08) rotate(-62.57)"/><rect class="cls-1" x="694.38" y="1837.23" width="18.12" height="8.33" rx="2.66" transform="translate(-909.58 708.38) rotate(-34.01)"/><rect class="cls-1" x="681.81" y="1846.55" width="25.56" height="11.75" rx="2.66" transform="translate(-924.09 714.97) rotate(-34.35)"/><rect class="cls-2" x="691.6" y="1842.87" width="9.14" height="2.84" rx="1.01" transform="translate(-668.26 421.48) rotate(-23.12)"/><path class="cls-5" d="M668.57,1656.54v-1.77a11.42,11.42,0,0,0-22.84,0v1.77Z"/><rect class="cls-29" x="645.73" y="1653.8" width="22.84" height="11.73" rx="3.87"/><polygon class="cls-28" points="691.23 1475.09 632.98 1412.76 606.95 1488.36 691.23 1475.09"/><path class="cls-10" d="M655.72,2105.67a12.43,12.43,0,0,0-24.86-.38Z"/><path class="cls-10" d="M703.13,2105.67a12.43,12.43,0,0,0-24.86-.38Z"/><circle class="cls-2" cx="657.15" cy="1586.97" r="5.23"/><polygon class="cls-2" points="657.15 1573.44 652.06 1585.68 662.24 1585.68 657.15 1573.44"/><path class="cls-1" d="M604.54,1546.62a9.91,9.91,0,1,0-.55,19.81h.63Z"/><path class="cls-2" d="M604.56,1550.93a5.14,5.14,0,0,0-.88.07,5.59,5.59,0,0,0,.92,11.11Z"/><path class="cls-1" d="M708,1546.59a9.91,9.91,0,0,1-.09,19.82Z"/><path class="cls-2" d="M708,1550.91a4.25,4.25,0,0,1,.87.06,5.59,5.59,0,0,1-.92,11.12Z"/><polygon class="cls-10" points="713.86 1561.37 710.39 1571.29 717.48 1571.24 713.86 1561.37"/><polygon class="cls-10" points="601.52 1563.05 595.02 1571.3 601.74 1573.56 601.52 1563.05"/><path class="cls-28" d="M1315.92,1718.83l-73.94-157a106.78,106.78,0,0,0,16.09-57.11c0-52.92-36.55-95.82-81.62-95.82s-81.63,42.9-81.63,95.82a106.73,106.73,0,0,0,16,57l-74,157.09Z"/><rect class="cls-2" x="1163.43" y="1647.76" width="31.03" height="79.5" rx="6.8"/><path class="cls-1" d="M1249.12,1755.17h0a35.91,35.91,0,0,0-36-35.64h-61.8c-19.78,0-34.71,11.75-34.71,31.35l13.61,4.94Z"/><rect class="cls-1" x="1124.59" y="1473.86" width="103.63" height="217.36" rx="19.81"/><rect class="cls-1" x="1201.1" y="1978.84" width="19.44" height="87.41" rx="6.91"/><rect class="cls-1" x="1201.12" y="2043.22" width="19.4" height="62.75" rx="4.3"/><rect class="cls-1" x="1153.71" y="1978.84" width="19.44" height="87.41" rx="6.91"/><rect class="cls-1" x="1153.73" y="2043.22" width="19.4" height="62.75" rx="4.3"/><polygon class="cls-30" points="1300.47 1992.4 1216.59 1840.65 1249.12 1752.15 1115.36 1747.75 1153.27 1842.62 1070.47 1992.4 1300.47 1992.4"/><ellipse class="cls-12" cx="1194.34" cy="1542.69" rx="9.19" ry="7.32"/><ellipse class="cls-12" cx="1158.46" cy="1542.69" rx="9.19" ry="7.32"/><rect class="cls-1" x="1074.25" y="1753.07" width="87.41" height="19.44" rx="6.91" transform="translate(-948.92 2054.85) rotate(-65.66)"/><rect class="cls-1" x="1067.41" y="1762.11" width="19.4" height="62.75" rx="6.77" transform="translate(-824.96 2664.63) rotate(-83.62)"/><rect class="cls-1" x="1034.61" y="1789.61" width="18.1" height="8.32" rx="2.66" transform="translate(-592.18 516.72) rotate(-21.83)"/><rect class="cls-1" x="1013.36" y="1794.52" width="25.56" height="11.75" rx="2.66" transform="translate(-595.9 510.68) rotate(-21.83)"/><rect class="cls-2" x="1029.53" y="1801.71" width="9.14" height="2.84" rx="1.01" transform="translate(-308.51 216.3) rotate(-10.4)"/><rect class="cls-1" x="1235.65" y="1719.16" width="19.44" height="87.41" rx="6.91" transform="translate(-615.87 669.97) rotate(-24.34)"/><rect class="cls-1" x="1217.51" y="1804.41" width="62.75" height="19.4" rx="6.77" transform="translate(-936.59 2086.89) rotate(-62.57)"/><rect class="cls-1" x="1220.9" y="1837.72" width="18.1" height="8.32" rx="2.66" transform="translate(-824.78 1015.21) rotate(-34.35)"/><rect class="cls-1" x="1201.9" y="1846.88" width="25.56" height="11.75" rx="2.66" transform="translate(-833.58 1008.49) rotate(-34.35)"/><rect class="cls-2" x="1211.68" y="1843.18" width="9.14" height="2.84" rx="1.01" transform="translate(-626.61 625.72) rotate(-23.12)"/><path class="cls-5" d="M1188.72,1656.88v-1.77a11.42,11.42,0,0,0-22.84,0v1.77Z"/><rect class="cls-29" x="1165.85" y="1654.1" width="22.84" height="11.73" rx="3.87"/><polygon class="cls-28" points="1211.35 1475.39 1153.1 1413.06 1127.07 1488.66 1211.35 1475.39"/><path class="cls-10" d="M1175.86,2106a12.43,12.43,0,0,0-24.86-.38Z"/><path class="cls-10" d="M1223.25,2106a12.43,12.43,0,0,0-24.86-.38Z"/><circle class="cls-2" cx="1177.27" cy="1587.27" r="5.23"/><polygon class="cls-2" points="1177.27 1573.75 1172.18 1585.98 1182.36 1585.98 1177.27 1573.75"/><path class="cls-1" d="M1124.66,1546.92a9.91,9.91,0,1,0-.55,19.81h.63Z"/><path class="cls-2" d="M1124.72,1551.23a5.14,5.14,0,0,0-.88.07,5.59,5.59,0,0,0,.92,11.11Z"/><path class="cls-1" d="M1228.13,1546.89a9.91,9.91,0,0,1-.09,19.82Z"/><path class="cls-2" d="M1228.11,1551.21a6.36,6.36,0,0,1,.87.06,5.59,5.59,0,0,1-.92,11.12Z"/><polygon class="cls-10" points="1233.98 1561.67 1230.51 1571.59 1237.6 1571.54 1233.98 1561.67"/><polygon class="cls-10" points="1121.64 1563.35 1115.14 1571.61 1121.86 1573.86 1121.64 1563.35"/><polygon class="cls-22" points="964.63 1919.81 945.32 1941.67 972.87 1947.79 964.63 1919.81"/><path class="cls-4" d="M965.08,1921.87c-.14.84-1.91.43-1.73-.39l5.2-23.41s1.33-.11,1.74.39S965.23,1921,965.08,1921.87Z"/><polygon class="cls-23" points="982.63 1924.97 963.32 1946.83 990.87 1952.95 982.63 1924.97"/><path class="cls-4" d="M983.08,1927c-.14.84-1.91.43-1.73-.39l5.2-23.41s1.33-.11,1.74.39S983.22,1926.19,983.08,1927Z"/><polygon class="cls-24" points="994.8 1927.98 972.03 1946.19 998.11 1956.95 994.8 1927.98"/><path class="cls-4" d="M994.9,1930.08c-.29.81-2,.1-1.65-.68l9.14-22.17s1.34.12,1.65.68S995.18,1929.28,994.9,1930.08Z"/><polygon class="cls-22" points="945.42 1900.19 918.32 1910.96 940.13 1928.87 945.42 1900.19"/><path class="cls-4" d="M944.9,1902.23c-.51.69-1.91-.48-1.38-1.13l15.2-18.56s1.24.5,1.38,1.13S945.4,1901.54,944.9,1902.23Z"/><polygon class="cls-23" points="958.34 1912.57 931.24 1923.35 953.04 1941.25 958.34 1912.57"/><path class="cls-4" d="M957.81,1914.62c-.5.68-1.9-.49-1.37-1.13L971.66,1895s1.23.51,1.37,1.13S958.32,1913.93,957.81,1914.62Z"/><polygon class="cls-22" points="988.57 1930.81 966.43 1949.79 992.87 1959.65 988.57 1930.81"/><path class="cls-4" d="M988.72,1932.91c-.25.81-2,.16-1.66-.62l8.37-22.48s1.34.08,1.67.63S989,1932.1,988.72,1932.91Z"/><polygon class="cls-24" points="948.16 1909.51 921.06 1920.28 942.87 1938.19 948.16 1909.51"/><path class="cls-4" d="M947.64,1911.54c-.51.68-1.91-.49-1.38-1.13l15.22-18.54s1.24.51,1.38,1.13S948.14,1910.86,947.64,1911.54Z"/><polygon class="cls-25" points="989.74 1926.03 964.13 1939.99 987.94 1955.14 989.74 1926.03"/><path class="cls-4" d="M989.47,1928.12c-.42.74-2-.25-1.5-1l12.87-20.23s1.29.35,1.51,1S989.89,1927.38,989.47,1928.12Z"/><polygon class="cls-26" points="976.03 1917.54 950.43 1931.5 974.23 1946.65 976.03 1917.54"/><path class="cls-4" d="M975.72,1919.63c-.42.74-2-.25-1.5-1l12.87-20.23s1.29.35,1.51,1S976.18,1918.89,975.72,1919.63Z"/><polygon class="cls-25" points="960.82 1909.06 931.68 1910.38 946.44 1934.43 960.82 1909.06"/><path class="cls-4" d="M959.65,1910.82c-.7.48-1.64-1.08-.93-1.52l20.45-12.54s1,.88.93,1.52S960.35,1910.34,959.65,1910.82Z"/><polygon class="cls-26" points="1001.66 1938.33 983.11 1960.83 1010.85 1966.01 1001.66 1938.33"/><path class="cls-4" d="M1002.19,1940.37c-.11.85-1.9.5-1.75-.32l4.4-23.58s1.33-.15,1.75.33S1002.3,1939.54,1002.19,1940.37Z"/><polygon class="cls-10" points="1030.98 1825.22 939.7 1895.29 1008.91 1938.16 1030.98 1825.22"/><polygon class="cls-17" points="1030.98 1825.22 977.86 1918.94 1008.67 1938.03 1030.98 1825.22"/><path class="cls-28" d="M1712.72,1704l-88.09-149.53a106.64,106.64,0,0,0,10.75-58.35c-4.87-52.7-45.21-92-90.1-87.89s-77.32,50.24-72.44,102.93a106.76,106.76,0,0,0,21.22,55.32l-59.18,163.23Z"/><rect class="cls-2" x="1557.9" y="1645.57" width="31.03" height="79.5" rx="6.8" transform="translate(-148.68 152.24) rotate(-5.29)"/><path class="cls-1" d="M1649.5,1746.29h0a35.89,35.89,0,0,0-39.09-32.17l-61.57,5.69c-19.7,1.83-33.48,14.9-31.68,34.42l14,3.66Z"/><rect class="cls-1" x="1509.39" y="1472.36" width="103.63" height="217.36" rx="19.81" transform="translate(-139.12 150.67) rotate(-5.29)"/><rect class="cls-1" x="1659.02" y="1911.7" width="19.44" height="87.41" rx="6.91" transform="translate(-812.31 1282.59) rotate(-34.35)"/><rect class="cls-1" x="1678.21" y="1981.74" width="19.4" height="62.75" rx="4.3"/><rect class="cls-1" x="1564.82" y="1978.84" width="19.44" height="87.41" rx="6.91"/><rect class="cls-1" x="1564.84" y="2043.22" width="19.4" height="62.75" rx="4.3"/><polygon class="cls-30" points="1728.97 1954.35 1624.99 1834.4 1649.23 1743.28 1515.63 1751.23 1562.13 1842.19 1530.53 1995.23 1728.97 1954.35"/><ellipse class="cls-12" cx="1581.07" cy="1545.17" rx="9.23" ry="7.35" transform="translate(-132.14 147.94) rotate(-5.14)"/><ellipse class="cls-12" cx="1545.18" cy="1548.41" rx="9.23" ry="7.35" transform="translate(-132.58 144.74) rotate(-5.14)"/><rect class="cls-1" x="1475.86" y="1756.3" width="87.41" height="19.44" rx="6.91" transform="translate(-645.71 2625.94) rotate(-70.95)"/><rect class="cls-1" x="1524.59" y="1771.77" width="19.4" height="62.75" rx="6.77" transform="translate(-561.47 2904.58) rotate(-77.33)"/><rect class="cls-1" x="1558.73" y="1802.45" width="18.1" height="8.32" rx="2.66" transform="translate(-426.93 486.42) rotate(-15.55)"/><rect class="cls-1" x="1573.15" y="1796.07" width="25.56" height="11.75" rx="2.66" transform="translate(-425.01 491.11) rotate(-15.55)"/><rect class="cls-2" x="1573.68" y="1796.93" width="9.14" height="2.84" rx="1.01" transform="translate(-124.83 117.74) rotate(-4.11)"/><path class="cls-1" d="M1631.08,1737.92h0a9.76,9.76,0,0,1-3.65-13.27l33.6-59.15a9.76,9.76,0,0,1,13.26-3.65h0a9.79,9.79,0,0,1,3.64,13.27l-33.6,59.16A9.73,9.73,0,0,1,1631.08,1737.92Z"/><rect class="cls-1" x="1651.25" y="1617.89" width="19.4" height="62.81" rx="6.77" transform="translate(-499.42 748.33) rotate(-22.16)"/><path class="cls-1" d="M1652,1625.16l-.53.64a3.74,3.74,0,0,1-5.27.5h0l-8.17-6.79a3.75,3.75,0,0,1-.51-5.27h0l.54-.65a3.73,3.73,0,0,1,5.25-.5h0l8.18,6.78A3.76,3.76,0,0,1,1652,1625.16Z"/><path class="cls-1" d="M1641.72,1614l-2.72,3.29a3.74,3.74,0,0,1-5.27.49h0l-13.91-11.54a3.75,3.75,0,0,1-.5-5.28h0l2.72-3.29a3.73,3.73,0,0,1,5.26-.49h0l13.92,11.54A3.75,3.75,0,0,1,1641.72,1614Z"/><path class="cls-2" d="M1635.35,1617.87h0a1.42,1.42,0,0,1-1.93.57h0l-5.53-3a1.43,1.43,0,0,1-.58-1.93h0a1.43,1.43,0,0,1,1.93-.58l5.54,3A1.43,1.43,0,0,1,1635.35,1617.87Z"/><path class="cls-5" d="M1580.28,1654l-.17-1.77a11.42,11.42,0,0,0-22.74,2.1l.16,1.77Z"/><rect class="cls-29" x="1557.7" y="1652.23" width="22.84" height="11.73" rx="3.87" transform="translate(-146.19 151.73) rotate(-5.29)"/><polygon class="cls-28" points="1574.84 1467.79 1497.77 1431.2 1501.33 1511.08 1574.84 1467.79"/><path class="cls-10" d="M1587,2106a12.43,12.43,0,0,0-24.86-.38Z"/><path class="cls-10" d="M1703.07,2044.85a12.43,12.43,0,1,0-24.86-.39Z"/><circle class="cls-2" cx="1562.49" cy="1585.72" r="5.23"/><polygon class="cls-2" points="1561.24 1572.26 1557.3 1584.91 1567.44 1583.97 1561.24 1572.26"/><path class="cls-1" d="M1506.38,1550.39a9.53,9.53,0,0,0-1.51.26,9.91,9.91,0,0,0,3.42,19.46Z"/><path class="cls-2" d="M1506.8,1554.69a5,5,0,0,0-.86.14,5.59,5.59,0,0,0,1.94,11Z"/><path class="cls-1" d="M1609.41,1540.83a9.77,9.77,0,0,1,1.53,0,9.91,9.91,0,0,1,.21,19.76Z"/><path class="cls-2" d="M1609.79,1545.13a4.22,4.22,0,0,1,.87,0,5.6,5.6,0,0,1,.11,11.16Z"/><polygon class="cls-10" points="1616.6 1555.01 1614.06 1565.21 1621.11 1564.5 1616.6 1555.01"/><polygon class="cls-10" points="1504.9 1567.03 1499.18 1575.85 1506.08 1577.48 1504.9 1567.03"/><rect class="cls-16" x="1674.16" y="2044.36" width="84.14" height="64.74"/><rect class="cls-17" x="1711.19" y="2044.36" width="12.96" height="64.74"/><path class="cls-18" d="M1694.41,2055.91s-7.72,1.84-9-4.78,3.46-7.21,3.46-7.21,2.72-1.84,3.24-4.12.73-8.46,1.47-9.93,1.1-4.34,5-2.35a53.58,53.58,0,0,1,10.23,6.91c1.47,1.47,5,4.41,5,4.41l2.57,1.25a3.5,3.5,0,0,0,2.43,0,27.35,27.35,0,0,0,5-3.82,85.72,85.72,0,0,1,9.71-7.36c1.55-.73,6.33-3.67,7.21-.51s.81,4.34,1.18,8.31,1.36,4.92,4.12,7.14c1.09.88,3.33,1.25,3.11,6.18,0,0,.2,4.48-3.26,5.44s-6.25.72-12.73-2.52-2.86-1.45-7.79-3.81l-6.33-3-1.58-.37h-1s-7.87,3.28-9.57,4.69S1697.21,2055,1694.41,2055.91Z"/><path class="cls-19" d="M1712.21,2045.76l-11.25,6.4a37.72,37.72,0,0,1-8.83,2.94,3.4,3.4,0,0,1-4-2.74,3,3,0,0,1,0-.42,4.5,4.5,0,0,1,3-3.39,84.34,84.34,0,0,1,8.31-1.83C1701.25,2046.54,1712.21,2045.76,1712.21,2045.76Z"/><path class="cls-19" d="M1722.88,2045.76l11.25,6.4a37.56,37.56,0,0,0,8.83,2.94,3.41,3.41,0,0,0,4-2.76,2.73,2.73,0,0,0,0-.4,4.57,4.57,0,0,0-3-3.39,84.34,84.34,0,0,0-8.31-1.83C1733.84,2046.54,1722.88,2045.76,1722.88,2045.76Z"/><path class="cls-19" d="M1713.65,2046.86l.11-8s.48-2.09,1.76-1.21,1.88,1.36,1.88,1.36l2.21-1.58a1.31,1.31,0,0,1,1.46,1.14,1.55,1.55,0,0,1,0,.22v8.09h-1.66l-1.87-1.28-2.39,1.1Z"/><polygon class="cls-18" points="1717.66 2042.38 1734.8 2079.41 1736.53 2070.99 1744.25 2070.14 1717.84 2042.38 1717.66 2042.38"/><polygon class="cls-18" points="1717.37 2042.47 1700.23 2079.51 1698.5 2071.08 1690.78 2070.24 1717.19 2042.47 1717.37 2042.47"/><path class="cls-20" d="M1706,2037.66l10.52,5.67a2.75,2.75,0,0,0,3.72-1.11l2.23-4.15a2.74,2.74,0,0,0-1.11-3.71l-10.53-5.67a2.75,2.75,0,0,0-3.72,1.11l-2.23,4.14A2.76,2.76,0,0,0,1706,2037.66Zm12.38,4.59a.39.39,0,1,1-.37.69h0a.39.39,0,0,1,.37-.69Z"/><line class="cls-21" x1="1715.47" y1="2037.83" x2="1708.79" y2="2034.23"/><line class="cls-21" x1="1717.03" y1="2034.92" x2="1710.35" y2="2031.32"/><line class="cls-21" x1="1717.18" y1="2035" x2="1710.35" y2="2031.32"/><path d="M1717.61,2040.54l-.67-.36.07-.14.51.28.23-.41-.48-.26.08-.13.47.25.3-.56.16.08Z"/><path d="M1717.1,2039.44l-.14.29-.14-.08.09-.18h0a.3.3,0,0,1-.35.06h0l.09-.15h0a.25.25,0,0,0,.33-.09v-.07l.26-.48.16.09Z"/><path d="M1716.34,2038.24v.12h0a.43.43,0,0,1,.35,0,.29.29,0,0,1,.14.38v0c-.11.22-.37.23-.72,0h0a.2.2,0,0,0,.05.29l0,0a.6.6,0,0,0,.27.06v.13a.73.73,0,0,1-.33-.08.36.36,0,0,1-.2-.47.22.22,0,0,1,0-.08l.18-.34a2.26,2.26,0,0,0,.11-.22Zm-.22.47c.18.1.4.18.49,0a.16.16,0,0,0-.06-.23h0a.24.24,0,0,0-.3,0h0Z"/><path d="M1715.58,2038.79a.14.14,0,0,1-.16.07h0a.16.16,0,0,1,.17-.24h0a.12.12,0,0,1,0,.17Zm.36-.65a.13.13,0,0,1-.17.06h0a.13.13,0,0,1,0-.18.12.12,0,0,1,.16-.06h0A.14.14,0,0,1,1715.94,2038.14Z"/><path d="M1714.36,2037.68l.34-.33.17.09-1.1,1-.19-.1.24-1.48.18.09-.08.47Zm-.48-.1-.07.43-.06.26h0l.18-.19.32-.3Z"/><path d="M1713.3,2037.44a1.15,1.15,0,0,0-.12.25l-.15-.08.07-.15h0a.35.35,0,0,1-.39,0c-.12-.06-.28-.24-.11-.55l.29-.53.16.08-.28.52c-.07.15-.09.3.07.38a.27.27,0,0,0,.31,0v-.07l.29-.54.16.09Z"/><path d="M1711.81,2037.29l.14-.26-.23-.13.07-.12.23.13.26-.49q.09-.17,0-.24h-.1l.06-.12h.16a.32.32,0,0,1,.14.16.38.38,0,0,1-.07.27l-.26.49.14.08-.07.12-.14-.07-.11.21Z"/><path d="M1711,2035.93a.5.5,0,0,1,.66-.26l0,0a.48.48,0,0,1,.19.66v0a.51.51,0,0,1-.66.26l0,0a.48.48,0,0,1-.21-.66Zm.72.38a.35.35,0,0,0-.07-.48h0c-.15-.09-.35,0-.46.2a.32.32,0,0,0,.48.42.33.33,0,0,0,.07-.13Z"/><path d="M1710.66,2036a1.15,1.15,0,0,0-.12.25l-.15-.08.07-.15h0a.35.35,0,0,1-.39,0c-.12-.06-.27-.24-.11-.55l.29-.53.16.08-.28.52c-.07.15-.08.29.07.38a.29.29,0,0,0,.31,0v-.07l.29-.54.16.09Z"/><path d="M1718.94,2037.54l.39.2-.08.14-.92-.5.07-.13.38.2.6-1.11.16.09Z"/><path d="M1718.09,2037.08a.11.11,0,0,1,.15,0,.11.11,0,0,1,0,.15.12.12,0,0,1-.16,0,.1.1,0,0,1-.05-.13Zm.8-1.06-.48.9-.17-.09.49-.89Z"/><path d="M1717.72,2037.11l-.17-.09.71-1.32.17.09Z"/><path d="M1717.65,2036.32a.12.12,0,0,1-.14.08l0,0a.14.14,0,0,1,0-.17.12.12,0,0,1,.17-.06h0a.12.12,0,0,1,0,.17Zm.36-.65a.13.13,0,0,1-.17.06h0a.13.13,0,0,1,0-.18.12.12,0,0,1,.17,0h0A.16.16,0,0,1,1718,2035.67Z"/><path d="M1715.52,2035.82l-.16-.08.45-.84c.18-.33.4-.35.62-.23a.57.57,0,0,1,.15.12l-.09.12a.41.41,0,0,0-.13-.1c-.14-.07-.26,0-.39.19Z"/><path d="M1714.72,2034.36a.48.48,0,0,1,.64-.26l.06,0a.48.48,0,0,1,.19.66v0a.51.51,0,0,1-.66.26l0,0a.48.48,0,0,1-.21-.65Zm.71.38c.11-.2.08-.41-.08-.49a.35.35,0,0,0-.46.2.32.32,0,1,0,.45.45.26.26,0,0,0,.09-.16Z"/><path d="M1714.72,2034a.45.45,0,0,0-.18-.18c-.12-.07-.21,0-.25,0s0,.14.08.25.16.27.1.38a.31.31,0,0,1-.42.12l0,0a.41.41,0,0,1-.19-.18l.1-.09a.57.57,0,0,0,.16.15.16.16,0,0,0,.22,0,.32.32,0,0,0-.09-.25.33.33,0,0,1-.09-.4c.08-.15.26-.2.48-.08a.57.57,0,0,1,.22.19Z"/><path d="M1713.72,2033.77a.31.31,0,0,0-.09-.44l-.05,0a.47.47,0,0,0-.28-.09v-.13a.64.64,0,0,1,.33.1.48.48,0,0,1,.23.64l0,0a.51.51,0,0,1-.67.27h0a.43.43,0,0,1-.16-.59l0,0v-.08Zm-.54-.14a.27.27,0,0,0,.06.38h0a.3.3,0,0,0,.39-.13Z"/><path d="M1713.08,2032.89l-.42.78.13.07-.07.12-.12-.07h0a.41.41,0,0,1-.52.22l-.08,0a.7.7,0,0,1-.2-.18l.12-.1a.29.29,0,0,0,.16.15c.17.1.29,0,.36-.14h0l-.52-.29.48-.89.16.08-.42.78.36.19.42-.77Z"/><path d="M1711.78,2033l-.13.24-.14-.08.07-.15h0a.36.36,0,0,1-.51-.12.35.35,0,0,1,0-.42l.28-.54.17.09-.28.51c-.08.15-.09.3.06.38a.26.26,0,0,0,.31,0v-.07l.29-.54.17.09Z"/><path d="M1710.78,2032.2a.32.32,0,0,0-.08-.45l-.06,0a.66.66,0,0,0-.27-.09v-.13a.76.76,0,0,1,.32.11.47.47,0,0,1,.24.62l0,.07a.49.49,0,0,1-.64.27l0,0a.43.43,0,0,1-.16-.59l0,0a.09.09,0,0,1,0-.07Zm-.54-.14a.26.26,0,0,0,.06.36l0,0a.3.3,0,0,0,.39-.13Z"/><path d="M73,1156.82v14.72h10.3c2.42,0,4.14.47,5.18,1.4A4.7,4.7,0,0,1,90,1176.6a4.64,4.64,0,0,1-1.54,3.6c-1,.94-2.76,1.4-5.18,1.4H61.33c-2.42,0-4.15-.46-5.18-1.4a4.66,4.66,0,0,1-1.54-3.66,4.57,4.57,0,0,1,1.57-3.61c1-.93,2.74-1.39,5.15-1.39H62.9v-39.35H61.33q-3.63,0-5.18-1.4a5.12,5.12,0,0,1-.09-7.23l.09-.08c1-.93,2.76-1.39,5.18-1.4l47.34.05v15.35q0,3.58-1.39,5.13a5.07,5.07,0,0,1-7.17.1l-.1-.1c-.93-1-1.39-2.73-1.39-5.16v-5.26H73v14.57h8.83c0-2.62.24-4.3.73-5.06a4.84,4.84,0,0,1,4.32-2.4,4.68,4.68,0,0,1,3.61,1.55c.93,1,1.39,2.76,1.4,5.17v11.58q0,3.63-1.4,5.18a4.71,4.71,0,0,1-3.66,1.54,4.8,4.8,0,0,1-4.27-2.4c-.49-.75-.73-2.46-.73-5.1Z"/><path d="M146.94,1137v34.5H159c2.43,0,4.15.47,5.18,1.4a4.71,4.71,0,0,1,1.55,3.66,4.65,4.65,0,0,1-1.55,3.6c-1,.94-2.75,1.4-5.18,1.4H124.81c-2.42,0-4.15-.46-5.18-1.4a5,5,0,0,1-.19-7.07,1.7,1.7,0,0,1,.19-.19q1.55-1.39,5.18-1.4h12.07V1147.1h-8.1c-2.39,0-4.1-.47-5.15-1.4a5,5,0,0,1-.19-7.07,1.7,1.7,0,0,1,.19-.19c1-.93,2.76-1.4,5.17-1.4ZM145.56,1118v10.64h-12V1118Z"/><path d="M229.31,1164.42H188a13,13,0,0,0,5.57,6.33q4,2.4,10.82,2.4a63,63,0,0,0,14.87-2.4,25.82,25.82,0,0,1,5.3-1,4.5,4.5,0,0,1,3.38,1.42,5,5,0,0,1,1.37,3.58,4.43,4.43,0,0,1-1.47,3.34q-2,1.82-9.56,3.46a69.68,69.68,0,0,1-14.6,1.66q-12.06,0-19.3-6.82a22.12,22.12,0,0,1-7.24-16.78,21.54,21.54,0,0,1,7.83-17.24,27,27,0,0,1,18-6.65,28.61,28.61,0,0,1,11.26,2.16,24,24,0,0,1,7.63,4.66,29.68,29.68,0,0,1,5.82,9,22.34,22.34,0,0,1,1.57,8.63Zm-11.14-10.06a15.68,15.68,0,0,0-6-6.45,19.47,19.47,0,0,0-17.71,0,15.94,15.94,0,0,0-6.08,6.45Z"/><path d="M257.85,1120.12H271.3l-14.48,27.28c-.85,1.6-1.91,2.4-3.19,2.4a3.13,3.13,0,0,1-2.18-.83,2.47,2.47,0,0,1-.91-1.87,8,8,0,0,1,.35-2Z"/><path d="M339.14,1148.82a19.46,19.46,0,0,0-5.15-2.28,20.73,20.73,0,0,0-5.64-.76c-3.89,0-7,.63-9.27,1.91-1,.56-1.52,1.16-1.52,1.82s.68,1.48,2.06,2.2c1,.53,3.38,1,7,1.52q10,1.38,13.94,2.75a16.89,16.89,0,0,1,7.94,5.4,12.06,12.06,0,0,1,2.8,7.55,11,11,0,0,1-4.76,9q-6.82,5.25-17.71,5.25a39.76,39.76,0,0,1-8.07-.76,30.1,30.1,0,0,1-6.8-2.23,6.16,6.16,0,0,1-1.57,1,4.58,4.58,0,0,1-1.67.35A4.85,4.85,0,0,1,307,1180c-.93-1-1.4-2.75-1.39-5.18v-3.38q0-3.63,1.39-5.18a4.71,4.71,0,0,1,3.66-1.55,4.61,4.61,0,0,1,3,1,6.65,6.65,0,0,1,1.91,3.46,15.44,15.44,0,0,0,5.55,3,25.43,25.43,0,0,0,7.46,1q6.91,0,10.74-2.16c1.21-.71,1.82-1.47,1.82-2.25,0-1.31-.87-2.39-2.6-3.24s-5.31-1.59-10.78-2.18q-12.12-1.27-16.19-4.91a11.27,11.27,0,0,1-4.07-8.83,11,11,0,0,1,4.56-9q6.18-4.9,16.19-4.9a32.81,32.81,0,0,1,6.7.66,27.38,27.38,0,0,1,6.16,2,8.36,8.36,0,0,1,1.74-1,3.66,3.66,0,0,1,1.49-.35,4.42,4.42,0,0,1,3.44,1.55c.91,1,1.37,2.76,1.37,5.17v2.46c0,2.19-.26,3.68-.78,4.46a5.13,5.13,0,0,1-7.46,1.13A5.06,5.06,0,0,1,339.14,1148.82Z"/><path d="M475.57,1118v53.58h1.72c2.39,0,4.1.47,5.15,1.4a5,5,0,0,1,.19,7.07l-.19.19c-1,.94-2.76,1.4-5.18,1.4H465.52v-2.46a29.81,29.81,0,0,1-7.19,3,29.24,29.24,0,0,1-7.78,1q-11.32,0-18.25-6.55a21.53,21.53,0,0,1-6.92-16.31,23.67,23.67,0,0,1,7.26-17.42,24.18,24.18,0,0,1,17.72-7.21,25.18,25.18,0,0,1,7.7,1.2,30.33,30.33,0,0,1,7.46,3.69V1128H463.8q-3.63,0-5.18-1.4a5,5,0,0,1-.19-7.07l.19-.19c1-.94,2.76-1.4,5.18-1.4Zm-10.05,42.68a14.31,14.31,0,0,0-4.37-10.55,15.36,15.36,0,0,0-21.34,0,14.11,14.11,0,0,0-4.37,10.45,11.75,11.75,0,0,0,3.93,9.11q3.92,3.55,11.08,3.55t11.09-3.55A11.51,11.51,0,0,0,465.52,1160.64Z"/><path d="M539.84,1164.42H498.58a12.79,12.79,0,0,0,5.57,6.33q4,2.4,10.81,2.4a63,63,0,0,0,14.87-2.4,25.82,25.82,0,0,1,5.3-1,4.49,4.49,0,0,1,3.38,1.42,5,5,0,0,1,1.38,3.58,4.43,4.43,0,0,1-1.47,3.34q-2,1.82-9.57,3.46a69.77,69.77,0,0,1-14.62,1.64q-12.08,0-19.31-6.82a22.13,22.13,0,0,1-7.2-16.76,21.53,21.53,0,0,1,7.82-17.24,27,27,0,0,1,18-6.65,28.61,28.61,0,0,1,11.26,2.16,24,24,0,0,1,7.63,4.66,29.43,29.43,0,0,1,5.84,9,22,22,0,0,1,1.57,8.63Zm-11.12-10.06a15.74,15.74,0,0,0-6-6.45,19.47,19.47,0,0,0-17.71,0,16,16,0,0,0-6.09,6.45Z"/><path d="M587.57,1148.82a19.79,19.79,0,0,0-5.15-2.28,20.73,20.73,0,0,0-5.64-.76c-3.9,0-7,.63-9.28,1.91-1,.56-1.52,1.16-1.52,1.82s.69,1.48,2.06,2.2c1,.53,3.39,1,7,1.52q10,1.38,13.93,2.75a16.82,16.82,0,0,1,8,5.4,12.06,12.06,0,0,1,2.8,7.55,11,11,0,0,1-4.76,9q-6.82,5.25-17.71,5.25a39.76,39.76,0,0,1-8.07-.76,30.1,30.1,0,0,1-6.8-2.23,6.16,6.16,0,0,1-1.57,1,4.62,4.62,0,0,1-1.72.34,4.82,4.82,0,0,1-3.75-1.54c-.93-1-1.4-2.75-1.4-5.18v-3.37c0-2.42.46-4.15,1.4-5.18a4.71,4.71,0,0,1,3.66-1.55,4.61,4.61,0,0,1,3,1,6.76,6.76,0,0,1,1.91,3.46,15.44,15.44,0,0,0,5.55,3,25.36,25.36,0,0,0,7.45,1q6.9,0,10.75-2.16c1.21-.71,1.81-1.47,1.81-2.25,0-1.31-.86-2.39-2.6-3.24s-5.31-1.57-10.74-2.16q-12.12-1.27-16.19-4.91a11.25,11.25,0,0,1-4.08-8.83,11,11,0,0,1,4.57-9q6.18-4.9,16.19-4.9a32.81,32.81,0,0,1,6.7.66,27.3,27.3,0,0,1,6.15,2,8.36,8.36,0,0,1,1.74-1,3.7,3.7,0,0,1,1.5-.35,4.45,4.45,0,0,1,3.44,1.55c.91,1,1.37,2.76,1.37,5.17v2.46c0,2.19-.26,3.68-.79,4.46a5.1,5.1,0,0,1-7.09,1.39,3.32,3.32,0,0,1-.36-.26A5.07,5.07,0,0,1,587.57,1148.82Z"/><path d="M643.79,1137v34.5h12.07q3.63,0,5.17,1.4a4.71,4.71,0,0,1,1.55,3.66,4.62,4.62,0,0,1-1.55,3.6c-1,.94-2.75,1.4-5.17,1.4h-34.2c-2.42,0-4.14-.46-5.17-1.4a5,5,0,0,1-.19-7.07,1.7,1.7,0,0,1,.19-.19q1.54-1.39,5.17-1.4h12.06V1147.1h-8.09q-3.58,0-5.16-1.4a5,5,0,0,1-.19-7.07,1.7,1.7,0,0,1,.19-.19c1-.93,2.75-1.4,5.18-1.4ZM642.42,1118v10.64h-12V1118Z"/><path d="M712,1140v-3h11.74q3.63,0,5.18,1.4a4.71,4.71,0,0,1,1.55,3.66,4.65,4.65,0,0,1-1.55,3.6q-1.54,1.4-5.18,1.4H722v36.6a18.66,18.66,0,0,1-2.23,9.25,20.05,20.05,0,0,1-17.25,9.64H691.18q-3.63,0-5.18-1.4a4.61,4.61,0,0,1-1.54-3.6,4.66,4.66,0,0,1,1.54-3.66c1-.93,2.75-1.4,5.18-1.4h11.09a9.82,9.82,0,0,0,7.16-2.5,8.5,8.5,0,0,0,2.55-6.33v-4.9a27.73,27.73,0,0,1-6.8,3.23,24.66,24.66,0,0,1-24.26-5.76,24.24,24.24,0,0,1,0-33.9,23.47,23.47,0,0,1,17.18-6.83,24,24,0,0,1,7.28,1.1A23.23,23.23,0,0,1,712,1140Zm0,19.28a13.14,13.14,0,0,0-4.1-9.62,13.91,13.91,0,0,0-19.67,0,13.35,13.35,0,0,0-.37,18.89l.37.37a14,14,0,0,0,19.67,0,13.08,13.08,0,0,0,4-9.64Z"/><path d="M752.84,1137v3.39a18.83,18.83,0,0,1,6.06-3.53,20.94,20.94,0,0,1,7.19-1.18q8.92,0,14.13,5.54,4.13,4.42,4.12,11.58v18.7a6.77,6.77,0,0,1,4.71,1.4,4.78,4.78,0,0,1,1.52,3.66,4.64,4.64,0,0,1-1.54,3.6c-1,.94-2.76,1.4-5.18,1.4h-9.08c-2.42,0-4.14-.46-5.17-1.4a5.07,5.07,0,0,1-.11-7.16l.11-.1a6.77,6.77,0,0,1,4.71-1.4v-19c0-2.19-.59-3.8-1.76-4.81q-2.31-2-6.92-2a13.18,13.18,0,0,0-6.11,1.35,27.13,27.13,0,0,0-6.65,5.71v18.75c2.59,0,4.25.25,5,.74a4.76,4.76,0,0,1,2.4,4.32,4.64,4.64,0,0,1-1.54,3.6c-1,.94-2.76,1.4-5.18,1.4H742.1c-2.42,0-4.15-.46-5.18-1.4a4.69,4.69,0,0,1-1.54-3.65,4.8,4.8,0,0,1,2.35-4.27c.79-.49,2.47-.74,5-.74V1147.1a6.72,6.72,0,0,1-4.71-1.42,4.76,4.76,0,0,1-1.52-3.63,4.64,4.64,0,0,1,1.55-3.61q1.55-1.39,5.17-1.4Z"/><path class="cls-28" d="M1863.8,1272.82l-40.57-86.16a58.69,58.69,0,0,0,8.83-31.34c0-29-20.06-52.59-44.79-52.59s-44.79,23.55-44.79,52.59a58.52,58.52,0,0,0,8.8,31.29l-40.56,86.21Z"/><rect class="cls-2" x="1780.12" y="1233.81" width="17.03" height="43.63" rx="6.05"/><path class="cls-1" d="M1827.15,1292.76h0a19.7,19.7,0,0,0-19.74-19.56h-33.93c-10.86,0-19,6.45-19,17.21l7.47,2.7Z"/><rect class="cls-1" x="1758.81" y="1138.39" width="56.87" height="119.28" rx="19.81"/><rect class="cls-1" x="1800.79" y="1415.5" width="10.67" height="47.96" rx="3.79"/><rect class="cls-1" x="1800.81" y="1450.83" width="10.65" height="34.43" rx="3.79"/><rect class="cls-1" x="1774.79" y="1415.5" width="10.67" height="47.96" rx="3.79"/><rect class="cls-1" x="1774.8" y="1450.83" width="10.65" height="34.43" rx="3.79"/><polygon class="cls-30" points="1855.33 1422.94 1809.3 1339.67 1827.15 1291.1 1753.74 1288.69 1774.55 1340.74 1729.11 1422.94 1855.33 1422.94"/><ellipse class="cls-12" cx="1797.09" cy="1176.16" rx="5.04" ry="4.02"/><ellipse class="cls-12" cx="1777.4" cy="1176.16" rx="5.04" ry="4.02"/><rect class="cls-1" x="1734.86" y="1294.53" width="47.96" height="10.67" rx="3.79" transform="translate(386.17 3002.49) rotate(-87.59)"/><rect class="cls-1" x="1767.5" y="1303.65" width="10.65" height="34.43" rx="3.79" transform="translate(424.27 3072.72) rotate(-89.1)"/><rect class="cls-1" x="1785.36" y="1316.73" width="9.93" height="4.57" rx="1.62" transform="translate(-76.76 111.1) rotate(-3.48)"/><rect class="cls-1" x="1793.58" y="1315.37" width="14.02" height="6.45" rx="2.29" transform="translate(-76.72 111.73) rotate(-3.48)"/><rect class="cls-2" x="1796.05" y="1313.27" width="1.56" height="5.01" rx="0.55" transform="translate(244.9 2913.09) rotate(-82.04)"/><rect class="cls-1" x="1817.29" y="1274.54" width="10.67" height="47.96" rx="3.79" transform="translate(-130.72 206.48) rotate(-6.26)"/><rect class="cls-1" x="1794.81" y="1313.57" width="34.43" height="10.65" rx="3.79" transform="translate(-186.14 303.88) rotate(-9.12)"/><rect class="cls-1" x="1790.65" y="1319.66" width="9.93" height="4.57" rx="1.62" transform="translate(-252.43 440.31) rotate(-13.07)"/><rect class="cls-1" x="1778.64" y="1321.23" width="14.02" height="6.45" rx="2.29" transform="translate(-253.26 438.12) rotate(-13.07)"/><rect class="cls-2" x="1785.57" y="1319.84" width="5.01" height="1.56" rx="0.55" transform="translate(-41.48 58.09) rotate(-1.84)"/><path class="cls-5" d="M1794,1238.82v-1a6.27,6.27,0,0,0-12.54,0v1Z"/><rect class="cls-29" x="1781.45" y="1237.29" width="12.53" height="6.44" rx="2.29"/><polygon class="cls-28" points="1806.42 1139.23 1774.45 1105.02 1760.17 1146.51 1806.42 1139.23"/><path class="cls-10" d="M1786.94,1485.54a6.82,6.82,0,1,0-13.64-.21h0Z"/><path class="cls-10" d="M1813,1485.54a6.82,6.82,0,1,0-13.64-.21h0Z"/><circle class="cls-2" cx="1787.72" cy="1200.62" r="2.87"/><polygon class="cls-2" points="1787.72 1193.2 1784.92 1199.92 1790.51 1199.92 1787.72 1193.2"/><path class="cls-1" d="M1758.85,1178.48a4.76,4.76,0,0,0-.84.07,5.43,5.43,0,0,0,.88,10.8Z"/><path class="cls-2" d="M1758.86,1180.85h-.48a3.07,3.07,0,0,0,.5,6.1Z"/><path class="cls-1" d="M1815.63,1178.46a7.93,7.93,0,0,1,.84.07,5.44,5.44,0,0,1-.89,10.81Z"/><path class="cls-2" d="M1815.62,1180.83a1.93,1.93,0,0,1,.48,0,3.07,3.07,0,0,1-.51,6.1Z"/><polygon class="cls-10" points="1818.84 1186.57 1816.94 1192.02 1820.83 1191.99 1818.84 1186.57"/><polygon class="cls-10" points="1757.19 1187.5 1753.62 1192.03 1757.31 1193.26 1757.19 1187.5"/></svg>