<svg id="Layer_1" data-name="Layer 1" xmlns="http://www.w3.org/2000/svg" width="1920" height="1080" viewBox="0 0 1920 1080"><defs><style>.cls-1{fill:#a3a3a3;}.cls-2{fill:#c9ecf7;}.cls-3{fill:#394f39;}.cls-4{fill:#765d69;}.cls-10,.cls-16,.cls-20,.cls-21,.cls-25,.cls-26,.cls-32,.cls-33,.cls-34,.cls-35,.cls-36,.cls-37,.cls-38,.cls-4,.cls-5,.cls-7,.cls-8{stroke:#000;}.cls-10,.cls-16,.cls-20,.cls-21,.cls-24,.cls-25,.cls-32,.cls-33,.cls-34,.cls-35,.cls-36,.cls-37,.cls-38,.cls-4,.cls-5,.cls-7,.cls-8{stroke-miterlimit:10;}.cls-20,.cls-5{fill:#59322b;}.cls-6{fill:#8a9042;}.cls-7{fill:#146809;}.cls-7,.cls-8{stroke-width:0.15px;}.cls-8{fill:#005c05;}.cls-9{fill:#f7843d;}.cls-10{fill:#474747;}.cls-10,.cls-24{stroke-width:0.5px;}.cls-11{fill:#282828;}.cls-12{fill:#444;}.cls-13{fill:#353535;}.cls-14,.cls-36{fill:#7f7f7f;}.cls-15{fill:#6b6b6b;}.cls-16{fill:#d3d3d3;}.cls-16,.cls-20,.cls-21,.cls-25,.cls-32,.cls-33,.cls-34,.cls-35,.cls-36,.cls-37,.cls-38{stroke-width:0.25px;}.cls-17,.cls-35,.cls-38{fill:#cecece;}.cls-18{fill:#e83f5d;}.cls-19{fill:#a6b1c1;opacity:0.72;}.cls-21{fill:#636363;}.cls-22{fill:#bf3434;}.cls-23,.cls-24{fill:#7a1313;}.cls-24{stroke:#050505;}.cls-25{fill:#fcfcfc;}.cls-26{fill:#898989;}.cls-27{fill:none;}.cls-28,.cls-34{fill:#685123;}.cls-29{fill:#af7e7e;}.cls-30{fill:#4c6483;}.cls-31{fill:#fcd543;}.cls-32{fill:#d6d356;}.cls-33{fill:#e6d6d1;}.cls-37{fill:#595959;}.cls-38{opacity:0.63;}.cls-39{fill:#334960;}</style></defs><title>Samlet</title><polygon class="cls-1" points="435.62 732.23 383.69 732.04 316.19 732.04 257.93 732.23 0.27 732.23 0.27 833.29 992.77 833.29 992.77 732.23 435.62 732.23"/><rect class="cls-1" x="818.82" y="732.04" width="1101.53" height="101.06"/><polygon class="cls-2" points="0.2 1.14 0.2 734.51 257.87 734.51 258.79 578.93 436.48 578.93 435.55 734.51 1920.2 734.51 1920.2 1.14 0.2 1.14"/><polygon class="cls-3" points="1229.63 285.2 1169.46 387.35 1610.2 387.35 1546.25 291.26 1578.68 290.88 1454.3 139.64 1493.24 139.37 1392.59 4.21 1355.18 4.21 1255.85 132.48 1294.14 135.5 1194.82 284.68 1229.63 285.2"/><polygon class="cls-3" points="1778.97 387.35 1704.54 189.58 1726.8 188.88 1642.63 8.65 1669.35 8.02 1666.7 1.75 1507.6 1.75 1532.78 4.92 1463.47 184.41 1487.35 184.78 1417.96 387.35 1778.97 387.35"/><polygon class="cls-3" points="1860.61 78.87 1887.33 78.24 1856.43 5.01 1754.42 5.01 1724.5 71.83 1750.76 75.14 1681.45 254.63 1705.33 254.99 1660 387.35 1796.98 387.35 1796.98 502.19 1643.92 502.19 1607.2 592.17 1622.04 592.17 1622.04 674.61 1629.42 674.63 1629.42 592.35 1743.04 592.35 1743.04 674.9 1920.31 675.33 1920.31 206.7 1860.61 78.87"/><polygon class="cls-3" points="774.89 659.06 774.89 578.39 927.48 578.39 907.73 504.73 762.13 504.73 762.13 387.35 894.37 387.35 876.58 311.79 888.45 311.11 844.4 161.09 858.65 160.44 816.65 1.81 771.87 155.83 785.85 158.47 748.08 308.58 760.81 308.78 722.39 480.41 736.17 480.61 688.66 659.47 774.89 659.06"/><polygon class="cls-4" points="1827.56 660.66 1782.79 659.99 1781.38 752.69 1826.58 746.66 1827.56 660.66"/><rect class="cls-5" x="519.84" y="388.05" width="11.59" height="352.27"/><path class="cls-5" d="M519.84,390.17s-3.47-30.7,59.68-31.28,66.58-.13,66.58-.13v11.78s20,7.92,17.58,16.22-35.83,7.8-38.15,2.61,15-18.93,15-18.93v-6.38l-61,1.2s-48.09-1.54-48.09,25.11"/><path class="cls-6" d="M772.15,657c-5.54-.42-13.72-1-23.65-1.51-20.09-1-22.6-.59-34.7-1.3-27.08-1.58-28.7-4.69-46.61-4.13-15.24.48-27.42.86-32.4,8.34-3.88,5.85.78,9.78,1.84,27.33.8,13.24-1.75,12.76-2.28,36.5-.06,2.89,0,2.53,0,22.29,0,9.85.14,12.82.13,18.19,5.56-.6,13.07,3.75,22.18,3.11,26.21-1.83,46.17-1.44,59.56-1.15,15,.33,33.45,1.17,54.55,3.14-.18-14.47-.91-26.28-1.55-34.52-1.57-19.93-2.94-22.55-2.07-33.19.65-8,1.86-11.87,3.62-28.28C771.44,665.62,771.88,660.47,772.15,657Z"/><path class="cls-7" d="M688.1,767.57A61.18,61.18,0,0,1,693,751C697,742.44,690.56,764,688.1,767.57Z"/><path class="cls-7" d="M688.1,767.57a42.23,42.23,0,0,0-8.94-13.26C672.73,747.77,684.4,765,688.1,767.57Z"/><polygon class="cls-8" points="687.77 767.57 687.68 749.99 688.38 749.31 688.33 767.53 687.77 767.57"/><path class="cls-9" d="M688.14,749.83s-5.46,1.08-5.46-6a77.17,77.17,0,0,1,9.3-.49S692,749.29,688.14,749.83Z"/><path class="cls-9" d="M688.52,743.39s1,1.57,0,6.37c0,.07.4-.13.45-.15.52-.22,2.21-.81,2.87-4.74a4.2,4.2,0,0,0,.14-1.53A32.89,32.89,0,0,0,688.52,743.39Z"/><path class="cls-10" d="M643.4,753c6.26-5.17,17.56-8.44,24.54-2.58,3.56,3,6.29,8.57,4.75,13.23-2.29,6.89-12.73,8.1-19.56,8.9-6.1.71-14.44,1.68-17-2.66C633.34,765.29,638.31,757.17,643.4,753Z"/><path class="cls-11" d="M659.75,752c1.21-1,3.4-1.63,4.75-.5a2.57,2.57,0,0,1,.92,2.56c-.44,1.34-2.47,1.57-3.79,1.73s-2.79.32-3.3-.52S658.76,752.84,659.75,752Z"/><path class="cls-11" d="M658.21,748.53a2.51,2.51,0,0,1,3-.34,1.62,1.62,0,0,1,.59,1.61c-.27.84-1.54,1-2.37,1.1s-1.76.22-2.08-.3S657.6,749.05,658.21,748.53Z"/><path class="cls-11" d="M653.93,751.66a2.5,2.5,0,0,1,3,0,1.64,1.64,0,0,1,.39,1.67c-.37.8-1.65.8-2.49.81s-1.77,0-2-.56S653.26,752.09,653.93,751.66Z"/><path class="cls-10" d="M678.54,761.82c-2.92-2.59-8.2-4.22-11.46-1.29-1.66,1.49-2.94,4.28-2.22,6.61,1.07,3.45,5.95,4.06,9.13,4.45,2.85.36,6.74.84,8-1.33S680.91,763.92,678.54,761.82Z"/><path class="cls-11" d="M670.9,761.35a1.74,1.74,0,0,0-2.21-.25,1.32,1.32,0,0,0-.43,1.28c.2.67,1.15.79,1.76.86s1.31.17,1.55-.26S671.36,761.76,670.9,761.35Z"/><path class="cls-11" d="M671.62,759.6a1.1,1.1,0,0,0-1.39-.17.84.84,0,0,0-.28.8c.13.42.72.5,1.11.56s.82.11,1-.16S671.91,759.86,671.62,759.6Z"/><path class="cls-11" d="M673.62,761.16a1.09,1.09,0,0,0-1.4,0,.87.87,0,0,0-.19.83c.18.4.78.4,1.17.4s.82,0,.94-.28S673.93,761.38,673.62,761.16Z"/><polygon class="cls-4" points="1411.61 625.67 1346.35 624.68 1345.18 702.06 1410.99 697.45 1411.61 625.67"/><polygon class="cls-12" points="1072.25 592.22 1072.25 594.31 1187.27 595.72 1187.71 592.61 1072.25 592.22"/><polygon class="cls-4" points="799.7 683.47 799.08 724.46 823.2 719.23 823.66 683.47 799.7 683.47"/><rect class="cls-1" x="818.73" y="1012.5" width="1101.53" height="66.36"/><rect class="cls-13" x="0.27" y="833.78" width="1920" height="179.21"/><polygon class="cls-14" points="0.27 833.29 1920.27 833.29 1920.27 846.5 0.27 843.2 0.27 833.29"/><ellipse class="cls-1" cx="316.14" cy="922.89" rx="42.55" ry="22.37"/><ellipse class="cls-15" cx="316.19" cy="922.64" rx="34.73" ry="17.07"/><ellipse class="cls-1" cx="1467.54" cy="929.5" rx="42.55" ry="20.39"/><ellipse class="cls-15" cx="1467.59" cy="929.27" rx="34.73" ry="15.56"/><polygon class="cls-16" points="925.96 854.75 796.13 854.75 793.05 867.48 922.87 867.48 925.96 854.75"/><polygon class="cls-16" points="919.63 884.54 789.06 884.54 785.96 897.35 916.53 897.35 919.63 884.54"/><polygon class="cls-16" points="913.66 913.03 778.86 913.03 775.66 926.25 910.46 926.25 913.66 913.03"/><polygon class="cls-16" points="908.91 942.9 769.21 942.9 765.89 956.6 905.59 956.6 908.91 942.9"/><polygon class="cls-16" points="903.6 971.85 760.7 971.85 757.3 985.86 900.2 985.86 903.6 971.85"/><polygon class="cls-16" points="896.33 1003.01 753.43 1003.01 750.04 1017.03 892.94 1017.03 896.33 1003.01"/><rect class="cls-1" x="0.27" y="1012.5" width="1920.08" height="66.36"/><polygon class="cls-3" points="1630.95 638.77 1630.95 591.46 1716.64 591.46 1649.36 502.19 1134.55 502.19 1041.57 634.14 1451.2 637.36 1451.2 591.99 1624.32 591.99 1624.32 638.71 1630.95 638.77"/><polygon class="cls-3" points="1748.17 639.69 1753.02 639.72 1748.17 633.28 1748.17 639.69"/><polygon class="cls-17" points="446.38 747.79 249.21 747.79 239.52 759.98 439 759.98 446.38 747.79"/><rect class="cls-5" x="520.18" y="389.14" width="11.59" height="352.27"/><path class="cls-5" d="M520.18,391.26s-3.47-30.7,59.68-31.28,66.58-.13,66.58-.13v11.78s20,7.92,17.58,16.22-35.83,7.8-38.15,2.61,15-18.93,15-18.93v-6.38l-61,1.2s-48.09-1.54-48.09,25.11"/><rect class="cls-18" x="0.18" y="201.39" width="519.88" height="172.19"/><path class="cls-18" d="M.18,476.08V580.91H251.79v90.94H76.08v.83H.57v-.83H.18v78.91H520.07V476.08ZM435.92,748.31H258.23V579.94H435.92Z"/><rect class="cls-19" x="257.79" y="578.93" width="177.69" height="169.69"/><rect class="cls-20" x="-0.87" y="191.23" width="527.5" height="9.24"/><path class="cls-21" d="M333.92,673.22a4.07,4.07,0,0,0-4.08,4.07H338A4.07,4.07,0,0,0,333.92,673.22Z"/><path class="cls-21" d="M354.72,673.22a4.07,4.07,0,0,0-4.07,4.07h8.15A4.08,4.08,0,0,0,354.72,673.22Z"/><path class="cls-22" d="M503.25,604.72H460a12.69,12.69,0,0,0-12.68,12.69v91.7h68.59v-91.7A12.69,12.69,0,0,0,503.25,604.72Z"/><path class="cls-23" d="M503.85,603.62H459.42a13,13,0,0,0-13,13v94.25h70.51V616.66A13,13,0,0,0,503.85,603.62Zm11.69,92.8v12.69h-68v-91.7a12.63,12.63,0,0,1,12.57-12.69H503a12.63,12.63,0,0,1,12.57,12.69Z"/><path class="cls-22" d="M502.07,619.56H461.89a2.52,2.52,0,0,0-2.52,2.52v9h45.22v-9A2.52,2.52,0,0,0,502.07,619.56Z"/><path class="cls-24" d="M501.64,622.32H461.46a2.52,2.52,0,0,0-2.52,2.53v9h45.23v-9A2.53,2.53,0,0,0,501.64,622.32Z"/><path class="cls-25" d="M465.91,615.67v-5.14h1.66a6,6,0,0,1,1.23.08,1.39,1.39,0,0,1,.74.5,1.62,1.62,0,0,1,.3,1,1.71,1.71,0,0,1-.17.79,1.3,1.3,0,0,1-.44.51,1.48,1.48,0,0,1-.53.24,6,6,0,0,1-1.08.07h-.68v1.94Zm1-4.27v1.46h.57a2.82,2.82,0,0,0,.82-.08.7.7,0,0,0,.33-.25.77.77,0,0,0,.11-.4.65.65,0,0,0-.16-.46.73.73,0,0,0-.42-.23,5.2,5.2,0,0,0-.75,0Z"/><path class="cls-25" d="M470.46,613.76a2,2,0,0,1,.24-1,1.61,1.61,0,0,1,.69-.7,2,2,0,0,1,1-.24,1.87,1.87,0,0,1,1.38.54,2.06,2.06,0,0,1,0,2.79,1.84,1.84,0,0,1-1.37.56,2.2,2.2,0,0,1-1-.23,1.61,1.61,0,0,1-.71-.68A2.28,2.28,0,0,1,470.46,613.76Zm1,0a1.27,1.27,0,0,0,.26.85.87.87,0,0,0,1.3,0,1.28,1.28,0,0,0,.26-.86A1.26,1.26,0,0,0,473,613a.87.87,0,0,0-1.3,0A1.27,1.27,0,0,0,471.47,613.81Z"/><path class="cls-25" d="M474.72,614.61l1-.15a.78.78,0,0,0,.26.44.87.87,0,0,0,.54.15,1,1,0,0,0,.57-.14.32.32,0,0,0,.13-.27.24.24,0,0,0-.07-.18.76.76,0,0,0-.33-.13,5.82,5.82,0,0,1-1.51-.48,1,1,0,0,1-.44-.84,1,1,0,0,1,.38-.81,1.8,1.8,0,0,1,1.19-.33,2,2,0,0,1,1.13.25,1.28,1.28,0,0,1,.52.73l-.93.17a.6.6,0,0,0-.23-.33.8.8,0,0,0-.47-.12,1.1,1.1,0,0,0-.56.11.22.22,0,0,0-.11.2.21.21,0,0,0,.1.18,3.29,3.29,0,0,0,.91.28,2.58,2.58,0,0,1,1.1.44.89.89,0,0,1,.31.73,1.12,1.12,0,0,1-.43.88,1.89,1.89,0,0,1-1.26.37,2.14,2.14,0,0,1-1.21-.31A1.52,1.52,0,0,1,474.72,614.61Z"/><path class="cls-25" d="M480.77,612v.79h-.67v1.5a4.23,4.23,0,0,0,0,.53.18.18,0,0,0,.09.12.28.28,0,0,0,.16.05,1.34,1.34,0,0,0,.4-.09l.08.76a1.94,1.94,0,0,1-.78.15,1.28,1.28,0,0,1-.48-.09.76.76,0,0,1-.31-.23,1,1,0,0,1-.14-.39,4.88,4.88,0,0,1,0-.69v-1.62h-.45V612h.45v-.74l1-.58V612Z"/><path class="cls-25" d="M483.19,614l1-.1a1.27,1.27,0,0,0,.37.75,1.14,1.14,0,0,0,.76.24,1.16,1.16,0,0,0,.75-.21.64.64,0,0,0,.25-.5.48.48,0,0,0-.1-.31.79.79,0,0,0-.38-.22,8.24,8.24,0,0,0-.83-.23,2.67,2.67,0,0,1-1.17-.51,1.33,1.33,0,0,1-.47-1,1.28,1.28,0,0,1,.22-.73,1.33,1.33,0,0,1,.64-.52,2.57,2.57,0,0,1,1-.18,2.17,2.17,0,0,1,1.46.42,1.5,1.5,0,0,1,.52,1.13l-1,0a.86.86,0,0,0-.29-.57,1,1,0,0,0-.65-.18,1.2,1.2,0,0,0-.71.19.39.39,0,0,0-.17.32.37.37,0,0,0,.16.31,2.63,2.63,0,0,0,1,.35,4.52,4.52,0,0,1,1.12.37,1.43,1.43,0,0,1,.57.52,1.58,1.58,0,0,1,.2.82,1.51,1.51,0,0,1-.24.82,1.54,1.54,0,0,1-.7.58,3,3,0,0,1-1.12.18,2.23,2.23,0,0,1-1.49-.45A2,2,0,0,1,483.19,614Z"/><path class="cls-25" d="M487.77,612h1.05l.89,2.64.87-2.64h1l-1.31,3.58-.24.65a2.87,2.87,0,0,1-.25.5,1.2,1.2,0,0,1-.27.28,1.15,1.15,0,0,1-.37.16,2,2,0,0,1-.5.06,2.6,2.6,0,0,1-.56-.06l-.09-.77a2.18,2.18,0,0,0,.42,0,.63.63,0,0,0,.51-.2,1.68,1.68,0,0,0,.25-.52Z"/><path class="cls-25" d="M495.65,615.67h-.92v-.54a1.42,1.42,0,0,1-.54.47,1.27,1.27,0,0,1-.62.16,1.43,1.43,0,0,1-1.1-.52,2.09,2.09,0,0,1-.46-1.44,2.07,2.07,0,0,1,.45-1.44,1.43,1.43,0,0,1,1.12-.49,1.39,1.39,0,0,1,1.08.51v-1.85h1ZM493,613.73a1.68,1.68,0,0,0,.16.86.75.75,0,0,0,1.25.1,1.38,1.38,0,0,0,.23-.86,1.45,1.45,0,0,0-.23-.93.72.72,0,0,0-.59-.28.74.74,0,0,0-.59.28A1.28,1.28,0,0,0,493,613.73Z"/><rect class="cls-5" x="38.11" y="283.61" width="425.98" height="64.23"/><path class="cls-26" d="M81.4,334.82V297.63h25.5v6.29h-18v8.8h15.53V319H88.91v15.8Z"/><path class="cls-26" d="M130.77,334.82v-4a10.45,10.45,0,0,1-3.87,3.4,10.94,10.94,0,0,1-5.06,1.24,10,10,0,0,1-4.87-1.19,7.07,7.07,0,0,1-3.12-3.35,15,15,0,0,1-1-6V307.88H120v12.38a33.42,33.42,0,0,0,.4,7,3.78,3.78,0,0,0,1.43,2,4.39,4.39,0,0,0,2.64.75,5.57,5.57,0,0,0,3.27-1,5.17,5.17,0,0,0,2-2.49q.53-1.49.53-7.27V307.88h7.13v26.94Z"/><path class="cls-26" d="M144.57,307.88h6.65v4a9.83,9.83,0,0,1,3.5-3.3,9.59,9.59,0,0,1,4.89-1.27,10.28,10.28,0,0,1,8,3.68q3.27,3.68,3.27,10.25,0,6.75-3.3,10.49a10.29,10.29,0,0,1-8,3.74,9,9,0,0,1-4-.89,13.63,13.63,0,0,1-3.82-3v13.57h-7.13Zm7.05,13q0,4.55,1.8,6.71a5.51,5.51,0,0,0,4.39,2.17,5.15,5.15,0,0,0,4.14-2c1.09-1.33,1.64-3.5,1.64-6.53,0-2.83-.56-4.92-1.69-6.29a5.28,5.28,0,0,0-4.22-2.06,5.44,5.44,0,0,0-4.33,2Q151.63,316.93,151.62,320.89Z"/><path class="cls-26" d="M189.29,321a14.68,14.68,0,0,1,1.75-6.88,12.07,12.07,0,0,1,5-5.07,14.69,14.69,0,0,1,7.17-1.75,13.44,13.44,0,0,1,10,4,13.74,13.74,0,0,1,3.91,10,13.89,13.89,0,0,1-3.95,10.14,13.33,13.33,0,0,1-9.93,4,15.58,15.58,0,0,1-7.06-1.68,11.46,11.46,0,0,1-5.12-4.9A16.47,16.47,0,0,1,189.29,321Zm7.31.38a8.92,8.92,0,0,0,1.9,6.14,6.23,6.23,0,0,0,9.38,0,9.11,9.11,0,0,0,1.88-6.19,8.93,8.93,0,0,0-1.88-6.09,6.23,6.23,0,0,0-9.38,0A8.92,8.92,0,0,0,196.6,321.35Z"/><path class="cls-26" d="M222,336.6l8.14,1a2.82,2.82,0,0,0,.94,2,5.35,5.35,0,0,0,3.2.76,8.25,8.25,0,0,0,4.18-.84,3.41,3.41,0,0,0,1.42-1.8,10.79,10.79,0,0,0,.33-3.27v-3.93a9.64,9.64,0,0,1-8.06,4.36,9.93,9.93,0,0,1-8.6-4.59,15.59,15.59,0,0,1-2.49-9q0-6.78,3.26-10.35a10.49,10.49,0,0,1,8.1-3.58,9.86,9.86,0,0,1,8.25,4.39v-3.78h6.67v24.17a23.87,23.87,0,0,1-.79,7.13,8.86,8.86,0,0,1-2.2,3.71,9.86,9.86,0,0,1-3.8,2.1,19.85,19.85,0,0,1-6,.76q-6.86,0-9.72-2.34a7.38,7.38,0,0,1-2.87-6C222,337.22,222,336.93,222,336.6Zm6.36-15.81q0,4.29,1.67,6.28a5.11,5.11,0,0,0,4.09,2,5.67,5.67,0,0,0,4.42-2q1.8-2,1.8-6,0-4.19-1.73-6.22a5.48,5.48,0,0,0-4.36-2,5.24,5.24,0,0,0-4.22,2C228.94,316,228.38,318.07,228.38,320.79Z"/><path class="cls-26" d="M269,334.82V297.63h25.49v6.29h-18v8.8H292V319H276.46v15.8Z"/><path class="cls-26" d="M305.91,316.1l-6.47-1.17a10.07,10.07,0,0,1,3.76-5.78q2.66-1.87,7.91-1.88a17.06,17.06,0,0,1,7.1,1.13,7.09,7.09,0,0,1,3.29,2.87c.63,1.15.95,3.28.95,6.37l-.08,8.33a28.69,28.69,0,0,0,.35,5.24,14.85,14.85,0,0,0,1.28,3.61H317c-.19-.47-.42-1.18-.69-2.11-.12-.42-.2-.7-.25-.83a12.87,12.87,0,0,1-3.91,2.66,11.25,11.25,0,0,1-4.44.89,9.17,9.17,0,0,1-6.56-2.26,7.49,7.49,0,0,1-2.39-5.71,7.63,7.63,0,0,1,1.09-4.07,7.12,7.12,0,0,1,3.05-2.74,23.91,23.91,0,0,1,5.67-1.66,39.58,39.58,0,0,0,6.93-1.75v-.71a3.67,3.67,0,0,0-1-2.93c-.67-.58-1.95-.88-3.83-.88a5.1,5.1,0,0,0-3,.75A5.23,5.23,0,0,0,305.91,316.1Zm9.54,5.78a42,42,0,0,1-4.34,1.09,13.09,13.09,0,0,0-3.88,1.25,3,3,0,0,0-1.4,2.51,3.5,3.5,0,0,0,1.12,2.58,3.88,3.88,0,0,0,2.84,1.1,6.21,6.21,0,0,0,3.68-1.27,4.51,4.51,0,0,0,1.7-2.36,13.9,13.9,0,0,0,.28-3.48Z"/><path class="cls-26" d="M336.3,334.82h-7.13V307.88h6.62v3.83a11.61,11.61,0,0,1,3.06-3.58,5.64,5.64,0,0,1,3.08-.86,9.12,9.12,0,0,1,4.7,1.34l-2.21,6.22a6.25,6.25,0,0,0-3.35-1.17,4,4,0,0,0-2.54.83,5.6,5.6,0,0,0-1.63,3q-.6,2.16-.6,9Z"/><path class="cls-26" d="M357.1,334.82l-10.85-26.94h7.48l5.07,13.75,1.47,4.59c.39-1.17.64-1.94.74-2.31.24-.76.49-1.52.76-2.28l5.12-13.75h7.34l-10.71,26.94Z"/><path class="cls-26" d="M394.19,326.25l7.1,1.19a11.64,11.64,0,0,1-4.32,5.95,12.73,12.73,0,0,1-7.4,2q-7,0-10.4-4.59a15.49,15.49,0,0,1-2.66-9.29q0-6.69,3.5-10.49a11.51,11.51,0,0,1,8.85-3.79,12,12,0,0,1,9.49,4q3.48,4,3.32,12.16H383.81a7.27,7.27,0,0,0,1.73,4.94,5.41,5.41,0,0,0,4.11,1.76,4.35,4.35,0,0,0,2.81-.91A5.6,5.6,0,0,0,394.19,326.25Zm.41-7.21a7,7,0,0,0-1.6-4.71,5.15,5.15,0,0,0-7.56.09,6.57,6.57,0,0,0-1.5,4.62Z"/><path class="cls-26" d="M414.31,334.82h-7.13V307.88h6.62v3.83a11.48,11.48,0,0,1,3.06-3.58,5.64,5.64,0,0,1,3.08-.86,9.09,9.09,0,0,1,4.69,1.34l-2.21,6.22a6.22,6.22,0,0,0-3.34-1.17,4,4,0,0,0-2.54.83,5.67,5.67,0,0,0-1.64,3q-.58,2.16-.59,9Z"/><rect class="cls-19" x="82.25" y="580.69" width="169.1" height="90.93"/><rect class="cls-19" x="0.13" y="580.66" width="75.51" height="90.93"/><rect class="cls-27" x="0.13" y="580.66" width="75.51" height="90.93"/><rect class="cls-27" x="82.25" y="580.66" width="168.85" height="90.93"/><path class="cls-28" d="M251.35,566.74H-.25V684H251.1v63.8h6.69V578.93H435.48V747.79h6.7v-181ZM75.65,671.6H.13V580.66H75.65Zm6.6,0V580.66H251.1V671.6Z"/><rect class="cls-19" x="0.13" y="377.87" width="75.51" height="90.93"/><rect class="cls-19" x="258.82" y="377.81" width="169.46" height="91.13"/><rect class="cls-19" x="433.8" y="377.81" width="84.73" height="91.13"/><rect class="cls-19" x="82.33" y="377.81" width="169.46" height="91.13"/><rect class="cls-27" x="82.33" y="377.78" width="169.46" height="91.13"/><rect class="cls-27" x="-0.97" y="377.78" width="75.67" height="91.13"/><rect class="cls-27" x="258.82" y="377.78" width="169.46" height="91.13"/><rect class="cls-27" x="433.8" y="377.81" width="84.73" height="91.13"/><path class="cls-28" d="M428.28,363.83H-1.35V481.32H519V363.83ZM74.71,468.9H-1V377.78H74.71Zm177.08,0H82.33V377.78H251.79Zm176.49,0H258.82V377.78H428.28Zm90.25,0H433.8V377.81h84.73Z"/><rect class="cls-29" x="458.6" y="644.59" width="44.8" height="22.84"/><polygon class="cls-17" points="445.2 749.75 249.98 749.75 241.84 759.98 439 759.98 445.2 749.75"/><polygon class="cls-14" points="446.38 747.79 445.2 749.75 439 759.98 241.84 759.98 239.52 759.98 240.29 761.93 439.78 761.93 447.15 749.75 446.38 747.79"/><rect class="cls-19" x="1451.69" y="593.08" width="169.1" height="90.93"/><rect class="cls-30" x="1277.68" y="224.99" width="519.88" height="163.57"/><path class="cls-30" d="M1277.68,505.82V774.36h519.89V505.82Zm345,178.29h-169.1V593.18h169.1Zm119.93.53H1629V593.71h113.62Z"/><path class="cls-31" d="M761.82,505.82V774.26h519.89V505.82ZM892.05,684.93H781.85V594h110.2Zm174.27-.23H898.66V593.76h167.66Z"/><rect class="cls-31" x="761.82" y="224.89" width="519.88" height="163.68"/><path class="cls-21" d="M1430.5,694.17a4.08,4.08,0,0,0-4.08,4.08h8.15A4.08,4.08,0,0,0,1430.5,694.17Z"/><polygon class="cls-4" points="1412.11 626.76 1346.84 625.77 1345.67 703.15 1411.48 698.54 1412.11 626.76"/><line x1="1281.71" y1="388.57" x2="1282.51" y2="233.7"/><polygon class="cls-12" points="1072.74 593.31 1072.74 595.4 1187.77 596.81 1188.21 593.71 1072.74 593.31"/><polygon class="cls-12" points="1188.21 593.71 1184.71 594.03 1184.71 773.36 1188.21 773.38 1188.21 593.71"/><rect class="cls-20" x="790.83" y="309.32" width="470.97" height="71.72"/><rect class="cls-20" x="1314.65" y="309.36" width="467.23" height="71.63"/><path class="cls-32" d="M884.82,352.41l6.29,2a14.16,14.16,0,0,1-4.81,7.81,15.15,15.15,0,0,1-19.06-1.82q-4.12-4.36-4.12-12,0-8,4.14-12.46a14.23,14.23,0,0,1,10.9-4.43,13.37,13.37,0,0,1,9.57,3.48A12.68,12.68,0,0,1,891,341l-6.42,1.53a6.65,6.65,0,0,0-6.77-5.39,7.3,7.3,0,0,0-5.8,2.57c-1.48,1.71-2.23,4.47-2.23,8.3,0,4.06.74,7,2.2,8.68a7.1,7.1,0,0,0,5.69,2.59,6.47,6.47,0,0,0,4.45-1.65A9.47,9.47,0,0,0,884.82,352.41Z"/><path class="cls-32" d="M901.23,348.05l-5.59-1a8.67,8.67,0,0,1,3.25-5q2.29-1.64,6.84-1.63a14.7,14.7,0,0,1,6.13,1,6.06,6.06,0,0,1,2.84,2.48c.55,1,.82,2.83.82,5.51l-.06,7.19a25.73,25.73,0,0,0,.29,4.52,13.38,13.38,0,0,0,1.11,3.12h-6.09c-.16-.4-.36-1-.59-1.81-.11-.37-.18-.61-.22-.73a11,11,0,0,1-3.38,2.3,9.71,9.71,0,0,1-3.83.77,7.94,7.94,0,0,1-5.67-1.95,6.48,6.48,0,0,1-2.07-4.93,6.6,6.6,0,0,1,.94-3.52,6.2,6.2,0,0,1,2.64-2.37,21.13,21.13,0,0,1,4.9-1.43,34.13,34.13,0,0,0,6-1.51v-.62a3.2,3.2,0,0,0-.87-2.53,5.29,5.29,0,0,0-3.31-.76,4.44,4.44,0,0,0-2.57.65A4.52,4.52,0,0,0,901.23,348.05Zm8.24,5a37,37,0,0,1-3.74.94,11.59,11.59,0,0,0-3.36,1.07,2.58,2.58,0,0,0-1.2,2.17,3,3,0,0,0,1,2.24,3.36,3.36,0,0,0,2.46.94,5.29,5.29,0,0,0,3.17-1.09,3.85,3.85,0,0,0,1.47-2,12.29,12.29,0,0,0,.24-3Z"/><path class="cls-32" d="M918.9,341h3.42V339.2a11.85,11.85,0,0,1,.62-4.39,5,5,0,0,1,2.3-2.35,8.79,8.79,0,0,1,4.24-.91,17,17,0,0,1,5.15.79l-.83,4.29a12.37,12.37,0,0,0-2.83-.35,2.48,2.48,0,0,0-1.91.63,3.57,3.57,0,0,0-.58,2.39V341h4.6v4.84h-4.6v18.43h-6.16V345.79H918.9Z"/><path class="cls-32" d="M950,356.82l6.14,1a10.11,10.11,0,0,1-3.74,5.14,11,11,0,0,1-6.39,1.76q-6.07,0-9-4a13.33,13.33,0,0,1-2.3-8q0-5.79,3-9.06a10,10,0,0,1,7.65-3.28,10.34,10.34,0,0,1,8.19,3.43c2,2.29,3,5.79,2.88,10.51H941.06a6.23,6.23,0,0,0,1.49,4.27,4.67,4.67,0,0,0,3.55,1.52,3.81,3.81,0,0,0,2.43-.79A4.89,4.89,0,0,0,950,356.82Zm.35-6.23a5.89,5.89,0,0,0-1.38-4.06,4.24,4.24,0,0,0-3.2-1.4,4.3,4.3,0,0,0-3.33,1.47,5.65,5.65,0,0,0-1.29,4Z"/><path class="cls-32" d="M974.06,364.22V332.09h22v5.44H980.55v7.6H994v5.44H980.55v13.65Z"/><path class="cls-32" d="M1014.87,356.82l6.14,1a10.11,10.11,0,0,1-3.74,5.14,11,11,0,0,1-6.39,1.76q-6.06,0-9-4a13.26,13.26,0,0,1-2.3-8q0-5.79,3-9.06a10,10,0,0,1,7.65-3.28,10.38,10.38,0,0,1,8.2,3.43q3,3.43,2.87,10.51h-15.43a6.23,6.23,0,0,0,1.49,4.27,4.67,4.67,0,0,0,3.55,1.52,3.81,3.81,0,0,0,2.43-.79A4.82,4.82,0,0,0,1014.87,356.82Zm.35-6.23a5.89,5.89,0,0,0-1.38-4.06,4.22,4.22,0,0,0-3.2-1.4,4.32,4.32,0,0,0-3.33,1.47,5.65,5.65,0,0,0-1.29,4Z"/><path class="cls-32" d="M1025.9,341h5.67v3.18a9.14,9.14,0,0,1,7.26-3.71,7.87,7.87,0,0,1,3.88.92,7.1,7.1,0,0,1,2.69,2.79,10.77,10.77,0,0,1,3.31-2.79,8.19,8.19,0,0,1,3.79-.92,8.48,8.48,0,0,1,4.34,1,6.44,6.44,0,0,1,2.66,3.06,13.39,13.39,0,0,1,.63,4.82v14.88H1054v-13.3q0-3.46-.63-4.47a2.92,2.92,0,0,0-2.63-1.32,4.25,4.25,0,0,0-2.44.79,4.41,4.41,0,0,0-1.64,2.32,16.5,16.5,0,0,0-.5,4.81v11.17H1040V351.47a17.58,17.58,0,0,0-.33-4.38,2.79,2.79,0,0,0-1-1.47,3.24,3.24,0,0,0-1.87-.49,4.5,4.5,0,0,0-2.57.77,4.2,4.2,0,0,0-1.63,2.22,16.31,16.31,0,0,0-.5,4.8v11.3h-6.15Z"/><path class="cls-32" d="M1064.84,352.26a12.56,12.56,0,0,1,1.52-5.94,10.23,10.23,0,0,1,4.28-4.38,12.7,12.7,0,0,1,6.19-1.52,11.65,11.65,0,0,1,8.66,3.43,11.86,11.86,0,0,1,3.37,8.67,12,12,0,0,1-3.4,8.76,11.56,11.56,0,0,1-8.58,3.47,13.46,13.46,0,0,1-6.11-1.45,9.79,9.79,0,0,1-4.41-4.24A14.09,14.09,0,0,1,1064.84,352.26Zm6.32.33a7.68,7.68,0,0,0,1.64,5.3,5.38,5.38,0,0,0,8.1,0,7.82,7.82,0,0,0,1.63-5.35,7.67,7.67,0,0,0-1.63-5.26,5.38,5.38,0,0,0-8.1,0A7.71,7.71,0,0,0,1071.16,352.59Z"/><path class="cls-32" d="M1093.69,364.22V332.09h6.15v32.13Z"/><path class="cls-32" d="M1110.76,348.05l-5.59-1a8.71,8.71,0,0,1,3.24-5q2.31-1.64,6.84-1.63a14.75,14.75,0,0,1,6.14,1,6.11,6.11,0,0,1,2.84,2.48c.54,1,.82,2.83.82,5.51l-.07,7.19a24.58,24.58,0,0,0,.3,4.52,12.94,12.94,0,0,0,1.11,3.12h-6.1c-.16-.4-.36-1-.59-1.81a7.49,7.49,0,0,0-.22-.73,11,11,0,0,1-3.37,2.3,9.72,9.72,0,0,1-3.84.77,7.93,7.93,0,0,1-5.66-1.95,6.45,6.45,0,0,1-2.08-4.93,6.6,6.6,0,0,1,1-3.52,6.2,6.2,0,0,1,2.64-2.37,21,21,0,0,1,4.9-1.43,34.38,34.38,0,0,0,6-1.51v-.62a3.17,3.17,0,0,0-.88-2.53,5.25,5.25,0,0,0-3.31-.76,4.4,4.4,0,0,0-2.56.65A4.52,4.52,0,0,0,1110.76,348.05Zm8.24,5a38.11,38.11,0,0,1-3.75.94,11.38,11.38,0,0,0-3.35,1.07,2.57,2.57,0,0,0-1.21,2.17,3,3,0,0,0,1,2.24,3.35,3.35,0,0,0,2.45.94,5.34,5.34,0,0,0,3.18-1.09,3.9,3.9,0,0,0,1.47-2,12.29,12.29,0,0,0,.24-3Z"/><path class="cls-32" d="M1152.29,364.22h-6.16V352.35a18.57,18.57,0,0,0-.39-4.88,3.46,3.46,0,0,0-1.28-1.72,3.7,3.7,0,0,0-2.14-.62,5,5,0,0,0-2.87.88,4.39,4.39,0,0,0-1.74,2.33,19.64,19.64,0,0,0-.48,5.34v10.54h-6.15V341h5.72v3.42a9.31,9.31,0,0,1,7.67-3.95,9.18,9.18,0,0,1,3.72.74,6.25,6.25,0,0,1,2.56,1.87,6.92,6.92,0,0,1,1.2,2.59,18.94,18.94,0,0,1,.34,4.14Z"/><path class="cls-32" d="M1179.88,364.22h-5.72v-3.41a9.35,9.35,0,0,1-3.36,3,8.62,8.62,0,0,1-3.91,1,8.86,8.86,0,0,1-6.87-3.23c-1.91-2.16-2.86-5.16-2.86-9s.92-6.95,2.78-9a9.08,9.08,0,0,1,7-3.08,8.7,8.7,0,0,1,6.75,3.25V332.09h6.15Zm-16.43-12.14a10.6,10.6,0,0,0,1,5.39,4.64,4.64,0,0,0,4.16,2.41,4.55,4.55,0,0,0,3.62-1.8,8.39,8.39,0,0,0,1.49-5.41q0-4-1.45-5.77a4.57,4.57,0,0,0-3.7-1.77,4.63,4.63,0,0,0-3.67,1.75A7.83,7.83,0,0,0,1163.45,352.08Z"/><path class="cls-33" d="M1457.93,359.63V327.55h22V333H1464.4v7.6h13.4V346h-13.4v13.63Z"/><path class="cls-33" d="M1489.82,343.48l-5.58-1a8.64,8.64,0,0,1,3.24-5q2.3-1.62,6.83-1.62a14.73,14.73,0,0,1,6.13,1,6.12,6.12,0,0,1,2.83,2.47q.82,1.5.82,5.5L1504,352a24.58,24.58,0,0,0,.3,4.52,13.16,13.16,0,0,0,1.11,3.11h-6.09c-.16-.4-.36-1-.59-1.81-.1-.37-.18-.61-.22-.72a11,11,0,0,1-3.37,2.29,9.67,9.67,0,0,1-3.83.77,7.93,7.93,0,0,1-5.66-2,6.47,6.47,0,0,1-2.07-4.92,6.69,6.69,0,0,1,.94-3.52,6.18,6.18,0,0,1,2.64-2.36,20.48,20.48,0,0,1,4.89-1.44,33.45,33.45,0,0,0,6-1.5v-.62a3.18,3.18,0,0,0-.88-2.53,5.25,5.25,0,0,0-3.3-.75,4.31,4.31,0,0,0-2.56.65A4.38,4.38,0,0,0,1489.82,343.48Zm8.23,5a38.5,38.5,0,0,1-3.74.94,11.38,11.38,0,0,0-3.35,1.07,2.57,2.57,0,0,0-1.21,2.17,3,3,0,0,0,1,2.23,3.36,3.36,0,0,0,2.45.95,5.3,5.3,0,0,0,3.17-1.1,3.84,3.84,0,0,0,1.47-2,12.24,12.24,0,0,0,.24-3Z"/><path class="cls-33" d="M1510,336.39h5.73v3.41a8.59,8.59,0,0,1,3-2.84,8.34,8.34,0,0,1,4.23-1.1,8.85,8.85,0,0,1,6.87,3.18c1.88,2.11,2.83,5.06,2.83,8.84s-1,6.9-2.85,9.05a8.88,8.88,0,0,1-6.89,3.23,7.89,7.89,0,0,1-3.5-.77,11.72,11.72,0,0,1-3.29-2.62v11.71H1510Zm6.08,11.23q0,3.92,1.56,5.79a4.77,4.77,0,0,0,3.78,1.87,4.44,4.44,0,0,0,3.57-1.72c1-1.15,1.43-3,1.43-5.64q0-3.65-1.47-5.42a4.52,4.52,0,0,0-3.63-1.78,4.72,4.72,0,0,0-3.75,1.74A7.77,7.77,0,0,0,1516.06,347.62Z"/><path class="cls-33" d="M1537.54,333.24v-5.69h6.15v5.69Zm0,26.39V336.39h6.15v23.24Z"/><path class="cls-33" d="M1554.59,343.48l-5.58-1a8.74,8.74,0,0,1,3.24-5q2.3-1.62,6.83-1.62a14.73,14.73,0,0,1,6.13,1,6.12,6.12,0,0,1,2.83,2.47q.82,1.5.82,5.5l-.06,7.19a24.78,24.78,0,0,0,.29,4.52,13.16,13.16,0,0,0,1.11,3.11h-6.09c-.16-.4-.36-1-.59-1.81a6.25,6.25,0,0,0-.22-.72,11,11,0,0,1-3.37,2.29,9.67,9.67,0,0,1-3.83.77,7.93,7.93,0,0,1-5.66-2,6.47,6.47,0,0,1-2.07-4.92,6.69,6.69,0,0,1,.94-3.52,6.18,6.18,0,0,1,2.64-2.36,20.48,20.48,0,0,1,4.89-1.44,33.45,33.45,0,0,0,6-1.5v-.62a3.18,3.18,0,0,0-.88-2.53,5.25,5.25,0,0,0-3.3-.75,4.31,4.31,0,0,0-2.56.65A4.44,4.44,0,0,0,1554.59,343.48Zm8.23,5a38.5,38.5,0,0,1-3.74.94,11.38,11.38,0,0,0-3.35,1.07,2.59,2.59,0,0,0-1.21,2.17,3,3,0,0,0,1,2.23,3.36,3.36,0,0,0,2.45.95,5.3,5.3,0,0,0,3.17-1.1,3.79,3.79,0,0,0,1.47-2,12.24,12.24,0,0,0,.24-3Z"/><path class="cls-33" d="M1596.07,359.63h-6.15V347.77a17.94,17.94,0,0,0-.4-4.87,3.35,3.35,0,0,0-1.28-1.72,3.64,3.64,0,0,0-2.13-.61,5,5,0,0,0-2.87.87,4.51,4.51,0,0,0-1.74,2.32,20.33,20.33,0,0,0-.47,5.35v10.52h-6.15V336.39h5.71v3.41a9.52,9.52,0,0,1,11.39-3.2,6.28,6.28,0,0,1,2.55,1.87,7,7,0,0,1,1.2,2.58,18.94,18.94,0,0,1,.34,4.14Z"/><path class="cls-33" d="M1600.89,347.68a12.53,12.53,0,0,1,1.51-5.93,10.34,10.34,0,0,1,4.28-4.38,12.74,12.74,0,0,1,6.18-1.51,11.59,11.59,0,0,1,8.65,3.43,12.86,12.86,0,0,1,0,17.4,11.51,11.51,0,0,1-8.57,3.47,13.5,13.5,0,0,1-6.09-1.44,9.89,9.89,0,0,1-4.41-4.24A14.09,14.09,0,0,1,1600.89,347.68Zm6.3.33a7.73,7.73,0,0,0,1.64,5.3,5.37,5.37,0,0,0,8.09,0,7.81,7.81,0,0,0,1.63-5.34,7.67,7.67,0,0,0-1.63-5.26,5.39,5.39,0,0,0-8.09,0A7.75,7.75,0,0,0,1607.19,348Z"/><polygon class="cls-34" points="1067.13 579.49 1067.13 774.36 1071.5 774.36 1071.5 593.71 1187.4 593.71 1187.4 774.36 1191.77 774.36 1191.77 579.49 1067.13 579.49"/><polygon class="cls-34" points="1323.71 579.49 1323.71 774.36 1328.02 774.36 1328.02 593.71 1442.28 593.71 1442.28 774.36 1446.58 774.36 1446.58 579.49 1323.71 579.49"/><rect class="cls-31" x="1327.64" y="593.31" width="115.02" height="181.05"/><rect class="cls-19" x="899.06" y="593.76" width="167.66" height="90.93"/><rect class="cls-19" x="847.56" y="403.11" width="168.71" height="90.93"/><rect class="cls-19" x="1024.05" y="402.84" width="168.71" height="90.93"/><rect class="cls-19" x="762.79" y="403.25" width="76.99" height="90.93"/><path class="cls-34" d="M775.39,579.49V696.73h294.28V579.49ZM892.93,685H782.72V594.07H892.93Zm172.85-.84H898.12V593.22h167.66Z"/><rect class="cls-19" x="782.84" y="593.63" width="110.06" height="90.93"/><rect class="cls-19" x="1739.9" y="401.73" width="57.58" height="90.93"/><rect class="cls-19" x="1560.59" y="401.73" width="169.1" height="90.93"/><rect class="cls-19" x="1382.9" y="401.73" width="169.1" height="90.93"/><path class="cls-34" d="M762.63,388.57V505.82H1798V388.57ZM840,493.69H763.43V402.76H840Zm176.7,0H847.55V402.79h169.1Zm176.12,0h-169.1V402.79h169.1Zm178.07-.79h-169.1V402h169.1Zm181.16,0H1382.9V402H1552Zm177.69,0h-169.1V402h169.1Zm67.79,0H1739.9V402h57.58Z"/><polygon class="cls-35" points="1206.13 773.38 1052.73 773.38 1045.19 785.57 1200.39 785.57 1206.13 773.38"/><polygon class="cls-36" points="1200.99 787.52 1206.73 775.34 1206.13 773.38 1200.39 785.57 1045.19 785.57 1045.79 787.52 1200.99 787.52"/><polygon class="cls-35" points="1467.27 774.36 1313.86 774.36 1306.33 786.55 1461.53 786.55 1467.27 774.36"/><polygon class="cls-36" points="1462.13 788.5 1467.87 776.31 1467.27 774.36 1461.53 786.55 1306.33 786.55 1306.93 788.5 1462.13 788.5"/><polygon class="cls-30" points="1002.1 615.66 1071.81 593.3 1071.5 773.96 1002.1 796.71 1002.1 615.66"/><polygon class="cls-37" points="1187.4 593.71 1071.94 593.31 1071.94 774.36 1186.96 774.36 1187.4 593.71"/><polygon class="cls-38" points="1629.65 593.17 1743 593.17 1743 592.9 1629.38 592.9 1629.38 683.83 1629.65 683.83 1629.65 593.17"/><rect class="cls-19" x="1630.92" y="593.44" width="113.61" height="90.93"/><polygon class="cls-39" points="1001.42 615.01 1003.15 615.96 1073.06 593.42 1070.8 592.73 1001.42 615.01"/><polygon class="cls-39" points="1001.42 615.01 1001.23 796.66 1002.39 797.03 1003.11 615.98 1001.42 615.01"/><path class="cls-34" d="M1446.58,579.49V696.73h305.54V579.49ZM1622.8,683.93H1453.7V593h169.1Zm120.56,0H1629.74V593h113.62Z"/><rect class="cls-19" x="1201.18" y="402.3" width="169.1" height="90.93"/><rect class="cls-20" x="755.02" y="224.47" width="527.5" height="9.24"/><rect class="cls-20" x="1277.51" y="224.47" width="527.5" height="9.24"/><path class="cls-21" d="M1430.5,684.64a4.08,4.08,0,0,0-4.08,4.08h8.15A4.08,4.08,0,0,0,1430.5,684.64Z"/></svg>