<svg id="Layer_1" data-name="Layer 1" xmlns="http://www.w3.org/2000/svg" width="3181.52" height="1856.77" viewBox="0 0 3181.52 1856.77"><defs><style>.cls-1{fill:#864131;}.cls-2{fill:none;stroke:#864131;stroke-miterlimit:10;stroke-width:4px;}</style></defs><title>ide</title><path class="cls-1" d="M481.22,242a56.51,56.51,0,0,1-18.63,3.33c-9.18,0-16.74-2.34-22.68-8-5.22-5-8.46-13.13-8.46-22.58.09-18.09,12.51-31.32,32.85-31.32,7,0,12.51,1.53,15.12,2.79l-1.89,6.39A31.44,31.44,0,0,0,464.12,190c-14.76,0-24.39,9.18-24.39,24.39,0,15.39,9.27,24.47,23.4,24.47,5.13,0,8.64-.72,10.44-1.62V219.17H461.24v-6.3h20Z"/><path class="cls-1" d="M517.76,244.72l-.63-5.49h-.27a16.22,16.22,0,0,1-13.32,6.48c-8.82,0-13.32-6.21-13.32-12.5,0-10.53,9.36-16.29,26.19-16.2v-.9c0-3.6-1-10.08-9.9-10.08a21.7,21.7,0,0,0-11.34,3.24l-1.8-5.22a27,27,0,0,1,14.31-3.87c13.32,0,16.56,9.09,16.56,17.82v16.29a61.29,61.29,0,0,0,.72,10.43Zm-1.17-22.22c-8.64-.18-18.45,1.35-18.45,9.81,0,5.12,3.42,7.55,7.47,7.55a10.84,10.84,0,0,0,10.53-7.28,8.27,8.27,0,0,0,.45-2.52Zm-17-34.29c0-4.77,3.51-8.55,9.18-8.55,5.4,0,8.91,3.69,8.91,8.46s-3.87,8.28-9,8.28C503.27,196.4,499.58,192.8,499.58,188.21Zm13.68-.18a4.66,4.66,0,0,0-4.68-4.95c-2.79,0-4.41,2.34-4.41,5.13,0,2.34,1.8,4.86,4.41,4.86A4.73,4.73,0,0,0,513.26,188Z"/><path class="cls-1" d="M556.1,215.39c0-5.58-.18-10.08-.36-14.22h7.11l.36,7.47h.18c3.24-5.31,8.37-8.46,15.48-8.46,10.53,0,18.45,8.91,18.45,22.14,0,15.65-9.54,23.39-19.8,23.39-5.76,0-10.8-2.52-13.41-6.84h-.18v23.67H556.1ZM563.93,227a17.83,17.83,0,0,0,.36,3.24,12.21,12.21,0,0,0,11.88,9.26c8.37,0,13.23-6.84,13.23-16.82,0-8.73-4.59-16.2-13-16.2a12.64,12.64,0,0,0-12,9.81,12.84,12.84,0,0,0-.54,3.24Z"/><path class="cls-1" d="M631.43,244.72l-.63-5.49h-.27a16.22,16.22,0,0,1-13.32,6.48c-8.82,0-13.32-6.21-13.32-12.5,0-10.53,9.36-16.29,26.19-16.2v-.9c0-3.6-1-10.08-9.9-10.08a21.7,21.7,0,0,0-11.34,3.24l-1.8-5.22a27,27,0,0,1,14.31-3.87c13.32,0,16.56,9.09,16.56,17.82v16.29a61.29,61.29,0,0,0,.72,10.43Zm-1.17-22.22c-8.64-.18-18.45,1.35-18.45,9.81,0,5.12,3.42,7.55,7.47,7.55a10.84,10.84,0,0,0,10.53-7.28,8.27,8.27,0,0,0,.45-2.52Zm-17-34.29c0-4.77,3.51-8.55,9.18-8.55,5.4,0,8.91,3.69,8.91,8.46s-3.87,8.28-9,8.28C616.94,196.4,613.25,192.8,613.25,188.21Zm13.68-.18a4.66,4.66,0,0,0-4.68-4.95c-2.79,0-4.41,2.34-4.41,5.13,0,2.34,1.8,4.86,4.41,4.86A4.73,4.73,0,0,0,626.93,188Z"/><path class="cls-1" d="M659.15,257.32c3.6-.27,6.75-1.26,8.64-3.33,2.16-2.52,3-5.94,3-16.38V201.17h7.92v39.5c0,8.46-1.35,14-5.22,17.91-3.51,3.51-9.27,4.95-13.5,4.95Zm20.43-68.39a4.65,4.65,0,0,1-5,4.86,4.73,4.73,0,0,1-4.86-4.86,4.85,4.85,0,0,1,5-5A4.68,4.68,0,0,1,679.58,188.93Z"/><path class="cls-1" d="M715.75,244.72l-.63-5.49h-.27a16.22,16.22,0,0,1-13.32,6.48c-8.81,0-13.31-6.21-13.31-12.5,0-10.53,9.36-16.29,26.18-16.2v-.9c0-3.6-1-10.08-9.9-10.08a21.69,21.69,0,0,0-11.33,3.24l-1.8-5.22a27,27,0,0,1,14.3-3.87c13.32,0,16.56,9.09,16.56,17.82v16.29a61.29,61.29,0,0,0,.72,10.43Zm-1.17-22.22c-8.64-.18-18.44,1.35-18.44,9.81,0,5.12,3.42,7.55,7.47,7.55a10.84,10.84,0,0,0,10.52-7.28,8.27,8.27,0,0,0,.45-2.52Z"/><path class="cls-1" d="M772.54,201.17c-.18,3.15-.36,6.66-.36,12v25.28c0,10-2,16.11-6.21,19.89-4.23,4-10.35,5.22-15.84,5.22-5.22,0-11-1.26-14.48-3.6l2-6a24.5,24.5,0,0,0,12.77,3.42c8.1,0,14-4.23,14-15.21v-4.86h-.18c-2.43,4.05-7.11,7.29-13.86,7.29-10.8,0-18.53-9.18-18.53-21.23,0-14.76,9.62-23.13,19.61-23.13,7.56,0,11.7,4,13.59,7.56h.18l.36-6.57Zm-8.19,17.19a11.28,11.28,0,0,0-.45-3.6,11.41,11.41,0,0,0-11.07-8.37c-7.56,0-13,6.39-13,16.47,0,8.55,4.32,15.65,12.87,15.65a11.57,11.57,0,0,0,11-8.09,13.78,13.78,0,0,0,.63-4.23Z"/><path class="cls-1" d="M794.86,188.66v12.51H806.2v6H794.86v23.48c0,5.4,1.53,8.46,5.94,8.46a17.62,17.62,0,0,0,4.59-.54l.36,5.94a19.39,19.39,0,0,1-7,1.08c-3.69,0-6.66-1.17-8.55-3.33-2.25-2.34-3.06-6.21-3.06-11.33V207.2h-6.75v-6h6.75V190.73Z"/><path class="cls-1" d="M435.05,502.54h32.67v6.57H442.88v20.16h22.95v6.47H442.88v27.45h-7.83Z"/><path class="cls-1" d="M485.09,507.4c.09,2.7-1.89,4.86-5,4.86a4.71,4.71,0,0,1-4.77-4.86,4.83,4.83,0,0,1,5-4.95A4.7,4.7,0,0,1,485.09,507.4Zm-8.82,55.79V519.64h7.92v43.55Z"/><path class="cls-1" d="M496.25,555.09a20.76,20.76,0,0,0,10.44,3.15c5.76,0,8.46-2.88,8.46-6.48,0-3.78-2.25-5.85-8.1-8-7.83-2.79-11.52-7.11-11.52-12.33,0-7,5.67-12.77,15-12.77a21.74,21.74,0,0,1,10.71,2.7l-2,5.76a17,17,0,0,0-8.91-2.52c-4.68,0-7.29,2.7-7.29,5.94,0,3.59,2.61,5.21,8.28,7.37,7.56,2.88,11.43,6.66,11.43,13.14,0,7.65-5.94,13.05-16.29,13.05a24.84,24.84,0,0,1-12.24-3Z"/><path class="cls-1" d="M540.8,539.61H541c1.08-1.53,2.61-3.42,3.87-5l12.78-15h9.54l-16.83,17.9,19.17,25.65h-9.63l-15-20.88-4.05,4.5v16.38H533V499.3h7.83Z"/><path class="cls-1" d="M579.59,542.85c.18,10.71,7,15.12,14.94,15.12a28.64,28.64,0,0,0,12.06-2.25l1.35,5.67a35.28,35.28,0,0,1-14.49,2.7c-13.41,0-21.42-8.82-21.42-22s7.74-23.48,20.43-23.48c14.22,0,18,12.51,18,20.51a29.87,29.87,0,0,1-.27,3.69Zm23.22-5.67c.09-5-2.07-12.86-11-12.86-8,0-11.52,7.38-12.15,12.86Z"/><path class="cls-1" d="M435.05,799h7.83v29.25h.27c1.62-2.34,3.24-4.5,4.77-6.48L466.46,799h9.72l-22,25.74,23.67,34.92h-9.27l-20-29.79-5.76,6.66V859.7h-7.83Z"/><path class="cls-1" d="M512.9,818.3l3.78-5.4,3.51,2.43-3.78,5.58c4.23,4.05,6.57,9.9,6.57,16.65,0,16-11.07,23.13-21.24,23.13a20.39,20.39,0,0,1-11.16-3.06l-3.87,5.49-3.33-2.7,3.78-5.4c-4.23-4-6.75-9.72-6.75-16.83,0-14.49,9.54-23,21.42-23A20.59,20.59,0,0,1,512.9,818.3Zm-3.6,5.4a11.72,11.72,0,0,0-7.65-2.61c-9.72,0-13.59,9-13.59,16.92a18.86,18.86,0,0,0,3.24,10.89l.18.09Zm-15.12,28.53a10.76,10.76,0,0,0,7.29,2.52c8.28,0,13.77-7.11,13.77-16.92a19.47,19.47,0,0,0-3.06-10.62H512Z"/><path class="cls-1" d="M533,829.73c0-5.13-.09-9.54-.36-13.59h6.93l.27,8.55h.36c2-5.85,6.75-9.54,12.06-9.54a8.57,8.57,0,0,1,2.25.27v7.47a11.9,11.9,0,0,0-2.7-.27c-5.58,0-9.54,4.23-10.62,10.17a22.29,22.29,0,0,0-.36,3.69V859.7H533Z"/><path class="cls-1" d="M565.91,839.36c.18,10.71,7,15.12,14.94,15.12a28.64,28.64,0,0,0,12.06-2.25l1.35,5.67a35.28,35.28,0,0,1-14.49,2.7c-13.41,0-21.42-8.82-21.42-22s7.74-23.49,20.43-23.49c14.22,0,18,12.51,18,20.52a29.87,29.87,0,0,1-.27,3.69Zm23.22-5.67c.09-5-2.07-12.87-11-12.87-8,0-11.52,7.38-12.15,12.87Z"/><path class="cls-1" d="M435.05,1348.13h7.83v29.25h.27c1.62-2.34,3.24-4.5,4.77-6.48l18.54-22.77h9.72l-22,25.74,23.67,34.92h-9.27l-20-29.79-5.76,6.66v23.13h-7.83Z"/><path class="cls-1" d="M512.9,1367.39l3.78-5.4,3.51,2.43-3.78,5.58c4.23,4,6.57,9.9,6.57,16.65,0,16-11.07,23.13-21.24,23.13a20.39,20.39,0,0,1-11.16-3.06l-3.87,5.49-3.33-2.7,3.78-5.4c-4.23-4-6.75-9.72-6.75-16.83,0-14.49,9.54-23,21.42-23A20.59,20.59,0,0,1,512.9,1367.39Zm-3.6,5.4a11.72,11.72,0,0,0-7.65-2.61c-9.72,0-13.59,9-13.59,16.92A18.86,18.86,0,0,0,491.3,1398l.18.09Zm-15.12,28.53a10.76,10.76,0,0,0,7.29,2.52c8.28,0,13.77-7.11,13.77-16.92a19.47,19.47,0,0,0-3.06-10.62H512Z"/><path class="cls-1" d="M532.61,1408.79c.18-3,.36-7.38.36-11.25v-52.65h7.83v27.36H541c2.79-4.86,7.83-8,14.85-8,10.8,0,18.45,9,18.36,22.23,0,15.57-9.81,23.31-19.53,23.31-6.3,0-11.34-2.43-14.58-8.19h-.27l-.36,7.2Zm8.19-17.46a14.83,14.83,0,0,0,.36,2.88,12.22,12.22,0,0,0,11.88,9.27c8.28,0,13.23-6.75,13.23-16.74,0-8.73-4.5-16.2-13-16.2a12.63,12.63,0,0,0-12.06,9.72,15.61,15.61,0,0,0-.45,3.24Z"/><path class="cls-1" d="M588.59,1388.45c.18,10.71,7,15.12,14.94,15.12a28.64,28.64,0,0,0,12.06-2.25l1.35,5.67a35.28,35.28,0,0,1-14.49,2.7c-13.41,0-21.42-8.82-21.42-22s7.74-23.49,20.43-23.49c14.22,0,18,12.51,18,20.52a29.87,29.87,0,0,1-.27,3.69Zm23.22-5.67c.09-5-2.07-12.87-11-12.87-8,0-11.52,7.38-12.15,12.87Z"/><path class="cls-1" d="M435.05,1068.9a75.87,75.87,0,0,1,14.31-1.26c7.83,0,12.87,1.35,16.65,4.41a12.72,12.72,0,0,1,5,10.71c0,5.85-3.87,11-10.26,13.32v.18c5.76,1.44,12.51,6.21,12.51,15.21a16.35,16.35,0,0,1-5.13,12.15c-4.23,3.87-11.07,5.67-21,5.67a91.54,91.54,0,0,1-12.15-.72Zm7.83,24.84H450c8.28,0,13.14-4.32,13.14-10.17,0-7.11-5.4-9.9-13.32-9.9a33.59,33.59,0,0,0-6.93.54Zm0,29.07a41.84,41.84,0,0,0,6.57.36c8.1,0,15.57-3,15.57-11.79,0-8.28-7.11-11.7-15.66-11.7h-6.48Z"/><path class="cls-1" d="M507.68,1128.75l-.63-5.49h-.27a16.22,16.22,0,0,1-13.32,6.48c-8.82,0-13.32-6.21-13.32-12.51,0-10.53,9.36-16.29,26.19-16.2v-.9c0-3.6-1-10.08-9.9-10.08a21.7,21.7,0,0,0-11.34,3.24l-1.8-5.22a27,27,0,0,1,14.31-3.87c13.32,0,16.56,9.09,16.56,17.82v16.29a61.33,61.33,0,0,0,.72,10.44Zm-1.17-22.23c-8.64-.18-18.45,1.35-18.45,9.81,0,5.13,3.42,7.56,7.47,7.56a10.84,10.84,0,0,0,10.53-7.29,8.27,8.27,0,0,0,.45-2.52Z"/><path class="cls-1" d="M564.47,1085.19c-.18,3.15-.36,6.66-.36,12v25.29c0,10-2,16.11-6.21,19.89-4.23,4-10.35,5.22-15.84,5.22-5.22,0-11-1.26-14.49-3.6l2-6a24.56,24.56,0,0,0,12.78,3.42c8.1,0,14-4.23,14-15.21v-4.86h-.18c-2.43,4-7.11,7.29-13.86,7.29-10.8,0-18.54-9.18-18.54-21.24,0-14.76,9.63-23.13,19.62-23.13,7.56,0,11.7,4,13.59,7.56h.18l.36-6.57Zm-8.19,17.19a11.28,11.28,0,0,0-.45-3.6,11.41,11.41,0,0,0-11.07-8.37c-7.56,0-13,6.39-13,16.47,0,8.55,4.32,15.66,12.87,15.66a11.58,11.58,0,0,0,11-8.1,13.78,13.78,0,0,0,.63-4.23Z"/><path class="cls-1" d="M581.66,1108.41c.18,10.71,7,15.12,14.94,15.12a28.64,28.64,0,0,0,12.06-2.25L610,1127a35.28,35.28,0,0,1-14.49,2.7c-13.41,0-21.42-8.82-21.42-22s7.74-23.49,20.43-23.49c14.22,0,18,12.51,18,20.52a29.87,29.87,0,0,1-.27,3.69Zm23.22-5.67c.09-5-2.07-12.87-11-12.87-8,0-11.52,7.38-12.15,12.87Z"/><path class="cls-1" d="M435.05,1629.61h32.67v6.57H442.88v20.16h22.95v6.48H442.88v27.44h-7.83Z"/><path class="cls-1" d="M498.68,1690.26l-.63-5.49h-.27a16.22,16.22,0,0,1-13.32,6.48c-8.82,0-13.32-6.21-13.32-12.51,0-10.52,9.36-16.28,26.19-16.19v-.9c0-3.6-1-10.08-9.9-10.08a21.7,21.7,0,0,0-11.34,3.24l-1.8-5.22a27,27,0,0,1,14.31-3.87c13.32,0,16.56,9.09,16.56,17.82v16.28a61.33,61.33,0,0,0,.72,10.44ZM497.51,1668c-8.64-.18-18.45,1.35-18.45,9.8,0,5.13,3.42,7.56,7.47,7.56a10.84,10.84,0,0,0,10.53-7.29,8.27,8.27,0,0,0,.45-2.52Z"/><path class="cls-1" d="M517.94,1658.5c0-4.5-.09-8.19-.36-11.79h7l.45,7.2h.18a16,16,0,0,1,14.4-8.19c6,0,15.39,3.6,15.39,18.54v26H547.1v-25.1c0-7-2.61-12.87-10.08-12.87a11.25,11.25,0,0,0-10.62,8.1,11.39,11.39,0,0,0-.54,3.69v26.18h-7.92Z"/><path class="cls-1" d="M605.42,1646.71c-.18,3.15-.36,6.66-.36,12V1684c0,10-2,16.11-6.21,19.89-4.23,4-10.35,5.22-15.84,5.22-5.22,0-11-1.26-14.49-3.6l2-6a24.56,24.56,0,0,0,12.78,3.42c8.1,0,14-4.23,14-15.21v-4.86h-.18c-2.43,4-7.11,7.29-13.86,7.29-10.8,0-18.54-9.18-18.54-21.23,0-14.76,9.63-23.13,19.62-23.13,7.56,0,11.7,4,13.59,7.56h.18l.36-6.57Zm-8.19,17.19a11.28,11.28,0,0,0-.45-3.6,11.41,11.41,0,0,0-11.07-8.37c-7.56,0-13,6.39-13,16.47,0,8.55,4.32,15.65,12.87,15.65a11.58,11.58,0,0,0,11-8.09,13.82,13.82,0,0,0,.63-4.23Z"/><path class="cls-1" d="M622.61,1669.93c.18,10.7,7,15.11,14.94,15.11a28.64,28.64,0,0,0,12.06-2.25l1.35,5.67a35.28,35.28,0,0,1-14.49,2.7c-13.41,0-21.42-8.82-21.42-22s7.74-23.49,20.43-23.49c14.22,0,18,12.51,18,20.52a29.87,29.87,0,0,1-.27,3.69Zm23.22-5.67c.09-5-2.07-12.87-11-12.87-8,0-11.52,7.38-12.15,12.87Z"/><path class="cls-1" d="M2047.27,184.88a81.56,81.56,0,0,1,15-1.26c8.37,0,13.77,1.53,17.55,4.95a15.11,15.11,0,0,1,4.77,11.52c0,8-5,13.32-11.43,15.48v.27c4.68,1.62,7.47,5.94,8.91,12.24,2,8.45,3.41,14.3,4.67,16.64h-8.09c-1-1.71-2.34-6.93-4-14.48-1.8-8.37-5-11.52-12.15-11.79h-7.38v26.27h-7.83Zm7.83,27.63h8c8.37,0,13.68-4.59,13.68-11.52,0-7.83-5.67-11.25-13.95-11.34a32.21,32.21,0,0,0-7.74.72Z"/><path class="cls-1" d="M2135.19,222.59c0,16.1-11.16,23.12-21.68,23.12-11.79,0-20.88-8.64-20.88-22.4,0-14.58,9.54-23.13,21.6-23.13C2126.73,200.18,2135.19,209.27,2135.19,222.59Zm-34.55.45c0,9.54,5.49,16.73,13.23,16.73,7.55,0,13.22-7.11,13.22-16.91,0-7.38-3.69-16.74-13-16.74S2100.64,214.76,2100.64,223Z"/><path class="cls-1" d="M2176.23,243.1a29.17,29.17,0,0,1-12.51,2.52c-13.13,0-21.68-8.91-21.68-22.22s9.18-23.13,23.39-23.13a26.47,26.47,0,0,1,11,2.25l-1.8,6.12a18.37,18.37,0,0,0-9.18-2.07c-10,0-15.38,7.38-15.38,16.47,0,10.07,6.47,16.28,15.11,16.28a22.5,22.5,0,0,0,9.72-2.16Z"/><path class="cls-1" d="M2193.33,221.15h.18c1.09-1.53,2.61-3.42,3.87-5l12.78-15h9.54l-16.83,17.91L2222,244.72h-9.63l-15-20.87-4.05,4.5v16.37h-7.82V180.83h7.82Z"/><path class="cls-1" d="M2232.12,224.39c.18,10.7,7,15.11,14.94,15.11a28.64,28.64,0,0,0,12.06-2.25l1.35,5.67a35.28,35.28,0,0,1-14.49,2.7c-13.41,0-21.42-8.82-21.42-22s7.74-23.49,20.43-23.49c14.22,0,18,12.51,18,20.52a29.87,29.87,0,0,1-.27,3.69Zm23.22-5.67c.09-5-2.07-12.87-11-12.87-8,0-11.52,7.38-12.15,12.87Z"/><path class="cls-1" d="M2272.8,214.76c0-5.13-.09-9.54-.36-13.59h6.93l.27,8.55h.36c2-5.85,6.75-9.54,12.06-9.54a8.57,8.57,0,0,1,2.25.27v7.47a11.9,11.9,0,0,0-2.7-.27c-5.58,0-9.54,4.23-10.62,10.17a22.29,22.29,0,0,0-.36,3.69v23.21h-7.83Z"/><path class="cls-1" d="M2305.74,224.39c.18,10.7,7,15.11,14.94,15.11a28.64,28.64,0,0,0,12.06-2.25l1.35,5.67a35.28,35.28,0,0,1-14.49,2.7c-13.41,0-21.42-8.82-21.42-22s7.74-23.49,20.43-23.49c14.22,0,18,12.51,18,20.52a29.87,29.87,0,0,1-.27,3.69Zm23.22-5.67c.09-5-2.07-12.87-11-12.87-8,0-11.52,7.38-12.15,12.87Z"/><path class="cls-1" d="M2093.43,560.49a56.44,56.44,0,0,1-18.62,3.33c-9.18,0-16.74-2.34-22.68-8-5.22-5-8.46-13.14-8.46-22.58.09-18.09,12.51-31.32,32.85-31.32,7,0,12.5,1.53,15.11,2.79l-1.89,6.39a31.39,31.39,0,0,0-13.4-2.61c-14.76,0-24.39,9.18-24.39,24.38,0,15.39,9.27,24.48,23.4,24.48,5.13,0,8.64-.72,10.43-1.62V537.63h-12.32v-6.29h20Z"/><path class="cls-1" d="M2105.14,533.23c0-5.13-.09-9.54-.36-13.59h6.93l.27,8.55h.36c2-5.85,6.75-9.54,12.06-9.54a8.57,8.57,0,0,1,2.25.27v7.47a11.9,11.9,0,0,0-2.7-.27c-5.58,0-9.54,4.23-10.62,10.16A22.29,22.29,0,0,0,2113,540v23.22h-7.83Z"/><path class="cls-1" d="M2143.75,507.4c.09,2.7-1.89,4.86-5,4.86a4.71,4.71,0,0,1-4.77-4.86,4.83,4.83,0,0,1,4.95-4.95A4.7,4.7,0,0,1,2143.75,507.4Zm-8.82,55.79V519.64h7.92v43.55Z"/><path class="cls-1" d="M2156,499.3h7.91v63.89H2156Z"/><path class="cls-1" d="M2177.22,499.3h7.92v63.89h-7.92Z"/><path class="cls-1" d="M2206.29,539.61h.18c1.08-1.53,2.61-3.42,3.87-5l12.78-15h9.54l-16.83,17.9L2235,563.19h-9.63l-15-20.88-4.05,4.5v16.38h-7.83V499.3h7.83Z"/><path class="cls-1" d="M2244.72,519.64l9.54,25.73c1,2.88,2.07,6.3,2.79,8.91h.18c.81-2.61,1.71-5.94,2.79-9.09l8.64-25.55H2277l-11.88,31c-5.67,14.94-9.54,22.59-14.94,27.27a21.46,21.46,0,0,1-9.72,5.13l-2-6.66a21,21,0,0,0,6.93-3.87,24,24,0,0,0,6.66-8.82,5.69,5.69,0,0,0,.63-1.89,6.91,6.91,0,0,0-.54-2.07l-16.11-40.13Z"/><path class="cls-1" d="M2284.23,499.3h7.92v63.89h-7.92Z"/><path class="cls-1" d="M2305.47,499.3h7.92v63.89h-7.92Z"/><path class="cls-1" d="M2335.53,507.4c.09,2.7-1.89,4.86-5,4.86a4.71,4.71,0,0,1-4.77-4.86,4.83,4.83,0,0,1,5-4.95A4.7,4.7,0,0,1,2335.53,507.4Zm-8.82,55.79V519.64h7.92v43.55Z"/><path class="cls-1" d="M2347.77,531.42c0-4.49-.09-8.18-.36-11.78h7l.45,7.2h.18a16,16,0,0,1,14.4-8.19c6,0,15.39,3.6,15.39,18.53v26h-7.92V538.08c0-7-2.61-12.86-10.08-12.86a11.26,11.26,0,0,0-10.62,8.09,11.39,11.39,0,0,0-.54,3.69v26.19h-7.92Z"/><path class="cls-1" d="M2435.25,519.64c-.18,3.15-.36,6.66-.36,12v25.28c0,10-2,16.11-6.21,19.89-4.23,4-10.35,5.22-15.84,5.22-5.22,0-11-1.26-14.49-3.6l2-6a24.56,24.56,0,0,0,12.78,3.42c8.1,0,14-4.23,14-15.21v-4.86H2427c-2.43,4-7.11,7.29-13.86,7.29-10.8,0-18.54-9.18-18.54-21.24,0-14.75,9.63-23.12,19.62-23.12,7.56,0,11.7,4,13.59,7.56h.18l.36-6.57Zm-8.19,17.18a11.22,11.22,0,0,0-.45-3.59,11.41,11.41,0,0,0-11.07-8.37c-7.56,0-13,6.39-13,16.46,0,8.55,4.32,15.66,12.87,15.66a11.58,11.58,0,0,0,11-8.1,13.78,13.78,0,0,0,.63-4.23Z"/><path class="cls-1" d="M2452.44,542.85c.18,10.71,7,15.12,14.94,15.12a28.64,28.64,0,0,0,12.06-2.25l1.35,5.67a35.28,35.28,0,0,1-14.49,2.7c-13.41,0-21.42-8.82-21.42-22s7.74-23.48,20.43-23.48c14.22,0,18,12.51,18,20.51a29.87,29.87,0,0,1-.27,3.69Zm23.22-5.67c.09-5-2.07-12.86-11-12.86-8,0-11.52,7.38-12.15,12.86Z"/><path class="cls-1" d="M2493.12,533.23c0-5.13-.09-9.54-.36-13.59h6.93l.27,8.55h.36c2-5.85,6.75-9.54,12.06-9.54a8.57,8.57,0,0,1,2.25.27v7.47a11.9,11.9,0,0,0-2.7-.27c-5.58,0-9.54,4.23-10.62,10.16A22.29,22.29,0,0,0,2501,540v23.22h-7.83Z"/><path class="cls-1" d="M2047.27,799h32.67v6.57H2055.1v20.16h23v6.48h-23V859.7h-7.83Z"/><path class="cls-1" d="M2092.45,839.36c.18,10.71,7,15.12,14.94,15.12a28.64,28.64,0,0,0,12.06-2.25l1.35,5.67a35.28,35.28,0,0,1-14.49,2.7c-13.41,0-21.42-8.82-21.42-22s7.74-23.49,20.43-23.49c14.22,0,18,12.51,18,20.52a29.87,29.87,0,0,1-.27,3.69Zm23.22-5.67c.09-5-2.07-12.87-11-12.87-8,0-11.52,7.38-12.15,12.87Z"/><path class="cls-1" d="M2133.13,827.93c0-4.5-.09-8.19-.36-11.79h6.93l.36,7h.27c2.43-4.14,6.48-8,13.68-8a12.88,12.88,0,0,1,12.33,8.73h.18a17.94,17.94,0,0,1,4.86-5.67,14.82,14.82,0,0,1,9.62-3.06c5.76,0,14.31,3.78,14.31,18.9V859.7h-7.74V835c0-8.37-3.06-13.41-9.45-13.41-4.49,0-8,3.33-9.35,7.2a13,13,0,0,0-.63,4V859.7h-7.74V833.6c0-6.93-3.06-12-9.09-12-4.95,0-8.55,4-9.81,7.92a10.92,10.92,0,0,0-.63,3.87V859.7h-7.74Z"/><path class="cls-1" d="M2217,803.9c.09,2.7-1.89,4.86-5,4.86a4.71,4.71,0,0,1-4.77-4.86,4.83,4.83,0,0,1,5-4.95A4.7,4.7,0,0,1,2217,803.9Zm-8.82,55.8V816.14h7.92V859.7Z"/><path class="cls-1" d="M2229.25,827.93c0-4.5-.09-8.19-.36-11.79h7l.45,7.2h.18a16,16,0,0,1,14.39-8.19c6,0,15.39,3.6,15.39,18.54v26h-7.92V834.59c0-7-2.61-12.87-10.08-12.87a11.25,11.25,0,0,0-10.61,8.1,11.39,11.39,0,0,0-.54,3.69V859.7h-7.92Z"/><path class="cls-1" d="M2288,803.9c.1,2.7-1.88,4.86-5,4.86a4.71,4.71,0,0,1-4.77-4.86,4.83,4.83,0,0,1,4.95-4.95A4.69,4.69,0,0,1,2288,803.9Zm-8.81,55.8V816.14h7.92V859.7Z"/><path class="cls-1" d="M2299.17,851.6a20.76,20.76,0,0,0,10.44,3.15c5.76,0,8.46-2.88,8.46-6.48,0-3.78-2.25-5.85-8.1-8-7.83-2.79-11.52-7.11-11.52-12.33,0-7,5.67-12.78,15-12.78a21.74,21.74,0,0,1,10.71,2.7l-2,5.76a17,17,0,0,0-8.91-2.52c-4.68,0-7.29,2.7-7.29,5.94,0,3.6,2.61,5.22,8.28,7.38,7.56,2.88,11.43,6.66,11.43,13.14,0,7.65-5.94,13.05-16.29,13.05a24.84,24.84,0,0,1-12.24-3Z"/><path class="cls-1" d="M2345.43,803.63v12.51h11.34v6h-11.34v23.49c0,5.4,1.53,8.46,5.94,8.46a17.62,17.62,0,0,0,4.59-.54l.36,5.94a19.39,19.39,0,0,1-7,1.08c-3.69,0-6.66-1.17-8.55-3.33-2.25-2.34-3.06-6.21-3.06-11.34V822.17h-6.75v-6h6.75V805.7Z"/><path class="cls-1" d="M2369.55,839.36c.18,10.71,7,15.12,14.94,15.12a28.64,28.64,0,0,0,12.06-2.25l1.35,5.67a35.28,35.28,0,0,1-14.49,2.7c-13.41,0-21.42-8.82-21.42-22s7.74-23.49,20.43-23.49c14.22,0,18,12.51,18,20.52a29.87,29.87,0,0,1-.27,3.69Zm23.22-5.67c.09-5-2.07-12.87-11-12.87-8,0-11.52,7.38-12.15,12.87Z"/><path class="cls-1" d="M2410.23,829.73c0-5.13-.09-9.54-.36-13.59h6.93l.27,8.55h.36c2-5.85,6.75-9.54,12.06-9.54a8.57,8.57,0,0,1,2.25.27v7.47a11.9,11.9,0,0,0-2.7-.27c-5.58,0-9.54,4.23-10.62,10.17a22.29,22.29,0,0,0-.36,3.69V859.7h-7.83Z"/><path class="cls-1" d="M2057.08,1389.71l-6.3,19.08h-8.1l20.61-60.66h9.45l20.69,60.66h-8.37l-6.47-19.08Zm19.89-6.12-5.94-17.46c-1.35-4-2.25-7.56-3.15-11.07h-.18c-.9,3.6-1.89,7.29-3.06,11l-5.94,17.55Z"/><path class="cls-1" d="M2100.46,1400.69a20.76,20.76,0,0,0,10.44,3.15c5.76,0,8.46-2.88,8.46-6.48,0-3.78-2.25-5.85-8.1-8-7.83-2.79-11.52-7.11-11.52-12.33,0-7,5.67-12.78,15-12.78a21.74,21.74,0,0,1,10.71,2.7l-2,5.76a17,17,0,0,0-8.91-2.52c-4.68,0-7.29,2.7-7.29,5.94,0,3.6,2.61,5.22,8.28,7.38,7.56,2.88,11.43,6.66,11.43,13.14,0,7.65-5.94,13-16.29,13a24.84,24.84,0,0,1-12.24-3Z"/><path class="cls-1" d="M2146.72,1352.72v12.51h11.34v6h-11.34v23.49c0,5.4,1.53,8.46,5.94,8.46a17.62,17.62,0,0,0,4.59-.54l.36,5.94a19.39,19.39,0,0,1-7,1.08c-3.69,0-6.66-1.17-8.55-3.33-2.25-2.34-3.06-6.21-3.06-11.34v-23.76h-6.75v-6H2139v-10.44Z"/><path class="cls-1" d="M2167,1378.82c0-5.13-.09-9.54-.36-13.59h6.93l.27,8.55h.36c2-5.85,6.75-9.54,12-9.54a8.57,8.57,0,0,1,2.25.27V1372a11.9,11.9,0,0,0-2.7-.27c-5.57,0-9.53,4.23-10.61,10.17a22.29,22.29,0,0,0-.36,3.69v23.22H2167Z"/><path class="cls-1" d="M2234.91,1386.65c0,16.11-11.16,23.13-21.68,23.13-11.79,0-20.88-8.64-20.88-22.41,0-14.58,9.54-23.13,21.6-23.13C2226.45,1364.24,2234.91,1373.33,2234.91,1386.65Zm-34.55.45c0,9.54,5.49,16.74,13.23,16.74,7.55,0,13.22-7.11,13.22-16.92,0-7.38-3.69-16.74-13-16.74S2200.36,1378.82,2200.36,1387.1Z"/><path class="cls-1" d="M2244.91,1377c0-4.5-.09-8.19-.36-11.79h7l.44,7.2h.19a16,16,0,0,1,14.39-8.19c6,0,15.39,3.6,15.39,18.54v26h-7.92v-25.11c0-7-2.61-12.87-10.08-12.87a11.24,11.24,0,0,0-10.61,8.1,11.37,11.37,0,0,0-.55,3.69v26.19h-7.91Z"/><path class="cls-1" d="M2319,1408.79l-.63-5.49h-.27a16.22,16.22,0,0,1-13.32,6.48c-8.81,0-13.31-6.21-13.31-12.51,0-10.53,9.35-16.29,26.18-16.2v-.9c0-3.6-1-10.08-9.9-10.08a21.67,21.67,0,0,0-11.33,3.24l-1.8-5.22a27,27,0,0,1,14.3-3.87c13.32,0,16.56,9.09,16.56,17.82v16.29a61.33,61.33,0,0,0,.72,10.44Zm-1.17-22.23c-8.64-.18-18.45,1.35-18.45,9.81,0,5.13,3.42,7.56,7.47,7.56a10.84,10.84,0,0,0,10.53-7.29,8.27,8.27,0,0,0,.45-2.52Z"/><path class="cls-1" d="M2374.68,1396.91c0,4.5.09,8.46.36,11.88h-7l-.45-7.11h-.18a16.39,16.39,0,0,1-14.4,8.1c-6.84,0-15-3.78-15-19.08v-25.47h7.92v24.12c0,8.28,2.52,13.86,9.72,13.86A11.45,11.45,0,0,0,2366,1396a11.58,11.58,0,0,0,.72-4v-26.73h7.92Z"/><path class="cls-1" d="M2397.36,1352.72v12.51h11.34v6h-11.34v23.49c0,5.4,1.53,8.46,5.94,8.46a17.62,17.62,0,0,0,4.59-.54l.36,5.94a19.39,19.39,0,0,1-7,1.08c-3.69,0-6.66-1.17-8.55-3.33-2.25-2.34-3.06-6.21-3.06-11.34v-23.76h-6.75v-6h6.75v-10.44Z"/><path class="cls-1" d="M2421.48,1388.45c.18,10.71,7,15.12,14.94,15.12a28.64,28.64,0,0,0,12.06-2.25l1.35,5.67a35.28,35.28,0,0,1-14.49,2.7c-13.41,0-21.42-8.82-21.42-22s7.74-23.49,20.43-23.49c14.22,0,18,12.51,18,20.52a29.87,29.87,0,0,1-.27,3.69Zm23.22-5.67c.09-5-2.07-12.87-11-12.87-8,0-11.52,7.38-12.15,12.87Z"/><path class="cls-1" d="M2462.16,1378.82c0-5.13-.09-9.54-.36-13.59h6.93l.27,8.55h.36c2-5.85,6.75-9.54,12.06-9.54a8.57,8.57,0,0,1,2.25.27V1372a11.9,11.9,0,0,0-2.7-.27c-5.58,0-9.54,4.23-10.62,10.17a22.29,22.29,0,0,0-.36,3.69v23.22h-7.83Z"/><path class="cls-1" d="M2047.27,1068.81a90.75,90.75,0,0,1,15-1.17c7.74,0,13.41,1.8,17,5,3.33,2.88,5.31,7.29,5.31,12.69s-1.62,9.81-4.68,13c-4.14,4.41-10.89,6.66-18.54,6.66a27,27,0,0,1-6.3-.54v24.3h-7.83Zm7.83,29.25a26.26,26.26,0,0,0,6.48.63c9.45,0,15.21-4.59,15.21-13,0-8-5.67-11.88-14.31-11.88a32.86,32.86,0,0,0-7.38.63Z"/><path class="cls-1" d="M2116.66,1128.75l-.63-5.49h-.27a16.22,16.22,0,0,1-13.32,6.48c-8.82,0-13.32-6.21-13.32-12.51,0-10.53,9.36-16.29,26.19-16.2v-.9c0-3.6-1-10.08-9.9-10.08a21.7,21.7,0,0,0-11.34,3.24l-1.8-5.22a27,27,0,0,1,14.31-3.87c13.32,0,16.56,9.09,16.56,17.82v16.29a61.33,61.33,0,0,0,.72,10.44Zm-1.17-22.23c-8.64-.18-18.45,1.35-18.45,9.81,0,5.13,3.42,7.56,7.47,7.56a10.84,10.84,0,0,0,10.53-7.29,8.27,8.27,0,0,0,.45-2.52Z"/><path class="cls-1" d="M2135.92,1064.85h7.92v63.9h-7.92Z"/><path class="cls-1" d="M2193.6,1116.87c0,4.5.09,8.46.36,11.88h-7l-.46-7.11h-.17a16.39,16.39,0,0,1-14.4,8.1c-6.84,0-15-3.78-15-19.08v-25.47h7.92v24.12c0,8.28,2.52,13.86,9.72,13.86A11.45,11.45,0,0,0,2185,1116a11.58,11.58,0,0,0,.72-4v-26.73h7.91Z"/><path class="cls-1" d="M2244.36,1064.85v52.65c0,3.87.09,8.28.36,11.25h-7.11l-.36-7.56h-.18c-2.43,4.86-7.73,8.55-14.84,8.55-10.53,0-18.63-8.91-18.63-22.14-.09-14.49,8.91-23.4,19.53-23.4,6.65,0,11.15,3.15,13.13,6.66h.18v-26Zm-7.92,38.07a14,14,0,0,0-.36-3.33,11.64,11.64,0,0,0-11.42-9.18c-8.19,0-13,7.2-13,16.83,0,8.82,4.32,16.11,12.87,16.11a11.9,11.9,0,0,0,11.6-9.45,13.76,13.76,0,0,0,.36-3.42Z"/><path class="cls-1" d="M2281.62,1128.75l-.63-5.49h-.27a16.2,16.2,0,0,1-13.31,6.48c-8.82,0-13.32-6.21-13.32-12.51,0-10.53,9.36-16.29,26.18-16.2v-.9c0-3.6-1-10.08-9.89-10.08a21.68,21.68,0,0,0-11.34,3.24l-1.8-5.22a27,27,0,0,1,14.31-3.87c13.31,0,16.55,9.09,16.55,17.82v16.29a61.33,61.33,0,0,0,.72,10.44Zm-1.17-22.23c-8.64-.18-18.44,1.35-18.44,9.81,0,5.13,3.42,7.56,7.46,7.56a10.84,10.84,0,0,0,10.53-7.29,8.27,8.27,0,0,0,.45-2.52Z"/><path class="cls-1" d="M2300.89,1097c0-4.5-.09-8.19-.36-11.79h7l.45,7.2h.18a16,16,0,0,1,14.4-8.19c6,0,15.39,3.6,15.39,18.54v26H2330v-25.11c0-7-2.61-12.87-10.08-12.87a11.25,11.25,0,0,0-10.62,8.1,11.39,11.39,0,0,0-.54,3.69v26.19h-7.91Z"/><path class="cls-1" d="M2055.1,1629.61V1655h29.33v-25.38h7.92v60.65h-7.92v-28.43H2055.1v28.43h-7.83v-60.65Z"/><path class="cls-1" d="M2110.09,1669.93c.18,10.7,7,15.11,14.93,15.11a28.64,28.64,0,0,0,12.06-2.25l1.35,5.67a35.28,35.28,0,0,1-14.49,2.7c-13.4,0-21.41-8.82-21.41-22s7.74-23.49,20.43-23.49c14.21,0,18,12.51,18,20.52a29.87,29.87,0,0,1-.27,3.69Zm23.21-5.67c.09-5-2.07-12.87-11-12.87-8,0-11.51,7.38-12.14,12.87Z"/><path class="cls-1" d="M2149.68,1682.16a20.76,20.76,0,0,0,10.44,3.15c5.76,0,8.46-2.88,8.46-6.48,0-3.78-2.25-5.84-8.1-8-7.83-2.79-11.52-7.11-11.52-12.33,0-7,5.67-12.78,15-12.78a21.74,21.74,0,0,1,10.71,2.7l-2,5.76a17,17,0,0,0-8.91-2.52c-4.68,0-7.29,2.7-7.29,5.94,0,3.6,2.61,5.22,8.28,7.38,7.56,2.88,11.43,6.66,11.43,13.13,0,7.65-5.94,13.05-16.29,13.05a24.84,24.84,0,0,1-12.24-3Z"/><path class="cls-1" d="M2195.94,1634.2v12.51h11.34v6h-11.34v23.48c0,5.4,1.53,8.46,5.94,8.46a17.62,17.62,0,0,0,4.59-.54l.36,5.94a19.39,19.39,0,0,1-7,1.08c-3.69,0-6.66-1.17-8.55-3.33-2.25-2.34-3.06-6.21-3.06-11.34v-23.75h-6.75v-6h6.75v-10.44Z"/><path class="cls-1" d="M2220.06,1669.93c.18,10.7,7,15.11,14.94,15.11a28.64,28.64,0,0,0,12.06-2.25l1.35,5.67a35.28,35.28,0,0,1-14.49,2.7c-13.41,0-21.42-8.82-21.42-22s7.74-23.49,20.43-23.49c14.22,0,18,12.51,18,20.52a29.87,29.87,0,0,1-.27,3.69Zm23.22-5.67c.09-5-2.07-12.87-11-12.87-8,0-11.52,7.38-12.15,12.87Z"/><line class="cls-2" x1="669.46" y1="1665.16" x2="1998.15" y2="1128.75"/><line class="cls-2" x1="647.54" y1="563.19" x2="1998.15" y2="1656.66"/></svg>